<?xml version="1.0" encoding="utf-8"?>
<!-- Generator: Adobe Illustrator 22.0.1, SVG Export Plug-In . SVG Version: 6.00 Build 0)  -->
<svg version="1.1" id="Layer_1" xmlns="http://www.w3.org/2000/svg" x="0px" y="0px"
	 viewBox="0 0 100 100" style="enable-background:new 0 0 100 100;" xml:space="preserve">
<g>
<path d="M45.0918 75.8659C59.7857 75.8659 71.7245 63.9365 71.7245 49.2541C71.7245 34.5718 59.7857 22.6424 45.0918 22.6424C30.3979 22.6424 18.4592 34.5718 18.4592 49.2541C18.4592 63.9365 30.3979 75.8659 45.0918 75.8659ZM45.0918 27.2306C57.2143 27.2306 67.1326 37.1412 67.1326 49.2541C67.1326 61.3671 57.2143 71.2777 45.0918 71.2777C32.9694 71.2777 23.051 61.3671 23.051 49.2541C23.051 37.1412 32.9694 27.2306 45.0918 27.2306Z" />
<path d="M45.0918 77.7012C28.653 77.7012 13.0408 83.8494 1.01022 95.1365C0.0918492 96.0541 1.21782e-05 97.5224 0.918381 98.44C1.74491 99.2659 3.2143 99.3577 4.04083 98.5318C15.2449 88.0706 29.7551 82.2894 45.0918 82.2894C60.4286 82.2894 74.8469 88.0706 86.1428 98.5318C87.0612 99.3577 88.4388 99.3577 89.2653 98.44C90.1837 97.5224 90.1837 96.0541 89.1735 95.1365C77.1428 83.9412 61.5306 77.7012 45.0918 77.7012Z" />
<path d="M85.3333 14.1935H98.1667C99.1545 14.1935 100 14.9655 100 16C100 17.0346 99.1545 17.8064 98.1667 17.8064H85.3333V30.1935C85.3333 31.2281 84.4878 32 83.5 32C82.5122 32 81.6667 31.2281 81.6667 30.1935V17.8064H68.8333C67.8455 17.8064 67 17.0346 67 16C67 14.9654 67.8455 14.1935 68.8333 14.1935H81.6667V1.80645C81.6667 0.771901 82.5122 0 83.5 0C84.4878 0 85.3333 0.771898 85.3333 1.80645V14.1935Z" />
</g>
</svg>
