<?xml version="1.0" encoding="utf-8"?>
<!-- Generator: Adobe Illustrator 19.0.0, SVG Export Plug-In . SVG Version: 6.00 Build 0)  -->
<svg version="1.1" id="Layer_1" xmlns="http://www.w3.org/2000/svg" xmlns:xlink="http://www.w3.org/1999/xlink" x="0px" y="0px"
	 width="100px" height="100px" viewBox="0 0 100 100" style="enable-background:new 0 0 100 100;" xml:space="preserve">
<g>
	<path d="M85.5,0.7H15.2c-1.1,0-2,0.9-2,2v64.7c0,0.3,0.1,0.5,0.3,0.7l32,30.9c0.2,0.2,0.4,0.3,0.7,0.3h39.3c1.1,0,2-0.9,2-2V2.7
		C87.5,1.6,86.6,0.7,85.5,0.7z M44.3,90.9L21.9,69.2h22c0.3,0,0.5,0.2,0.5,0.5V90.9z M82.5,94.3H49.3v-28c0-1.1-0.9-2-2-2H18.2V5.7
		h64.3V94.3z"/>
	<path d="M32.2,39h15.7v15.7c0,1.4,1.1,2.5,2.5,2.5s2.5-1.1,2.5-2.5V39h15.7c1.4,0,2.5-1.1,2.5-2.5S69.9,34,68.5,34H52.8V18.3
		c0-1.4-1.1-2.5-2.5-2.5s-2.5,1.1-2.5,2.5V34H32.2c-1.4,0-2.5,1.1-2.5,2.5S30.8,39,32.2,39z"/>
</g>
</svg>
