<?xml version="1.0" encoding="utf-8"?>
<!-- Generator: Adobe Illustrator 19.0.0, SVG Export Plug-In . SVG Version: 6.00 Build 0)  -->
<svg version="1.1" id="Layer_2" xmlns="http://www.w3.org/2000/svg" xmlns:xlink="http://www.w3.org/1999/xlink" x="0px" y="0px"
	 width="100px" height="100px" viewBox="0 0 100 100" style="enable-background:new 0 0 100 100;" xml:space="preserve">
<style type="text/css">
	.st0{display:none;fill:#F7F7F7;}
</style>
<rect x="5" y="5" class="st0" width="90" height="90"/>
<path d="M79.6,7.4c0-1.4-1.2-2.6-2.6-2.6H23c-1.4,0-2.6,1.2-2.6,2.6v75.3c0,1.4,1.2,2.6,2.6,2.6h0.4v8c0,1.4,1.2,2.6,2.6,2.6h0.4
	l4.9-1.7l4.8,1.7h0.4c1.4,0,2.6-1.2,2.6-2.6v-8l38,0c1.4,0,2.5-1.1,2.5-2.5V7.4z M74.6,25.5h-7.1V9.8h7.1V25.5z M67.5,30.5h7.1v27.3
	h-7L67.5,30.5L67.5,30.5z M62.5,57.8H25.4V30.5h37.1V57.8z M62.5,9.8v15.7H25.4V9.8H62.5z M34.1,89.9l-2.8-1l-2.9,1v-4.6h5.7V89.9z
	 M25.4,80.3V62.8h37.1v17.5H39.1H25.4z M67.5,80.3V62.8h7v17.5H67.5z"/>
</svg>
