<?xml version="1.0" encoding="utf-8"?>
<!-- Generator: Adobe Illustrator 19.0.0, SVG Export Plug-In . SVG Version: 6.00 Build 0)  -->
<svg version="1.1" id="Layer_1" xmlns="http://www.w3.org/2000/svg" xmlns:xlink="http://www.w3.org/1999/xlink" x="0px" y="0px"
	 width="100px" height="100px" viewBox="0 0 100 100" style="enable-background:new 0 0 100 100;" xml:space="preserve">
<g>
	<path d="M82.1,26.3c0.9-2.4,1-4.8,0.5-7.2c-0.8-3.4-2.9-6.4-5.8-8.4c-2-1.2-4.1-1.9-6.6-2c-1-0.1-2.1,0-3.4,0.3h-0.1
		c-2.4,0.6-4.4,1.7-6,3.2c-2.5-0.7-5.1-1.1-7.7-1.3V9.2h0.3c0.8,0,1.5-0.7,1.6-1.6c0-0.9-0.7-1.6-1.6-1.6h-6.6
		c-0.9,0-1.6,0.7-1.6,1.6s0.7,1.6,1.6,1.6H47v1.6c-2.6,0.2-5.2,0.6-7.7,1.2c-1.6-1.4-3.5-2.4-5.8-3h-0.1C32.1,8.8,31,8.8,30,8.8
		c-2.5,0.1-4.6,0.7-6.6,2c-2.9,2-5,5-5.8,8.4c-0.6,2.3-0.5,4.5,0.2,6.7C12,33,8.5,42.1,8.5,52c0,22.8,18.5,41.3,41.3,41.3
		S91.1,74.8,91.1,52C91.1,42.3,87.7,33.4,82.1,26.3z M67.8,13.9c0.8-0.2,1.5-0.2,2.1-0.2c1.6,0,2.9,0.4,4.2,1.2
		c1.9,1.4,3.2,3.3,3.7,5.5c0.1,0.5,0.2,0.9,0.2,1.4l-0.2-0.1c-3.3-3-7.1-5.5-11.2-7.4C67,14.2,67.3,14,67.8,13.9z M26.1,14.9
		c1.3-0.7,2.6-1.1,4.2-1.2c0.6,0,1.3,0,2.1,0.2c0.3,0.1,0.6,0.1,0.9,0.2c-4.1,1.8-7.8,4.2-11.1,7.1c0-0.3,0.1-0.6,0.2-1
		C22.9,18.1,24.2,16.2,26.1,14.9z M49.8,88.3c-20,0-36.3-16.3-36.3-36.3s16.3-36.3,36.3-36.3S86.1,32,86.1,52S69.8,88.3,49.8,88.3z"
		/>
	<path d="M75.9,53.7H49.5V27.2c0-1.4-1.1-2.5-2.5-2.5s-2.5,1.1-2.5,2.5v26.5c-1.4,0-2.5,1.1-2.5,2.5s1.1,2.5,2.5,2.5
		c0,1.4,1.1,2.5,2.5,2.5s2.5-1.1,2.5-2.5H76c1.4,0,2.5-1.1,2.5-2.5C78.4,54.8,77.3,53.7,75.9,53.7z"/>
</g>
</svg>
