<?xml version="1.0" encoding="utf-8"?>
<!-- Generator: Adobe Illustrator 19.0.0, SVG Export Plug-In . SVG Version: 6.00 Build 0)  -->
<svg version="1.1" id="Layer_2" xmlns="http://www.w3.org/2000/svg" xmlns:xlink="http://www.w3.org/1999/xlink" x="0px" y="0px"
	 width="100px" height="100px" viewBox="0 0 100 100" style="enable-background:new 0 0 100 100;" xml:space="preserve">
<path d="M80.9,78.6c-0.6-0.7-1-1.9-1-3.1c0-6.7,0-27,0.1-28.7v-0.6C80,28.5,68.9,13.7,54.2,11c-0.2-1.6-1-2.9-2.3-3.7
	c-1.6-1-3.5-1.1-5.2-0.2c-1.5,0.8-2.5,2.3-2.6,3.9c-14.4,3-25.2,17.9-25.2,35.4v29.1c0,0.9-0.5,2-1.5,3.1l-1.5,1.6
	c-0.8,0.8-1,1.9-0.6,2.8c0.4,1,1.4,1.6,2.4,1.6h22.7c0,0.3,0,0.7,0,1c0,5.9,3.9,10.7,8.6,10.7c4.8,0,8.6-4.7,8.6-10.7
	c0-0.3,0-0.7,0-1l22.9-0.1c1.3,0,2.6-1,2.6-2.7v-1L80.9,78.6z M49.2,11.6L49.2,11.6c0.1,0,0.1,0.1,0.1,0.3V12l-0.2-0.2
	C49.1,11.6,49.2,11.6,49.2,11.6z M49.1,91.5c-1.7,0-3.6-2.4-3.6-5.7c0-0.3,0-0.7,0.1-1h7.1c0,0.3,0.1,0.7,0.1,1
	C52.7,88.8,51,91.5,49.1,91.5z M54.6,79.8L54.6,79.8h-7.3h-3.7H22.7c0.8-1.4,1.2-2.8,1.2-4.2V46.5c0-16,10.3-29.5,23.4-30.8l1.7-0.2
	l2.2,0.2C64.6,16.7,75,30.1,75,46.2v0.3c-0.1,1.2-0.1,6-0.1,29c0,1.5,0.3,2.9,0.9,4.2L54.6,79.8z"/>
</svg>
