<?xml version="1.0" encoding="utf-8"?>
<!-- Generator: Adobe Illustrator 19.0.0, SVG Export Plug-In . SVG Version: 6.00 Build 0)  -->
<svg version="1.1" id="Layer_1" xmlns="http://www.w3.org/2000/svg" xmlns:xlink="http://www.w3.org/1999/xlink" x="0px" y="0px"
	 width="100px" height="100px" viewBox="0 0 100 100" style="enable-background:new 0 0 100 100;" xml:space="preserve">
<g>
	<path d="M84.7,78.5c-0.2,0.1-0.6,0.3-1.1,0.5c-0.5,0.2-0.9,0.4-1.2,0.5c-10.4,4-21,6-31.7,6c-16,0-30.9-4-44.5-11.9
		c-0.6-0.4-1-0.4-1.3,0.1c0,0.1-0.1,0.3-0.1,0.5c0,0.3,0.2,0.5,0.5,0.8c6,5.4,12.8,9.6,20.4,12.6c7.6,3,15.6,4.5,24.1,4.5
		c5.5,0,11.2-0.8,16.9-2.3c5.8-1.5,11-3.7,15.7-6.5c1.5-0.9,2.8-1.7,3.8-2.5c0.8-0.5,0.9-1.1,0.5-1.8C86.2,78.3,85.6,78.2,84.7,78.5
		z"/>
	<path d="M51.2,42L51.2,42l-0.1,0c-7.2,0-11.8,3.4-13.6,10c-0.9,3.1-0.7,5.8,0.3,8c1.1,2.4,3,4,5.7,4.7c0.4,0.1,0.7,0.1,0.9,0.1
		l0.4,0.1l0.3-0.1l0.2,0.1l0.5,0c3.4-0.1,6.3-1.5,9-4.2l0.1-0.1c1.2-1.4,2.2-2.7,3-4.1c0.8-1.3,1.5-2.7,1.9-4l0.4-1.5l0.1,0l1.9-7.1
		l-3.1-0.9C56.4,42.5,53.8,42.1,51.2,42z M53.6,50.9c-0.2,0.7-0.9,1.9-1.2,2.5c-0.6,1-1.2,2-2.1,2.9c-1.3,1.4-2.6,2-4.1,2.2
		c-0.2,0-0.5-0.1-0.8-0.1c0,0-0.1,0-0.1,0c-0.1,0-0.1,0-0.2,0c-0.7-0.3-1-0.7-1.2-1.1l-0.1-0.2c-0.4-0.7-0.3-2,0.1-3.5
		c1-3.8,3.1-5.3,7.4-5.3c0.8,0,1.8,0.1,3.1,0.3L53.6,50.9z"/>
	<path d="M48.1,31.8c-5.5,0.7-10.5,1.9-14.3,3.6c-4.5,1.8-8.1,4.6-10.6,8.4c-2.6,3.7-3.9,8.2-3.9,13.3c0,6.6,1.9,11.6,5.8,15.4
		c3.9,3.6,8.7,5.4,14.4,5.4c3.5,0,6.7-0.4,9.3-1.2c3.6-1.1,7.2-3.4,10.9-7.1c0.1,0.2,0.2,0.3,0.4,0.5c0.5,0.7,0.9,1.2,1.1,1.5
		c0,0.1,0.1,0.1,0.1,0.1l0.1,0.2c0.4,0.6,1,1.2,1.9,2.1c0.7,0.9,1.5,1.6,2.5,2.5l0.5,0.4l0.6,0.2c1.7,0.6,3.4,0.2,4.6-0.9
		c0.2-0.2,1.3-1.1,2.5-2.2c1.5-1.3,3.8-3.2,6.6-5.7c1-0.7,1.6-1.7,1.6-2.9c0-0.9-0.3-1.8-1-2.7l-0.1-0.1c-0.6-0.7-1.1-1.4-1.5-1.9
		c-0.3-0.4-0.6-0.8-0.8-1.1c-0.4-0.6-0.9-1.7-1.4-3c-0.5-1.2-0.7-2.6-0.7-4.4V26.7c0-0.9,0-1.8-0.1-2.8c-0.1-1.4-0.2-2.1-0.3-2.6
		l-0.1-0.6c0-0.2-0.1-0.4-0.2-0.6c-0.1-0.5-0.3-1-0.5-1.8c-0.3-1.3-0.6-2.1-0.8-2.6l-0.2-0.5c-0.3-0.6-0.6-1.1-1-1.6
		c-0.2-0.2-0.3-0.5-0.5-0.7c-0.7-1-1.5-1.8-2.2-2.6l-0.1-0.1C66,5.9,59.3,3.6,50.8,3.6h-2.6l-0.1,0C41.8,3.9,35.9,5.8,31,8.9
		c-5,3.2-8.1,8-9.5,14.6c-0.2,0.5-0.3,0.9-0.3,1.3v1.3l0.9,0.9c0.4,0.4,1,0.8,1.8,1l0.3,0.1l13,1.7l0.9-0.4c0.9-0.4,2-1.4,2.4-3.5
		c0.4-1.8,1.2-3.1,2.6-4.2l0.1-0.1c1.3-1,2.9-1.6,5-1.9h0.9c3.4,0,4.8,1.3,5.6,2.5l0,0c0.8,1.1,1.2,3.9,1.2,8.3v0.2
		C52.5,31.3,49.9,31.5,48.1,31.8z M60,18.8c-2.4-3.5-6.1-5.2-10.9-5.2h-0.9l-0.4,0c-3.3,0.3-6.2,1.4-8.5,3.2
		c-2.2,1.7-3.7,3.8-4.6,6.4l-6.2-0.8c1.2-3.6,3.1-6.2,6-8c3.9-2.5,8.7-4,13.8-4.3h2.5c6.7,0,11.9,1.6,15.4,4.9c0.5,0.5,1,1,1.4,1.5
		c0.2,0.3,0.4,0.6,0.6,0.9c0.2,0.2,0.4,0.5,0.5,0.7c0,0.1,0.1,0.2,0.1,0.3c0.1,0.3,0.3,0.7,0.4,1.3c0.2,1,0.4,1.8,0.6,2.3
		c0,0.1,0,0.2,0.1,0.2c0,0,0,0,0,0.1c0,0.2,0.1,0.8,0.2,2.2c0.1,0.8,0.1,1.6,0.1,2.3v25.5c0,2.6,0.4,4.7,1.1,6.7
		c0.7,1.9,1.3,3.3,2.2,4.5l0.1,0.1c0.2,0.2,0.4,0.5,0.7,0.9c0.1,0.1,0.2,0.3,0.3,0.4c-2,1.7-3.6,3.1-4.9,4.2c-0.5,0.4-0.9,0.8-1.2,1
		c-0.1-0.1-0.2-0.3-0.4-0.4l-0.2-0.2c-0.4-0.4-1-1-1.1-1.1c-0.2-0.3-0.3-0.5-0.5-0.7c-0.2-0.3-0.5-0.7-1-1.3l-0.1-0.1
		c-0.7-1-1.2-1.7-1.4-2l-3.7-4.6l-3.8,4.2c-3.4,3.6-6.5,5.9-9.4,6.7c-2,0.6-4.6,0.9-7.5,0.9c-4.1,0-7.4-1.2-10-3.6
		c-2.6-2.5-3.8-5.9-3.8-10.7c0-3.8,0.9-7,2.8-9.7c1.8-2.7,4.4-4.7,7.8-6.1c3.4-1.4,7.7-2.5,12.7-3.1c1.8-0.2,4.9-0.5,9.2-0.8
		l4.4-0.4v-6.2C62.4,24.8,61.7,21.2,60,18.8z"/>
	<path d="M94.5,72.9c-0.5-0.6-2-1-4.4-1.2c-0.5-0.1-1-0.1-1.6-0.1c-2,0.1-4,0.4-6.1,0.9c-1.3,0.3-2.6,1-3.9,1.9
		c-0.2,0.2-0.4,0.4-0.5,0.7c-0.1,0.1-0.1,0.2-0.1,0.2c-0.1,0.1,0,0.2,0.1,0.3c0.1,0.1,0.3,0.2,0.7,0.2c1.1-0.2,2.4-0.3,3.8-0.5
		c1.3-0.1,2.3-0.2,3.3-0.2c2.5,0,4,0.3,4.6,1c0.2,0.3,0.3,0.7,0.3,1.3c0,1.9-1,5.2-3,9.9c-0.2,0.4-0.1,0.7,0.2,0.9
		c0.1,0.1,0.2,0.1,0.3,0.1c0.2,0,0.5-0.1,0.7-0.3c1.9-1.6,3.3-3.7,4.3-6.3c1-2.6,1.6-4.8,1.6-6.8v-0.6
		C94.8,73.8,94.7,73.3,94.5,72.9z"/>
</g>
</svg>
