<?xml version="1.0" encoding="utf-8"?>
<!-- Generator: Adobe Illustrator 19.0.0, SVG Export Plug-In . SVG Version: 6.00 Build 0)  -->
<svg version="1.1" id="Layer_1" xmlns="http://www.w3.org/2000/svg" xmlns:xlink="http://www.w3.org/1999/xlink" x="0px" y="0px"
	 width="100px" height="100px" viewBox="-74 0 100 100" style="enable-background:new -74 0 100 100;" xml:space="preserve">
<g>
	<path d="M21.8,78.9h-91.4c-1.4,0-2.5-1.1-2.5-2.5V23.7c0-1.4,1.1-2.5,2.5-2.5h91.4c1.4,0,2.5,1.1,2.5,2.5v52.6
		C24.3,77.7,23.1,78.9,21.8,78.9z M-67.1,73.9h86.4V26.2h-86.4V73.9z"/>
</g>
<g id="XMLID_17_">
	<path d="M-55.8,55.9h8.3l1.2,4.7h3.2h0.2h3.2V42.8h0.4l5.1,16.8h3.7l5.1-16.8h0.4v17.7h3.5V38.8h-6.1l-4.9,16.8l-4.9-16.8h-6.1
		v20.3l-5-20.3h-7l-5.3,21.6h3.5L-55.8,55.9z M-52.5,41.8h1.6l2.7,11h-6.9L-52.5,41.8z"/>
</g>
<g id="XMLID_20_">
	<path d="M-0.5,60.4h0.2l4.8-8.1l4.7,8.1H13L6.6,49.8l6.4-11H9.2l-4.7,8.5l-4.7-8.5h-0.4h-3.5h-14.1v21.6h14.1H-0.5z M-14.6,51.1
		h8.2v-3h-8.2V42h12.3l4.7,8.1l-4.5,7.3h-12.4V51.1z"/>
</g>
</svg>
