<?xml version="1.0" encoding="utf-8"?>
<!-- Generator: Adobe Illustrator 19.0.0, SVG Export Plug-In . SVG Version: 6.00 Build 0)  -->
<svg version="1.1" id="Layer_2" xmlns="http://www.w3.org/2000/svg" xmlns:xlink="http://www.w3.org/1999/xlink" x="0px" y="0px"
	 width="100px" height="100px" viewBox="0 0 100 100" style="enable-background:new 0 0 100 100;" xml:space="preserve">
<path d="M87.4,56.1l-12.3-5.2c-1-0.4-2.2,0.1-2.6,1.1l-5.2,12.3c-0.5,1.3,0.1,2.7,1.3,3.3l0,0c1.3,0.5,2.7-0.1,3.3-1.3l2.7-6.5
	c1,2.8,1.6,5.8,1.6,8.9c0,13.6-10.5,24.8-23.8,26.1V30.5h17.8c1.4,0,2.5-1.1,2.5-2.5v0c0-1.4-1.1-2.5-2.5-2.5H52.4v-5
	c5.1-1.3,8.7-6.3,7.7-11.9C59.4,4.4,56,1,51.9,0.3C45.3-1,39.5,4.1,39.5,10.5c0,4.9,3.4,8.9,7.9,10.1v5H29.8c-1.4,0-2.5,1.1-2.5,2.5
	v0c0,1.4,1.1,2.5,2.5,2.5h17.5v64.2c-13.2-1.3-23.5-12.5-23.5-26c0-3.1,0.5-6,1.5-8.9l2.7,6.5c0.5,1.3,2,1.9,3.3,1.3l0,0
	c1.3-0.5,1.9-2,1.3-3.3L27.5,52c-0.4-1-1.6-1.5-2.6-1.1l-12.3,5.2c-1.3,0.5-1.9,2-1.3,3.3l0,0c0.5,1.3,2,1.9,3.3,1.3l6.1-2.6
	c-1.2,3.3-1.8,6.7-1.8,10.2C18.7,84.8,31.6,98.8,48,99.8c18.1,1.1,33.1-13.3,33.1-31.1c0-3.6-0.6-7.1-1.8-10.5l6.1,2.6
	c1.3,0.5,2.7-0.1,3.3-1.3l0,0C89.2,58.1,88.6,56.6,87.4,56.1z M44.5,10.5c0-3,2.4-5.4,5.4-5.4s5.4,2.4,5.4,5.4s-2.4,5.4-5.4,5.4
	S44.5,13.4,44.5,10.5z"/>
</svg>
