<?xml version="1.0" encoding="utf-8"?>
<!-- Generator: Adobe Illustrator 19.0.0, SVG Export Plug-In . SVG Version: 6.00 Build 0)  -->
<svg version="1.1" id="Layer_1" xmlns="http://www.w3.org/2000/svg" xmlns:xlink="http://www.w3.org/1999/xlink" x="0px" y="0px"
	 width="100px" height="100px" viewBox="-74 0 100 100" style="enable-background:new -74 0 100 100;" xml:space="preserve">
<g>
	<path d="M-4.3,13.4L-4.3,13.4c-0.8-0.8-1.6-1.5-2.6-2.3l1.4-2.9L-5.4,8c0.8-2.1-0.2-4.4-2.3-5.2c-1-0.4-2-0.4-3,0
		c-1,0.4-1.8,1.2-2.2,2.1l-1.1,2.3c-3.1-1.1-6.5-1.7-10-1.7c-3.8,0-7.2,0.6-10.4,1.7L-35.4,5c-0.4-1-1.2-1.7-2.2-2.1
		c-0.9-0.4-2-0.4-3,0c-2.1,0.8-3.1,3.1-2.3,5.2l1.5,3.1c-6.2,4.8-8.8,11.5-9.2,16.2l0.1,48.2c0,1.4,1.1,2.5,2.5,2.5h3.5l0,10.8
		c0,1.7,0.4,3.3,1.3,4.7c1.8,2.9,5.1,4.3,8.3,3.9c4.2-0.6,7.4-4.3,7.4-8.7V78.1h7v10.8c0,4.3,3.2,8.1,7.4,8.7
		c0.4,0.1,0.8,0.1,1.1,0.1c2,0,4-0.7,5.6-2.1c1.8-1.6,2.9-3.9,2.9-6.4V78.1H0c1.4,0,2.5-1.1,2.5-2.5V33.7v-4.1v-2.2l0-0.2
		C2.1,23.6,0.2,18.1-4.3,13.4z M-45.6,27.7c0.4-4.2,3.2-10,8.8-13.6l1.8-1.2l0.6-0.3c3.1-1.5,6.6-2.2,10.5-2.2
		c3.7,0,7.1,0.7,10.1,2.2l1.4,0.7l0.9,0.6c1.3,0.9,2.6,1.9,3.5,2.9c3.5,3.7,5.1,8,5.4,10.7v1.2h-43.2L-45.6,27.7z M-2.5,73.1H-6
		c-1.4,0-2.5,1.1-2.5,2.5v13.6c0,1-0.4,1.9-1.2,2.6c-0.8,0.7-1.7,1-2.8,0.8c-1.7-0.2-3-1.9-3-3.7V75.6c0-1.4-1.1-2.5-2.5-2.5h-12
		c-1.4,0-2.5,1.1-2.5,2.5v13.2c0,1.9-1.3,3.5-3,3.7c-1,0.1-1.9-0.1-2.7-0.8c-0.7-0.6-1.2-1.9-1.2-2.8l0-13.3c0-1.4-1.1-2.5-2.5-2.5
		h-3.5V34.6h43V73.1z"/>
	<path d="M-61.5,29.6c-5.6,0-10,4.4-10,10v21c0,5.6,4.4,10,10,10s10-4.4,10-10v-21C-51.5,34-55.9,29.6-61.5,29.6z M-56.5,60.6
		c0,2.8-2.2,5-5,5s-5-2.2-5-5v-21c0-2.8,2.2-5,5-5s5,2.2,5,5V60.6z"/>
	<path d="M13.5,29.6c-5.6,0-10,4.4-10,10v21c0,5.6,4.4,10,10,10s10-4.4,10-10v-21C23.5,34,19.1,29.6,13.5,29.6z M18.5,60.6
		c0,2.8-2.2,5-5,5s-5-2.2-5-5v-21c0-2.8,2.2-5,5-5s5,2.2,5,5V60.6z"/>
	<path d="M-29.8,18.3h-3c-0.5,0-1,0.4-1,1v2c0,0.5,0.4,1,1,1h3c0.5,0,1-0.4,1-1v-2C-28.8,18.7-29.2,18.3-29.8,18.3z"/>
	<path d="M-15.8,18.3h-3c-0.5,0-1,0.4-1,1v2c0,0.5,0.4,1,1,1h3c0.5,0,1-0.4,1-1v-2C-14.8,18.7-15.2,18.3-15.8,18.3z"/>
</g>
</svg>
