<?xml version="1.0" encoding="utf-8"?>
<!-- Generator: Adobe Illustrator 19.0.0, SVG Export Plug-In . SVG Version: 6.00 Build 0)  -->
<svg version="1.1" id="Layer_2" xmlns="http://www.w3.org/2000/svg" xmlns:xlink="http://www.w3.org/1999/xlink" x="0px" y="0px"
	 width="100px" height="100px" viewBox="-909 226 100 100" style="enable-background:new -909 226 100 100;" xml:space="preserve">
<g>
	<path d="M-847.6,277.3c0.8-0.8,0.8-2,0-2.8l-46.9-46.9c-1-1-2.6-1-3.5,0c-0.9,1-1,2.6,0,3.5l44.7,44.8l-44.8,44.8c-1,1-1,2.6,0,3.5
		s2.6,1,3.5,0L-847.6,277.3z"/>
	<path d="M-870.1,231.1l44.8,44.8l-44.8,44.8c-1,1-1,2.6,0,3.5s2.6,1,3.5,0l46.9-46.9c0.8-0.8,0.8-2,0-2.8l-46.9-46.9
		c-1-1-2.6-1-3.5,0S-871,230.1-870.1,231.1z"/>
</g>
</svg>
