<?xml version="1.0" encoding="utf-8"?>
<!-- Generator: Adobe Illustrator 19.0.0, SVG Export Plug-In . SVG Version: 6.00 Build 0)  -->
<svg version="1.1" id="Layer_1" xmlns="http://www.w3.org/2000/svg" xmlns:xlink="http://www.w3.org/1999/xlink" x="0px" y="0px"
	 width="100px" height="100px" viewBox="0 0 100 100" style="enable-background:new 0 0 100 100;" xml:space="preserve">
<g>
	<path d="M48.6,61.3c0.8,0.8,2,0.8,2.8,0l46.9-46.9c1-1,1-2.6,0-3.5s-2.6-1-3.5,0L50,55.6L5.2,10.8c-1-1-2.6-1-3.5,0s-1,2.6,0,3.5
		L48.6,61.3z"/>
	<path d="M94.8,38.8L50,83.6L5.2,38.8c-1-1-2.6-1-3.5,0s-1,2.6,0,3.5l46.9,46.9c0.8,0.8,2,0.8,2.8,0l46.9-46.9c1-1,1-2.6,0-3.5
		S95.8,37.9,94.8,38.8z"/>
</g>
</svg>
