<?xml version="1.0" encoding="utf-8"?>
<!-- Generator: Adobe Illustrator 19.0.0, SVG Export Plug-In . SVG Version: 6.00 Build 0)  -->
<svg version="1.1" id="Layer_1" xmlns="http://www.w3.org/2000/svg" xmlns:xlink="http://www.w3.org/1999/xlink" x="0px" y="0px"
	 width="100px" height="100px" viewBox="-74 0 100 100" style="enable-background:new -74 0 100 100;" xml:space="preserve">
<g>
	<path d="M-25.4,31.5h0.2l1-0.1l0,0c1.7-0.2,10.2-1.4,16.1-7.6c4.3-4.6,6.4-10.6,6-18V4.9c0-1-0.4-2-1.2-2.6
		c-0.8-0.6-1.8-0.9-2.8-0.8l-0.8,0.1l0,0C-9.5,2-27.8,5.4-29.1,26.8l0,1C-29.1,29.9-27.4,31.5-25.4,31.5z M-7.1,6.7
		C-6.7,22.9-20.6,25.8-24,26.3C-22.6,10.7-10.2,7.3-7.1,6.7z"/>
	<path d="M10.9,72.5C4,69.6-0.4,63-0.4,55.5c0-6.5,3.3-12.3,8.8-15.7l2.5-1.5L9,36.1c-3-3.6-6.7-6-10.9-7.1
		c-6.7-1.6-14.2,0-22.4,4.9c-3.1-2-14.5-8.5-23.5-2.6l-0.1,0l0,0c-1.7,0.9-20.2,11.7-10.6,41.9l0.1,0.2c0.3,0.7,7.1,16.5,14.9,22.4
		l0.4,0.3c3.7,3,8.5,2.9,12.8,0l0.1-0.1c0.7-0.3,4.2-1.7,8.1-1.7c1.7,0,4.3,0.3,6.5,1.9c2,1.4,4.7,2.4,7.3,2.4
		c2.3,0,4.5-0.8,6.4-2.7l0.1-0.1l0,0c1-0.8,2.6-2.3,5.1-5.3c2.6-3.1,6.3-8.2,8.8-14.6l0.9-2.3L10.9,72.5z M-4.4,91.4h-0.1l-0.9,0.9
		c-2.6,2.7-6.9,0-7.3-0.3c-2.6-1.8-5.8-2.8-9.3-2.8c-5.6,0-10.4,2.2-10.4,2.3l-0.6,0.4c-2.5,1.8-4.8,1.9-6.8,0.3l-0.4-0.4
		c-6.5-4.7-12.8-18.9-13.4-20.3c-8.7-27.3,7.8-35.6,7.9-35.7l0.6-0.3c6.7-4.5,17,1.8,18.2,2.6l2.5,1.7l2.4-1.4
		c7-4.2,13.6-5.8,18.9-4.5c2.4,0.6,4.5,1.8,6.4,3.4c-5.5,4.4-8.7,11-8.7,18.2c0,8.6,4.7,16.4,12.1,20.5C2.9,84.2-2.7,89.8-4.4,91.4z
		"/>
</g>
</svg>
