<?xml version="1.0" encoding="utf-8"?>
<!-- Generator: Adobe Illustrator 19.0.0, SVG Export Plug-In . SVG Version: 6.00 Build 0)  -->
<svg version="1.1" id="Layer_2" xmlns="http://www.w3.org/2000/svg" xmlns:xlink="http://www.w3.org/1999/xlink" x="0px" y="0px"
	 width="100px" height="100px" viewBox="0 0 100 100" style="enable-background:new 0 0 100 100;" xml:space="preserve">
<g>
	<path d="M91.1,12.6H10.3c-2,0-3.5,1.5-3.5,3.5v11.3c0,2,1.5,3.5,3.5,3.5h2v55.3c0,2,1.5,3.5,3.5,3.5h69.7c2,0,3.5-1.5,3.5-3.5V30.9
		h2.1c1.9,0,3.5-1.6,3.5-3.5V16.1C94.6,14.1,93.1,12.6,91.1,12.6z M84,84.7H17.3V30.9H84V84.7z M89.6,25.9h-4.1H15.8h-4v-8.3h77.8
		C89.6,17.6,89.6,25.9,89.6,25.9z"/>
	<path d="M32.6,63.1h36.1c2,0,3.5-1.5,3.5-3.5v-9c0-2-1.5-3.5-3.5-3.5H32.6c-1.9,0-3.5,1.6-3.5,3.5v9C29.1,61.6,30.6,63.1,32.6,63.1
		z M34.1,52.1h33.1v6H34.1V52.1z"/>
</g>
</svg>
