<?xml version="1.0" encoding="utf-8"?>
<!-- Generator: Adobe Illustrator 19.0.0, SVG Export Plug-In . SVG Version: 6.00 Build 0)  -->
<svg version="1.1" id="Layer_2" xmlns="http://www.w3.org/2000/svg" xmlns:xlink="http://www.w3.org/1999/xlink" x="0px" y="0px"
	 width="100px" height="100px" viewBox="0 0 100 100" style="enable-background:new 0 0 100 100;" xml:space="preserve">
<path d="M62.4,13.2L62.4,13.2c0,1.4,1.1,2.5,2.5,2.5h16.4L12.6,84.3c-1,1-1,2.6,0,3.6l0,0c1,1,2.6,1,3.6,0l68.6-68.7v16.4
	c0,1.4,1.1,2.5,2.5,2.5l0,0c1.4,0,2.5-1.1,2.5-2.5V12.7c0-1.1-0.9-2-2-2H64.9C63.5,10.7,62.4,11.8,62.4,13.2z"/>
</svg>
