<?xml version="1.0" encoding="utf-8"?>
<!-- Generator: Adobe Illustrator 21.0.0, SVG Export Plug-In . SVG Version: 6.00 Build 0)  -->
<svg version="1.1" id="Layer_1" xmlns="http://www.w3.org/2000/svg" xmlns:xlink="http://www.w3.org/1999/xlink" x="0px" y="0px"
	 viewBox="0 0 100 100" style="enable-background:new 0 0 100 100;" xml:space="preserve">
<g>
	<path d="M71.5,36.4c-1,1-1,2.6,0,3.5l7.7,7.6H14.6c-1.4,0-2.5,1.1-2.5,2.5s1.1,2.5,2.5,2.5h64.6l-7.7,7.6c-1,1-1,2.6,0,3.5l0,0
		c1,1,2.6,1,3.5,0l12.9-13c0.4-0.4,0.4-1,0-1.4L75,36.2C74.1,35.4,72.5,35.4,71.5,36.4L71.5,36.4z"/>
	<path d="M50,1C23,1,1,23,1,50s22,49,49,49s49-22,49-49S77,1,50,1z M50,94C25.7,94,6,74.3,6,50S25.7,6,50,6s44,19.7,44,44
		S74.3,94,50,94z"/>
</g>
</svg>
