<?xml version="1.0" encoding="utf-8"?>
<!-- Generator: Adobe Illustrator 21.0.0, SVG Export Plug-In . SVG Version: 6.00 Build 0)  -->
<svg version="1.1" id="Layer_2" xmlns="http://www.w3.org/2000/svg" xmlns:xlink="http://www.w3.org/1999/xlink" x="0px" y="0px"
	 viewBox="0 0 100 100" style="enable-background:new 0 0 100 100;" xml:space="preserve">
<path d="M50.7,99.2l13-12.9c1-1,1-2.6,0-3.5c-1-1-2.6-1-3.5,0l-7.6,7.7V9.4l7.6,7.7c0.9,1,2.5,1,3.5,0c1-0.9,1-2.5,0-3.5l-13-12.9
	c-0.4-0.4-1-0.4-1.4,0l-13,12.9c-1,0.9-1,2.5,0,3.5c0.9,1,2.5,1,3.5,0l7.6-7.7v81.1l-7.6-7.7c-1-1-2.6-1-3.5,0c-1,1-1,2.6,0,3.5
	l13,12.9C49.7,99.6,50.3,99.6,50.7,99.2z"/>
</svg>
