<?xml version="1.0" encoding="utf-8"?>
<!-- Generator: Adobe Illustrator 21.0.0, SVG Export Plug-In . SVG Version: 6.00 Build 0)  -->
<svg version="1.1" id="Layer_1" xmlns="http://www.w3.org/2000/svg" xmlns:xlink="http://www.w3.org/1999/xlink" x="0px" y="0px"
	 viewBox="0 0 100 100" style="enable-background:new 0 0 100 100;" xml:space="preserve">
<path d="M99.2,49.3l-12.9-13c-1-1-2.6-1-3.5,0c-1,1-1,2.6,0,3.5l7.7,7.6H9.4l7.7-7.6c1-0.9,1-2.5,0-3.5c-0.9-1-2.5-1-3.5,0l-12.9,13
	c-0.4,0.4-0.4,1,0,1.4l12.9,13c0.9,1,2.5,1,3.5,0c1-0.9,1-2.5,0-3.5l-7.7-7.6h81.1l-7.7,7.6c-1,1-1,2.6,0,3.5c1,1,2.6,1,3.5,0
	l12.9-13C99.6,50.3,99.6,49.7,99.2,49.3z"/>
</svg>
