<?xml version="1.0" encoding="utf-8"?>
<!-- Generator: Adobe Illustrator 21.0.0, SVG Export Plug-In . SVG Version: 6.00 Build 0)  -->
<svg version="1.1" id="Layer_1" xmlns="http://www.w3.org/2000/svg" xmlns:xlink="http://www.w3.org/1999/xlink" x="0px" y="0px"
	 viewBox="0 0 100 100" style="enable-background:new 0 0 100 100;" xml:space="preserve">
<g>
	<path d="M36.5,28.6c1,1,2.6,1,3.5,0l7.6-7.7v64.6c0,1.4,1.1,2.5,2.5,2.5s2.5-1.1,2.5-2.5V20.9l7.6,7.7c1,1,2.6,1,3.5,0l0,0
		c1-1,1-2.6,0-3.5l-13-12.9c-0.4-0.4-1-0.4-1.4,0l-13,12.9C35.5,26,35.5,27.6,36.5,28.6L36.5,28.6z"/>
	<path d="M50,1C23,1,1,23,1,50s22,49,49,49s49-22,49-49S77,1,50,1z M50,94C25.7,94,6,74.3,6,50S25.7,6,50,6s44,19.7,44,44
		S74.3,94,50,94z"/>
</g>
</svg>
