<?xml version="1.0" encoding="utf-8"?>
<!-- Generator: Adobe Illustrator 21.0.0, SVG Export Plug-In . SVG Version: 6.00 Build 0)  -->
<svg version="1.1" id="Layer_1" xmlns="http://www.w3.org/2000/svg" xmlns:xlink="http://www.w3.org/1999/xlink" x="0px" y="0px"
	 viewBox="0 0 100 100" style="enable-background:new 0 0 100 100;" xml:space="preserve">
<g>
	<path d="M27.8,62.7c1-1,1-2.6,0-3.5l-7.7-7.6h64.6c1.4,0,2.5-1.1,2.5-2.5s-1.1-2.5-2.5-2.5H20.1l7.7-7.6c1-1,1-2.6,0-3.5l0,0
		c-1-1-2.6-1-3.5,0l-12.9,13c-0.4,0.4-0.4,1,0,1.4l12.9,13C25.2,63.7,26.8,63.7,27.8,62.7L27.8,62.7z"/>
	<path d="M49,0.1c-27,0-49,22-49,49s22,49,49,49s49-22,49-49S76,0.1,49,0.1z M49,93.2c-24.3,0-44-19.7-44-44s19.7-44,44-44
		s44,19.7,44,44S73.3,93.2,49,93.2z"/>
</g>
</svg>
