<?xml version="1.0" encoding="utf-8"?>
<!-- Generator: Adobe Illustrator 19.0.0, SVG Export Plug-In . SVG Version: 6.00 Build 0)  -->
<svg version="1.1" id="Layer_1" xmlns="http://www.w3.org/2000/svg" xmlns:xlink="http://www.w3.org/1999/xlink" x="0px" y="0px"
	 width="100px" height="100px" viewBox="0 0 100 100" style="enable-background:new 0 0 100 100;" xml:space="preserve">
<path d="M60.1,77.9l-7.6,7.7V12c0-1.4-1.1-2.5-2.5-2.5h0c-1.4,0-2.5,1.1-2.5,2.5v73.6l-7.6-7.7c-1-1-2.6-1-3.5,0l0,0
	c-1,1-1,2.6,0,3.5l12.3,12.2c0.8,0.8,2,0.8,2.8,0l12.3-12.2c1-1,1-2.6,0-3.5l0,0C62.7,76.9,61.1,76.9,60.1,77.9z"/>
</svg>
