<?xml version="1.0" encoding="utf-8"?>
<!-- Generator: Adobe Illustrator 19.0.0, SVG Export Plug-In . SVG Version: 6.00 Build 0)  -->
<svg version="1.1" id="Layer_1" xmlns="http://www.w3.org/2000/svg" xmlns:xlink="http://www.w3.org/1999/xlink" x="0px" y="0px"
	 width="100px" height="100px" viewBox="-256 379.9 100 100" style="enable-background:new -256 379.9 100 100;"
	 xml:space="preserve">
<path d="M-220.3,390.6h-22.9c-1.1,0-2,0.9-2,2v22.9c0,1.4,1.1,2.5,2.5,2.5l0,0c1.4,0,2.5-1.1,2.5-2.5v-16.4l68.6,68.7
	c1,1,2.6,1,3.6,0l0,0c1-1,1-2.6,0-3.6l-68.7-68.6h16.4c1.4,0,2.5-1.1,2.5-2.5l0,0C-217.8,391.7-218.8,390.6-220.3,390.6z"/>
</svg>
