<?xml version="1.0" encoding="utf-8"?>
<!-- Generator: Adobe Illustrator 19.0.0, SVG Export Plug-In . SVG Version: 6.00 Build 0)  -->
<svg version="1.1" id="Layer_1" xmlns="http://www.w3.org/2000/svg" xmlns:xlink="http://www.w3.org/1999/xlink" x="0px" y="0px"
	 width="100px" height="100px" viewBox="0 0 100 100" style="enable-background:new 0 0 100 100;" xml:space="preserve">
<g>
	<path d="M53.3,74.6V24c0-1.4-1.1-2.5-2.5-2.5h0c-1.4,0-2.5,1.1-2.5,2.5v50.6l-7.6-7.7c-1-1-2.6-1-3.5,0l0,0c-1,1-1,2.6,0,3.5
		l12.3,12.2c0.8,0.8,2,0.8,2.8,0l12.3-12.2c1-1,1-2.6,0-3.5l0,0c-1-1-2.6-1-3.5,0L53.3,74.6z"/>
	<path d="M50.8,6.8c-24.5,0-44.5,20-44.5,44.5s20,44.5,44.5,44.5s44.5-20,44.5-44.5S75.3,6.8,50.8,6.8z M50.8,90.8
		c-21.8,0-39.5-17.7-39.5-39.5S29,11.8,50.8,11.8s39.5,17.7,39.5,39.5S72.6,90.8,50.8,90.8z"/>
</g>
</svg>
