<?xml version="1.0" encoding="utf-8"?>
<!-- Generator: Adobe Illustrator 19.0.0, SVG Export Plug-In . SVG Version: 6.00 Build 0)  -->
<svg version="1.1" id="Layer_2" xmlns="http://www.w3.org/2000/svg" xmlns:xlink="http://www.w3.org/1999/xlink" x="0px" y="0px"
	 width="100px" height="100px" viewBox="-256 379.9 100 100" style="enable-background:new -256 379.9 100 100;"
	 xml:space="preserve">
<path d="M-171,394.9c-9.3-9.3-21.7-14.5-34.7-14.5c-0.1,0-0.2,0-0.3,0c-13.3,0.1-25.7,5.2-35,14.5c-9.3,9.3-14.5,21.8-14.5,35
	c0,13.3,5.1,25.8,14.4,35.1c9.3,9.3,21.8,14.5,35,14.5c13.3,0,25.8-5.1,35.1-14.5c9.4-9.4,14.5-21.8,14.4-35.1
	C-156.4,416.7-161.6,404.3-171,394.9z M-250.4,429.9c0-11.9,4.6-23,13-31.4c8.3-8.3,19.5-12.9,31.5-13c0.1,0,0.2,0,0.3,0
	c10.9,0,21.2,4,29.3,11.3l-62.9,62.8C-246.5,451.4-250.4,441-250.4,429.9z M-174.5,461.4c-8.4,8.4-19.6,13-31.6,13
	c-11,0-21.5-4-29.6-11.3l62.9-62.9c7.4,8.2,11.4,18.6,11.3,29.6v0C-161.5,441.8-166,453-174.5,461.4z"/>
</svg>
