<?xml version="1.0" encoding="utf-8"?>
<!-- Generator: Adobe Illustrator 21.0.0, SVG Export Plug-In . SVG Version: 6.00 Build 0)  -->
<svg version="1.1" id="Layer_2" xmlns="http://www.w3.org/2000/svg" xmlns:xlink="http://www.w3.org/1999/xlink" x="0px" y="0px"
	 viewBox="0 0 100 100" style="enable-background:new 0 0 100 100;" xml:space="preserve">
<path d="M94,95V38.8c0-1.4-1.1-2.5-2.5-2.5H75.3c-1.4,0-2.5,1.1-2.5,2.5V95H64V28.8c0-1.4-1.1-2.5-2.5-2.5H45.3
	c-1.4,0-2.5,1.1-2.5,2.5V95H34V18.8c0-1.4-1.1-2.5-2.5-2.5H15.3c-1.4,0-2.5,1.1-2.5,2.5V95h-7V2.5C5.8,1.1,4.6,0,3.3,0h0
	C1.9,0,0.8,1.1,0.8,2.5V100h95.8c1.4,0,2.5-1.1,2.5-2.5l0,0c0-1.4-1.1-2.5-2.5-2.5H94z M17.8,95V22.3c0-0.6,0.4-1,1-1H28
	c0.6,0,1,0.4,1,1V95H17.8z M47.8,95V32.3c0-0.6,0.4-1,1-1H58c0.6,0,1,0.4,1,1V95H47.8z M77.8,95V42.3c0-0.6,0.4-1,1-1H88
	c0.6,0,1,0.4,1,1V95H77.8z"/>
</svg>
