<?xml version="1.0" encoding="utf-8"?>
<!-- Generator: Adobe Illustrator 21.0.0, SVG Export Plug-In . SVG Version: 6.00 Build 0)  -->
<svg version="1.1" id="Layer_1" xmlns="http://www.w3.org/2000/svg" xmlns:xlink="http://www.w3.org/1999/xlink" x="0px" y="0px"
	 viewBox="0 0 100 100" style="enable-background:new 0 0 100 100;" xml:space="preserve">
<path d="M91.8,22.7c-0.9-1.4-1.9-2.7-2.9-4c-3-3.7-6.5-7-10.4-9.7c-1.4-0.9-2.8-1.8-4.2-2.6c-7.1-4-15.4-6.2-24.1-6.2
	S33.2,2.4,26.1,6.4c-1.5,0.8-2.9,1.7-4.2,2.6c-4,2.8-7.6,6.2-10.7,10c-1,1.3-2,2.7-2.9,4.1c-5,7.8-7.9,17-7.9,26.9
	c0,9.6,2.7,18.5,7.4,26.1c0.9,1.4,1.8,2.8,2.8,4.1c3.2,4.1,7,7.8,11.3,10.7c1.4,0.9,2.8,1.8,4.2,2.6c7.1,4,15.4,6.2,24.1,6.2
	c8.7,0,16.9-2.3,24.1-6.2c1.5-0.8,2.9-1.7,4.2-2.6c4.2-2.9,7.8-6.4,11-10.4c1-1.3,2-2.7,2.9-4.1c4.9-7.7,7.7-16.8,7.7-26.5
	C100,39.9,97,30.6,91.8,22.7z M87.4,25c4.4,6.5,7.1,14.2,7.5,22.5H67.6c0.2-5.6,0.9-11,2.1-16.2C75.9,29.8,81.8,27.7,87.4,25z
	 M76.1,13.4c3,2.2,5.8,4.7,8.2,7.5c-4.2,2-8.6,3.6-13.2,4.8C72.5,21.5,74.2,17.4,76.1,13.4z M50.2,5.1c7.9,0,15.3,2,21.7,5.6
	c-2.6,5.2-4.7,10.6-6.3,16.3c-5.2,1-10.5,1.6-16,1.6c-5.1,0-10.1-0.5-14.9-1.4c-1.6-5.8-3.7-11.3-6.3-16.5
	C34.9,7.2,42.3,5.1,50.2,5.1z M62.6,47.5H37.7c-0.1-5.1-0.7-10.1-1.7-15c4.5,0.7,9,1.1,13.7,1.1c5,0,9.9-0.4,14.7-1.2
	C63.4,37.3,62.8,42.3,62.6,47.5z M64.2,66.6c-4.7-0.8-9.6-1.2-14.5-1.2c-4.6,0-9.1,0.4-13.5,1c0.9-4.5,1.4-9.2,1.5-14h24.9
	C62.7,57.3,63.3,62,64.2,66.6z M24.2,13.4c2,4,3.7,8.3,5,12.6c-4.7-1.2-9.2-2.8-13.5-4.8C18.2,18.3,21,15.7,24.2,13.4z M12.7,25.4
	c5.7,2.7,11.7,4.7,18,6.1c1.2,5.2,1.9,10.5,2,16H5.4C5.8,39.4,8.4,31.8,12.7,25.4z M12.2,73.9c-3.9-6.3-6.4-13.5-6.8-21.4h27.4
	c-0.2,5.1-0.8,10.1-1.8,14.9C24.4,68.9,18.1,71,12.2,73.9z M24.2,86.6c-3.4-2.4-6.5-5.3-9.1-8.6c4.6-2.1,9.4-3.9,14.4-5.1
	C28.2,77.6,26.4,82.2,24.2,86.6z M50.2,94.9c-7.9,0-15.3-2-21.7-5.6c2.8-5.5,5-11.4,6.6-17.6c4.8-0.9,9.6-1.3,14.6-1.3
	c5.4,0,10.6,0.5,15.7,1.5c1.6,6.1,3.8,11.9,6.5,17.4C65.5,92.8,58,94.9,50.2,94.9z M76.1,86.6c-2.1-4.3-3.9-8.8-5.3-13.4
	c4.9,1.3,9.6,3,14.1,5.2C82.4,81.4,79.4,84.2,76.1,86.6z M87.9,74.2c-5.8-2.8-12-5.1-18.4-6.6c-1.1-4.9-1.7-10-1.9-15.2H95
	C94.5,60.5,92,67.9,87.9,74.2z"/>
</svg>
