<?xml version="1.0" encoding="utf-8"?>
<!-- Generator: Adobe Illustrator 19.0.0, SVG Export Plug-In . SVG Version: 6.00 Build 0)  -->
<svg version="1.1" id="Layer_1" xmlns="http://www.w3.org/2000/svg" xmlns:xlink="http://www.w3.org/1999/xlink" x="0px" y="0px"
	 width="100px" height="100px" viewBox="-74 0 100 100" style="enable-background:new -74 0 100 100;" xml:space="preserve">
<g id="XMLID_1_">
	<path id="XMLID_25_" d="M-29.5,46.2c1.3-0.9,2.2-2,3-3.2c1.6-2.2,2.2-5,2.2-8.2c0-3-0.5-5.5-1.4-7.6c-1.1-2-2.5-3.8-4.4-5
		c-1.9-1.3-3.9-2-6.5-2.7c-2.4-0.5-4.9-0.8-7.9-0.8h-26.9c-0.9,0-1.6,0.6-1.6,1.6v57.5c0,0.9,0.6,1.6,1.6,1.6h27.9
		c2.7,0,5.4-0.3,7.9-0.9c2.7-0.6,5-1.7,7.1-3.3c2.2-1.6,3.8-3.5,5-5.8c1.3-2.4,1.9-5.2,1.9-8.4c0-3.9-0.9-7.4-2.8-10.2
		C-25.7,48.7-27.5,47.3-29.5,46.2z M-27,67.3c-0.9,1.7-2.2,3.3-3.9,4.4c-1.7,1.1-3.6,2-5.8,2.7l0,0c-2.2,0.6-4.6,0.9-6.9,0.9h-25.4
		V22.6h24.7c2.5,0,4.9,0.2,6.9,0.6c1.9,0.5,3.6,1.1,5,2c1.3,0.9,2.4,2,3,3.6c0.8,1.6,1.1,3.5,1.1,5.8c0,2.4-0.5,4.4-1.6,6
		s-2.8,3-5,3.9l-4.7,2.2l5,1.4c3,0.9,5.2,2.4,6.8,4.6c1.4,2.2,2.2,4.7,2.2,8C-25.6,63.4-26,65.6-27,67.3z"/>
	<path id="XMLID_29_" d="M-39.3,43.5c1.9-1.4,3-3.6,3-6.8c0-1.7-0.3-3-0.9-4.3c-0.6-1.1-1.6-2-2.7-2.7c-1.1-0.6-2.2-1.1-3.5-1.3
		c-1.1-0.2-2.2-0.3-3.6-0.3h-13.7v17.2h14.7C-43.2,45.6-41,44.8-39.3,43.5z M-56.6,32.4h9.8c1.1,0,2,0.2,2.8,0.3
		c0.8,0.2,1.4,0.3,2,0.8c0.5,0.3,0.9,0.6,1.1,1.3c0.3,0.5,0.5,1.3,0.5,2.4c0,2.5-0.9,3.3-1.3,3.6c-1.1,0.8-2.5,1.3-4.3,1.3h-10.7
		C-56.6,42-56.6,32.4-56.6,32.4z"/>
	<path id="XMLID_32_" d="M-37.2,52.4L-37.2,52.4c-2-1.6-4.6-2.2-7.7-2.2h-15.6v19.5h2c16.1-0.2,16.9-0.3,17.2-0.3
		c1.4-0.3,2.7-0.8,3.6-1.4c1.1-0.8,2-1.7,2.7-3c0.6-1.3,0.9-2.8,0.9-4.6C-34.1,56.6-35.2,54.1-37.2,52.4z M-38.5,62.9
		c-0.3,0.6-0.8,1.1-1.4,1.6c-0.6,0.5-1.3,0.6-2.2,0.9c-0.6,0-4.7,0.2-14.5,0.3V54.1h11.7c2.2,0,4.1,0.5,5.4,1.4
		c1.1,0.9,1.7,2.4,1.7,4.7C-38,61.3-38.2,62.3-38.5,62.9z"/>
	<path id="XMLID_35_" d="M10.2,44.6c-1.7-1.9-4.6-3-7.9-3c-2.2,0-3.9,0.3-5.4,1.1c-1.4,0.8-2.5,1.7-3.5,2.8
		c-0.9,1.1-1.6,2.4-1.9,3.6c-0.3,1.1-0.5,2.2-0.6,3.2l-0.2,2h22.5l-0.2-2.2C13,49.2,11.9,46.5,10.2,44.6z M-4.6,50.5v-0.2l0,0
		c0.2-0.8,0.6-1.6,1.1-2.2c0.6-0.6,1.3-1.3,2.2-1.7c0.9-0.5,2-0.6,3.6-0.6c2.2,0,3.9,0.6,4.9,1.6c0.8,0.8,1.4,1.9,1.7,3.2H-4.6z"/>
	<path id="XMLID_38_" d="M23.8,49.8c-0.8-3.2-2.2-6-3.9-8.5c-1.9-2.5-4.3-4.6-7.1-6c-2.8-1.4-6.3-2.2-10.1-2.2
		c-3.3,0-6.5,0.6-9.3,1.9c-2.8,1.3-5.2,2.8-7.2,5c-2,2-3.6,4.6-4.7,7.6c-1.1,2.8-1.6,6-1.6,9.3c0,3.5,0.5,6.6,1.6,9.5
		c1.1,2.8,2.7,5.4,4.6,7.6l0,0c2,2.2,4.4,3.8,7.2,4.9c2.8,1.1,6,1.7,9.5,1.7c5,0,9.5-1.3,12.9-3.5c3.6-2.4,6.5-6.3,8.2-11.7l0.2-0.5
		c0.3-1.1-0.5-2.2-1.6-2.2H10.5L10,64.2c-0.3,0.8-1.1,1.7-2.2,2.5c-1.3,0.9-2.8,1.4-4.7,1.4c-2.7,0-4.6-0.6-6-1.9
		c-0.9-0.9-1.7-2.7-2-4.6h29.3l0.2-1.9C24.9,56.3,24.5,53,23.8,49.8z M-9,57.6v2c0,3.8,1.3,7.4,3.3,9.3c2,2,5,3,8.7,3
		c2.7,0,5-0.6,7.1-2c1.4-0.9,2.5-2,3.2-3.3H19c-1.4,3.2-3.2,5.5-5.5,6.9c-3,1.9-6.6,2.8-10.9,2.8c-3,0-5.7-0.5-8-1.4
		c-2.4-0.9-4.3-2.2-6-3.9c-1.6-1.7-2.8-3.8-3.8-6.1c-0.9-2.4-1.4-5.2-1.4-8s0.5-5.5,1.4-7.9c0.9-2.5,2.2-4.6,3.9-6.1
		c1.7-1.7,3.8-3.2,6-4.1c2.4-0.9,4.9-1.6,7.7-1.6c3.2,0,6,0.6,8.2,1.7c2.4,1.3,4.3,2.8,5.7,4.9c1.4,2,2.5,4.4,3.3,7.1
		c0.5,2,0.8,4.4,0.8,6.6H-9V57.6z"/>
	<path id="XMLID_41_" d="M-9.7,32h23.8c0.9,0,1.6-0.6,1.6-1.6v-6.3c0-0.9-0.6-1.6-1.6-1.6H-9.7c-0.9,0-1.6,0.6-1.6,1.6v6.3
		C-11.2,31.2-10.6,32-9.7,32z M-7.3,26.4h19.1v1.6H-7.3V26.4z"/>
</g>
</svg>
