<?xml version="1.0" encoding="utf-8"?>
<!-- Generator: Adobe Illustrator 22.0.0, SVG Export Plug-In . SVG Version: 6.00 Build 0)  -->
<svg version="1.1" id="Layer_2_1_" xmlns="http://www.w3.org/2000/svg" xmlns:xlink="http://www.w3.org/1999/xlink" x="0px" y="0px"
	 viewBox="0 0 100 100" style="enable-background:new 0 0 100 100;" xml:space="preserve">
<g>
	<path d="M66.8,27.7c5.3,0,9.6-4.3,9.6-9.6c0-5.3-4.3-9.6-9.6-9.6c-5.3,0-9.6,4.3-9.6,9.6C57.2,23.4,61.5,27.7,66.8,27.7z
		 M66.8,13.5c2.6,0,4.6,2.1,4.6,4.6s-2.1,4.6-4.6,4.6s-4.6-2.1-4.6-4.6S64.3,13.5,66.8,13.5z"/>
	<path d="M21.4,43.7c-11.1,0-20,9-20,20s9,20,20,20c11.1,0,20-9,20-20S32.4,43.7,21.4,43.7z M21.4,78.8c-8.3,0-15-6.8-15-15
		c0-8.3,6.8-15,15-15c8.2,0,15,6.8,15,15C36.4,72.1,29.7,78.8,21.4,78.8z"/>
	<path d="M78.8,43.7c-11.1,0-20.1,9-20.1,20.1c0,11.1,9,20,20.1,20c11.1,0,20-9,20-20S89.9,43.7,78.8,43.7z M78.8,78.8
		c-8.3,0-15.1-6.8-15.1-15s6.8-15.1,15.1-15.1s15,6.8,15,15.1S87.1,78.8,78.8,78.8z"/>
	<path d="M63.4,43.2c0.8,1.1,2.4,1.3,3.5,0.5l0,0c1.1-0.8,1.3-2.4,0.5-3.5L56.7,26c-0.9-1.2-2.6-1.3-3.6-0.4L37.2,39.7
		c-1.1,0.9-1.1,2.6-0.1,3.6l9.4,9.8l0,9.9c0,1.4,1.1,2.5,2.5,2.5h0c1.4,0,2.5-1.1,2.5-2.5l0-11.9l-9-9.4l11.9-10.6L63.4,43.2z"/>
</g>
</svg>
