<?xml version="1.0" encoding="utf-8"?>
<!-- Generator: Adobe Illustrator 19.0.0, SVG Export Plug-In . SVG Version: 6.00 Build 0)  -->
<svg version="1.1" id="Layer_1" xmlns="http://www.w3.org/2000/svg" xmlns:xlink="http://www.w3.org/1999/xlink" x="0px" y="0px"
	 width="100px" height="100px" viewBox="-74 0 100 100" style="enable-background:new -74 0 100 100;" xml:space="preserve">
<g id="XMLID_16_">
	<path id="XMLID_19_" d="M-24.3,40.4L-24.3,40.4c-2.2,0-4.2,0.8-5.8,2.4c-1.5,1.5-2.3,3.4-2.3,5.6c0,4.4,3.7,7.9,8,7.9l0,0
		c2.2,0,4.2-0.8,5.7-2.4c1.5-1.5,2.3-3.4,2.3-5.6C-16.2,43.9-19.8,40.4-24.3,40.4z M-20.5,51.9c-1,1-2.3,1.6-3.8,1.6l0,0
		c-2.9,0-5.3-2.3-5.3-5.2c0-1.4,0.6-2.6,1.5-3.6c1-1,2.4-1.6,3.8-1.6c2.9,0,5.3,2.3,5.3,5.2C-19,49.6-19.6,50.9-20.5,51.9z"/>
	<path id="XMLID_27_" d="M6.9,67.9L6.9,67.9c-0.9-0.1-1.8,0-2.8,0.7l-0.3,0.2c-0.5,0.3-1,0.7-1.5,1c-3,1.8-6.3,3.2-10.2,4.4
		c-4.1,1.3-8.6,1.9-13.2,2.2c-2.5,0.1-4.9,0.1-7.3,0c-2.3-0.1-4.7-0.5-6.9-0.8c-4-0.7-7.7-1.8-11.1-3.3c-2.6-1.1-4.7-2.3-6.5-3.6
		c-0.3-0.2-0.7-0.5-1-0.6c-0.9-0.3-1.9-0.2-2.8,0.2c-0.8,0.5-1.4,1.3-1.5,2.2c-0.1,0.5-0.1,1,0,1.5c0.5,2.5,0.9,4.9,1.4,7.5
		c0.3,1.9,0.8,3.8,1.1,5.7l0.5,2.1c0.2,1,0.7,2.1,1.3,3c0.6,0.9,1.4,1.8,2.4,2.6c1.4,1.1,3.1,2.2,5.2,3.1c3.1,1.4,6.5,2.4,10.6,3.1
		c2.8,0.5,5.5,0.8,8.1,0.8l6.3,0.1h0.3c2.2-0.1,4.5-0.3,6.8-0.6c3-0.5,5.7-1,8.3-1.8c2.6-0.8,4.8-1.8,6.8-3c1.4-0.8,2.5-1.7,3.4-2.8
		c1.3-1.4,2.1-2.9,2.4-4.5l1.5-7.6c0.5-2.5,1-5,1.5-7.6c0.1-0.5,0.1-0.9,0-1.4C9.4,69.3,8.4,68.2,6.9,67.9z M4.6,79l-1.5,7.6
		c-0.2,0.9-0.7,1.8-1.5,2.6C1,90,0,90.7-1.1,91.4c-1.7,1-3.7,1.8-6,2.6c-2.4,0.7-4.9,1.3-7.7,1.7c-2.2,0.3-4.2,0.5-6.4,0.6
		c-0.1,0-0.2,0-0.3,0h-5.4c-0.1,0-0.2,0-0.5,0c-2.6-0.1-5.3-0.3-7.9-0.8c-3.8-0.7-7-1.6-9.7-2.8c-1.7-0.8-3.2-1.6-4.4-2.5
		c-0.7-0.6-1.3-1.1-1.7-1.8c-0.3-0.6-0.6-1.1-0.7-1.7l-0.2-2.3c-0.3-1.9-0.8-3.8-1.1-5.7c-0.5-2.3-0.9-4.6-1.3-6.9
		c1.9,1.3,4,2.5,6.8,3.7c3.7,1.6,7.7,2.8,11.9,3.6c2.4,0.5,4.8,0.7,7.3,0.9c2.5,0.1,5.2,0.2,7.8,0c4.8-0.2,9.5-1,14-2.3
		c4.1-1.3,7.8-2.8,11-4.7c0.6-0.3,1.1-0.7,1.7-1.1l0,0C5.5,74.2,5.1,76.6,4.6,79z"/>
	<path id="XMLID_30_" d="M3.5,11.7c-0.6-0.5-1.1-0.8-1.7-1c-1-0.6-2.1-0.9-3.1-1.1c-1.9-0.6-4-1-6.7-1.4c-2.6-0.5-5.5-0.7-8.6-0.9
		C-18,7.1-19.5,7.1-21,7c-4.1-0.1-8.4,0-12.7,0.2c-2.9,0.2-5.4,0.5-7.8,0.9C-44,8.6-46,8.9-47.7,9.5c-1.1,0.3-2.1,0.7-2.9,1.1
		c-0.5,0.2-1.1,0.7-1.7,1.3c-1.4,1.5-1.4,3.3,0,4.7c0.5,0.5,0.9,0.8,1.4,1c0.7,0.3,1.4,0.7,2.1,0.9c2.3,0.9,4.7,1.4,6.8,1.7
		c3.4,0.6,7.1,1,11.2,1.3c1.6,0.1,3.1,0.1,4.7,0.1h2.2l1.9-0.1c1.4,0,2.6-0.1,4-0.1c2.6-0.1,5.5-0.3,8.4-0.7c2.6-0.3,4.9-0.7,7-1.3
		c1.1-0.3,2.8-0.7,4.4-1.5c0.5-0.2,1.3-0.6,1.9-1.3c1.1-1,1.4-2.1,1.4-2.8C4.9,13.6,4.5,12.6,3.5,11.7z M0,15
		c-1.3,0.6-2.6,0.9-3.7,1.3c-1.9,0.5-4,0.8-6.5,1.1c-2.8,0.3-5.5,0.6-8,0.7c-1.4,0-2.6,0.1-4,0.1l-1.8,0.1l-2.1-0.1
		c-1.5,0-3.1-0.1-4.6-0.1c-4-0.2-7.6-0.6-10.9-1.1c-1.9-0.3-4-0.8-6.1-1.6c-0.5-0.2-1-0.5-1.6-0.8c-0.1-0.1-0.2-0.1-0.3-0.2
		c0.1-0.1,0.3-0.2,0.7-0.5c0.6-0.3,1.4-0.6,2.3-0.9c1.6-0.5,3.3-0.9,5.7-1.3c2.3-0.3,4.8-0.7,7.5-0.9c4.2-0.3,8.4-0.3,12.5-0.2
		c1.4,0,2.8,0.1,4.2,0.2c3,0.2,5.7,0.5,8.3,0.8c2.5,0.3,4.5,0.8,6.2,1.4c0.8,0.2,1.6,0.5,2.4,0.9c0.3,0.1,0.7,0.3,1,0.6
		C0.7,14.7,0.5,14.8,0,15z"/>
	<path id="XMLID_33_" d="M-24.3,33.2c-4.1,0-8,1.6-11,4.5c-2.9,2.9-4.4,6.5-4.4,10.6c0,8.3,6.9,15,15.4,15l0,0
		c4.1,0,7.9-1.6,10.9-4.4c2.9-2.9,4.5-6.7,4.5-10.7C-8.9,40-15.8,33.2-24.3,33.2z M-15.9,56.4c-2.2,2.2-5.2,3.3-8.3,3.4l0,0
		c-6.5,0-11.7-5.2-11.8-11.4c0-3,1.1-5.8,3.3-8c2.2-2.3,5.2-3.4,8.4-3.4c6.4,0,11.7,5.2,11.7,11.5C-12.6,51.4-13.7,54.2-15.9,56.4z"
		/>
	<path id="XMLID_36_" d="M20,14.3c0-0.2-0.1-0.5-0.2-0.7c-0.3-1.3-1.1-2.3-2.2-3.4C16.4,9,15.1,8,13.1,7c-1.9-1-4-1.9-6.7-2.8
		c-3.1-1-6.4-1.8-10-2.4c-2.1-0.3-4-0.7-6-0.9c-1.6-0.2-3.4-0.3-5.2-0.5c-1.6-0.1-3.2-0.1-4.7-0.2l-2.1-0.1h-0.3h-5.2l-3.4,0.2
		c-1.5,0.1-2.9,0.1-4.4,0.2c-2.2,0.1-4.6,0.3-7.2,0.8c-5.8,0.8-10.7,1.9-14.9,3.6c-2.6,0.9-4.7,1.9-6.5,3.1
		c-1.3,0.8-2.4,1.7-3.2,2.6c-1.1,1.3-1.8,2.5-2.1,3.9l-0.2,0.5v1.1l0.7,4.4c0.3,2.4,0.7,4.7,1.1,7.1c0.5,3,1,5.8,1.5,8.7l3.9,22
		c0.1,0.9,0.5,1.8,1,2.6c0.7,1,1.5,1.9,2.6,2.9c1.6,1.3,3.4,2.4,5.7,3.6c2.8,1.3,5.8,2.4,9.4,3.2c2.8,0.7,5.6,1.1,8.8,1.6
		c3.1,0.3,6.3,0.6,9.5,0.6c0.9,0,1.9,0,2.9,0c5.4-0.2,10.3-0.8,15.1-1.9c4.1-1,7.7-2.3,10.9-3.9c1.8-0.9,3.4-1.9,4.7-3.1
		c0.8-0.7,1.5-1.4,2.1-2.1c0.8-1,1.4-2.3,1.6-3.7c0.3-1.8,0.6-3.7,0.9-5.4l3-17.2c0.3-2.3,0.8-4.6,1.1-6.9c0.3-2.2,0.7-4.2,1-6.4
		c0.2-1.1,0.3-2.2,0.5-3.3l0.2-1.3l0.1-2.5L20,14.3z M16.2,18.2c-0.1,1.1-0.3,2.2-0.5,3.3c-0.3,2.1-0.7,4.2-1,6.3
		c-0.3,2.3-0.8,4.6-1.1,6.9l-3,17.2c-0.3,1.8-0.7,3.7-0.9,5.5c-0.1,0.8-0.5,1.4-0.9,1.9s-0.9,1-1.5,1.5c-1.1,0.9-2.5,1.8-4.1,2.6
		C0.3,65-3.1,66.2-7,67.1c-4.6,1.1-9.3,1.7-14.5,1.8c-4.1,0.1-8.1,0-11.9-0.5c-3-0.3-5.7-0.8-8.4-1.5c-3.3-0.8-6.2-1.8-8.7-3
		c-2.1-0.9-3.7-1.9-5-3.1c-0.9-0.7-1.5-1.4-1.9-2.1c-0.2-0.5-0.5-0.8-0.5-1.3l-3.9-22c-0.5-2.9-1-5.8-1.5-8.7
		c-0.3-2.4-0.8-4.7-1.1-7l-0.6-3.7c0-0.1,0-0.2-0.1-0.5v-0.1c0-0.1,0.1-0.2,0.1-0.3c0.1-0.7,0.6-1.5,1.3-2.3
		c0.7-0.7,1.4-1.4,2.5-2.1c1.6-1,3.4-1.9,5.8-2.8c4.1-1.5,8.6-2.5,14.2-3.3c2.5-0.3,4.8-0.6,6.9-0.8c1.4-0.1,2.9-0.1,4.2-0.2
		l1.9-0.1l6.2-0.1c0.1,0,0.2,0,0.3,0l2.1,0.1c1.6,0.1,3.1,0.1,4.7,0.2C-13,4-11.4,4.1-9.8,4.3C-8,4.6-5.9,4.9-4,5.3
		c3.3,0.6,6.4,1.3,9.4,2.3c2.4,0.8,4.4,1.6,6.1,2.5c1.6,0.8,2.8,1.6,3.6,2.5c0.7,0.7,1.1,1.4,1.4,2.1c0,0.1,0.1,0.2,0.1,0.3v1.3
		L16.2,18.2z"/>
</g>
</svg>
