<?xml version="1.0" encoding="utf-8"?>
<!-- Generator: Adobe Illustrator 19.0.0, SVG Export Plug-In . SVG Version: 6.00 Build 0)  -->
<svg version="1.1" id="Layer_1" xmlns="http://www.w3.org/2000/svg" xmlns:xlink="http://www.w3.org/1999/xlink" x="0px" y="0px"
	 width="100px" height="100px" viewBox="0 0 100 100" style="enable-background:new 0 0 100 100;" xml:space="preserve">
<path d="M75.2,49.9c6.5-4.5,10.5-12.1,10.2-20.1C85,17.5,74.3,7.5,61.6,7.5h-6.7V4c0-1.5-1.2-2.7-2.7-2.7c-1.3,0.1-2.3,1.2-2.3,2.5
	v3.6h-7.3V4c0-1.5-1.2-2.7-2.7-2.7c-1.3,0.1-2.3,1.2-2.3,2.5v3.6h-11c0,0,0,0-0.1,0H17c-1.3,0-2.4,1.1-2.4,2.4V10
	c0,1.3,1.1,2.4,2.4,2.4h5.9v75H17c-1.3,0-2.4,1.1-2.4,2.4v0c0,1.3,1.1,2.4,2.4,2.4h9.6h1.4h9.6V96c0,1.5,1.2,2.7,2.7,2.7
	c1.3-0.1,2.3-1.2,2.3-2.5v-3.8h7.3V96c0,1.5,1.2,2.7,2.7,2.7c1.3-0.1,2.3-1.2,2.3-2.5v-3.8h6.7c12.7,0,23.3-10,23.7-22.3
	C85.7,61.9,81.7,54.3,75.2,49.9z M27.8,12.5h11h15.7h7.2c10,0,18.4,7.8,18.7,17.5c0.3,7.5-4.2,14.6-11.3,17.5H27.8V12.5z M80.4,69.9
	c-0.3,9.6-8.7,17.5-18.7,17.5h-6.8h-0.4H27.9V52.5h41.8C76.4,55.5,80.7,62.4,80.4,69.9z"/>
</svg>
