<?xml version="1.0" encoding="utf-8"?>
<!-- Generator: Adobe Illustrator 21.0.0, SVG Export Plug-In . SVG Version: 6.00 Build 0)  -->
<svg version="1.1" id="Layer_1" xmlns="http://www.w3.org/2000/svg" xmlns:xlink="http://www.w3.org/1999/xlink" x="0px" y="0px"
	 viewBox="0 0 100 100" style="enable-background:new 0 0 100 100;" xml:space="preserve">
<style type="text/css">
	.st0{display:none;}
	.st1{display:inline;fill:#FFFFFF;stroke:#231F20;stroke-miterlimit:10;}
</style>
<g id="Layer_1_1_" class="st0">
	<rect id="XMLID_1_" x="5" y="5" class="st1" width="90" height="90"/>
</g>
<path d="M96.6,8.4H52.4V3.6c0-1.4-1.1-2.5-2.5-2.5h0c-1.4,0-2.5,1.1-2.5,2.5v4.8H3.1c-1.4,0-2.5,1.1-2.5,2.5v48
	c0,1.4,1.1,2.5,2.5,2.5h32.3L18.8,93.8c-0.6,1.2-0.1,2.7,1.1,3.4h0c1.2,0.6,2.7,0.1,3.4-1.1L41,61.4h6.4v35c0,1.4,1.1,2.5,2.5,2.5h0
	c1.4,0,2.5-1.1,2.5-2.5v-35h6.4L76.5,96c0.6,1.2,2.1,1.7,3.4,1.1l0,0c1.2-0.6,1.7-2.1,1.1-3.4L64.4,61.4h32.3c1.4,0,2.5-1.1,2.5-2.5
	v-48C99.1,9.5,98,8.4,96.6,8.4z M94.1,56.4H5.6v-43h88.5V56.4z"/>
</svg>
