<?xml version="1.0" encoding="utf-8"?>
<!-- Generator: Adobe Illustrator 19.0.0, SVG Export Plug-In . SVG Version: 6.00 Build 0)  -->
<svg version="1.1" id="Layer_1" xmlns="http://www.w3.org/2000/svg" xmlns:xlink="http://www.w3.org/1999/xlink" x="0px" y="0px"
	 width="100px" height="100px" viewBox="-74 0 100 100" style="enable-background:new -74 0 100 100;" xml:space="preserve">
<path d="M12.4,25.3L-26.5,2.8c-1.7-1-3.8,0.2-3.8,2.2v41V46l-35.1-19.8c-1.2-0.7-2.7-0.3-3.4,0.9l0,0c-0.7,1.2-0.3,2.7,0.9,3.4
	l34.6,19.5L-66.8,69c-1.2,0.7-1.6,2.2-1,3.4h0c0.7,1.2,2.2,1.6,3.4,1l34.2-19.1v0.1v41c0,1.9,2.1,3.1,3.8,2.2l38.9-22.5
	c1.7-1,1.7-3.4,0-4.3l-35.5-20.5l35.5-20.5C14,28.7,14,26.3,12.4,25.3z M-25.2,9.3L6.1,27.5l-31.4,18.1V9.3z M-25.2,90.9V54.6
	L6.1,72.8L-25.2,90.9z"/>
</svg>
