<?xml version="1.0" encoding="utf-8"?>
<!-- Generator: Adobe Illustrator 21.0.0, SVG Export Plug-In . SVG Version: 6.00 Build 0)  -->
<svg version="1.1" id="Layer_2" xmlns="http://www.w3.org/2000/svg" xmlns:xlink="http://www.w3.org/1999/xlink" x="0px" y="0px"
	 viewBox="0 0 100 100" style="enable-background:new 0 0 100 100;" xml:space="preserve">
<g>
	<path d="M34.5,99.8c-0.5,0-1.1-0.1-1.6-0.4c-1.4-0.8-2-2.5-1.5-3.9l14.3-40.9H25.5c-1.2,0-2.3-0.6-3-1.6c-0.7-1-0.8-2.4-0.3-3.5
		l0.1-0.2L47.8,1.9c0.8-1.4,2.4-2,3.9-1.5c1.5,0.5,2.4,2,2.1,3.5l-4.4,31l25.9-0.3c1.4,0,2.6,0.7,3.2,2c0.6,1.2,0.5,2.7-0.3,3.8
		L37.1,98.5C36.5,99.3,35.5,99.8,34.5,99.8z M33,95.6C33,95.6,33,95.6,33,95.6L33,95.6z M27.8,49.6h20.1c1.1,0,2.2,0.6,2.9,1.5
		c0.7,0.9,0.8,2.1,0.4,3.2L40.4,85.1l32.2-45.5l-24.9,0.3c-1,0-2-0.4-2.7-1.2s-1-1.8-0.8-2.8l3.2-22.8L27.8,49.6z M74.2,37.4
		C74.2,37.4,74.2,37.4,74.2,37.4L74.2,37.4z M48.8,3.2C48.8,3.2,48.8,3.2,48.8,3.2L48.8,3.2z"/>
</g>
</svg>
