<?xml version="1.0" encoding="utf-8"?>
<!-- Generator: Adobe Illustrator 21.0.0, SVG Export Plug-In . SVG Version: 6.00 Build 0)  -->
<svg version="1.1" id="Layer_2" xmlns="http://www.w3.org/2000/svg" xmlns:xlink="http://www.w3.org/1999/xlink" x="0px" y="0px"
	 viewBox="0 0 100 100" style="enable-background:new 0 0 100 100;" xml:space="preserve">
<path d="M82.3,29c-0.9-1.3-2.6-1.8-4.1-1.3l-15.1,5.1L72.4,6c0.4-1,0.3-2.2-0.2-3.1c-0.6-1-1.8-1.7-3.1-1.7H32.7
	c-1.7,0-3.1,1.1-3.5,2.6L17.8,46c-0.4,1.2,0,2.6,0.9,3.5c0.9,0.9,2.3,1.3,3.4,0.9l13.7-3.4l-7.4,48.3c-0.3,1.7,0.6,3.2,2.1,3.9
	c0.5,0.2,1,0.3,1.5,0.3c1.1,0,2.2-0.5,2.9-1.5l47.4-65C83.2,31.9,83.2,30.2,82.3,29z M34.1,90.6L41,45.8c0.2-1.2-0.2-2.4-1.1-3.2
	c-0.7-0.6-1.5-0.9-2.4-0.9c-0.3,0-0.6,0-0.9,0.1L23.2,45L33.7,6.1H67l-9.6,27.7c-0.5,1.3-0.1,2.7,0.8,3.7c1,1,2.4,1.3,3.7,0.9
	l13.6-4.6L34.1,90.6z"/>
</svg>
