<?xml version="1.0" encoding="utf-8"?>
<!-- Generator: Adobe Illustrator 21.0.0, SVG Export Plug-In . SVG Version: 6.00 Build 0)  -->
<svg version="1.1" id="Layer_2" xmlns="http://www.w3.org/2000/svg" xmlns:xlink="http://www.w3.org/1999/xlink" x="0px" y="0px"
	 viewBox="0 0 100 100" style="enable-background:new 0 0 100 100;" xml:space="preserve">
<g>
	<path d="M67.8,80.3H32.2c-1.7,0-3,1.2-3,3v1.5c0,1.7,1.2,3,3,3h35.7c1.7,0,3-1.5,3-3v-1.5C70.8,81.5,69.5,80.3,67.8,80.3z"/>
	<path d="M80.9,18.6H28c-3.5,0-6.3-3.1-5.8-6.6c0.4-3,3-5.1,6-5.1h52.2c1.4,0,2.5-1.1,2.5-2.5s-1.1-2.5-2.5-2.5H28
		c-6,0-10.9,4.9-10.9,10.9v74.7c0,5.8,4.7,10.6,10.6,10.6h53.2c1.1,0,2-0.9,2-2V20.6C82.9,19.5,82,18.6,80.9,18.6z M77.9,93H27.7
		c-3.1,0-5.6-2.5-5.6-5.6V21.9c1.7,1.1,3.7,1.7,5.9,1.7h49.9V93z"/>
	<path d="M27.8,37.3c0,2.7,2.2,4.9,4.9,4.9h34.5c2.7,0,4.9-2.2,4.9-4.9v-5.5c0-2.7-2.2-4.9-4.9-4.9H32.7c-2.7,0-4.9,2.2-4.9,4.9
		V37.3z M67.2,31.8v5.5l-34.4,0.1l-0.1-5.5L67.2,31.8z"/>
</g>
</svg>
