<?xml version="1.0" encoding="utf-8"?>
<!-- Generator: Adobe Illustrator 22.0.0, SVG Export Plug-In . SVG Version: 6.00 Build 0)  -->
<svg version="1.1" id="Layer_2_1_" xmlns="http://www.w3.org/2000/svg" xmlns:xlink="http://www.w3.org/1999/xlink" x="0px" y="0px"
	 viewBox="0 0 100 100" style="enable-background:new 0 0 100 100;" xml:space="preserve">
<path d="M65.5,28.2V17.3c0-1.4-1.1-2.5-2.5-2.5H37.3c-1.4,0-2.5,1.1-2.5,2.5v10.9H2.6c-1.4,0-2.5,1.1-2.5,2.5v52
	c0,1.4,1.1,2.5,2.5,2.5h95c1.4,0,2.5-1.1,2.5-2.5v-52c0-1.4-1.1-2.5-2.5-2.5C97.6,28.2,65.5,28.2,65.5,28.2z M39.8,19.8h20.7v8.4
	H39.8V19.8z M95.1,33.2v8l-41.7,6.1V46h-6.7v1.4L5.1,41.2v-8H95.1z M5.1,80.2V46.3l41.7,6.2v0.6c0,0.6,0.4,1,1,1h4.7
	c0.6,0,1-0.4,1-1v-0.7l41.7-6.1v33.9H5.1z"/>
</svg>
