<?xml version="1.0" encoding="utf-8"?>
<!-- Generator: Adobe Illustrator 19.0.0, SVG Export Plug-In . SVG Version: 6.00 Build 0)  -->
<svg version="1.1" id="Layer_2" xmlns="http://www.w3.org/2000/svg" xmlns:xlink="http://www.w3.org/1999/xlink" x="0px" y="0px"
	 width="100px" height="100px" viewBox="-247 370.9 100 100" style="enable-background:new -247 370.9 100 100;"
	 xml:space="preserve">
<path d="M-148.1,381.7l-1.4-1.4c-0.7-0.7-1.6-1.1-2.5-1.3c-1.2-0.2-2.4,0.1-3.2,0.9l-66.2,60.1c-0.7,0.5-1.1,1.2-1.3,1.9
	c-0.6-0.1-1.3-0.2-1.9-0.2c-1.7,0-3,0.3-4,1c-0.7,0.5-2,1.7-1.7,4.4c0,0,0,0.2-0.4,0.7c-2.8,2.9-5.5,4.3-8.3,4.4l-7.5,0.2l6.1,4.3
	c3.5,2.5,5.6,3.8,10.3,5.3c1.4,0.4,3.8,0.8,6.3,0.8c4.7,0,10.2-1.1,12.3-4.5l0-0.1c0.7-1.3,0.9-2.6,0.7-3.9c0.8-0.1,1.6-0.5,2.2-1.1
	l60.3-66.3l0.2-0.2C-146.8,385.1-147.2,383-148.1,381.7z M-215.7,455.7c-1.2,1.9-8.8,2.8-12.9,1.5c-1.7-0.5-3-1-4.1-1.6
	c2-1,3.9-2.5,5.8-4.4l0.1-0.1c1.5-1.8,1.7-3.4,1.6-4.4c0.2,0,0.4,0,0.7,0c2.3,0,4.5,1.2,6.1,3.1
	C-215.7,453.3-215.4,455.2-215.7,455.7z M-211.3,448.9l-5.9-5.9l64.6-58.7l0,0L-211.3,448.9z"/>
</svg>
