<?xml version="1.0" encoding="utf-8"?>
<!-- Generator: Adobe Illustrator 19.0.0, SVG Export Plug-In . SVG Version: 6.00 Build 0)  -->
<svg version="1.1" id="Layer_2" xmlns="http://www.w3.org/2000/svg" xmlns:xlink="http://www.w3.org/1999/xlink" x="0px" y="0px"
	 width="100px" height="100px" viewBox="-247 370.9 100 100" style="enable-background:new -247 370.9 100 100;"
	 xml:space="preserve">
<style type="text/css">
	.st0{fill:none;stroke:#000000;stroke-miterlimit:10;}
</style>
<path class="st0" d="M-93.2,379.6"/>
<path class="st0" d="M-91.9,379.4"/>
<g>
	<path d="M-149.5,410.3l-36.9-36.9c-0.8-0.8-2-0.8-2.8,0l-31.3,31.3c-6.2,6.2-6.2,16.4,0,22.6l2.6,2.6l-24.7,24.7
		c-3.3,3.3-3.3,8.6,0,11.9c0,0,0,0,0,0c1.6,1.6,3.7,2.5,5.9,2.5s4.4-0.9,5.9-2.5l24.7-24.7l2.6,2.6c3.1,3.1,7.2,4.7,11.3,4.7
		c4.1,0,8.2-1.6,11.3-4.7l31.3-31.3C-148.7,412.3-148.7,411.1-149.5,410.3z M-161.2,405.7c-0.2,0.1-0.3,0.2-0.5,0.4l-9.5,9.5
		c-0.1,0.1-0.5,0-0.9-0.3c-0.3-0.3-0.4-0.7-0.4-0.9l5.3-5.3c1.4-1.4,1.9-3.4,1.4-5.3c-0.7-2.6-3.2-5-5.8-5.7c-1.1-0.3-2.1-0.3-3.1,0
		c-1.3,0.4-2.1,1.2-2.7,1.8c-0.2,0.2-0.4,0.4-0.5,0.5c-0.1,0-0.5-0.1-0.8-0.4l0,0c-0.3-0.3-0.4-0.7-0.4-0.9l5.7-5.7L-161.2,405.7z
		 M-234.3,463c-1.3,1.3-3.5,1.3-4.8,0h0c-1.3-1.3-1.3-3.5,0-4.8l24.7-24.7l4.8,4.8L-234.3,463z M-184.3,440.9
		c-4.3,4.3-11.2,4.3-15.5,0l-5.8-5.8c0,0,0,0,0,0l-5.6-5.6c0,0,0,0,0,0l-5.8-5.8c-4.3-4.3-4.3-11.2,0-15.5l3.3-3.3l32.7,32.7
		L-184.3,440.9z M-177.5,434l-32.7-32.7l2.7-2.7l32.7,32.7L-177.5,434z M-171.2,427.8l-32.7-32.7l16.1-16.1l10.9,10.9l-5.7,5.7
		c-2.1,2.1-1.9,5.6,0.4,7.9c0,0,0,0,0,0c1.6,1.6,3.9,2.3,5.8,1.7c1.3-0.4,2.1-1.2,2.6-1.8c0.2-0.2,0.4-0.5,0.5-0.5c0,0,0.2,0,0.5,0
		c0.8,0.2,2,1.2,2.2,2.2c0.1,0.3,0,0.3-0.1,0.5l-5.4,5.4c-2,2-1.8,5.6,0.4,7.9c2.2,2.2,5.6,2.4,7.8,0.5l0.1,0l9.2-9.2
		c0.4-0.4,1.1-0.5,1.6-0.2c0,0,0.1,0,0.1,0.1l1.8,1.8L-171.2,427.8z"/>
	<circle cx="-209.1" cy="421.1" r="3.9"/>
	<circle cx="-197.2" cy="433" r="3.9"/>
	<circle cx="-236" cy="460" r="2.4"/>
</g>
</svg>
