<?xml version="1.0" encoding="utf-8"?>
<!-- Generator: Adobe Illustrator 19.0.0, SVG Export Plug-In . SVG Version: 6.00 Build 0)  -->
<svg version="1.1" id="Layer_2" xmlns="http://www.w3.org/2000/svg" xmlns:xlink="http://www.w3.org/1999/xlink" x="0px" y="0px"
	 width="100px" height="100px" viewBox="-247 370.9 100 100" style="enable-background:new -247 370.9 100 100;"
	 xml:space="preserve">
<path d="M-148.4,390.9c-0.3-5.5-4.7-9.7-10-9.7h-77.5c-5.4,0-10,4.6-10,10.1v41.7c0,5.6,4.5,10.1,10.1,10.1h1.3
	c0.4,0,0.8,0.4,0.8,0.8v13c0,1.5,0.8,2.8,2.1,3.4l0.2,0.1l0.3,0.1c0.4,0.1,0.9,0.2,1.2,0.2c1,0,1.8-0.3,2.5-1l16.3-16
	c0.4-0.4,0.9-0.6,1.5-0.6h51c5.4,0,10-4.6,10-10.1V391L-148.4,390.9z M-153.4,432.9c0,2.7-2.3,5.1-5,5.1h-51c-1.9,0-3.7,0.7-5,2
	l-14.2,13.9v-10.2c0-3.2-2.6-5.8-5.8-5.8h-1.3c-2.8,0-5.1-2.3-5.1-5.1v-41.7c0-2.7,2.3-5.1,5-5.1h77.5c2.6,0,4.8,2.2,5,4.9V432.9z"
	/>
</svg>
