<?xml version="1.0" encoding="utf-8"?>
<!-- Generator: Adobe Illustrator 19.0.0, SVG Export Plug-In . SVG Version: 6.00 Build 0)  -->
<svg version="1.1" id="Layer_1" xmlns="http://www.w3.org/2000/svg" xmlns:xlink="http://www.w3.org/1999/xlink" x="0px" y="0px"
	 width="100px" height="100px" viewBox="-247 370.9 100 100" style="enable-background:new -247 370.9 100 100;"
	 xml:space="preserve">
<style type="text/css">
	.st0{display:none;fill:#FFFFFF;stroke:#000000;stroke-miterlimit:10;}
</style>
<rect x="-242" y="375.9" class="st0" width="90" height="90"/>
<g>
	<path d="M-214.4,392.1h34.8c1.5,0,2.6-1.2,2.5-2.7l-0.1-1.5c-0.4-7.6-7-13.7-14.6-13.7l-10.3,0c-7.6,0.1-13.9,6-14.7,13.7l-0.1,1.6
		C-217,390.9-215.9,392.1-214.4,392.1z M-202.1,379.2h10.2c4.7,0,8.7,3.5,9.5,7.9h-29.3C-210.6,382.6-206.7,379.3-202.1,379.2z"/>
	<path d="M-155.8,426.6h-11.8v-4c0-5.4-1.5-10.4-4.2-14.7l8.4-8.4c1-1,1-2.6,0-3.5c-1-1-2.6-1-3.5,0l-7.9,7.9
		c-5.1-5.7-12.5-9.2-20.8-9.2h-2.7c-8.1,0-15.3,3.4-20.4,8.9l-8-8c-1-1-2.6-1-3.5,0s-1,2.6,0,3.5l8.4,8.4c-2.8,4.4-4.5,9.6-4.5,15.1
		v4h-11.8c-1.4,0-2.5,1.1-2.5,2.5v0c0,1.4,1.1,2.5,2.5,2.5h11.8v7.9c0,4.6,1.1,8.9,3.1,12.7l-8.3,8.3c-1,1-1,2.6,0,3.5v0
		c1,1,2.6,1,3.5,0l7.5-7.5c5.1,6.6,13.2,10.9,22.2,10.9h2.7c9.2,0,17.4-4.4,22.5-11.3l7.9,7.9c1,1,2.6,1,3.5,0s1-2.6,0-3.5l-8.8-8.8
		c1.8-3.7,2.9-7.9,2.9-12.3v-7.9h11.8c1.4,0,2.5-1.1,2.5-2.5v0C-153.3,427.8-154.5,426.6-155.8,426.6z M-172.6,439.6
		c0,12.7-10.3,23-23,23h-2.7c-12.7,0-23-10.3-23-23v-17c0-12.7,10.3-23,23-23h2.7c12.7,0,23,10.3,23,23V439.6z"/>
</g>
</svg>
