<?xml version="1.0" encoding="utf-8"?>
<!-- Generator: Adobe Illustrator 19.0.0, SVG Export Plug-In . SVG Version: 6.00 Build 0)  -->
<svg version="1.1" id="Layer_2" xmlns="http://www.w3.org/2000/svg" xmlns:xlink="http://www.w3.org/1999/xlink" x="0px" y="0px"
	 width="100px" height="100px" viewBox="-247 370.9 100 100" style="enable-background:new -247 370.9 100 100;"
	 xml:space="preserve">
<path d="M-172.5,381.5c-7.3-6.9-16.8-10.3-26.8-9.7h0c-18.5,1.1-33.1,16.6-33.4,35.2c-0.2,12.6,6.2,24.3,17,31v21c0,6.1,5,11,11,11
	h15.3c6.1,0,11-5,11-11v-21c10.6-6.5,17.1-18,17.1-30.5C-161.3,397.6-165.3,388.3-172.5,381.5z M-189.4,464.2h-15.3
	c-2.9,0-5.2-2.3-5.2-5.2v-19.8h25.8V459C-184.2,461.9-186.5,464.2-189.4,464.2z M-182,433.4H-194V409l7.7-7.7c1.1-1.1,1.1-3,0-4.1
	l0,0c-1.1-1.1-3-1.1-4.1,0l-6.5,6.5l-6.5-6.5c-1.1-1.1-3-1.1-4.1,0l0,0c-1.1,1.1-1.1,3,0,4.1l7.7,7.7v24.5h-12.2
	c-9.4-5.5-15.1-15.5-14.9-26.3c0.2-15.6,12.5-28.5,28-29.4v0c8.4-0.5,16.4,2.4,22.5,8.1c6.1,5.7,9.4,13.4,9.4,21.8
	C-167.1,418.2-172.8,428-182,433.4z"/>
</svg>
