<?xml version="1.0" encoding="utf-8"?>
<!-- Generator: Adobe Illustrator 21.0.0, SVG Export Plug-In . SVG Version: 6.00 Build 0)  -->
<svg version="1.1" id="Layer_2" xmlns="http://www.w3.org/2000/svg" xmlns:xlink="http://www.w3.org/1999/xlink" x="0px" y="0px"
	 viewBox="0 0 100 100" style="enable-background:new 0 0 100 100;" xml:space="preserve">
<path d="M86.6,1C81,0.3,75.6,3.2,73,8l-45.6,7.8H8c-4,0-7,3-7,7v35c0,4,3,7,7,7h0.4l4.1,29.6l0,0.2c0.8,3.4,3.6,5.8,6.8,5.8h5.9
	c2,0,4-0.9,5.4-2.5l0.1-0.1c1.2-1.5,1.7-3.3,1.5-5.1l-3.9-27.3l44.4,7.6c2.7,4.6,8,7.4,13.5,7C93.5,79.3,99,73,99,65.3V15.5
	C99,8,93.7,1.8,86.6,1z M30.1,20.4l42.1-7.2v54.7l-42.1-7.2V20.4z M8,59.9c-1.2,0-2-0.7-2-2v-35c0-1.2,0.7-2,2-2h17.1v39H12.8h-2.2
	H8z M26.7,94.8c-0.4,0.5-1,0.7-1.5,0.7h-5.9c-0.9,0-1.6-0.7-1.9-1.8l-4-28.8h9.6l4.1,28.5C27.2,93.7,27.2,94.2,26.7,94.8z M94,65.3
	c0,5.1-3.6,9.2-8.3,9.7c-3.3,0.2-6.7-1.5-8.5-4.2h0v-60C78.8,7.5,82.3,5.5,86,6l0,0c4.6,0.5,8,4.6,8,9.5V65.3z"/>
</svg>
