<?xml version="1.0" encoding="utf-8"?>
<!-- Generator: Adobe Illustrator 21.0.0, SVG Export Plug-In . SVG Version: 6.00 Build 0)  -->
<svg version="1.1" id="Layer_2" xmlns="http://www.w3.org/2000/svg" xmlns:xlink="http://www.w3.org/1999/xlink" x="0px" y="0px"
	 viewBox="0 0 100 100" style="enable-background:new 0 0 100 100;" xml:space="preserve">
<g>
	<path d="M94.2,9.8H86V6.2c0-1.4-1.1-2.5-2.5-2.5h-67c-1.4,0-2.5,1.1-2.5,2.5v3.7H5.8c-1.4,0-2.5,1.1-2.5,2.5v15.2
		c0,1.4,1.1,2.5,2.5,2.5H14v20v5v25.2c0,1.4,1.1,2.5,2.5,2.5h4l0,5.3c0,4.3,3.2,8,7.5,8.3c4.7,0.3,8.5-3.4,8.5-8v-5.6h27l0,5.3
		c0,4.3,3.2,8,7.5,8.3c4.7,0.3,8.5-3.4,8.5-8v-5.6h4c1.4,0,2.5-1.1,2.5-2.5V55v-5V30h8.2c1.4,0,2.5-1.1,2.5-2.5V12.3
		C96.7,11,95.5,9.8,94.2,9.8z M19,8.7h62v12.7H19V8.7z M12.7,25H8.3V14.8h4.3V25z M19,26.3h28.5V50H19V26.3z M31.5,88.3
		c0,1.7-1.3,3-3,3s-3-1.3-3-3v-5.6h6V88.3z M74.5,88.3c0,1.7-1.3,3-3,3s-3-1.3-3-3v-5.6h6V88.3z M81,77.7H19V55h62V77.7z M52.5,50
		V26.3H81V50H52.5z M91.7,25h-4.3V14.8h4.3V25z"/>
	<path d="M30.3,75.5c5,0,9-4,9-9s-4-9-9-9s-9,4-9,9S25.3,75.5,30.3,75.5z M30.3,62.5c2.2,0,4,1.8,4,4s-1.8,4-4,4s-4-1.8-4-4
		S28,62.5,30.3,62.5z"/>
	<path d="M70.3,75.5c5,0,9-4,9-9s-4-9-9-9s-9,4-9,9S65.3,75.5,70.3,75.5z M70.3,62.5c2.2,0,4,1.8,4,4s-1.8,4-4,4s-4-1.8-4-4
		S68,62.5,70.3,62.5z"/>
	<path d="M53.6,64h-6.7c-1.4,0-2.5,1.1-2.5,2.5v0c0,1.4,1.1,2.5,2.5,2.5h6.7c1.4,0,2.5-1.1,2.5-2.5v0C56.1,65.2,55,64,53.6,64z"/>
	<path d="M38.8,17.9h21.4c1.5,0,2.8-1.3,2.8-2.8v0c0-1.5-1.3-2.8-2.8-2.8H38.8c-1.5,0-2.8,1.3-2.8,2.8v0
		C36,16.7,37.3,17.9,38.8,17.9z"/>
</g>
</svg>
