<?xml version="1.0" encoding="utf-8"?>
<!-- Generator: Adobe Illustrator 21.0.0, SVG Export Plug-In . SVG Version: 6.00 Build 0)  -->
<svg version="1.1" id="Layer_2" xmlns="http://www.w3.org/2000/svg" xmlns:xlink="http://www.w3.org/1999/xlink" x="0px" y="0px"
	 viewBox="0 0 100 100" style="enable-background:new 0 0 100 100;" xml:space="preserve">
<g>
	<path d="M97,29.5H72.8v-7.8c0-1.3-1.1-2.4-2.4-2.4H29.8c-1.3,0-2.4,1.1-2.4,2.4v7.8H3.2c-1.3,0-2.4,1.1-2.4,2.4v46.5
		c0,1.3,1.1,2.4,2.4,2.4H97c1.3,0,2.4-1.1,2.4-2.4V31.9C99.5,30.5,98.4,29.5,97,29.5z M94.6,75.9H5.7V34.3h24.2
		c1.3,0,2.4-1.1,2.4-2.4v-7.8H68v7.8c0,1.3,1.1,2.4,2.4,2.4h24.2V75.9z"/>
	<path d="M50.1,37.3c-9.3,0-16.9,7.6-16.9,16.9S40.8,71,50.1,71S67,63.4,67,54.2S59.4,37.3,50.1,37.3z M50.1,66.1
		c-6.6,0-12-5.4-12-12s5.4-12,12-12s12,5.4,12,12S56.7,66.1,50.1,66.1z"/>
	<circle cx="11.8" cy="39.8" r="2.4"/>
</g>
</svg>
