<?xml version="1.0" encoding="utf-8"?>
<!-- Generator: Adobe Illustrator 21.0.0, SVG Export Plug-In . SVG Version: 6.00 Build 0)  -->
<svg version="1.1" id="Layer_2" xmlns="http://www.w3.org/2000/svg" xmlns:xlink="http://www.w3.org/1999/xlink" x="0px" y="0px"
	 viewBox="0 0 100 100" style="enable-background:new 0 0 100 100;" xml:space="preserve">
<g>
	<path d="M96.2,35.5h-2.9L90.9,8.6c-0.1-1.3-1.2-2.3-2.5-2.3H11.6c-1.3,0-2.4,1-2.5,2.3L6.7,35.5H3.9c-1.4,0-2.5,1.1-2.5,2.5v38.5
		c0,1.4,1.1,2.5,2.5,2.5h5.8v12.1c0,1.4,1.1,2.5,2.5,2.5h12.7c1.4,0,2.5-1.1,2.5-2.5V79h45.3v12.1c0,1.4,1.1,2.5,2.5,2.5h12.7
		c1.4,0,2.5-1.1,2.5-2.5V79h5.8c1.4,0,2.5-1.1,2.5-2.5V38C98.7,36.6,97.6,35.5,96.2,35.5z M13.9,11.3h72.2l2.1,24.2H11.8L13.9,11.3z
		 M22.4,88.7h-7.7V79h7.7V88.7z M85.4,88.7h-7.7V79h7.7V88.7z M93.7,74h-3.3H72.7H27.4H9.7H6.4V40.5h87.3V74z"/>
	<path d="M23.5,69c6.7,0,12.2-5.5,12.2-12.2c0-6.7-5.5-12.2-12.2-12.2c-6.7,0-12.2,5.5-12.2,12.2C11.4,63.6,16.8,69,23.5,69z
		 M23.5,49.7c4,0,7.2,3.2,7.2,7.2c0,4-3.2,7.2-7.2,7.2s-7.2-3.2-7.2-7.2C16.4,52.9,19.6,49.7,23.5,49.7z"/>
	<path d="M76.5,69c6.7,0,12.2-5.5,12.2-12.2c0-6.7-5.5-12.2-12.2-12.2c-6.7,0-12.2,5.5-12.2,12.2C64.4,63.6,69.8,69,76.5,69z
		 M76.5,49.7c4,0,7.2,3.2,7.2,7.2c0,4-3.2,7.2-7.2,7.2c-4,0-7.2-3.2-7.2-7.2C69.4,52.9,72.6,49.7,76.5,49.7z"/>
	<path d="M53.9,54.4h-7.7c-1.4,0-2.5,1.1-2.5,2.5v0c0,1.4,1.1,2.5,2.5,2.5h7.7c1.4,0,2.5-1.1,2.5-2.5v0
		C56.4,55.5,55.3,54.4,53.9,54.4z"/>
</g>
</svg>
