<?xml version="1.0" encoding="utf-8"?>
<!-- Generator: Adobe Illustrator 21.0.0, SVG Export Plug-In . SVG Version: 6.00 Build 0)  -->
<svg version="1.1" id="Layer_2" xmlns="http://www.w3.org/2000/svg" xmlns:xlink="http://www.w3.org/1999/xlink" x="0px" y="0px"
	 viewBox="0 0 100 100" style="enable-background:new 0 0 100 100;" xml:space="preserve">
<g>
	<path d="M94.5,4.6l-9.2,0c-1,0-1.9,0.8-2,1.8L82,23.6H5.3c-1.6,0-2.8,1.5-2.4,3l10,47.3c0.2,1.2,1.3,2,2.4,2h66
		c1.3,0,2.4-1,2.5-2.3l4.3-64h6.6c1.5,0,2.6-1.3,2.5-2.8C97,5.6,95.9,4.6,94.5,4.6z M79,70.9H17.3L8.4,28.6h73.3L79,70.9z"/>
	<path d="M26.3,77.2c-5,0-9.1,4.1-9.1,9.1c0,5,4.1,9.1,9.1,9.1s9.1-4.1,9.1-9.1C35.4,81.3,31.3,77.2,26.3,77.2z M26.3,90.4
		c-2.3,0-4.1-1.8-4.1-4.1c0-2.3,1.8-4.1,4.1-4.1s4.1,1.8,4.1,4.1C30.4,88.5,28.6,90.4,26.3,90.4z"/>
	<path d="M73.7,77.2c-5,0-9.1,4.1-9.1,9.1c0,5,4.1,9.1,9.1,9.1c5,0,9.1-4.1,9.1-9.1C82.8,81.3,78.7,77.2,73.7,77.2z M73.7,90.4
		c-2.3,0-4.1-1.8-4.1-4.1c0-2.3,1.8-4.1,4.1-4.1c2.3,0,4.1,1.8,4.1,4.1C77.8,88.5,76,90.4,73.7,90.4z"/>
</g>
</svg>
