<?xml version="1.0" encoding="utf-8"?>
<!-- Generator: Adobe Illustrator 21.0.0, SVG Export Plug-In . SVG Version: 6.00 Build 0)  -->
<svg version="1.1" id="Layer_2" xmlns="http://www.w3.org/2000/svg" xmlns:xlink="http://www.w3.org/1999/xlink" x="0px" y="0px"
	 viewBox="0 0 100 100" style="enable-background:new 0 0 100 100;" xml:space="preserve">
<path d="M97.5,24.5H84.3l15-15c1-1,1-2.6,0-3.5s-2.6-1-3.5,0L77.3,24.5H2.5C1.1,24.5,0,25.6,0,27v65c0,1.4,1.1,2.5,2.5,2.5h95
	c1.4,0,2.5-1.1,2.5-2.5V27C100,25.6,98.9,24.5,97.5,24.5z M95,89.5H5v-60h67.3L44.7,57L36,48.4c-1-1-2.6-1-3.5,0c-0.9,1-1,2.6,0,3.6
	l10.7,10.7c0.8,0.8,2,0.8,2.8,0l33.2-33.1H95V89.5z"/>
</svg>
