<?xml version="1.0" encoding="utf-8"?>
<!-- Generator: Adobe Illustrator 21.0.0, SVG Export Plug-In . SVG Version: 6.00 Build 0)  -->
<svg version="1.1" id="Layer_1" xmlns="http://www.w3.org/2000/svg" xmlns:xlink="http://www.w3.org/1999/xlink" x="0px" y="0px"
	 viewBox="0 0 100 100" style="enable-background:new 0 0 100 100;" xml:space="preserve">
<g>
	<path d="M50.2,99.3c27.2,0,49.3-22,49.3-49.2S77.4,0.8,50.2,0.8S0.9,22.9,0.9,50.1C1,77.3,23.1,99.3,50.2,99.3z M50.2,5.8
		c24.4,0,44.3,19.9,44.3,44.3S74.6,94.3,50.2,94.3S6,74.5,6,50.1S25.8,5.8,50.2,5.8z"/>
	<path d="M16.9,36l31.9,31.9c0.8,0.8,2,0.8,2.8,0l32-31.9c1-1,1-2.6,0-3.5s-2.6-1-3.5,0L50.3,62.3L20.4,32.4c-1-1-2.6-1-3.5,0
		S15.9,35,16.9,36z"/>
</g>
</svg>
