<?xml version="1.0" encoding="utf-8"?>
<!-- Generator: Adobe Illustrator 21.0.0, SVG Export Plug-In . SVG Version: 6.00 Build 0)  -->
<svg version="1.1" id="Layer_1" xmlns="http://www.w3.org/2000/svg" xmlns:xlink="http://www.w3.org/1999/xlink" x="0px" y="0px"
	 viewBox="0 0 100 100" style="enable-background:new 0 0 100 100;" xml:space="preserve">
<g>
	<path d="M0.9,50c0,27.2,22,49.3,49.2,49.3S99.5,77.3,99.5,50S77.4,0.8,50.2,0.8C22.9,0.9,0.9,22.9,0.9,50z M94.5,50
		c0,24.4-19.9,44.3-44.3,44.3S5.9,74.5,5.9,50S25.7,5.8,50.1,5.8S94.5,25.7,94.5,50z"/>
	<path d="M64.3,16.8L32.3,48.7c-0.8,0.8-0.8,2,0,2.8l31.9,32c1,1,2.6,1,3.5,0s1-2.6,0-3.5L37.9,50.2l29.9-29.9c1-1,1-2.6,0-3.5
		S65.3,15.8,64.3,16.8z"/>
</g>
</svg>
