<?xml version="1.0" encoding="utf-8"?>
<!-- Generator: Adobe Illustrator 19.0.0, SVG Export Plug-In . SVG Version: 6.00 Build 0)  -->
<svg version="1.1" id="Layer_1" xmlns="http://www.w3.org/2000/svg" xmlns:xlink="http://www.w3.org/1999/xlink" x="0px" y="0px"
	 width="100px" height="100px" viewBox="-74 0 100 100" style="enable-background:new -74 0 100 100;" xml:space="preserve">
<path d="M-24,0.5c-27.3,0-49.5,22.2-49.5,49.5c0,27.3,22.2,49.5,49.5,49.5c27.3,0,49.5-22.2,49.5-49.5C25.5,22.7,3.3,0.5-24,0.5z
	 M-24,5.5c16.9,0,31.6,9.4,39.1,23.3l-39.2,1.4l0,0c-10.8,0-19.7,8.9-19.7,19.7c0,2.5,0.5,4.8,1.3,7L-68,43.6
	C-64.9,22.1-46.4,5.5-24,5.5z M-24,64.8c-8.1,0-14.8-6.6-14.8-14.8c0-8.1,6.6-14.8,14.8-14.8c8.1,0,14.8,6.6,14.8,14.8
	C-9.3,58.1-15.9,64.8-24,64.8z M-68.5,50c0-0.3,0-0.7,0-1l34.6,18.1l0,0c2.9,1.7,6.3,2.7,9.9,2.7c3.2,0,6.2-0.8,8.9-2.2l-10.5,26.9
	C-49.4,93.6-68.5,74-68.5,50z M-20.2,94.3L-6,58.2l0,0c1.2-2.5,1.8-5.3,1.8-8.2c0-6.1-2.8-11.6-7.2-15.2l28.8-1
	c2,5,3.1,10.5,3.1,16.3C20.5,73.2,2.6,92.4-20.2,94.3z"/>
</svg>
