<?xml version="1.0" encoding="utf-8"?>
<!-- Generator: Adobe Illustrator 21.0.0, SVG Export Plug-In . SVG Version: 6.00 Build 0)  -->
<svg version="1.1" id="Layer_1" xmlns="http://www.w3.org/2000/svg" xmlns:xlink="http://www.w3.org/1999/xlink" x="0px" y="0px"
	 viewBox="0 0 100 100" style="enable-background:new 0 0 100 100;" xml:space="preserve">
<g>
	<path d="M50.2,0.8C23,0.8,0.9,22.8,0.9,50c0,27.2,22.1,49.3,49.3,49.3c27.2,0,49.3-22.1,49.3-49.3C99.4,22.8,77.3,0.8,50.2,0.8z
		 M50.2,94.3C25.8,94.3,5.9,74.4,5.9,50S25.8,5.8,50.2,5.8S94.4,25.6,94.4,50S74.6,94.3,50.2,94.3z"/>
	<path d="M75.5,47.5h-49c-1.4,0-2.5,1.1-2.5,2.5s1.1,2.5,2.5,2.5h49c1.4,0,2.5-1.1,2.5-2.5S76.9,47.5,75.5,47.5z"/>
</g>
</svg>
