<?xml version="1.0" encoding="utf-8"?>
<!-- Generator: Adobe Illustrator 21.0.0, SVG Export Plug-In . SVG Version: 6.00 Build 0)  -->
<svg version="1.1" id="Layer_2" xmlns="http://www.w3.org/2000/svg" xmlns:xlink="http://www.w3.org/1999/xlink" x="0px" y="0px"
	 viewBox="0 0 100 100" style="enable-background:new 0 0 100 100;" xml:space="preserve">
<style type="text/css">
	.st0{fill:none;}
</style>
<rect x="51.3" y="5.9" class="st0" width="2.1" height="3.4"/>
<line class="st0" x1="36.6" y1="20.8" x2="68.1" y2="20.8"/>
<polygon class="st0" points="31.6,25.8 31.6,20 24.1,20 24.1,94.5 80.6,94.5 80.6,20 73.1,20 73.1,25.8 "/>
<path d="M73.1,15v-3.8c0-1.1-0.9-2-2-2H58.3V6.9c0-3.3-2.7-6-6-6h0c-3.3,0-6,2.7-6,6v2.3H33.6c-1.1,0-2,0.9-2,2V15H21.1
	c-1.1,0-2,0.9-2,2v80.5c0,1.1,0.9,2,2,2h62.5c1.1,0,2-0.9,2-2V17c0-1.1-0.9-2-2-2H73.1z M36.6,14.3h13.7c0.6,0,1-0.4,1-1l0-6.3
	c0-0.6,0.5-1,1-1l0,0c0.6,0,1,0.5,1,1v6.3c0,0.6,0.4,1,1,1h13.7v6.5H36.6V14.3z M80.6,94.5H24.1V20h7.5v3.8c0,1.1,0.9,2,2,2h37.5
	c1.1,0,2-0.9,2-2V20h7.5V94.5z"/>
</svg>
