<?xml version="1.0" encoding="utf-8"?>
<!-- Generator: Adobe Illustrator 19.0.0, SVG Export Plug-In . SVG Version: 6.00 Build 0)  -->
<svg version="1.1" id="Layer_1" xmlns="http://www.w3.org/2000/svg" xmlns:xlink="http://www.w3.org/1999/xlink" x="0px" y="0px"
	 width="100px" height="100px" viewBox="-247 370.9 100 100" style="enable-background:new -247 370.9 100 100;"
	 xml:space="preserve">
<g>
	<path d="M-221.1,456.4c-3.8,0-7.8-1-11.5-2.8c-8.6-4.5-13.8-13.1-13.8-22.7c0-8.3,4.3-16.1,11.4-20.9c6.4-4.4,14-5.6,21.1-3.3
		c1.9-12.2,12.3-21.3,25.1-21.3c11,0,20.9,7.2,24.1,17.5c0.4,1,0.7,2.7,0.9,4.1c1.3,0.5,2.6,1.2,4,2.1c7.9,4.7,12.5,12.9,12.4,21.8
		c0,8.6-4.4,16.8-11.6,21.4c-4.3,2.6-9,4-13.8,4L-221.1,456.4z M-221.1,410.5c-3.9,0-7.7,1.2-11.1,3.6c-5.8,3.9-9.2,10.2-9.2,16.8
		c0,7.7,4.2,14.7,11.1,18.2c3,1.5,6.2,2.2,9.3,2.2l48.3-0.1c3.8,0,7.7-1.1,11.1-3.2c5.7-3.6,9.2-10.2,9.2-17.2
		c0.1-7.2-3.7-13.7-10.1-17.6c-1.6-1.1-3-1.7-4.3-2l-1.9-0.5V409c-0.1-0.7-0.4-3.4-0.8-4.4l0-0.1c-2.5-8.3-10.5-14-19.3-14
		c-11,0-20.1,8.9-20.4,19.8l-0.1,3.5l-4.7-1.8C-216.3,411-218.7,410.5-221.1,410.5z"/>
</g>
</svg>
