<?xml version="1.0" encoding="utf-8"?>
<!-- Generator: Adobe Illustrator 19.0.0, SVG Export Plug-In . SVG Version: 6.00 Build 0)  -->
<svg version="1.1" id="Layer_1" xmlns="http://www.w3.org/2000/svg" xmlns:xlink="http://www.w3.org/1999/xlink" x="0px" y="0px"
	 width="100px" height="100px" viewBox="-247 370.9 100 100" style="enable-background:new -247 370.9 100 100;"
	 xml:space="preserve">
<g>
	<path d="M-159.9,409.1c-1.4-0.9-2.7-1.6-4-2.1c-0.2-1.3-0.5-3-0.9-4.1c-3.2-10.3-13.1-17.5-24.1-17.5c-12.7,0-23.1,9.1-25.1,21.3
		c-7.1-2.3-14.7-1.1-21.1,3.3c-7.2,4.8-11.4,12.6-11.4,20.9c0,9.6,5.3,18.2,13.8,22.7c3.8,1.8,7.7,2.8,11.5,2.8l48.3-0.1
		c4.8,0,9.5-1.4,13.8-4c7.1-4.6,11.6-12.8,11.6-21.4C-147.4,422-152.1,413.8-159.9,409.1z M-161.7,448.1c-3.4,2.1-7.3,3.2-11.1,3.2
		l-48.3,0.1c-3,0-6.3-0.8-9.3-2.2c-6.8-3.6-11.1-10.5-11.1-18.2c0-6.6,3.4-12.9,9.2-16.8c3.4-2.4,7.3-3.6,11.1-3.6
		c2.4,0,4.8,0.5,7.1,1.4l4.7,1.8l0.1-3.5c0.3-10.9,9.4-19.8,20.4-19.8c8.8,0,16.8,5.8,19.3,14l0,0.1c0.4,1,0.7,3.7,0.8,4.4v1.8
		l1.9,0.5c1.3,0.4,2.7,1,4.3,2c6.4,3.8,10.2,10.4,10.1,17.6C-152.5,437.8-156.1,444.4-161.7,448.1z"/>
	<path d="M-194.7,421.8L-194.7,421.8c-1-1-2.6-1-3.5,0l-3.3,3.3c1.3-6.9,7.4-12.2,14.7-12.2c3.6,0,7,1.3,9.7,3.5
		c0.9,0.8,2.3,0.8,3.3-0.1l0,0c1.1-1,1.1-2.8,0-3.8c-3.6-3-8.1-4.7-12.9-4.7c-10,0-18.3,7.4-19.7,17l-3-3c-1-1-2.6-1-3.5,0l0,0
		c-1,1-1,2.6,0,3.5l7.8,7.8c0.8,0.8,2,0.8,2.8,0l7.8-7.8C-193.7,424.3-193.7,422.8-194.7,421.8z"/>
	<path d="M-167.9,421.5c-0.8-0.8-2-0.8-2.8,0l-7.8,7.8c-1,1-1,2.6,0,3.5s2.6,1,3.5,0l2.9-2.9c-0.4,2.2-1,4.3-1.9,5.7
		c-2.7,4.5-7.5,7.1-12.8,7.1c-4.2,0-8.1-1.7-10.9-4.8c-0.8-0.9-2.2-1-3.2-0.3v0c-1.2,0.9-1.4,2.6-0.4,3.7c3.7,4,9,6.3,14.6,6.3
		c7,0,13.4-3.6,17-9.5c1.4-2.3,2.4-5.5,2.8-8.8l3.3,3.3c1,1,2.6,1,3.5,0s1-2.6,0-3.5L-167.9,421.5z"/>
</g>
</svg>
