<?xml version="1.0" encoding="utf-8"?>
<!-- Generator: Adobe Illustrator 19.0.0, SVG Export Plug-In . SVG Version: 6.00 Build 0)  -->
<svg version="1.1" id="Layer_1" xmlns="http://www.w3.org/2000/svg" xmlns:xlink="http://www.w3.org/1999/xlink" x="0px" y="0px"
	 width="100px" height="100px" viewBox="-909 226 100 100" style="enable-background:new -909 226 100 100;" xml:space="preserve">
<path d="M-821.8,251.9c-1.4-0.9-2.7-1.6-4-2.1c-0.2-1.4-0.5-3.1-0.9-4.1c-3.2-10.3-13.1-17.5-24.1-17.5c-12.8,0-23.2,9.1-25.1,21.3
	c-7.1-2.3-14.7-1.1-21.1,3.3c-7.1,4.8-11.4,12.6-11.4,20.9c0,9.6,5.2,18.2,13.8,22.7c3.7,1.8,7.7,2.8,11.5,2.8l21.6,0v22.1
	c0,1.4,1.1,2.5,2.5,2.5c1.6,0,2.7-1.1,2.7-2.5v-22.2l21.5,0c4.8,0,9.5-1.4,13.8-4c7.2-4.6,11.6-12.8,11.6-21.4
	C-809.3,264.8-813.9,256.6-821.8,251.9z M-823.6,290.8c-3.4,2.1-7.3,3.2-11.1,3.2l-21.6,0v-26.3l7.6,7.7c1,1,2.6,1,3.5,0
	c1-1,1-2.6,0-3.5l-13-12.9c-0.4-0.4-1-0.4-1.4,0l-13,12.9c-1,1-1,2.6,0,3.5c1,1,2.6,1,3.5,0l7.6-7.7v26.4l-21.5,0
	c-3.1,0-6.3-0.7-9.3-2.2c-6.9-3.5-11.1-10.5-11.1-18.2c0-6.6,3.4-12.9,9.2-16.8c3.4-2.4,7.2-3.6,11.1-3.6c2.4,0,4.8,0.5,7.1,1.5
	l4.7,1.8l0.1-3.5c0.3-10.9,9.4-19.8,20.4-19.8c8.8,0,16.8,5.7,19.3,14v0.1c0.4,1,0.7,3.7,0.8,4.4v1.7l1.9,0.5c1.3,0.3,2.7,0.9,4.3,2
	c6.4,3.9,10.2,10.4,10.1,17.6C-814.4,280.6-817.9,287.2-823.6,290.8z"/>
</svg>
