<?xml version="1.0" encoding="utf-8"?>
<!-- Generator: Adobe Illustrator 19.0.0, SVG Export Plug-In . SVG Version: 6.00 Build 0)  -->
<svg version="1.1" id="Layer_1" xmlns="http://www.w3.org/2000/svg" xmlns:xlink="http://www.w3.org/1999/xlink" x="0px" y="0px"
	 width="100px" height="100px" viewBox="0 0 100 100" style="enable-background:new 0 0 100 100;" xml:space="preserve">
<g id="XMLID_4_">
	<path id="XMLID_8_" d="M7.5,50l23.6-23.6c1-1,1-2.6,0-3.5v0c-1-1-2.6-1-3.5,0L2.2,48.2c-1,1-1,2.6,0,3.5l25.4,25.4c1,1,2.6,1,3.5,0
		l0,0c1-1,1-2.6,0-3.5L7.5,50z"/>
	<path id="XMLID_9_" d="M97.8,48.2L72.5,22.8c-1-1-2.6-1-3.5,0v0c-1,1-1,2.6,0,3.5L92.5,50L68.9,73.6c-1,1-1,2.6,0,3.5s2.6,1,3.5,0
		l25.4-25.4C98.8,50.8,98.8,49.2,97.8,48.2z"/>
	<path id="XMLID_10_" d="M61.2,16.8L61.2,16.8c-1.3-0.4-2.7,0.3-3.2,1.6L37.2,80c-0.4,1.3,0.3,2.7,1.6,3.2l0,0
		c1.3,0.4,2.7-0.3,3.2-1.6L62.8,20C63.2,18.6,62.5,17.2,61.2,16.8z"/>
</g>
</svg>
