<?xml version="1.0" encoding="utf-8"?>
<!-- Generator: Adobe Illustrator 19.0.0, SVG Export Plug-In . SVG Version: 6.00 Build 0)  -->
<svg version="1.1" id="Layer_2" xmlns="http://www.w3.org/2000/svg" xmlns:xlink="http://www.w3.org/1999/xlink" x="0px" y="0px"
	 width="100px" height="100px" viewBox="-247 370.9 100 100" style="enable-background:new -247 370.9 100 100;"
	 xml:space="preserve">
<path d="M-165.7,437.9c1,0.2,1.9,0.3,2.9,0.3c8.1,0,14.6-7.4,14.6-16.5c0-9.1-6.6-16.5-14.6-16.5c-0.4,0-0.8,0-1.3,0.1
	c0-1.2-1-2.2-2.2-2.2h-19.5c2.1-0.5,4.1-1.4,5.9-2.5c0.5-0.3,1.4-0.8,1.9-2c0.3-0.7,0.4-1.3,0.4-1.7c0.1-1.5,0.3-4.7-2-6.6
	c-1.5-1.3-3.3-1.4-4.7-1.5l-0.2,0c-2.4-0.2-4.8-0.7-7-1.6c-0.4-0.1-1.3-0.5-1.6-0.9c-0.3-0.4-0.2-1.3,0.3-1.9
	c0.6-0.8,1.7-1.4,3.3-1.8c0.8-0.2,1.7-0.4,2.6-0.5c1.2-0.1,2.1-1.2,2.1-2.4l0-0.1c0-1.5-1.3-2.7-2.8-2.5c-1.1,0.1-2.1,0.3-3.2,0.6
	c-2.6,0.7-4.6,1.9-5.8,3.5c-1.9,2.4-2.1,5.8-0.3,8c1.1,1.5,2.7,2.1,4.1,2.6c2.6,1,5.3,1.5,8.1,1.7l0.2,0c0.6,0,1.5,0.1,1.8,0.3
	c0.1,0.1,0.4,0.6,0.2,2.3c-1.8,1.1-3.8,1.8-5.9,2.1l-0.6,0.1c-1.2,0.2-2.7,0.4-4.1,1.2c-1.2,0.7-2.1,1.9-2.4,3.2h-21.2
	c2.1-0.5,4.1-1.4,5.9-2.5c0.5-0.3,1.4-0.8,1.9-2c0.3-0.7,0.4-1.3,0.4-1.7c0.1-1.5,0.3-4.7-2-6.6c-1.5-1.3-3.3-1.4-4.7-1.5l-0.2,0
	c-2.4-0.2-4.8-0.7-7-1.6c-0.4-0.1-1.3-0.5-1.6-0.9c-0.3-0.4-0.2-1.3,0.3-1.9c0.6-0.8,1.7-1.4,3.3-1.8c0.8-0.2,1.7-0.4,2.6-0.5
	c1.2-0.1,2.1-1.2,2.1-2.4l0-0.1c0-1.5-1.3-2.7-2.8-2.5c-1.1,0.1-2.1,0.3-3.2,0.6c-2.6,0.7-4.6,1.9-5.8,3.5c-1.9,2.4-2.1,5.8-0.3,8
	c1.1,1.5,2.8,2.1,4.1,2.6c2.6,0.9,5.3,1.5,8.1,1.7l0.2,0c0.6,0,1.5,0.1,1.8,0.3c0.1,0.1,0.3,0.6,0.2,2.3c-1.8,1.1-3.8,1.8-5.9,2.1
	l-0.6,0.1c-1.2,0.2-2.7,0.4-4.1,1.2c-1.2,0.7-2.1,1.9-2.4,3.2h-10.8c-1.2,0-2.2,1-2.2,2.2v21.5c0,14,7.7,26.2,19,32.8h-22.3
	c-1.4,0-2.5,1.1-2.5,2.5s1.1,2.5,2.5,2.5h81c1.4,0,2.5-1.1,2.5-2.5s-1.1-2.5-2.5-2.5H-183C-174.8,454.9-168.5,447.1-165.7,437.9z
	 M-164,426.8v-16.5c0.4-0.1,0.8-0.1,1.3-0.1c5.3,0,9.6,5.2,9.6,11.5c0,6.3-4.3,11.5-9.6,11.5c-0.6,0-1.2-0.1-1.8-0.2
	C-164.2,431-164,429-164,426.8z M-201.8,459.6c-18.1,0-32.8-14.7-32.8-32.8v-18.8h65.5v18.8C-169,444.9-183.7,459.6-201.8,459.6z"/>
</svg>
