<?xml version="1.0" encoding="utf-8"?>
<!-- Generator: Adobe Illustrator 19.0.0, SVG Export Plug-In . SVG Version: 6.00 Build 0)  -->
<svg version="1.1" id="Layer_2" xmlns="http://www.w3.org/2000/svg" xmlns:xlink="http://www.w3.org/1999/xlink" x="0px" y="0px"
	 width="100px" height="100px" viewBox="-249 151 100 100" style="enable-background:new -249 151 100 100;" xml:space="preserve">
<g>
	<path d="M-164.8,222.6l-0.1,0c-1.5-0.3-4.3-1.3-5.3-2.3c-1.6-1.6-2.4-3.7-2.4-6c0-2.3,0.9-4.5,2.4-6l6.9-6.9
		c10.7-10.7,10.7-27.3,0-38c-7.5-7.5-17.8-11.6-29-11.6c-13,0-26.1,5.6-35.9,15.4c-9.3,9.3-14.4,21.5-14.4,34.5
		c0,13.1,5.1,25.3,14.3,34.4c9.3,9.3,21.5,14.4,34.5,14.4c13,0,25.2-5.2,34.4-14.5c1.4-1.4,2.2-3.4,2.2-5.5c0-2.1-0.8-4.1-2.2-5.5
		C-160.3,224.1-161.4,223.5-164.8,222.6z M-163.1,232.3c-8.2,8.4-19.1,13-30.8,13c-11.6,0-22.6-4.6-30.9-12.9
		c-8.3-8.2-12.8-19.1-12.8-30.8c0-11.6,4.6-22.6,12.9-30.9c8.9-8.9,20.7-14,32.4-14c9.9,0,18.9,3.6,25.4,10.1
		c8.7,8.7,8.7,22.2,0,30.9l-6.9,6.9c-2.5,2.5-3.9,5.9-3.9,9.6c0,3.7,1.4,7.1,3.9,9.6c2.2,2.2,6.3,3.4,7.9,3.7c2.1,0.5,2.8,0.8,3,0.9
		c0.4,0.5,0.7,1.1,0.7,1.9C-162.3,231.1-162.6,231.8-163.1,232.3z"/>
	<path d="M-199.9,162.1c-4.7,0-8.6,3.9-8.6,8.6c0,4.7,3.9,8.6,8.6,8.6c4.7,0,8.6-3.9,8.6-8.6C-191.3,165.9-195.2,162.1-199.9,162.1z
		 M-199.9,174.3c-2,0-3.6-1.6-3.6-3.6s1.6-3.6,3.6-3.6s3.6,1.6,3.6,3.6C-196.3,172.7-197.9,174.3-199.9,174.3z"/>
	<path d="M-173.4,174.5c0-4-3.3-7.3-7.3-7.3c-4,0-7.3,3.3-7.3,7.3s3.3,7.3,7.3,7.3C-176.6,181.8-173.4,178.5-173.4,174.5z
		 M-180.7,176.8c-1.3,0-2.3-1-2.3-2.3s1-2.3,2.3-2.3c1.3,0,2.3,1,2.3,2.3C-178.4,175.7-179.4,176.8-180.7,176.8z"/>
	<path d="M-167.3,189.9c0-3.4-2.8-6.2-6.2-6.2s-6.2,2.8-6.2,6.2s2.8,6.2,6.2,6.2S-167.3,193.3-167.3,189.9z M-174.7,189.9
		c0-0.7,0.5-1.2,1.2-1.2s1.2,0.5,1.2,1.2c0,0.7-0.5,1.2-1.2,1.2S-174.7,190.5-174.7,189.9z"/>
</g>
</svg>
