<?xml version="1.0" encoding="utf-8"?>
<!-- Generator: Adobe Illustrator 19.0.0, SVG Export Plug-In . SVG Version: 6.00 Build 0)  -->
<svg version="1.1" id="Layer_1" xmlns="http://www.w3.org/2000/svg" xmlns:xlink="http://www.w3.org/1999/xlink" x="0px" y="0px"
	 width="100px" height="100px" viewBox="-247 370.9 100 100" style="enable-background:new -247 370.9 100 100;"
	 xml:space="preserve">
<path d="M-150.1,388.3l-60-7V377c0-1.4-1.1-2.5-2.5-2.5h-19c-1.4,0-2.5,1.1-2.5,2.5v25.6c0,1.4,1.1,2.5,2.5,2.5h2.7v28.5h-14.8
	c-1.4,0-2.5,1.1-2.5,2.5v28.7c0,1.4,1.1,2.5,2.5,2.5h43.2c1.4,0,2.5-1.1,2.5-2.5v-28.7c0-1.4-1.1-2.5-2.5-2.5h-14.8v-28.5h2.7
	c1.4,0,2.5-1.1,2.5-2.5v-2.6h40.9l0,25.5l0,2.3c0,1.4,1.1,2.5,2.5,2.5l0,0c0.9,0,1.7,0.2,2.5,0.5c1.7,0.7,3.1,2,3.8,3.6
	c0.6,1.3,0.8,2.8,0.4,4.3c-0.6,2.6-2.7,4.7-5.4,5.2c-4.4,0.8-8.2-2.5-8.2-6.7c0-0.8,0.1-1.6,0.4-2.4l0,0c0.1-0.2,0.1-0.5,0.1-0.7
	c0-1.3-1.2-2.4-2.6-2.4s-2.3,1.3-2.6,2.7c-0.6,2.4-0.5,4.9,0.7,7.4c2,4.3,6.2,7.3,11,7.2c6.5-0.1,11.7-5.4,11.7-11.9
	c0-0.9-0.1-1.9-0.3-2.8c-1.1-4.4-4.6-7.9-9-8.8l0-25.5h13.8c1.4,0,2.5-1.1,2.5-2.5v-6.6C-147.9,389.5-148.8,388.5-150.1,388.3z
	 M-203.1,438.8v23.3H-241v-23.3h12.1h13.7H-203.1z M-220.4,433.6h-3.3v-28.5h3.3V433.6z M-228.9,399.9v-20.2h13.7v1.1v19.2h0H-228.9
	z M-153,394.7h-57v-8.2l57,6.7V394.7z"/>
</svg>
