<?xml version="1.0" encoding="utf-8"?>
<!-- Generator: Adobe Illustrator 19.0.0, SVG Export Plug-In . SVG Version: 6.00 Build 0)  -->
<svg version="1.1" id="Layer_2" xmlns="http://www.w3.org/2000/svg" xmlns:xlink="http://www.w3.org/1999/xlink" x="0px" y="0px"
	 width="100px" height="100px" viewBox="-247 370.9 100 100" style="enable-background:new -247 370.9 100 100;"
	 xml:space="preserve">
<path d="M-154.6,458.1v-76.5l3.3-3.3c1-1,1-2.6,0-3.5l0,0c-1-1-2.6-1-3.5,0l-3.3,3.3h-76.5v-3.1c0-1.4-1.1-2.5-2.5-2.5h0
	c-1.4,0-2.5,1.1-2.5,2.5v3.1h-3.1c-1.4,0-2.5,1.1-2.5,2.5v0c0,1.4,1.1,2.5,2.5,2.5h3.1v75.1h-3.1c-1.4,0-2.5,1.1-2.5,2.5v0
	c0,1.4,1.1,2.5,2.5,2.5h3.1v3.1c0,1.4,1.1,2.5,2.5,2.5h0c1.4,0,2.5-1.1,2.5-2.5v-3.1h75.1v3.1c0,1.4,1.1,2.5,2.5,2.5h0
	c1.4,0,2.5-1.1,2.5-2.5v-3.1h3.1c1.4,0,2.5-1.1,2.5-2.5v0c0-1.4-1.1-2.5-2.5-2.5H-154.6z M-159.6,386.6v71.5h-71.5L-159.6,386.6z
	 M-234.7,454.6v-71.5h71.5L-234.7,454.6z"/>
</svg>
