<?xml version="1.0" encoding="utf-8"?>
<!-- Generator: Adobe Illustrator 19.0.0, SVG Export Plug-In . SVG Version: 6.00 Build 0)  -->
<svg version="1.1" id="Layer_2" xmlns="http://www.w3.org/2000/svg" xmlns:xlink="http://www.w3.org/1999/xlink" x="0px" y="0px"
	 width="100px" height="100px" viewBox="0 0 100 100" style="enable-background:new 0 0 100 100;" xml:space="preserve">
<g>
	<path d="M97.9,12c-1.4-0.7-3.1-0.3-4.2,0.8L72.9,37.6l-20-23.8c-0.7-0.8-1.7-1.3-2.8-1.3c0,0,0,0,0,0c-1,0-2,0.5-2.7,1.3L26.9,37.9
		L6.4,13.4c-1-1.2-2.5-1.6-4-1.1C1,12.9,0,14.3,0,16.1l2.4,68.3c0,2.1,1.7,3.9,3.7,3.9h87.9c2,0,3.7-1.8,3.7-3.8l2.4-68.8
		C100.1,14.1,99.3,12.7,97.9,12z M92.7,83.3H7.3L6.6,62.7h86.7L92.7,83.3z M93.5,57.7H6.4L5.1,19.6l21.8,26.1l23.3-27.4l22.8,27.1
		l21.9-26.2L93.5,57.7z"/>
	<path d="M22,81.3c4.7,0,8.5-3.8,8.5-8.5s-3.8-8.5-8.5-8.5c-4.7,0-8.5,3.8-8.5,8.5S17.3,81.3,22,81.3z M22,69.3
		c1.9,0,3.5,1.6,3.5,3.5s-1.6,3.5-3.5,3.5c-1.9,0-3.5-1.6-3.5-3.5S20.1,69.3,22,69.3z"/>
	<path d="M50,81.3c4.7,0,8.5-3.8,8.5-8.5s-3.8-8.5-8.5-8.5c-4.7,0-8.5,3.8-8.5,8.5S45.3,81.3,50,81.3z M50,69.3
		c1.9,0,3.5,1.6,3.5,3.5s-1.6,3.5-3.5,3.5c-1.9,0-3.5-1.6-3.5-3.5S48.1,69.3,50,69.3z"/>
	<path d="M78,81.3c4.7,0,8.5-3.8,8.5-8.5s-3.8-8.5-8.5-8.5s-8.5,3.8-8.5,8.5S73.3,81.3,78,81.3z M78,69.3c1.9,0,3.5,1.6,3.5,3.5
		s-1.6,3.5-3.5,3.5s-3.5-1.6-3.5-3.5S76.1,69.3,78,69.3z"/>
</g>
</svg>
