<?xml version="1.0" encoding="utf-8"?>
<!-- Generator: Adobe Illustrator 19.0.0, SVG Export Plug-In . SVG Version: 6.00 Build 0)  -->
<svg version="1.1" id="Layer_1" xmlns="http://www.w3.org/2000/svg" xmlns:xlink="http://www.w3.org/1999/xlink" x="0px" y="0px"
	 width="100px" height="100px" viewBox="-74 0 100 100" style="enable-background:new -74 0 100 100;" xml:space="preserve">
<g>
	<path d="M22.2,4.1L22.2,4.1c-1.1-1.1-2.5-1.7-4-1.7h-84.4c-1.6,0-3,0.6-4,1.8c-1,1.1-1.5,2.5-1.3,4l7.6,75.8
		c0.2,2.5,2.2,4.7,4.6,5.3l32.6,8l0.1,0c0.6,0.1,1.5,0.3,2.5,0.3c1,0,1.8-0.1,2.5-0.3l32.8-8c2.5-0.6,4.5-2.8,4.7-5.2l7.6-75.7
		C23.8,6.9,23.3,5.3,22.2,4.1z M10.8,83.6c0,0.3-0.4,0.7-0.8,0.8l-32.6,8c-0.9,0.2-2,0.2-2.9,0l-32.5-8c-0.4-0.1-0.8-0.5-0.8-0.9
		l-7.6-75.9l0,0l0.1-0.1c0,0,0.1-0.1,0.3-0.1h84.4c0,0,0.1,0,0.3,0.1L10.8,83.6z"/>
	<path d="M2.8,19.4h-48.6c-1.4,0-2.5,1.1-2.5,2.5v0c0,1.4,1.1,2.5,2.5,2.5h47l-2.9,16.9h-43c-1.4,0-2.5,1.1-2.5,2.5v0
		c0,1.4,1.1,2.5,2.5,2.5h42.1l-3.5,20.2l-16.5,6.1l-16.5-6.1l-2.2-10.8c-0.3-1.4-1.6-2.2-2.9-2l0,0c-1.4,0.3-2.2,1.6-2,2.9l2.7,13.6
		l20.9,7.7l20.9-7.7l8.1-46.6c0.2-1.1-0.1-2.1-0.8-3C4.9,19.8,3.9,19.4,2.8,19.4z"/>
</g>
</svg>
