<?xml version="1.0" encoding="utf-8"?>
<!-- Generator: Adobe Illustrator 19.0.0, SVG Export Plug-In . SVG Version: 6.00 Build 0)  -->
<svg version="1.1" id="Layer_2" xmlns="http://www.w3.org/2000/svg" xmlns:xlink="http://www.w3.org/1999/xlink" x="0px" y="0px"
	 width="100px" height="100px" viewBox="0 0 100 100" style="enable-background:new 0 0 100 100;" xml:space="preserve">
<path d="M84.7,9.6H69.6V2.5c0-1.4-1.1-2.5-2.5-2.5H32.9c-1.4,0-2.5,1.1-2.5,2.5v7H15.3c-1.9,0-3.5,1.6-3.5,3.5v2.9
	c0,10.8,5,23.3,18.9,23.9c1.1,6.9,5.7,12.6,12.4,15.1c0.3,0.1,0.5,0.2,0.8,0.2v32.4H33.3c-1.4,0-2.5,1.1-2.5,2.5v7.5
	c0,1.4,1.1,2.5,2.5,2.5h33.4c1.4,0,2.5-1.1,2.5-2.5V90c0-1.4-1.1-2.5-2.5-2.5H56.1V55.1c0.4-0.1,0.7-0.2,1.1-0.4
	c6.5-2.5,11-8.2,12.1-14.9c13.9-0.6,18.9-13.1,18.9-23.9v-2.7C88.2,11.2,86.7,9.6,84.7,9.6z M16.6,15.8v-1.6h13.8V35
	C17.6,34.1,16.6,20.2,16.6,15.8z M64.4,92.3v3H35.6v-3h8.3h12.3H64.4z M48.6,87.5V56.4c0.9,0,1.8,0,2.7,0v31.2H48.6z M64.9,36.5
	c0,6.2-3.7,11.6-9.3,13.8l0,0C53.7,51,52,51.3,50,51.3c-1.8,0-3.5-0.3-5.3-0.9c-5.8-2.2-9.6-7.6-9.6-13.9v-0.1c0,0,0,0,0-0.1V13
	c0,0,0,0,0-0.1V4.8h29.7V36.5z M83.4,15.8c0,4.3-1,18.2-13.7,19.1V14.4h13.7V15.8z"/>
</svg>
