<?xml version="1.0" encoding="utf-8"?>
<!-- Generator: Adobe Illustrator 19.0.0, SVG Export Plug-In . SVG Version: 6.00 Build 0)  -->
<svg version="1.1" id="Layer_2" xmlns="http://www.w3.org/2000/svg" xmlns:xlink="http://www.w3.org/1999/xlink" x="0px" y="0px"
	 width="100px" height="100px" viewBox="-247 370.9 100 100" style="enable-background:new -247 370.9 100 100;"
	 xml:space="preserve">
<path d="M-178.1,444c-4-0.1-7.6,1.7-10,4.6l-5.9-21.1l15.1-51.4c0.4-1.4-0.4-2.9-1.8-3.3h0c-1.4-0.4-2.9,0.4-3.3,1.8l-12.7,43.2
	l-12.1-43.1c-0.4-1.4-1.9-2.3-3.3-1.9l0,0c-1.4,0.4-2.3,1.9-1.9,3.3l14.4,51.4l-6.2,21.3c-2.3-2.9-5.9-4.8-10-4.7
	c-6.6,0.1-12.1,5.5-12.4,12c-0.3,7.2,5.5,13.1,12.5,13.1c5.6,0,10.4-3.7,12-8.9l0,0l6.8-23.1l6.5,23.2l0,0c1.6,5,6.4,8.7,11.9,8.7
	c7.1,0,12.8-5.9,12.5-13.1C-166.1,449.5-171.6,444.1-178.1,444z M-215.6,463.7c-4,0-7.2-3.2-7.2-7.2s3.2-7.2,7.2-7.2
	s7.2,3.2,7.2,7.2S-211.6,463.7-215.6,463.7z M-178.4,463.7c-4,0-7.2-3.2-7.2-7.2s3.2-7.2,7.2-7.2s7.2,3.2,7.2,7.2
	S-174.4,463.7-178.4,463.7z"/>
</svg>
