<?xml version="1.0" encoding="utf-8"?>
<!-- Generator: Adobe Illustrator 19.0.0, SVG Export Plug-In . SVG Version: 6.00 Build 0)  -->
<svg version="1.1" id="Layer_2" xmlns="http://www.w3.org/2000/svg" xmlns:xlink="http://www.w3.org/1999/xlink" x="0px" y="0px"
	 width="100px" height="100px" viewBox="-909 226 100 100" style="enable-background:new -909 226 100 100;" xml:space="preserve">
<g>
	<path d="M-861.4,226.9c-1.4,0-2.5,1.1-2.5,2.5v30.5h-8.1v-30.5c0-1.4-1.1-2.5-2.5-2.5s-2.5,1.1-2.5,2.5v30.5h-8.1v-30.5
		c0-1.4-1.1-2.5-2.5-2.5s-2.5,1.1-2.5,2.5v42.5c0,1.4,1.1,2.5,2.5,2.5h5.6v49.3c0,1.4,1.1,2.5,2.5,2.5h10c1.4,0,2.5-1.1,2.5-2.5
		v-49.3h5.6c1.4,0,2.5-1.1,2.5-2.5v-42.5C-858.9,228.1-860,226.9-861.4,226.9z M-872,321.2h-5v-46.8h5V321.2z M-863.9,269.4h-3.1
		h-15h-3.1v-4.5h21.3V269.4z"/>
	<path d="M-843.8,226.4h-5.7c-1.4,0-2.5,1.1-2.5,2.5v94.8c0,1.4,1.1,2.5,2.5,2.5h10c1.4,0,2.5-1.1,2.5-2.5v-41.3h6.7
		c1.4,0,2.5-1.1,2.5-2.5v-37.5C-827.8,233.6-835,226.4-843.8,226.4z M-842,321.2h-5v-38.8h5V321.2z M-832.8,277.4h-4.2h-10v-46h3.2
		c6.1,0,11,4.9,11,11V277.4z"/>
</g>
</svg>
