<?xml version="1.0" encoding="utf-8"?>
<!-- Generator: Adobe Illustrator 19.0.0, SVG Export Plug-In . SVG Version: 6.00 Build 0)  -->
<svg version="1.1" id="Layer_2" xmlns="http://www.w3.org/2000/svg" xmlns:xlink="http://www.w3.org/1999/xlink" x="0px" y="0px"
	 width="100px" height="100px" viewBox="-247 370.9 100 100" style="enable-background:new -247 370.9 100 100;"
	 xml:space="preserve">
<path d="M-150.9,391.3l-17.3-10.6h-42.6v-6.1c0-1.4-1.1-2.6-2.6-2.6l0,0c-1.4,0-2.6,1.1-2.6,2.6v6.1h-25.6c-1.4,0-2.6,1.1-2.6,2.6
	v22.3c0,1.4,1.1,2.6,2.6,2.6h25.6v58.9c0,1.4,1.1,2.6,2.6,2.6l0,0c1.4,0,2.6-1.1,2.6-2.6v-58.9h42.6l17.5-13.5
	C-149.6,393.8-149.7,392.1-150.9,391.3z M-238.9,403v-17.1h69.3l12.2,7.5l-12.5,9.7H-238.9z"/>
</svg>
