<?xml version="1.0" encoding="utf-8"?>
<!-- Generator: Adobe Illustrator 19.0.0, SVG Export Plug-In . SVG Version: 6.00 Build 0)  -->
<svg version="1.1" id="Layer_1" xmlns="http://www.w3.org/2000/svg" xmlns:xlink="http://www.w3.org/1999/xlink" x="0px" y="0px"
	 width="100px" height="100px" viewBox="-256 379.9 100 100" style="enable-background:new -256 379.9 100 100;"
	 xml:space="preserve">
<g>
	<path d="M-244.4,462.8c0,1.4,1.1,2.5,2.5,2.5h62.6l-7.7,7.6c-1,0.9-1,2.5,0,3.5c0.9,1,2.5,1,3.5,0l12.9-13c0.4-0.4,0.4-1,0-1.4
		l-12.9-13c-0.9-1-2.5-1-3.5,0c-1,0.9-1,2.5,0,3.5l7.7,7.6h-62.6C-243.3,460.1-244.4,461.2-244.4,462.8z"/>
	<path d="M-170.1,382.8h-43.2l0,0c-12,0.2-21.7,10-21.7,22c0,11.3,8.6,20.7,19.5,21.9v22.7c0,1.4,1.1,2.5,2.5,2.5s2.5-1.1,2.5-2.5
		v-61.7h15v61.7c0,1.4,1.1,2.5,2.5,2.5s2.5-1.1,2.5-2.5v-61.7h20.3c1.4,0,2.5-1.1,2.5-2.5S-168.8,382.8-170.1,382.8z M-215.5,421.7
		c-8.2-1.2-14.5-8.3-14.5-16.8s6.3-15.6,14.5-16.8V421.7z"/>
</g>
</svg>
