<?xml version="1.0" encoding="utf-8"?>
<!-- Generator: Adobe Illustrator 19.0.0, SVG Export Plug-In . SVG Version: 6.00 Build 0)  -->
<svg version="1.1" id="Layer_1" xmlns="http://www.w3.org/2000/svg" xmlns:xlink="http://www.w3.org/1999/xlink" x="0px" y="0px"
	 width="100px" height="100px" viewBox="-247 370.9 100 100" style="enable-background:new -247 370.9 100 100;"
	 xml:space="preserve">
<path d="M-195.5,402h30.2l14.4-8.8c1.2-0.7,1.3-2.4,0.2-3.3l-14.6-11.2h-30.3v-3.8c0-1.4-1.1-2.5-2.5-2.5l0,0
	c-1.4,0-2.5,1.1-2.5,2.5v3.8h-25.6c-1.4,0-2.5,1.1-2.5,2.5v18.3c0,1.4,1.1,2.5,2.5,2.5h25.6v6.7l-27.5,0.1l-14.4,8.8
	c-1.2,0.7-1.3,2.4-0.2,3.3l14.6,11.2h27.5v35c0,1.4,1.1,2.5,2.5,2.5l0,0c1.4,0,2.5-1.1,2.5-2.5v-35h28.1c1.4,0,2.5-1.1,2.5-2.5
	v-18.4c0-1.4-1.1-2.5-2.5-2.5l-28.1,0.1V402z M-223.6,383.7h56.6l9.8,7.5l-9.5,5.8h-56.9V383.7z M-170,427.1h-56.4l-9.8-7.5l9.5-5.8
	l56.6-0.1V427.1z"/>
</svg>
