<?xml version="1.0" encoding="utf-8"?>
<!-- Generator: Adobe Illustrator 19.0.0, SVG Export Plug-In . SVG Version: 6.00 Build 0)  -->
<svg version="1.1" id="Layer_1" xmlns="http://www.w3.org/2000/svg" xmlns:xlink="http://www.w3.org/1999/xlink" x="0px" y="0px"
	 width="100px" height="100px" viewBox="-247 370.9 100 100" style="enable-background:new -247 370.9 100 100;"
	 xml:space="preserve">
<path d="M-147.4,437.3v-53.8c0-1.4-1.1-2.5-2.5-2.5h-94.3c-1.4,0-2.5,1.1-2.5,2.5v53.8c0,1.4,1.1,2.5,2.5,2.5h44.6v7.3h-8.4
	c-1.2,0-2.2,0.8-2.4,1.9l-2,8.7c-0.4,1.6,0.8,3.1,2.4,3.1h26.2c1.6,0,2.8-1.5,2.4-3.1l-2-8.7c-0.3-1.1-1.3-1.9-2.4-1.9h-8.9v-7.3
	h44.6C-148.5,439.8-147.4,438.7-147.4,437.3z M-186.8,455.7h-20l0.9-3.7h18.3L-186.8,455.7z M-241.6,386h89.3v48.8h-89.3V386z"/>
</svg>
