<?xml version="1.0" encoding="utf-8"?>
<!-- Generator: Adobe Illustrator 19.0.0, SVG Export Plug-In . SVG Version: 6.00 Build 0)  -->
<svg version="1.1" id="Layer_1" xmlns="http://www.w3.org/2000/svg" xmlns:xlink="http://www.w3.org/1999/xlink" x="0px" y="0px"
	 width="100px" height="100px" viewBox="-247 370.9 100 100" style="enable-background:new -247 370.9 100 100;"
	 xml:space="preserve">
<path d="M-169.1,412.2c-7-17.8-19.6-33.2-25.3-38.9c-1.4-1.4-3.7-1.4-5.2,0c-5.6,5.7-18.1,21.1-25.1,38.5
	c-3.4,8.4-5.1,16.4-5.1,23.6l0,2.5c0.4,17.7,15.1,32.1,32.9,32.1c17.7,0,32.5-14.3,32.9-31.9v-2.5
	C-164.1,428.3-165.8,420.6-169.1,412.2z M-197,465c-15,0-27.5-12.2-27.9-27.2v-2.4c0-6.6,1.6-13.9,4.8-21.7
	c6.4-15.7,17.4-29.8,23.1-35.9c5.8,6.1,16.9,20.2,23.2,36.2c3.1,7.8,4.6,14.9,4.6,21.5l0,2.5C-169.5,452.9-182,465-197,465z"/>
</svg>
