<?xml version="1.0" encoding="utf-8"?>
<!-- Generator: Adobe Illustrator 19.0.0, SVG Export Plug-In . SVG Version: 6.00 Build 0)  -->
<svg version="1.1" id="Layer_1" xmlns="http://www.w3.org/2000/svg" xmlns:xlink="http://www.w3.org/1999/xlink" x="0px" y="0px"
	 width="100px" height="100px" viewBox="-74 0 100 100" style="enable-background:new -74 0 100 100;" xml:space="preserve">
<path d="M6.9,38.3l18.7-13.2L-4.8,3.8L-23.6,17l-19-13.2l-30.6,21.4l18.8,13l-18.9,11.1l21.2,14.8v12l26,18.4l2.4,1.7l2.4-1.7
	l26-18.4V63.6l20.3-14.1L6.9,38.3z M-5.7,64.9l-13.8-8.1l6.9-4.9L2.2,41.2l13.9,8.5l-14.5,10L-5.7,64.9z M-23.9,53.9l-21.7-15.8
	l21.9-15.3l21.9,15.2l-13.6,9.9L-23.9,53.9z M-4.8,9.9L17,25.1L2.7,35.3l-22-15.3L-4.8,9.9z M-42.6,9.9l14.4,10l-22,15.4l-14.4-10
	L-42.6,9.9z M-49.7,41.3l21.3,15.5l-14,8.2l-21.7-15.2L-49.7,41.3z M-47.1,73.6v-6l4.5,3.1l16.5-9.6v27.3L-47.1,73.6z M-21.1,88.3
	V61.6l15.7,9.2l5.3-3.7v6.4L-21.1,88.3z"/>
</svg>
