<?xml version="1.0" encoding="utf-8"?>
<!-- Generator: Adobe Illustrator 19.0.0, SVG Export Plug-In . SVG Version: 6.00 Build 0)  -->
<svg version="1.1" id="Layer_1" xmlns="http://www.w3.org/2000/svg" xmlns:xlink="http://www.w3.org/1999/xlink" x="0px" y="0px"
	 width="100px" height="100px" viewBox="-74 0 100 100" style="enable-background:new -74 0 100 100;" xml:space="preserve">
<g>
	<path d="M-15.4,21c-0.7-0.4-2.2-2-5.9-7.5l-8-11.7l-2.7,12.8c-0.9,3.4-2.9,7.1-3.8,7.6c-16.5,5.1-27.5,19.9-27.5,37
		c0,21.5,17.9,39,39.8,39c21.9,0,39.8-17.5,39.8-39C16.3,41,3,24.9-15.4,21z M-23.5,93.3c-19.2,0-34.8-15.3-34.8-34
		c0-14.9,9.7-27.9,24.1-32.3l0.2-0.1c4.3-1.6,6.9-11,6.9-11.1l0.3-1.5l1.3,2c3.9,5.9,6.5,9.2,9.1,9.6c16,3.4,27.7,17.4,27.7,33.3
		C11.3,78-4.3,93.3-23.5,93.3z"/>
	<path d="M1,52c-2.7,0-5.6,1.8-8.7,3.7l-0.8,0.5c-1.5,0.9-4.2,2.7-5.1,2.7l0,0l-0.1,0c-0.7,0-2.8-1.4-4.1-2.3l-0.5-0.3
		C-22.2,54-26.9,51-32.9,51c-9,0-16.3,6.5-16.3,14.4c0,4.2,1.7,7.7,4.8,9.9l0.1,0.1c2.5,1.6,4.7,2.1,9.4,2.1c4.8,0,9.8-2.7,14.3-5.2
		l0.7-0.4c1.4-0.8,4.9-2.9,6-3c0.6,0.2,2.1,1.4,4.2,3.4l0.1,0.1c2.9,2.6,4.8,4.4,7.1,4.5c4.5,0.5,6.6-2.3,8.4-4.7
		c2.7-3.6,3.4-8.6,3.4-10.8C9.5,56.8,6.6,52,1,52z M-22.3,67.6l-0.6,0.3c-3.9,2.1-8.3,4.5-11.9,4.5c-4.4,0-5.4-0.5-6.7-1.3
		c-2.2-1.6-2.7-4.1-2.7-5.8c0-5.1,5.2-9.4,11.3-9.4c4.5,0,8.4,2.5,11.8,4.6l0.4,0.3c2.5,1.6,4.6,3,6.7,3.1
		C-16.2,64.1-19,65.6-22.3,67.6z M2.1,69.3c-1.9,2.5-2.4,2.9-4.1,2.7c-0.7,0-2.4-1.7-4.1-3.2l-0.1-0.1c-3.2-3-5.2-4.6-7.3-4.8
		c0,0-0.1,0-0.1,0c2.3-0.1,4.9-1.7,7.7-3.5l0.8-0.5c2.1-1.3,4.8-3,6.1-3c3.4,0,3.5,4.1,3.5,4.6C4.5,63.5,3.7,67.2,2.1,69.3z"/>
	<path d="M-7.5,82.6c-0.8-1-2.1-1.2-3.2-0.6c-2.6,1.6-5.8,2.6-9,2.7c-1.2,0-2.4,0-3.6-0.2c-2.4-0.3-4.7-1-6.8-1.9
		c-1.2-0.5-2.5-0.1-3.1,1l-0.1,0.1c-0.7,1.2-0.2,2.9,1.1,3.4c2.5,1.1,5.3,1.9,8.2,2.3c1.6,0.2,3,0.2,4.4,0.2h0.1l0.1,0
		c4-0.2,8-1.4,11.3-3.4C-6.9,85.5-6.6,83.8-7.5,82.6L-7.5,82.6z"/>
	<path d="M-19.2,81.3c0.1,0,0.2,0,0.3-0.1c0.1-0.1,0.2-0.2,0.3-0.4c0.1-0.1,0.2-0.3,0.3-0.5c0.5-0.7,0.8-1,1.1-1.1l0.1,0
		c0.3-0.1,0.5-0.2,1.1-0.3c0.7-0.1,1.4-0.3,1.9-0.1l0.1,0.1c0.2,0.1,0.3,0.2,0.4,0.2l0.4,0.4c0.2,0.2,0.4,0.4,0.6,0.6
		c0.3,0.3,0.8,0.4,1.2,0.1l2.6-1.6c0.5-0.3,0.6-1,0.3-1.5C-9,76.8-9.4,76.4-9.8,76l-0.4-0.4c-0.6-0.6-1.2-1-2-1.3
		c-2-0.9-4-0.5-5-0.3c-0.5,0.1-1.3,0.3-2.2,0.7c-1.4,0.6-2.3,1.7-3,2.7c-0.1,0.1-0.2,0.2-0.3,0.4c-0.3,0.5-0.2,1.1,0.3,1.4l2.9,1.9
		L-19.2,81.3z"/>
</g>
</svg>
