<?xml version="1.0" encoding="utf-8"?>
<!-- Generator: Adobe Illustrator 22.0.0, SVG Export Plug-In . SVG Version: 6.00 Build 0)  -->
<svg version="1.1" id="Layer_2_1_" xmlns="http://www.w3.org/2000/svg" xmlns:xlink="http://www.w3.org/1999/xlink" x="0px" y="0px"
	 viewBox="0 0 100 100" style="enable-background:new 0 0 100 100;" xml:space="preserve">
<g>
	<path d="M50,2.2C23.6,2.2,2.2,23.6,2.2,50S23.7,97.8,50,97.8c26.4,0,47.8-21.5,47.8-47.8C97.8,23.6,76.4,2.2,50,2.2z M50,92.8
		C26.4,92.8,7.2,73.6,7.2,50S26.4,7.2,50,7.2S92.8,26.4,92.8,50S73.6,92.8,50,92.8z"/>
	<path d="M50,56.7c-9,0-16.4,6.6-17.8,15.1c-0.2,1.5,1,2.9,2.5,2.9l0,0c1.2,0,2.3-0.9,2.5-2.1c1-6.2,6.4-10.9,12.8-10.9
		c6.5,0,11.8,4.7,12.8,10.9c0.2,1.2,1.2,2.1,2.5,2.1l0,0c1.5,0,2.7-1.4,2.5-2.9C66.4,63.2,59,56.7,50,56.7z"/>
	<circle cx="36" cy="32.2" r="7.1"/>
	<circle cx="64" cy="32.2" r="7.1"/>
</g>
</svg>
