<?xml version="1.0" encoding="utf-8"?>
<!-- Generator: Adobe Illustrator 19.0.0, SVG Export Plug-In . SVG Version: 6.00 Build 0)  -->
<svg version="1.1" id="Layer_2" xmlns="http://www.w3.org/2000/svg" xmlns:xlink="http://www.w3.org/1999/xlink" x="0px" y="0px"
	 width="100px" height="100px" viewBox="-909 226 100 100" style="enable-background:new -909 226 100 100;" xml:space="preserve">
<g>
	<path d="M-823.7,226.7H-894c-1.1,0-2,0.9-2,2v64.7c0,0.3,0.1,0.5,0.3,0.7l32,30.9c0.2,0.2,0.4,0.3,0.7,0.3h39.3c1.1,0,2-0.9,2-2
		v-94.6C-821.7,227.6-822.6,226.7-823.7,226.7z M-864.9,316.9l-22.4-21.7h22c0.3,0,0.5,0.2,0.5,0.5L-864.9,316.9L-864.9,316.9z
		 M-826.7,320.3h-33.2v-28c0-1.1-0.9-2-2-2H-891v-58.6h64.3V320.3z"/>
</g>
</svg>
