<?xml version="1.0" encoding="utf-8"?>
<!-- Generator: Adobe Illustrator 19.0.0, SVG Export Plug-In . SVG Version: 6.00 Build 0)  -->
<svg version="1.1" id="Layer_2" xmlns="http://www.w3.org/2000/svg" xmlns:xlink="http://www.w3.org/1999/xlink" x="0px" y="0px"
	 width="100px" height="100px" viewBox="-909 226 100 100" style="enable-background:new -909 226 100 100;" xml:space="preserve">
<g>
	<path d="M-842.8,273.3l-50.6,0c-1.4,0-2.5,1.1-2.5,2.5c0,1.6,1.1,2.7,2.5,2.7l50.6,0l-7.7,7.6c-1,1-1,2.6,0,3.5c1,1,2.6,1,3.5,0
		l12.9-13c0.4-0.4,0.4-1,0-1.4l-12.9-13c-1-1-2.6-1-3.5,0c-1,1-1,2.6,0,3.5L-842.8,273.3z"/>
	<path d="M-824.5,226.1H-867c-1.1,0-2,0.9-2,2v25.5c0,1.4,1.1,2.5,2.5,2.5c1.4,0,2.5-1.1,2.5-2.5v-22.5h36.9v89.4l-36.9,0V298
		c0-1.4-1.1-2.5-2.5-2.5c-1.4,0-2.5,1.1-2.5,2.5v25.5c0,1.1,0.9,2,2,2l42.4,0c1.4,0,2.5-1.1,2.5-2.5v-94.4
		C-822,227.3-823.1,226.1-824.5,226.1z"/>
</g>
</svg>
