<?xml version="1.0" encoding="utf-8"?>
<!-- Generator: Adobe Illustrator 22.0.0, SVG Export Plug-In . SVG Version: 6.00 Build 0)  -->
<svg version="1.1" id="Layer_1" xmlns="http://www.w3.org/2000/svg" xmlns:xlink="http://www.w3.org/1999/xlink" x="0px" y="0px"
	 viewBox="0 0 100 100" style="enable-background:new 0 0 100 100;" xml:space="preserve">
<path d="M1.8,19.7v62.1c0,1.4,1.1,2.5,2.5,2.5h91c1.4,0,2.5-1.1,2.5-2.5V19.7c0-1.4-1.1-2.5-2.5-2.5h-91C2.9,17.2,1.8,18.3,1.8,19.7
	z M49.8,53.1L11.3,22.2h76.8L49.8,53.1z M36.7,49l-30,27.2V24.9L36.7,49z M40.7,52.2l7.5,6.1c0.9,0.7,2.2,0.7,3.1,0l7-5.6l30.4,26.7
	H10.7L40.7,52.2z M62.2,49.5l30.5-24.6v51.4L62.2,49.5z"/>
</svg>
