<?xml version="1.0" encoding="utf-8"?>
<!-- Generator: Adobe Illustrator 19.0.0, SVG Export Plug-In . SVG Version: 6.00 Build 0)  -->
<svg version="1.1" id="Layer_2" xmlns="http://www.w3.org/2000/svg" xmlns:xlink="http://www.w3.org/1999/xlink" x="0px" y="0px"
	 width="100px" height="100px" viewBox="-909 226 100 100" style="enable-background:new -909 226 100 100;" xml:space="preserve">
<g>
	<path d="M-810.6,274.3c-11.3-12.7-28.9-20-48.4-20c-19.6,0.3-37.2,7.6-48.3,20l-1.5,1.7l1.5,1.7c11.3,12.7,28.9,20,48.4,20
		s37.1-7.3,48.4-20l1.5-1.7L-810.6,274.3z M-859,292.7c-17.2,0-32.7-6.1-43.1-16.7c10.3-10.4,25.8-16.5,43.1-16.7
		c17.2,0,32.7,6.1,43.1,16.7C-826.3,286.6-841.8,292.7-859,292.7z"/>
	<path d="M-869,276c0,5.6,4.4,10,10,10s10-4.4,10-10c0-5.4-4.6-10-10-10C-864.6,266-869,270.4-869,276z M-854,276c0,2.8-2.2,5-5,5
		s-5-2.2-5-5s2.2-5,5-5C-856.3,271-854,273.4-854,276z"/>
</g>
</svg>
