<?xml version="1.0" encoding="utf-8"?>
<!-- Generator: Adobe Illustrator 22.0.0, SVG Export Plug-In . SVG Version: 6.00 Build 0)  -->
<svg version="1.1" id="Layer_1" xmlns="http://www.w3.org/2000/svg" xmlns:xlink="http://www.w3.org/1999/xlink" x="0px" y="0px"
	 viewBox="0 0 100 100" style="enable-background:new 0 0 100 100;" xml:space="preserve">
<path d="M40.3,23.2v14.9H26.9c-1.4,0-2.5,1.1-2.5,2.5v10.9c0,1.4,1.1,2.5,2.5,2.5h13.5v43.5c0,1.4,1.1,2.5,2.5,2.5h11.6
	c1.4,0,2.5-1.1,2.5-2.5V54h15.7c1.4,0,2.5-1.1,2.5-2.5v-11c0-1.4-1.1-2.5-2.5-2.5H56.9V25c0-5.1,1.1-10.2,10.3-10.2h6
	c1.4,0,2.5-1.1,2.5-2.5V2.6c0-1.4-1.1-2.5-2.5-2.5H62.8C49,0.1,40.3,9,40.3,23.2z"/>
</svg>
