<?xml version="1.0" encoding="utf-8"?>
<!-- Generator: Adobe Illustrator 19.0.0, SVG Export Plug-In . SVG Version: 6.00 Build 0)  -->
<svg version="1.1" id="Layer_1" xmlns="http://www.w3.org/2000/svg" xmlns:xlink="http://www.w3.org/1999/xlink" x="0px" y="0px"
	 width="100px" height="100px" viewBox="0 0 100 100" style="enable-background:new 0 0 100 100;" xml:space="preserve">
<path id="XMLID_8_" d="M65,24.4l8,0c2.4,0,4.4-2,4.4-4.4V6c0-2.4-2-4.4-4.4-4.4l-11.9,0c-14.7,0-24.5,10.1-24.5,25.1v7.9h-9.5
	c-2.4,0-4.4,2-4.4,4.4v15.1c0,2.4,2,4.4,4.4,4.4h9.5v35.6c0,2.4,2,4.4,4.4,4.4h15.6c2.4,0,4.4-2,4.4-4.4V58.5h11.5
	c2.4,0,4.4-2,4.4-4.4l0-15.1c0-1.2-0.5-2.3-1.3-3.1c-0.8-0.8-1.9-1.3-3.1-1.3H61v-6.3C61,25.2,61.1,24.4,65,24.4z M71.8,39.7l0,13.8
	H56v40H41.6v-40H27.7V39.7h13.9V26.7c0-12.4,7.5-20.1,19.5-20.1l11.3,0v12.8l-7.4,0c-8,0-9,4.5-9,8.9v11.3H71.8z"/>
</svg>
