<?xml version="1.0" encoding="utf-8"?>
<!-- Generator: Adobe Illustrator 19.0.0, SVG Export Plug-In . SVG Version: 6.00 Build 0)  -->
<svg version="1.1" id="Layer_1" xmlns="http://www.w3.org/2000/svg" xmlns:xlink="http://www.w3.org/1999/xlink" x="0px" y="0px"
	 width="100px" height="100px" viewBox="-909 226 100 100" style="enable-background:new -909 226 100 100;" xml:space="preserve">
<path d="M-822.3,226.7h-60.3c-1.1,0-2,0.9-2,2v8h-11c-1.1,0-2,0.9-2,2v54.7c0,0.3,0.1,0.5,0.3,0.7l32,30.9c0.2,0.2,0.4,0.3,0.7,0.3
	h29.3c1.1,0,2-0.9,2-2v-8h11c1.1,0,2-0.9,2-2v-84.6C-820.3,227.6-821.3,226.7-822.3,226.7z M-866.4,316.9h-0.1l-22.4-21.7h22
	c0.3,0,0.5,0.2,0.5,0.5V316.9z M-838.3,320.3h-23.2v-28c0-1.1-0.9-2-2-2h-29.1v-48.6h54.3V320.3z M-825.3,310.3h-8v-71.6
	c0-1.1-0.9-2-2-2h-44.3v-5h54.3V310.3z"/>
</svg>
