<?xml version="1.0" encoding="utf-8"?>
<!-- Generator: Adobe Illustrator 19.0.0, SVG Export Plug-In . SVG Version: 6.00 Build 0)  -->
<svg version="1.1" id="Layer_2" xmlns="http://www.w3.org/2000/svg" xmlns:xlink="http://www.w3.org/1999/xlink" x="0px" y="0px"
	 width="100px" height="100px" viewBox="-909 226 100 100" style="enable-background:new -909 226 100 100;" xml:space="preserve">
<g>
	<path d="M-869.5,280.8v21.8c0,1.8,1.9,3,3.6,2.3l23-10.9c1.9-0.9,1.9-3.6,0-4.5l-23-10.9C-867.6,277.8-869.5,279-869.5,280.8z
		 M-864.5,284.8l14.7,6.9l-14.7,6.9V284.8z"/>
	<path d="M-888,260.8l73.4-4.5c1.4-0.1,2.4-1.3,2.3-2.6l-1.4-22.3c-0.1-1.4-1.3-2.4-2.6-2.3l-87.3,5.3c-1.4,0.1-2.4,1.3-2.3,2.6
		l1.5,24.7h0v58.6c0,1.4,1.1,2.5,2.5,2.5h87.5c1.4,0,2.5-1.1,2.5-2.5v-57.2c0-1.4-1.1-2.5-2.5-2.5H-888z M-818.5,234.2l1.1,17.3
		l-7.5,0.5l-7.1-16.9L-818.5,234.2z M-837.4,235.4l7.1,16.9l-14.7,0.9l-7.1-16.9L-837.4,235.4z M-857.3,236.6l7.1,16.9l-14.7,0.9
		l-7.1-16.9L-857.3,236.6z M-877.3,237.8l7.1,16.9l-14.7,0.9l-7.1-16.9L-877.3,237.8z M-897.2,239l7.1,16.9l-9.7,0.6l-1.1-17.3
		L-897.2,239z M-816.9,317.9h-82.5v-52.2h82.5V317.9z"/>
</g>
</svg>
