<?xml version="1.0" encoding="utf-8"?>
<!-- Generator: Adobe Illustrator 22.0.0, SVG Export Plug-In . SVG Version: 6.00 Build 0)  -->
<svg version="1.1" id="Layer_1" xmlns="http://www.w3.org/2000/svg" xmlns:xlink="http://www.w3.org/1999/xlink" x="0px" y="0px"
	 viewBox="0 0 100 100" style="enable-background:new 0 0 100 100;" xml:space="preserve">
<path d="M98.1,39.1C95.8,22.2,84.3,8.3,68.7,3.6l-7.4-2.2L66,7.5C70,12.7,73.3,19,76.2,26.8c0.2,0.5,0.5,1.2,0.8,2
	c0.9,2.2,2.2,5.3,3,8.8c-2-3.1-4.5-5.8-7.2-7.8L59.1,19.5l10.1,13.7c2.8,3.7,4.2,8.2,4.2,12.8c0,11.9-9.6,21.5-21.5,21.5
	c-2.1,0-3.7-0.2-5.1-0.6c1.9-0.9,3.7-2,5.3-3.1c2.8-1.8,5.2-3.4,7.8-3.4h3.2l-0.8-3.1c-0.5-2-2.9-5.9-8.4-5.9
	c-3.1,0-4.5,1.3-5.5,2.2c-1,0.9-2,1.8-6.5,1.8c-7.8,0-11.5-4.5-11.5-7.5c0-1,0.8-1.9,1.3-2.4c1.1-1,2.2-1.4,2.8-1.5l1.4,1.4l1.8-1.8
	c1.3-1.3,1.5-3.1,1.2-4.7l17.3-11.5H44c-6.2,0-7.3-1.6-7.5-2.1c-0.8-1.9,2.1-6.4,5.3-9.7l4.3-4.3h-6c-6.6,0-10.9,5-13.1,7.8
	c-2.6-0.3-6.6-0.1-8.6,0.1c-0.3-0.3-0.7-0.9-1.4-2.1c-1.4-2.6-2.4-5.8-2.4-7.3V4l-4.3,4.3c-5.3,5.3-5.3,12.9-3.3,17.4
	C3.4,32.5,1.5,40.2,1.5,48c0,26.7,21.8,48.5,48.5,48.5c14.1,0,26.9-5.7,36-16.1C95.7,69.4,100.1,54.3,98.1,39.1z M82.2,77.1
	C74.1,86.4,62.7,91.5,50,91.5C26,91.5,6.5,72,6.5,48c0-7.2,1.8-14.4,5.3-20.7L13,26l-1.1-1.7c-1-1.4-1.6-4.6-0.8-7.7
	c0.4,1.1,0.9,2.2,1.4,3.1c1.4,2.6,3.3,5.4,6.1,4.8c1.5-0.4,7.2-0.4,8.5-0.1l1.7,0.8l1.6-2.1c0.5-0.7,1.1-1.5,1.9-2.3
	c-0.9,2.2-1.3,4.5-0.4,6.6c1.1,2.7,3.8,4.4,8.2,4.9l-5.5,3.6l-1.8,1.2l1,2c0,0,0,0,0,0.1c-0.6,0.1-1.3,0.3-2,0.6
	c-3.2,1.3-6.3,4.4-6.3,8.2c0,6.1,6.2,12.5,16.5,12.5c5.9,0,8-1.5,9.8-3.1c0.8-0.7,1-0.9,2.2-0.9c0.4,0,0.7,0,1,0.1
	c-1.9,0.8-3.7,1.9-5.5,3.1c-3.1,2-6,3.9-9.5,3.9h-7.6l6.1,4.5c4.7,3.4,7.8,4.5,13.5,4.5c14.6,0,26.5-11.9,26.5-26.5
	c0-0.2,0-0.4,0-0.6c0.7,1.8,1.3,3.7,1.5,5.5l1.7,11l3.2-10.6c2.9-9.5-1.1-19.2-3.3-24.3c-0.3-0.7-0.5-1.3-0.7-1.8
	c-1.9-5-3.9-9.5-6.2-13.5c9.9,5.7,16.8,16.1,18.4,28.2C94.9,53.6,91,67.2,82.2,77.1z"/>
</svg>
