<?xml version="1.0" encoding="utf-8"?>
<!-- Generator: Adobe Illustrator 19.0.0, SVG Export Plug-In . SVG Version: 6.00 Build 0)  -->
<svg version="1.1" id="Layer_2" xmlns="http://www.w3.org/2000/svg" xmlns:xlink="http://www.w3.org/1999/xlink" x="0px" y="0px"
	 width="100px" height="100px" viewBox="-909 226 100 100" style="enable-background:new -909 226 100 100;" xml:space="preserve">
<path d="M-838.3,252.9l9.1-14.9c1-1.7-0.2-3.8-2.1-3.8h-52.8v-5c0-1.4-1.1-2.5-2.5-2.5l0,0c-1.4,0-2.5,1.1-2.5,2.5v93.7
	c0,1.4,1.1,2.5,2.5,2.5l0,0c1.4,0,2.5-1.1,2.5-2.5v-51.2h52.8c2,0,3.1-2.1,2.1-3.8L-838.3,252.9z M-884.2,239.2h48.4l-8.4,13.7
	l8.4,13.7h-48.4V239.2z"/>
</svg>
