<?xml version="1.0" encoding="utf-8"?>
<!-- Generator: Adobe Illustrator 19.0.0, SVG Export Plug-In . SVG Version: 6.00 Build 0)  -->
<svg version="1.1" id="Layer_2" xmlns="http://www.w3.org/2000/svg" xmlns:xlink="http://www.w3.org/1999/xlink" x="0px" y="0px"
	 width="100px" height="100px" viewBox="-909 226 100 100" style="enable-background:new -909 226 100 100;" xml:space="preserve">
<path d="M-828.4,232.5h-58.7v-3c0-1.4-1.1-2.5-2.5-2.5l0,0c-1.4,0-2.5,1.1-2.5,2.5V322c0,1.4,1.1,2.5,2.5,2.5l0,0
	c1.4,0,2.5-1.1,2.5-2.5v-55.2h54c1.2,0,2.3-0.9,2.5-2.1l4.7-29.3C-825.7,233.8-826.8,232.5-828.4,232.5z M-835.3,261.8h-51.9v-24.3
	h55.8L-835.3,261.8z"/>
</svg>
