<?xml version="1.0" encoding="utf-8"?>
<!-- Generator: Adobe Illustrator 19.0.0, SVG Export Plug-In . SVG Version: 6.00 Build 0)  -->
<svg version="1.1" id="Layer_1" xmlns="http://www.w3.org/2000/svg" xmlns:xlink="http://www.w3.org/1999/xlink" x="0px" y="0px"
	 width="100px" height="100px" viewBox="-909 226 100 100" style="enable-background:new -909 226 100 100;" xml:space="preserve">
<g>
	<path d="M-873,236.6c-1.4,0-2.5,1.1-2.5,2.5v22h-22c-1.4,0-2.5,1.1-2.5,2.5s1.1,2.5,2.5,2.5h24.5c1.4,0,2.5-1.1,2.5-2.5v-24.5
		C-870.5,237.7-871.6,236.6-873,236.6z"/>
	<path d="M-845,266.1h24.5c1.4,0,2.5-1.1,2.5-2.5s-1.1-2.5-2.5-2.5h-22v-22c0-1.4-1.1-2.5-2.5-2.5c-1.4,0-2.5,1.1-2.5,2.5v24.5
		C-847.5,265-846.4,266.1-845,266.1z"/>
	<path d="M-820.5,286.6H-845c-1.4,0-2.5,1.1-2.5,2.5v24.5c0,1.4,1.1,2.5,2.5,2.5s2.5-1.1,2.5-2.5v-22h22c1.4,0,2.5-1.1,2.5-2.5
		C-818,287.7-819.1,286.6-820.5,286.6z"/>
	<path d="M-873,286.6h-24.5c-1.4,0-2.5,1.1-2.5,2.5c0,1.4,1.1,2.5,2.5,2.5h22v22c0,1.4,1.1,2.5,2.5,2.5s2.5-1.1,2.5-2.5v-24.5
		C-870.5,287.7-871.6,286.6-873,286.6z"/>
</g>
</svg>
