<?xml version="1.0" encoding="utf-8"?>
<!-- Generator: Adobe Illustrator 19.0.0, SVG Export Plug-In . SVG Version: 6.00 Build 0)  -->
<svg version="1.1" id="Layer_2" xmlns="http://www.w3.org/2000/svg" xmlns:xlink="http://www.w3.org/1999/xlink" x="0px" y="0px"
	 width="100px" height="100px" viewBox="-909 226 100 100" style="enable-background:new -909 226 100 100;" xml:space="preserve">
<g>
	<path d="M-902.5,259.5L-902.5,259.5c1.4,0,2.5-1.1,2.5-2.5v-22h22c1.4,0,2.5-1.1,2.5-2.5l0,0c0-1.4-1.1-2.5-2.5-2.5h-24.5
		c-1.4,0-2.5,1.1-2.5,2.5V257C-905,258.4-903.9,259.5-902.5,259.5z"/>
	<path d="M-818,317h-22c-1.4,0-2.5,1.1-2.5,2.5l0,0c0,1.4,1.1,2.5,2.5,2.5h24.5c1.4,0,2.5-1.1,2.5-2.5V295c0-1.4-1.1-2.5-2.5-2.5
		l0,0c-1.4,0-2.5,1.1-2.5,2.5V317z"/>
	<path d="M-842.5,232.5L-842.5,232.5c0,1.4,1.1,2.5,2.5,2.5h22v22c0,1.4,1.1,2.5,2.5,2.5l0,0c1.4,0,2.5-1.1,2.5-2.5v-24.5
		c0-1.4-1.1-2.5-2.5-2.5H-840C-841.4,230-842.5,231.1-842.5,232.5z"/>
	<path d="M-902.5,292.5L-902.5,292.5c-1.4,0-2.5,1.1-2.5,2.5v24.5c0,1.4,1.1,2.5,2.5,2.5h24.5c1.4,0,2.5-1.1,2.5-2.5l0,0
		c0-1.4-1.1-2.5-2.5-2.5h-22v-22C-900,293.6-901.1,292.5-902.5,292.5z"/>
</g>
</svg>
