<?xml version="1.0" encoding="utf-8"?>
<!-- Generator: Adobe Illustrator 19.0.0, SVG Export Plug-In . SVG Version: 6.00 Build 0)  -->
<svg version="1.1" id="Layer_1" xmlns="http://www.w3.org/2000/svg" xmlns:xlink="http://www.w3.org/1999/xlink" x="0px" y="0px"
	 width="100px" height="100px" viewBox="-909 226 100 100" style="enable-background:new -909 226 100 100;" xml:space="preserve">
<path d="M-815.7,299.6c-1.4,0-2.5,1.1-2.5,2.5l0.1,10.8l-37.1-37.1l37.1-37.1l-0.1,10.8c0,1.4,1.1,2.5,2.5,2.5
	c1.4,0,2.5-1.1,2.5-2.5l-0.1-18.3c0-0.6-0.4-1-1-1l-18.3-0.1c-1.4,0-2.5,1.1-2.5,2.5c0,1.4,1.1,2.5,2.5,2.5l10.8-0.1l-37.1,37.1
	l-37.1-37.1l10.8,0.1c1.4,0,2.5-1.1,2.5-2.5c0-1.4-1.1-2.5-2.5-2.5l-18.3,0.1c-0.6,0-1,0.4-1,1l-0.1,18.3c0,1.4,1.1,2.5,2.5,2.5
	c1.4,0,2.5-1.1,2.5-2.5l-0.1-10.8l37.1,37.1l-37.1,37.1l0.1-10.8c0-1.4-1.1-2.5-2.5-2.5c-1.4,0-2.5,1.1-2.5,2.5l0.1,18.3
	c0,0.6,0.4,1,1,1l18.3,0.1c1.4,0,2.5-1.1,2.5-2.5c0-1.4-1.1-2.5-2.5-2.5l-10.8,0.1l37.1-37.1l37.1,37.1l-10.8-0.1
	c-1.4,0-2.5,1.1-2.5,2.5c0,1.4,1.1,2.5,2.5,2.5l18.3-0.1c0.6,0,1-0.4,1-1l0.1-18.3C-813.3,300.7-814.4,299.6-815.7,299.6z"/>
</svg>
