<?xml version="1.0" encoding="utf-8"?>
<!-- Generator: Adobe Illustrator 19.0.0, SVG Export Plug-In . SVG Version: 6.00 Build 0)  -->
<svg version="1.1" id="Layer_2" xmlns="http://www.w3.org/2000/svg" xmlns:xlink="http://www.w3.org/1999/xlink" x="0px" y="0px"
	 width="100px" height="100px" viewBox="-909 226 100 100" style="enable-background:new -909 226 100 100;" xml:space="preserve">
<g>
	<path d="M-865.7,324c-1.7,0.7-3.5-0.5-3.5-2.3v-52.9c0-0.2-0.1-0.4-0.3-0.8l-24.8-36.2c-1.1-1.7,0.1-3.9,2.1-3.9h66.5
		c2,0,3.2,2.2,2.1,3.9l-24.8,36.5c-0.1,0.2-0.2,0.4-0.2,0.6v46.1c0,1-0.6,1.9-1.5,2.3L-865.7,324z M-887.5,232.9l22.2,32.5
		c0.5,0.8,1,1.9,1,3.4v49.1l10.5-4.6v-44.4c0-1.3,0.5-2.6,1.3-3.6l22-32.3H-887.5z"/>
</g>
</svg>
