<?xml version="1.0" encoding="utf-8"?>
<!-- Generator: Adobe Illustrator 21.0.0, SVG Export Plug-In . SVG Version: 6.00 Build 0)  -->
<svg version="1.1" id="Layer_1" xmlns="http://www.w3.org/2000/svg" xmlns:xlink="http://www.w3.org/1999/xlink" x="0px" y="0px"
	 viewBox="0 0 100 100" style="enable-background:new 0 0 100 100;" xml:space="preserve">
<g>
	<path d="M56.3,28.5c-6.1,0-11.1,5-11.1,11.1s5,11.1,11.1,11.1c6.1,0,11.1-5,11.1-11.1S62.4,28.5,56.3,28.5z M56.3,45.7
		c-3.4,0-6.1-2.7-6.1-6.1s2.7-6.1,6.1-6.1s6.1,2.7,6.1,6.1S59.7,45.7,56.3,45.7z"/>
	<path d="M23.6,6.2v13.6H8c-3,0-5.4,2.4-5.4,5.4v68.2c0,3,2.4,5.4,5.4,5.4h62.7c3,0,5.4-2.4,5.4-5.4V79.8h15.6c3,0,5.4-2.4,5.4-5.4
		V6.2c0-3-2.4-5.4-5.4-5.4H29C26,0.8,23.6,3.3,23.6,6.2z M71.1,93.8H7.6V78.3l10.5-11.4c0.9-0.9,2.1-1.4,3.3-1.4
		c1.3,0,2.4,0.6,3.2,1.6L31,75c1.6,2,4.1,3.3,6.7,3.5c2.6,0.2,5.2-0.8,7.1-2.6l6.6-6.4c1.7-1.6,4.3-1.6,6,0l13.7,13.2V93.8z
		 M71.1,30.7v45l-10.3-9.9c-3.6-3.5-9.3-3.5-13,0l-6.6,6.4c-0.9,0.9-2.1,1.3-3.3,1.2c-1.2-0.1-2.3-0.7-3.1-1.6L28.6,64
		c-1.7-2.1-4.2-3.4-7-3.5c-2.7-0.1-5.3,1-7.2,3l-6.8,7.4V24.8h58.6h4.9V30.7z M70.7,19.8c0.6-3.1,3.6-5.4,7-4.8
		c2.5,0.4,4.5,2.4,5,4.9c0.7,4.1-2.6,7.6-6.6,7.2c0,0,0,0,0,0v-1.9C76.1,22.3,73.7,19.8,70.7,19.8L70.7,19.8z M92.1,74.8h-16V45.5
		l16,15.4V74.8z M92.1,53.9l-16-15.4v-6.4c0.2,0,0.4,0,0.6,0c6.1,0,11.1-5,11.1-11.1S82.8,10,76.7,10c-5.7,0-10.4,4.3-11,9.9h-37
		v-14h63.5V53.9z"/>
</g>
</svg>
