<?xml version="1.0" encoding="utf-8"?>
<!-- Generator: Adobe Illustrator 19.0.0, SVG Export Plug-In . SVG Version: 6.00 Build 0)  -->
<svg version="1.1" id="Layer_2" xmlns="http://www.w3.org/2000/svg" xmlns:xlink="http://www.w3.org/1999/xlink" x="0px" y="0px"
	 width="100px" height="100px" viewBox="-909 226 100 100" style="enable-background:new -909 226 100 100;" xml:space="preserve">
<path d="M-812.5,249.8h-26.1c5.7-1.9,10.5-4.4,12.3-7.5l0.1-0.1c0.9-1.8,1.5-4.2-1.2-8.5c-2.7-4.3-5.2-4.8-6.9-4.8
	c-7.8,0-19.1,14.4-23.5,20.6l-0.2,0.3h-2.1l-0.2-0.2c-4.4-6.2-15.6-20.7-23.5-20.7c-2.3,0-4.6,1.6-6.7,4.8c-0.8,1.4-3.2,5.5-1.1,8.6
	l0.2,0.2c1.9,3.2,6.6,5.6,11.7,7.3h-25.8c-1.4,0-2.5,1.1-2.5,2.5v16.5c0,1.4,1.1,2.5,2.5,2.5h2.8v49.2c0,1.4,1.1,2.5,2.5,2.5h82.4
	c1.4,0,2.5-1.1,2.5-2.5v-49.2h2.8c1.4,0,2.5-1.1,2.5-2.5v-16.5C-810,251-811.1,249.8-812.5,249.8z M-834.3,234c0.3,0,1.2,0,2.7,2.4
	c1.4,2.3,1.2,3,1,3.5c-1.5,2.5-8.9,5.7-19.4,7.7C-842.7,238.3-836.9,234-834.3,234z M-887.2,239.9l-0.2-0.3l-0.1-0.1
	c0-0.3,0.1-1.2,1.2-3.1c1.3-2,2.2-2.4,2.4-2.4c2.6,0,8.4,4.3,15.8,13.8C-879.1,245.6-885.9,242.4-887.2,239.9z M-903,265.9v-10.5
	c0-0.3,0.2-0.5,0.5-0.5h41v11.5h-41C-902.8,266.4-903,266.2-903,265.9z M-897.7,271.4h36.2v46.7h-36.2V271.4z M-820.3,318.1h-36.2
	v-46.7h36.2V318.1z M-815.5,266.4h-41.1v-11.5h41.1c0.3,0,0.5,0.2,0.5,0.5v10.5C-815,266.2-815.2,266.4-815.5,266.4z"/>
</svg>
