<?xml version="1.0" encoding="utf-8"?>
<!-- Generator: Adobe Illustrator 19.0.0, SVG Export Plug-In . SVG Version: 6.00 Build 0)  -->
<svg version="1.1" id="Layer_2" xmlns="http://www.w3.org/2000/svg" xmlns:xlink="http://www.w3.org/1999/xlink" x="0px" y="0px"
	 width="100px" height="100px" viewBox="-345 257 100 100" style="enable-background:new -345 257 100 100;" xml:space="preserve">
<path d="M-274.8,259.3c-0.5-0.5-1.2-0.7-1.9-0.7h-47.8c-1.7,0-3,1.3-3,3v14.8c0,1.7,1.3,3,3,3h20.9v29.7h-3c-1.7,0-3,1.4-3,3.2v9.8
	v5v9.4v5v10.6c0,1.8,1.3,3.2,3,3.2h11.1c1.7,0,3-1.4,3-3.2v-10.6v-5v-9.4v-5v-9.8c0-1.8-1.3-3.2-3-3.2h-3v-29.7h21.9
	c0.8,0,1.4-0.2,1.9-0.7l12.4-9.7L-274.8,259.3z M-297.6,350.5h-7.2v-8.8h7.2V350.5z M-297.6,336.7h-7.2v-9.4h7.2V336.7z
	 M-297.6,322.2h-7.2v-8h7.2V322.2z M-277.4,274.5h-45.2v-10.9h45.2l6.9,5.4L-277.4,274.5z"/>
</svg>
