<?xml version="1.0" encoding="utf-8"?>
<!-- Generator: Adobe Illustrator 19.0.0, SVG Export Plug-In . SVG Version: 6.00 Build 0)  -->
<svg version="1.1" id="Layer_2" xmlns="http://www.w3.org/2000/svg" xmlns:xlink="http://www.w3.org/1999/xlink" x="0px" y="0px"
	 width="100px" height="100px" viewBox="-345 257 100 100" style="enable-background:new -345 257 100 100;" xml:space="preserve">
<g>
	<path d="M-328,260.8v92.5c0,1.4,1.1,2.5,2.5,2.5h61.5c1.4,0,2.5-1.1,2.5-2.5v-92.5c0-1.4-1.1-2.5-2.5-2.5h-61.5
		C-326.9,258.3-328,259.4-328,260.8z M-266.5,350.8H-323v-87.5h56.5V350.8z"/>
	<path d="M-283.2,306.3c0-6.4-5.2-11.6-11.6-11.6c-6.4,0-11.6,5.2-11.6,11.6s5.2,11.6,11.6,11.6C-288.4,318-283.2,312.7-283.2,306.3
		z M-301.4,306.3c0-3.7,3-6.6,6.6-6.6s6.6,3,6.6,6.6s-3,6.6-6.6,6.6S-301.4,310-301.4,306.3z"/>
	<path d="M-316.9,349.3L-316.9,349.3c1,0.5,1.9,0.7,2.7,0.7c1,0,1.9-0.3,2.6-0.6c3.5-1.8,4.8-6.7,5.1-8.1l2.6-13
		c2.8,1.2,5.9,1.8,9.1,1.8c13.1,0,23.8-10.7,23.8-23.7c0-13.1-10.7-23.8-23.8-23.8s-23.7,10.7-23.7,23.8c0,8,4,15,10,19.3l-7.5,9.2
		c-0.2,0.3-0.5,0.6-0.7,0.8c-1.3,1.5-3,3.5-3.4,6C-320.7,344.5-319.8,347.9-316.9,349.3z M-313.5,306.3c0-10.3,8.4-18.8,18.7-18.8
		c10.3,0,18.8,8.4,18.8,18.8c0,10.3-8.4,18.7-18.8,18.7c-2.9,0-5.7-0.7-8.1-1.9l1.2-5.8l-3.6,4.4
		C-310.3,318.4-313.5,312.8-313.5,306.3z M-315.3,342.6c0.2-1.2,1.2-2.4,2.3-3.6c0.3-0.3,0.5-0.6,0.8-0.9l1.6-2l-0.8,4.2
		c-0.4,2.1-1.5,4.2-2.4,4.6c-0.1,0.1-0.4,0.2-0.9-0.1C-315.2,344.6-315.4,343.5-315.3,342.6z"/>
	<circle cx="-274.2" cy="268.3" r="2.3"/>
</g>
</svg>
