<?xml version="1.0" encoding="utf-8"?>
<!-- Generator: Adobe Illustrator 21.0.0, SVG Export Plug-In . SVG Version: 6.00 Build 0)  -->
<svg version="1.1" id="Layer_1" xmlns="http://www.w3.org/2000/svg" xmlns:xlink="http://www.w3.org/1999/xlink" x="0px" y="0px"
	 viewBox="0 0 100 100" style="enable-background:new 0 0 100 100;" xml:space="preserve">
<path d="M49.1,3.5C23.3,4,2.8,25.7,2.8,51.5v15C2.8,67.9,4,69,5.3,69h2.3v9.3c0,1.4,1.1,2.5,2.5,2.5h2v6.9c0,1.3,1,2.3,2.2,2.5
	l31.1,3.4c1,1.7,2.8,2.8,4.9,2.8h2.3c2.9,0,5.6-2.1,5.9-5c0.5-3.5-2.3-6.5-5.7-6.5h-2.5c-2.4,0-4.5,1.5-5.4,3.7l-27.9-3.1v-4.7h2.7
	c1.4,0,2.5-1.1,2.5-2.5V62c0-1.4-1.1-2.5-2.5-2.5h-12v-8.1c0-23.6,19.3-43.3,42.9-42.9c22.9,0.4,41.4,19.2,41.4,42.2v8.8h-12
	c-1.4,0-2.5,1.1-2.5,2.5v16.3c0,1.4,1.1,2.5,2.5,2.5h9.7c1.4,0,2.5-1.1,2.5-2.5V69h2.3c1.4,0,2.5-1.1,2.5-2.5V50.7
	C97.2,24.4,75.5,3,49.1,3.5z M50.5,89.9H53c0.4,0,0.8,0.3,0.8,0.8s-0.3,0.8-0.8,0.8h-2.5c-0.4,0-0.8-0.3-0.8-0.8S50,89.9,50.5,89.9z
	 M12.7,64.5h4.7v11.3h-4.7V64.5z M87.3,75.9h-4.7V64.5h4.7V75.9z"/>
</svg>
