<?xml version="1.0" encoding="utf-8"?>
<!-- Generator: Adobe Illustrator 21.0.0, SVG Export Plug-In . SVG Version: 6.00 Build 0)  -->
<svg version="1.1" id="Layer_2" xmlns="http://www.w3.org/2000/svg" xmlns:xlink="http://www.w3.org/1999/xlink" x="0px" y="0px"
	 viewBox="0 0 100 100" style="enable-background:new 0 0 100 100;" xml:space="preserve">
<path d="M97.2,58.5c0-26.3-21.7-47.7-48.1-47.2C23.3,11.8,2.8,33.5,2.8,59.3v15c0,1.4,1.1,2.5,2.5,2.5h2.3v9.3
	c0,1.4,1.1,2.5,2.5,2.5h9.7c1.4,0,2.5-1.1,2.5-2.5V69.8c0-1.4-1.1-2.5-2.5-2.5h-12v-8.1c0-23.6,19.3-43.3,42.9-42.9
	c22.9,0.4,41.4,19.2,41.4,42.2v8.8h-12c-1.4,0-2.5,1.1-2.5,2.5v16.3c0,1.4,1.1,2.5,2.5,2.5h9.7c1.4,0,2.5-1.1,2.5-2.5v-9.3h2.3
	c1.4,0,2.5-1.1,2.5-2.5V58.5z M12.7,72.3h4.7v11.3h-4.7V72.3z M87.3,83.7h-4.7V72.3h4.7V83.7z"/>
</svg>
