<?xml version="1.0" encoding="utf-8"?>
<!-- Generator: Adobe Illustrator 19.0.0, SVG Export Plug-In . SVG Version: 6.00 Build 0)  -->
<svg version="1.1" id="Layer_1" xmlns="http://www.w3.org/2000/svg" xmlns:xlink="http://www.w3.org/1999/xlink" x="0px" y="0px"
	 width="100px" height="100px" viewBox="-345 257 100 100" style="enable-background:new -345 257 100 100;" xml:space="preserve">
<path d="M-246.2,292.2c-0.4-7.1-3.7-13.6-9.1-17.9c-9.9-8.5-24.6-7.6-34.2,2l-5.5,5.4l-5.5-5.5c-4.9-4.9-11.7-7.7-18.6-7.7
	c-5.7,0-11.1,1.9-15.6,5.5c-5.4,4.6-8.7,11.3-9.1,18.4c-0.2,7.1,2.4,13.9,7.3,18.7l39.3,39.5c0.6,0.6,1.4,0.9,2.2,0.9
	s1.6-0.3,2.1-0.8l39.4-39.4C-248.5,306.3-245.8,299.3-246.2,292.2z M-257,307.7l-38,38l-29.5-29.7h9.2l3.3-7.5l4.9,20.3l6.4-13h11.4
	c1.4,0,2.5-1.1,2.5-2.5l0,0c0-1.4-1.1-2.5-2.5-2.5h-14.6l-1.6,3.3l-5.1-21l-8,17.8h-10.9l-3.5-3.5c-3.9-3.8-6-9.2-5.9-14.9
	c0.3-5.7,3-11,7.3-14.7c3.6-2.9,7.9-4.4,12.5-4.4c5.6,0,11.2,2.2,15.1,6.2l9,9l9-8.9c7.8-7.8,19.6-8.5,27.5-1.7
	c4.4,3.5,7,8.7,7.3,14.3C-250.9,298-253,303.7-257,307.7z"/>
</svg>
