<?xml version="1.0" encoding="utf-8"?>
<!-- Generator: Adobe Illustrator 21.0.0, SVG Export Plug-In . SVG Version: 6.00 Build 0)  -->
<svg version="1.1" id="Layer_2" xmlns="http://www.w3.org/2000/svg" xmlns:xlink="http://www.w3.org/1999/xlink" x="0px" y="0px"
	 viewBox="0 0 100 100" style="enable-background:new 0 0 100 100;" xml:space="preserve">
<g>
	<path d="M70.2,12.3c-5.7-5.9-13.9-8.9-23.7-8.9C34.2,3.4,24.2,9,19.2,18.7c-0.7,1.4-0.2,2.9,1.2,3.6c1.4,0.7,2.9,0.2,3.6-1.1
		c4.2-7.9,12.5-12.4,22.7-12.4c8.3,0,15.1,2.5,19.7,7.3c3.9,4,6,9.4,5.8,15.1C71.7,42,65.8,46,58.6,49.7l-0.8,0.4
		c-6.9,3.6-14,7.3-14,16.9v13.4c0,1.5,1.2,2.7,2.7,2.7c0.8,0,1.5-0.3,2.1-0.9c0.5-0.5,0.7-1.2,0.6-1.9l-0.1-13.2
		c-0.1-6.4,4.3-8.6,10.4-11.8l0.9-0.5c7-3.8,16.7-8.9,17-23.6C77.8,24.2,75.2,17.3,70.2,12.3z"/>
	<path d="M46.8,85c-2.9,0-5.3,2.4-5.3,5.3s2.4,5.3,5.3,5.3s5.3-2.4,5.3-5.3S49.7,85,46.8,85z M46.8,92.6c-1.3,0-2.3-1-2.3-2.3
		s1-2.3,2.3-2.3c1.3,0,2.3,1,2.3,2.3S48.1,92.6,46.8,92.6z"/>
</g>
</svg>
