<?xml version="1.0" encoding="utf-8"?>
<!-- Generator: Adobe Illustrator 21.0.0, SVG Export Plug-In . SVG Version: 6.00 Build 0)  -->
<svg version="1.1" id="Layer_1" xmlns="http://www.w3.org/2000/svg" xmlns:xlink="http://www.w3.org/1999/xlink" x="0px" y="0px"
	 viewBox="0 0 100 100" style="enable-background:new 0 0 100 100;" xml:space="preserve">
<path d="M59.4,1.2H37.5c-1.4,0-2.5,1.1-2.5,2.5v63h1.7l1.8,15.2c0.1,1.1,1.1,1.9,2.2,1.9h0v11.5c0,1.5,1.5,2.6,2.9,2l11.2-4.1
	c0.9-0.3,1.4-1.1,1.4-2v-7.4h0.5c1.1,0,2-0.8,2.2-1.9l1.8-15.2h1.2l0.1-63C61.9,2.3,60.7,1.2,59.4,1.2z M40,6.2h16.9l-0.1,55.5H40
	V6.2z M51.2,89.1l-5.6,2v-7.4h5.6V89.1z M54.1,78.7h-11l-1.4-12.1h13.8L54.1,78.7z"/>
</svg>
