<?xml version="1.0" encoding="utf-8"?>
<!-- Generator: Adobe Illustrator 21.0.0, SVG Export Plug-In . SVG Version: 6.00 Build 0)  -->
<svg version="1.1" id="Layer_1" xmlns="http://www.w3.org/2000/svg" xmlns:xlink="http://www.w3.org/1999/xlink" x="0px" y="0px"
	 viewBox="0 0 100 100" style="enable-background:new 0 0 100 100;" xml:space="preserve">
<path d="M92.2,24L76.7,8.5c-1-1-2.6-1-3.5,0L28.6,53.1l1.2,1.2l-9.5,12c-0.7,0.9-0.6,2.1,0.2,2.9l0,0l-8.1,8.1
	c-1.1,1.1-0.7,2.9,0.6,3.5l10.8,5.1c0.8,0.4,1.8,0.2,2.5-0.4l5.2-5.2l0.3,0.3c0.8,0.8,2,0.9,2.9,0.2l12-9.5l0.8,0.8l44.6-44.4
	C93.1,26.5,93.2,25,92.2,24z M74.9,13.8l11.9,11.9L47.6,64.9L35.7,53.1L74.9,13.8z M24.2,80.4l-5.4-2.5l5.3-5.3l3.9,3.9L24.2,80.4z
	 M33.6,75.1l-7.8-7.8l7.6-9.5l9.8,9.8L33.6,75.1z"/>
</svg>
