<?xml version="1.0" encoding="utf-8"?>
<!-- Generator: Adobe Illustrator 22.0.0, SVG Export Plug-In . SVG Version: 6.00 Build 0)  -->
<svg version="1.1" id="Layer_1" xmlns="http://www.w3.org/2000/svg" xmlns:xlink="http://www.w3.org/1999/xlink" x="0px" y="0px"
	 viewBox="0 0 100 100" style="enable-background:new 0 0 100 100;" xml:space="preserve">
<path d="M91.9,40.2l-6.4-5.6V7.5C85.5,6.1,84.4,5,83,5H60.5C59.1,5,58,6.1,58,7.5v3.2l-8.5-7.5c-0.8-0.7-1.9-0.7-2.6,0l-42.4,37
	C3.8,40.8,4.2,42,5.1,42H9v52.8c0,1.4,1.1,2.5,2.5,2.5h26.8h2.5c1.4,0,2.5-1.1,2.5-2.5v-2.5V71.6h9.3v20.6v2.5
	c0,1.4,1.1,2.5,2.5,2.5h2.5h27.2c1.4,0,2.5-1.1,2.5-2.5V42h3.9C92.1,42,92.6,40.9,91.9,40.2z M80.5,10v20.3L63,15.1V10H80.5z
	 M82.3,92.2H57.7V69.1c0-1.4-1.1-2.5-2.5-2.5H40.8c-1.4,0-2.5,1.1-2.5,2.5v23.1H14V42h11.2c1.4,0,2.5-1.1,2.5-2.5
	c0-1.4-1.1-2.5-2.5-2.5h-9.4L48.2,8.7L80.5,37h-10c-1.4,0-2.5,1.1-2.5,2.5c0,1.4,1.1,2.5,2.5,2.5h11.8V92.2z"/>
</svg>
