<?xml version="1.0" encoding="utf-8"?>
<!-- Generator: Adobe Illustrator 21.0.0, SVG Export Plug-In . SVG Version: 6.00 Build 0)  -->
<svg version="1.1" id="Layer_1" xmlns="http://www.w3.org/2000/svg" xmlns:xlink="http://www.w3.org/1999/xlink" x="0px" y="0px"
	 viewBox="0 0 100 100" style="enable-background:new 0 0 100 100;" xml:space="preserve">
<style type="text/css">
	.st0{display:none;}
	.st1{display:inline;fill:#FFFFFF;stroke:#231F20;stroke-width:1.125;stroke-miterlimit:10;}
	.st2{display:inline;fill:none;stroke:#231F20;stroke-width:1.125;stroke-miterlimit:10;}
</style>
<g id="Layer_1_1_" class="st0">
	<rect x="5" y="5" class="st1" width="90" height="90"/>
	<circle class="st1" cx="50" cy="50" r="45"/>
	<line class="st2" x1="50" y1="5" x2="50" y2="95"/>
	<line class="st2" x1="5" y1="50" x2="95" y2="50"/>
</g>
<g>
	<path d="M79.9,98.7H20c-1.1,0-2.3-0.5-3.1-1.4c-0.8-0.9-1.2-2.1-1.1-3.3c0.1-2.2,2-4,4.4-4H24c0,0,0-0.1,0-0.1V81
		c0-10.4,5.3-20,14.8-27c0.9-0.6,1.4-2.1,1.4-3.9c0-2.1-0.7-3.4-1.4-4c-9.5-7-14.7-16.6-14.7-27v-8.9c0,0,0-0.1,0-0.1H20
		c-1.4,0-2.5-0.6-3.3-1.8c-0.7-1-0.9-2.2-0.7-3.4c0.3-2,2.1-3.6,4.2-3.6H80c1.4,0,2.5,0.6,3.3,1.8C84,4,84.3,5.2,84,6.4
		c-0.3,2-2.2,3.6-4.2,3.6H76c0,0,0,0.1,0,0.1v8.9c0,10.4-5.3,20-14.8,27c-0.9,0.6-1.4,2.1-1.4,3.9c0,2.1,0.7,3.4,1.4,4
		C70.7,61,76,70.6,76,81v8.9c0,0,0,0.1,0,0.1h3.7c2.2,0,4.1,1.7,4.4,3.9l0,0.3c0,1.1-0.5,2.3-1.2,3.1l0,0
		C82.2,98.2,81.1,98.7,79.9,98.7z M27.4,93.7h45.3c-1-0.9-1.6-2.3-1.6-3.8V81c0-8.8-4.6-17-12.8-23c-2.2-1.7-3.4-4.6-3.4-8
		c0-3.5,1.2-6.3,3.4-8c8.2-6,12.7-14.2,12.7-23v-8.9c0-1.6,0.7-3,1.7-3.9H27.3c1.1,0.9,1.7,2.3,1.7,3.9v8.9c0,8.8,4.5,17,12.8,23
		c2.2,1.7,3.4,4.6,3.4,8c0,3.5-1.2,6.3-3.4,8C33.5,64.1,29,72.2,29,81v8.9C29,91.4,28.4,92.8,27.4,93.7z"/>
</g>
</svg>
