<?xml version="1.0" encoding="utf-8"?>
<!-- Generator: Adobe Illustrator 19.0.0, SVG Export Plug-In . SVG Version: 6.00 Build 0)  -->
<svg version="1.1" id="Layer_1" xmlns="http://www.w3.org/2000/svg" xmlns:xlink="http://www.w3.org/1999/xlink" x="0px" y="0px"
	 width="100px" height="100px" viewBox="-74 0 100 100" style="enable-background:new -74 0 100 100;" xml:space="preserve">
<g>
	<path d="M21.6,2h-91.1C-71,2-72.2,3.3-72,4.8l8.3,81.6l0,0c0.1,1.3,1.3,2.5,2.4,2.8l35.3,8.6l0.2,0c0.5,0.1,1.1,0.1,1.8,0.1
		c0.6,0,1.3,0,1.8-0.1l35.3-8.6c1.5-0.4,2.6-1.6,2.7-2.9L24,4.8C24.2,3.3,23,2,21.6,2z M11,84.6l-34.1,8.3c-0.4,0.1-1.3,0.1-1.7,0
		l-34-8.3L-66.8,7h85.6L11,84.6z"/>
	<path d="M-4.3,48.5l-3,17l-15.3,5.6L-38,65.6L-40,55.2c-0.3-1.4-1.6-2.2-2.9-2c-1.4,0.3-2.2,1.6-2,2.9l2.6,13.1l19.7,7.3l19.7-7.3
		l4.5-25.7h-44l-3.7-21.3H1.3c1.4,0,2.5-1.1,2.5-2.5v0c0-1.4-1.1-2.5-2.5-2.5h-53.4l5.5,31.3H-4.3z"/>
</g>
</svg>
