<?xml version="1.0" encoding="utf-8"?>
<!-- Generator: Adobe Illustrator 19.0.0, SVG Export Plug-In . SVG Version: 6.00 Build 0)  -->
<svg version="1.1" id="Layer_1" xmlns="http://www.w3.org/2000/svg" xmlns:xlink="http://www.w3.org/1999/xlink" x="0px" y="0px"
	 width="100px" height="100px" viewBox="-205 207 100 100" style="enable-background:new -205 207 100 100;" xml:space="preserve">
<g>
	<path d="M-199.2,209.9v94.2c0,1.4,1.1,2.5,2.5,2.5h83.5c1.4,0,2.5-1.1,2.5-2.5v-94.2c0-1.4-1.1-2.5-2.5-2.5h-83.5
		C-198.1,207.4-199.2,208.5-199.2,209.9z M-115.7,212.4v62.8l-10.6-8c-3.7-2.8-8.8-2.7-12.4,0.1l-11.2,8.8c-2.1,1.6-5.1,1.4-6.9-0.4
		l-11.4-11.5c-3.6-3.7-9.4-4-13.5-0.8l-12.6,9.9v-60.8H-115.7z M-194.3,301.6v-22.1l15.7-12.4c2.1-1.6,5.1-1.5,6.9,0.4l11.4,11.5
		c3.6,3.7,9.4,4,13.5,0.9l11.2-8.8c1.9-1.5,4.5-1.5,6.4-0.1l13.6,10.3v20.3H-194.3z"/>
	<path d="M-134.4,242.1c6.9,0,12.4-5.6,12.4-12.4c0-6.9-5.6-12.4-12.4-12.4c-6.9,0-12.4,5.6-12.4,12.4
		C-146.8,236.6-141.3,242.1-134.4,242.1z M-134.4,222.2c4.1,0,7.5,3.4,7.5,7.5s-3.4,7.5-7.5,7.5s-7.5-3.4-7.5-7.5
		S-138.5,222.2-134.4,222.2z"/>
</g>
</svg>
