<?xml version="1.0" encoding="utf-8"?>
<!-- Generator: Adobe Illustrator 19.0.0, SVG Export Plug-In . SVG Version: 6.00 Build 0)  -->
<svg version="1.1" id="Layer_1" xmlns="http://www.w3.org/2000/svg" xmlns:xlink="http://www.w3.org/1999/xlink" x="0px" y="0px"
	 width="100px" height="100px" viewBox="-345 257 100 100" style="enable-background:new -345 257 100 100;" xml:space="preserve">
<g>
	<path d="M-330.9,286.7c-1.7-1-3.8,0.2-3.8,2.1v34.3c0,2,2.2,3.2,3.8,2.1l27.8-17.5c1.6-1,1.6-3.3,0-4.3L-330.9,286.7z
		 M-329.7,318.6v-25.3l20.5,12.4L-329.7,318.6z"/>
	<path d="M-332.7,264.5h75.4c1.4,0,2.5-1.1,2.5-2.5s-1.1-2.5-2.5-2.5h-75.4c-1.4,0-2.5,1.1-2.5,2.5S-334.1,264.5-332.7,264.5z"/>
	<path d="M-257.3,349.5h-75.4c-1.4,0-2.5,1.1-2.5,2.5s1.1,2.5,2.5,2.5h75.4c1.4,0,2.5-1.1,2.5-2.5S-255.9,349.5-257.3,349.5z"/>
	<path d="M-257.3,277.5h-32c-1.4,0-2.5,1.1-2.5,2.5s1.1,2.5,2.5,2.5h32c1.4,0,2.5-1.1,2.5-2.5S-255.9,277.5-257.3,277.5z"/>
	<path d="M-257.3,295.5h-32c-1.4,0-2.5,1.1-2.5,2.5s1.1,2.5,2.5,2.5h32c1.4,0,2.5-1.1,2.5-2.5S-255.9,295.5-257.3,295.5z"/>
	<path d="M-257.3,313.5h-32c-1.4,0-2.5,1.1-2.5,2.5s1.1,2.5,2.5,2.5h32c1.4,0,2.5-1.1,2.5-2.5S-255.9,313.5-257.3,313.5z"/>
	<path d="M-257.3,331.5h-32c-1.4,0-2.5,1.1-2.5,2.5s1.1,2.5,2.5,2.5h32c1.4,0,2.5-1.1,2.5-2.5S-255.9,331.5-257.3,331.5z"/>
</g>
</svg>
