<?xml version="1.0" encoding="utf-8"?>
<!-- Generator: Adobe Illustrator 19.0.0, SVG Export Plug-In . SVG Version: 6.00 Build 0)  -->
<svg version="1.1" id="Layer_1" xmlns="http://www.w3.org/2000/svg" xmlns:xlink="http://www.w3.org/1999/xlink" x="0px" y="0px"
	 width="100px" height="100px" viewBox="-345 257 100 100" style="enable-background:new -345 257 100 100;" xml:space="preserve">
<style type="text/css">
	.st0{display:none;fill:#FFFFFF;stroke:#231F20;stroke-miterlimit:10;}
</style>
<rect id="XMLID_1_" x="-340" y="262" class="st0" width="90" height="90"/>
<path d="M-269.7,286.5c-10,0-20.8,11.2-25.3,16.4c-4.5-5.2-15.3-16.4-25.3-16.4c-13.1,0-23.7,9.1-23.7,20.4
	c0,11.2,10.6,20.4,23.7,20.4c10,0,20.8-11.2,25.3-16.4c4.5,5.2,15.3,16.4,25.3,16.4c13.1,0,23.7-9.1,23.7-20.4
	C-246,295.7-256.6,286.5-269.7,286.5z M-320.3,322.2c-10.3,0-18.7-6.9-18.7-15.4c0-8.5,8.4-15.4,18.7-15.4c7.6,0,17.6,10,22.1,15.4
	C-302.8,312.3-312.8,322.2-320.3,322.2z M-269.7,322.2c-7.6,0-17.6-10-22.1-15.4c4.6-5.4,14.5-15.4,22.1-15.4
	c10.3,0,18.7,6.9,18.7,15.4C-251,315.3-259.4,322.2-269.7,322.2z"/>
</svg>
