<?xml version="1.0" encoding="utf-8"?>
<!-- Generator: Adobe Illustrator 22.0.0, SVG Export Plug-In . SVG Version: 6.00 Build 0)  -->
<svg version="1.1" id="Layer_1" xmlns="http://www.w3.org/2000/svg" xmlns:xlink="http://www.w3.org/1999/xlink" x="0px" y="0px"
	 viewBox="0 0 100 100" style="enable-background:new 0 0 100 100;" xml:space="preserve">
<g>
	<path d="M73.7,22.1c-0.8,0-1.5,0.3-2.1,0.9c-0.6,0.5-0.9,1.3-0.9,2.1c0,0.8,0.3,1.5,0.9,2.1c1.1,1.1,3.2,1.1,4.3,0
		c0.6-0.5,0.9-1.3,0.9-2.2c0-0.7-0.4-1.5-0.9-2C75.3,22.4,74.5,22.1,73.7,22.1z"/>
	<path d="M50.3,34c-8.9,0-16.1,7.2-16.1,16.1c0,8.9,7.2,16.1,16.1,16.1c8.8,0,16-7.2,16-16.1C66.3,41.2,59.1,34,50.3,34z"/>
	<path d="M67.8,7H32.7C18.6,7,7.2,18.4,7.2,32.5v35.2c0,14.1,11.4,25.5,25.5,25.5h35.2c14.1,0,25.5-11.4,25.5-25.5V32.5
		C93.3,18.4,81.9,7,67.8,7z M50.3,71.2c-11.6,0-21.1-9.5-21.1-21.1c0-11.6,9.5-21.1,21.1-21.1c11.5,0,21,9.5,21,21.1
		C71.3,61.7,61.9,71.2,50.3,71.2z M81.9,25.2c-0.1,2.2-1,4.2-2.4,5.6c-1.5,1.5-3.5,2.3-5.7,2.3c-2.2,0-4.2-0.8-5.7-2.3
		s-2.3-3.5-2.3-5.7s0.8-4.2,2.3-5.7s3.5-2.3,5.7-2.3c2.2,0,4.3,0.9,5.8,2.5c1.4,1.4,2.3,3.4,2.3,5.5V25.2z"/>
</g>
</svg>
