<?xml version="1.0" encoding="utf-8"?>
<!-- Generator: Adobe Illustrator 19.0.0, SVG Export Plug-In . SVG Version: 6.00 Build 0)  -->
<svg version="1.1" id="Layer_1" xmlns="http://www.w3.org/2000/svg" xmlns:xlink="http://www.w3.org/1999/xlink" x="0px" y="0px"
	 width="100px" height="100px" viewBox="-74 0 100 100" style="enable-background:new -74 0 100 100;" xml:space="preserve">
<path d="M12.8,70.7c1.3-7.1-0.8-14.2-6-19.3l-0.3-0.3c4.9-5.6,7.6-15,6.3-21.8c6-1.3,10.4-6.8,10.4-13.1c0-3.8-1.4-7.2-3.9-9.6
	c-2.6-2.5-6-3.8-9.5-3.8C3.6,2.7-1.8,7.1-3.2,13.1c-7.3-1.7-15,0.5-20.3,5.8l-0.4,0.4c-5.4-4.7-14.4-7.4-20.9-6.4
	c-1.5-5.9-6.8-10.1-13.1-10.1c-7.4,0-13.4,6-13.4,13.4c0,5.9,3.9,11.1,9.4,12.9c-1.7,7.4,0.4,15,5.6,20.2l1.2,1.2l-1,0.8l-0.2,0.2
	c-5.1,5.1-7.3,12.5-5.9,19.5c-5.5,1.9-9.2,7-9.2,12.8c0,7.4,6,13.4,13.4,13.4c6,0,11.1-3.8,12.9-9.3c7,1.4,14.2-0.7,19.4-5.9
	l0.5-0.5c5.6,4.4,15.2,7.6,22.1,6.1c1.7,5.6,6.9,9.6,12.9,9.6c7.5,0,13.6-6,13.6-13.4C23.4,77.6,18.9,72.1,12.8,70.7z M-35.2,69.9
	l-0.3,0.3l-1,1.1c-1.2,1.2-2.8,1.8-4.5,1.8c-1.8,0-3.4-0.6-4.7-1.9c-2.1-2.1-0.7-7,1.5-10L-35.2,69.9z M-24.5,59.3l-9.3-9l9.3-9.1
	l9,9.1L-24.5,59.3z M-13.9,30.5l1.1-1.1c1.2-1.2,2.9-1.9,4.6-1.9s3.4,0.7,4.6,1.9c1.4,1.4,1.6,3.3,1.6,4.7c0,1.9-1.1,4.6-2.3,6.3
	L-13.9,30.5z M-20,22.4c4.3-4.3,10.6-5.9,16.5-4.2l4.3,1.2l0.6-4.4c0.6-4.2,4.2-7.3,8.4-7.3c2.3,0,4.4,0.9,6.1,2.5
	c1.5,1.5,2.4,3.6,2.4,6c0,4.2-3.1,7.8-7.3,8.4l-4.4,0.6l1.2,4.3c1.3,4.7-0.5,12-3.8,16.8l-3.6-3.6c1.5-2.4,2.8-5.8,2.8-8.6
	c0-3.3-1.1-6.2-3.1-8.2c-4.5-4.5-11.8-4.5-16.3,0l-11,11l-9.8,9.6l-3.6-3.6L-20,22.4L-20,22.4z M-44.5,39.6l-1.1-1.1
	c-1.2-1.2-1.9-2.8-1.9-4.5c0-1.8,0.6-3.4,1.8-4.6c1.3-1.2,3.1-1.8,5.1-1.6c1.6,0.1,4.2,1.1,5.9,2.2L-44.5,39.6z M-56.8,29.4l1.2-4
	l-4.1-0.9c-3.8-0.9-6.6-4.4-6.6-8.3c0-4.7,3.8-8.4,8.4-8.4c4.1,0,7.7,3,8.4,7l0.6,4.1l4.1-0.9c4.5-1.1,11.8,0.9,16.4,4.2l-3.6,3.6
	c-2.5-1.5-5.9-2.7-8.1-2.9c-3.4-0.3-6.6,0.8-9,3c-2.1,2.1-3.3,5.1-3.3,8.2c0,3.1,1.2,5.9,3.3,8.1l11,11l9.9,9.6l-3.6,3.6l-9.9-9.6
	l-11-11C-56.9,41.5-58.5,35.3-56.8,29.4z M-44.8,82.8l-3.8-0.9l-1,3.8c-0.9,3.8-4.3,6.5-8.3,6.5c-4.7,0-8.4-3.8-8.4-8.4
	c0-3.9,2.7-7.3,6.6-8.3l4-1l-1.4-3.7c-1.4-5.6,0.2-11.6,4.2-15.7l0.4-0.4l3.9,3.9c-3.2,4.7-4.9,12-0.7,16.2c2.1,2.1,5.1,3.3,8.2,3.3
	c3.1,0,5.9-1.2,8.1-3.3l1-1.1L-14.2,56l3.6,3.6l-18.6,18.9C-33.3,82.6-39.2,84.2-44.8,82.8z M-4.9,60.9l1.1,1.1
	c1.2,1.2,1.9,2.9,1.9,4.6s-0.7,3.4-1.9,4.6c-1.1,1.1-3.1,1.7-5.3,1.4c-1.3-0.1-3.6-1.1-5.3-2.1L-4.9,60.9z M9.8,92.3
	c-4,0-7.5-2.9-8.3-6.8l-1-4.4l-4.1,1.6C-8,83.9-15.7,82-20.9,78.4l3.7-3.7c2.2,1.3,5.4,2.7,7.6,2.9c3.7,0.4,7.1-0.6,9.4-2.9
	c4.5-4.5,4.5-11.8,0-16.3l-10.9-10.9l-7.8-7.9l3.6-3.6l7.8,7.9L3.3,54.9c4.1,4.1,5.8,10,4.4,15.8l-0.9,4.2l4.2,0.6
	c4.2,0.6,7.3,4.2,7.3,8.4C18.4,88.5,14.5,92.3,9.8,92.3z"/>
</svg>
