<?xml version="1.0" encoding="utf-8"?>
<!-- Generator: Adobe Illustrator 19.0.0, SVG Export Plug-In . SVG Version: 6.00 Build 0)  -->
<svg version="1.1" id="Layer_2" xmlns="http://www.w3.org/2000/svg" xmlns:xlink="http://www.w3.org/1999/xlink" x="0px" y="0px"
	 width="100px" height="100px" viewBox="-256 379.9 100 100" style="enable-background:new -256 379.9 100 100;"
	 xml:space="preserve">
<path d="M-165,450.9l-15.2-15.2c-3.8-3.8-9.9-4-14-0.6l-47.2-47.2c-1.1-1.1-2.9-1.1-4,0c-1.1,1.1-1.1,2.9,0,4l0.7,0.7l-4.5,4.5
	c-1.1,1.1-1.1,2.9,0,4c1.1,1.1,2.9,1.1,4,0l4.5-4.5l4,4l-8.5,8.5c-1.1,1.1-1.1,2.9,0,4c1.1,1.1,2.9,1.1,4,0l8.5-8.5l4,4l-6.9,6.9
	c-1.1,1.1-1.1,2.9,0,4c1.1,1.1,2.9,1.1,4,0l6.9-6.9l26.6,26.6l-0.9,0.9c-2,2-3,4.6-3,7.4c0,2.8,1.1,5.4,3,7.4l15.2,15.2
	c2,2,4.6,3,7.4,3c2.8,0,5.4-1.1,7.4-3l4.2-4.2C-160.9,461.5-160.9,454.9-165,450.9z M-168.5,462.1l-4.2,4.2c-1,1-2.4,1.6-3.8,1.6
	c-1.5,0-2.8-0.6-3.8-1.6l-15.2-15.2c-1-1-1.6-2.4-1.6-3.8c0-1.5,0.6-2.8,1.6-3.8l4.2-4.2c1.1-1.1,2.4-1.6,3.8-1.6s2.8,0.5,3.8,1.6
	l15.2,15.2C-166.4,456.5-166.4,459.9-168.5,462.1z"/>
</svg>
