<?xml version="1.0" encoding="utf-8"?>
<!-- Generator: Adobe Illustrator 19.0.0, SVG Export Plug-In . SVG Version: 6.00 Build 0)  -->
<svg version="1.1" id="Layer_2" xmlns="http://www.w3.org/2000/svg" xmlns:xlink="http://www.w3.org/1999/xlink" x="0px" y="0px"
	 width="100px" height="100px" viewBox="-74 0 100 100" style="enable-background:new -74 0 100 100;" xml:space="preserve">
<g>
	<path d="M22.8,29.6h-93.4c-1.4,0-2.5,1.1-2.5,2.5v37.4c0,1.4,1.1,2.5,2.5,2.5h93.4c1.4,0,2.5-1.1,2.5-2.5V32.1
		C25.3,30.7,24.1,29.6,22.8,29.6z M20.4,67.1h-88.7V34.5h88.7V67.1z"/>
	<path d="M-55.9,40.3h3.2c0.7,0,1.1-0.2,1.1-0.6V38c0-0.3-0.4-0.6-1.1-0.6h-3.2c-0.7,0-1.1,0.2-1.1,0.6v1.7
		C-57,40-56.5,40.3-55.9,40.3z"/>
	<path d="M-47.2,40.3h3.2c0.7,0,1.1-0.2,1.1-0.6V38c0-0.3-0.4-0.6-1.1-0.6h-3.2c-0.7,0-1.1,0.2-1.1,0.6v1.7
		C-48.3,40-47.9,40.3-47.2,40.3z"/>
	<path d="M-38.5,40.3h3.2c0.7,0,1.1-0.2,1.1-0.6V38c0-0.3-0.4-0.6-1.1-0.6h-3.2c-0.7,0-1.1,0.2-1.1,0.6v1.7
		C-39.7,40-39.2,40.3-38.5,40.3z"/>
	<path d="M-30,40.3h3.2c0.7,0,1.1-0.2,1.1-0.6V38c0-0.3-0.4-0.6-1.1-0.6H-30c-0.7,0-1.1,0.2-1.1,0.6v1.7C-31,40-30.6,40.3-30,40.3z"
		/>
	<path d="M-21.3,40.3h3.2c0.7,0,1.1-0.2,1.1-0.6V38c0-0.3-0.4-0.6-1.1-0.6h-3.2c-0.7,0-1.1,0.2-1.1,0.6v1.7
		C-22.3,40-22,40.3-21.3,40.3z"/>
	<path d="M-12.7,40.3h3.2c0.7,0,1.1-0.2,1.1-0.6V38c0-0.3-0.4-0.6-1.1-0.6h-3.2c-0.7,0-1.1,0.2-1.1,0.6v1.7
		C-13.8,40-13.4,40.3-12.7,40.3z"/>
	<path d="M-4,40.3h3.2c0.7,0,1.1-0.2,1.1-0.6V38c0-0.3-0.4-0.6-1.1-0.6H-4c-0.7,0-1.1,0.2-1.1,0.6v1.7C-5.1,40-4.7,40.3-4,40.3z"/>
	<path d="M4.6,40.3h3.2C8.5,40.3,9,40,9,39.7V38c0-0.3-0.4-0.6-1.1-0.6H4.6c-0.7,0-1.1,0.2-1.1,0.6v1.7C3.5,40,4,40.3,4.6,40.3z"/>
	<path d="M-47.2,50.2h3.2c0.7,0,1.1-0.2,1.1-0.6V48c0-0.3-0.4-0.6-1.1-0.6h-3.2c-0.7,0-1.1,0.2-1.1,0.6v1.7
		C-48.3,49.9-47.9,50.2-47.2,50.2z"/>
	<path d="M-38.5,50.2h3.2c0.7,0,1.1-0.2,1.1-0.6V48c0-0.3-0.4-0.6-1.1-0.6h-3.2c-0.7,0-1.1,0.2-1.1,0.6v1.7
		C-39.7,49.9-39.2,50.2-38.5,50.2z"/>
	<path d="M-30,50.2h3.2c0.7,0,1.1-0.2,1.1-0.6V48c0-0.3-0.4-0.6-1.1-0.6H-30c-0.7,0-1.1,0.2-1.1,0.6v1.7C-31,49.9-30.6,50.2-30,50.2
		z"/>
	<path d="M-21.3,50.2h3.2c0.7,0,1.1-0.2,1.1-0.6V48c0-0.3-0.4-0.6-1.1-0.6h-3.2c-0.7,0-1.1,0.2-1.1,0.6v1.7
		C-22.3,49.9-22,50.2-21.3,50.2z"/>
	<path d="M-12.7,50.2h3.2c0.7,0,1.1-0.2,1.1-0.6V48c0-0.3-0.4-0.6-1.1-0.6h-3.2c-0.7,0-1.1,0.2-1.1,0.6v1.7
		C-13.8,49.9-13.4,50.2-12.7,50.2z"/>
	<path d="M-4,50.2h3.2c0.7,0,1.1-0.2,1.1-0.6V48c0-0.3-0.4-0.6-1.1-0.6H-4c-0.7,0-1.1,0.2-1.1,0.6v1.7C-5.1,49.9-4.7,50.2-4,50.2z"
		/>
	<path d="M-37.9,64.1H-10c1.6,0,2.8-1.3,2.8-2.8c0-1.4-1.3-2.8-2.8-2.8h-27.9c-1.6,0-2.8,1.3-2.8,2.8
		C-40.7,62.8-39.4,64.1-37.9,64.1z"/>
</g>
</svg>
