<?xml version="1.0" encoding="utf-8"?>
<!-- Generator: Adobe Illustrator 19.0.0, SVG Export Plug-In . SVG Version: 6.00 Build 0)  -->
<svg version="1.1" id="Layer_2" xmlns="http://www.w3.org/2000/svg" xmlns:xlink="http://www.w3.org/1999/xlink" x="0px" y="0px"
	 width="100px" height="100px" viewBox="-205 207 100 100" style="enable-background:new -205 207 100 100;" xml:space="preserve">
<path d="M-107.6,292.8l-7.9-33.1v-39.1c0-1.4-1.1-2.5-2.5-2.5h-74.1c-1.4,0-2.5,1.1-2.5,2.5v39.1l-7.9,33.1
	c-0.4,1.6,0.8,3.1,2.4,3.1h90C-108.4,295.9-107.2,294.4-107.6,292.8z M-196.8,290.9l6.6-27.6h70.6l6.6,27.6H-196.8z M-155,219.3
	c0.7,0,1.3,0.6,1.3,1.3s-0.6,1.3-1.3,1.3s-1.3-0.6-1.3-1.3S-155.7,219.3-155,219.3z M-189.6,223.1h69.1V257h-69.1V223.1z"/>
</svg>
