<?xml version="1.0" encoding="utf-8"?>
<!-- Generator: Adobe Illustrator 19.0.0, SVG Export Plug-In . SVG Version: 6.00 Build 0)  -->
<svg version="1.1" id="Layer_2" xmlns="http://www.w3.org/2000/svg" xmlns:xlink="http://www.w3.org/1999/xlink" x="0px" y="0px"
	 width="100px" height="100px" viewBox="-74 0 100 100" style="enable-background:new -74 0 100 100;" xml:space="preserve">
<g>
	<path d="M12.6,74.6H7.9c-0.6,0-1.2,0.6-1.2,1.5c0,0.8,0.4,1.5,1.2,1.5h4.8c0.6,0,1.2-0.6,1.2-1.5C13.8,75.2,13.2,74.6,12.6,74.6z"
		/>
	<path d="M5.5,43.9h9.3c0.4,0,1-0.4,1-1c0-0.4-0.4-1-1-1H5.5H5.3c-0.4,0-0.6,0.4-0.6,1c0,0.2,0.2,0.4,0.2,0.6
		C5.1,43.9,5.3,43.9,5.5,43.9z"/>
	<path d="M5.9,35.2V21.6c0-2.8-2.3-5.1-5.1-5.1h-56.7c-2.8,0-5.1,2.3-5.1,5.1v30.3l-12.3,18.8l-0.1,0.1c-0.6,1.1-0.7,2.5,0,3.6
		c0.6,1.1,1.8,1.7,3,1.7h65.1v4.9c0,1.4,1.1,2.5,2.5,2.5h26.1c1.4,0,2.5-1.1,2.5-2.5V37.7c0-1.4-1.1-2.5-2.5-2.5H5.9z M-28.6,17.4
		c0.8,0,1.5,0.7,1.5,1.5s-0.7,1.5-1.5,1.5s-1.5-0.7-1.5-1.5S-29.4,17.4-28.6,17.4z M-55.9,21.4H0.8c0.1,0,0.1,0.1,0.1,0.1v13.7h-3.8
		c-1.4,0-2.5,1.1-2.5,2.5v12.4h-50.8V21.6C-56.1,21.5-56,21.4-55.9,21.4z M-67.7,71.2l10.5-16h51.9v16H-67.7z M20.8,78.6H-0.3V40.2
		h21.1V78.6z"/>
</g>
</svg>
