<?xml version="1.0" encoding="utf-8"?>
<!-- Generator: Adobe Illustrator 19.0.0, SVG Export Plug-In . SVG Version: 6.00 Build 0)  -->
<svg version="1.1" id="Layer_2" xmlns="http://www.w3.org/2000/svg" xmlns:xlink="http://www.w3.org/1999/xlink" x="0px" y="0px"
	 width="100px" height="100px" viewBox="-256 379.9 100 100" style="enable-background:new -256 379.9 100 100;"
	 xml:space="preserve">
<path d="M-174.4,420l13.9-7.7c1.7-1,1.7-3.4,0-4.4l-44.2-24.6c-0.8-0.4-1.7-0.4-2.4,0l-44.2,24.6c-1.7,1-1.7,3.4,0,4.4l13.9,7.7
	l-13.9,7.7c-1.7,1-1.7,3.4,0,4.4l13.9,7.7l-13.9,7.7c-1.7,1-1.7,3.4,0,4.4l44.2,24.6c0.8,0.4,1.7,0.4,2.4,0l44.2-24.6
	c1.7-1,1.7-3.4,0-4.4l-13.9-7.7l13.9-7.7c1.7-1,1.7-3.4,0-4.4L-174.4,420z M-245.1,410.1l39.1-21.8l39.1,21.8l-39.1,21.8
	L-245.1,410.1z M-166.9,449.7l-39.1,21.8l-39.1-21.8l12.7-7l25.2,14c0.8,0.4,1.7,0.4,2.4,0l25.2-14L-166.9,449.7z M-206,451.7
	l-39.1-21.8l12.7-7l25.2,14c0.8,0.4,1.7,0.4,2.4,0l25.2-14l12.7,7L-206,451.7z"/>
</svg>
