<?xml version="1.0" encoding="utf-8"?>
<!-- Generator: Adobe Illustrator 19.0.0, SVG Export Plug-In . SVG Version: 6.00 Build 0)  -->
<svg version="1.1" id="Layer_2" xmlns="http://www.w3.org/2000/svg" xmlns:xlink="http://www.w3.org/1999/xlink" x="0px" y="0px"
	 width="100px" height="100px" viewBox="-256 379.9 100 100" style="enable-background:new -256 379.9 100 100;"
	 xml:space="preserve">
<path d="M-250.2,388.8v82.9c0,1.4,1.1,2.5,2.5,2.5h83.4c1.4,0,2.5-1.1,2.5-2.5v-82.9c0-1.4-1.1-2.5-2.5-2.5h-83.4
	C-249.1,386.3-250.2,387.4-250.2,388.8z M-221.3,469.2h-23.9v-65.1h23.9v25.1v5V469.2z M-166.8,469.2h-49.5v-35h49.5V469.2z
	 M-166.8,429.2h-49.5v-25.1h49.5V429.2z M-245.2,399.1v-7.8h78.4v7.8H-245.2z"/>
</svg>
