<?xml version="1.0" encoding="utf-8"?>
<!-- Generator: Adobe Illustrator 19.0.0, SVG Export Plug-In . SVG Version: 6.00 Build 0)  -->
<svg version="1.1" id="Layer_1" xmlns="http://www.w3.org/2000/svg" xmlns:xlink="http://www.w3.org/1999/xlink" x="0px" y="0px"
	 width="100px" height="100px" viewBox="-205 207 100 100" style="enable-background:new -205 207 100 100;" xml:space="preserve">
<path d="M-110.7,298.4l-19.1-19.1c6.3-7.2,9.4-16.3,8.4-24.9c-2.9-24.4-47-37.4-73.1-43l-0.2,0c-1.6-0.2-3.4,0.3-4.8,1.3l-0.2,0.2
	l-0.2,0.2c-1.4,1.5-1.8,3.2-1.3,5c6.8,32,19.8,70.5,43,73c1.2,0.1,2.3,0.2,3.5,0.2c1,0,2,0,3-0.1c6.5-0.6,13-3.6,18.3-8.3l19.1,19.1
	c1,1,2.6,1,3.5,0l0,0C-109.7,300.9-109.7,299.3-110.7,298.4z M-152.2,286.1c-1.8,0.2-3.6,0.2-5.4,0c-21.3-2.3-33.4-44.3-38.7-69.2
	l-0.1-0.2c0,0,0,0,0.1-0.1c0.3-0.2,0.7-0.2,0.9-0.2c15.7,3.4,66.4,16,69,38.7c0.8,7.1-1.8,14.7-7,20.8l-8.2-8.2l-0.7-12.2
	c-0.1-1.4-1.3-2.4-2.6-2.3l0,0c-1.4,0.1-2.4,1.3-2.3,2.6l0.4,6.6l-13.9-13.9c-1-1-2.6-1-3.5,0l0,0c-1,1-1,2.6,0,3.5l6,6l-6.4,0
	c-1.4,0-2.5,1.1-2.5,2.5l0,0c0,1.4,1.1,2.5,2.5,2.5l11.5,0.1l16.4,16.4C-141.4,283.1-146.8,285.6-152.2,286.1z"/>
</svg>
