<?xml version="1.0" encoding="utf-8"?>
<!-- Generator: Adobe Illustrator 19.0.0, SVG Export Plug-In . SVG Version: 6.00 Build 0)  -->
<svg version="1.1" id="Layer_2" xmlns="http://www.w3.org/2000/svg" xmlns:xlink="http://www.w3.org/1999/xlink" x="0px" y="0px"
	 width="100px" height="100px" viewBox="-205 207 100 100" style="enable-background:new -205 207 100 100;" xml:space="preserve">
<g>
	<path d="M-106.3,278.7v-46c0-1.8-1.3-3.2-3.2-3.2h-91.1c-1.8,0-3.2,1.3-3.2,3.2v48.5c0,1.8,1.3,3.2,3.2,3.2h91.2
		c1.5,0,3.2-1.4,3.2-3.2v-2.5H-106.3z M-111.3,279.3h-87.5v-44.9h87.5V279.3z"/>
	<path d="M-183.3,258.8c5.3,0,9.6-4.3,9.6-9.6s-4.3-9.6-9.6-9.6c-2.6,0-5.1,1.1-7,3c-1.8,1.8-2.7,4.2-2.7,6.7
		C-193,254.5-188.7,258.8-183.3,258.8z M-186.7,246c0.9-0.9,2.1-1.4,3.4-1.4c2.6,0,4.6,2,4.6,4.6s-2,4.6-4.6,4.6s-4.6-2-4.6-4.7
		C-188,248-187.6,246.9-186.7,246z"/>
	<path d="M-138.9,246.5h17.7c1.4,0,2.5-1.1,2.5-2.5s-1.1-2.5-2.5-2.5h-17.7c-1.4,0-2.5,1.1-2.5,2.5S-140.3,246.5-138.9,246.5z"/>
	<path d="M-138.9,258.9h17.7c1.4,0,2.5-1.1,2.5-2.5v0c0-1.4-1.1-2.5-2.5-2.5h-17.7c-1.4,0-2.5,1.1-2.5,2.5v0
		C-141.4,257.8-140.3,258.9-138.9,258.9z"/>
	<path d="M-121.2,268.4h-67.5c-1.4,0-2.5,1.1-2.5,2.5s1.1,2.5,2.5,2.5h67.5c1.4,0,2.5-1.1,2.5-2.5S-119.9,268.4-121.2,268.4z"/>
</g>
</svg>
