<?xml version="1.0" encoding="utf-8"?>
<!-- Generator: Adobe Illustrator 19.0.0, SVG Export Plug-In . SVG Version: 6.00 Build 0)  -->
<svg version="1.1" id="Layer_1" xmlns="http://www.w3.org/2000/svg" xmlns:xlink="http://www.w3.org/1999/xlink" x="0px" y="0px"
	 width="100px" height="100px" viewBox="-205 207 100 100" style="enable-background:new -205 207 100 100;" xml:space="preserve">
<g>
	<path d="M-176.3,224.2c0.9,1,2.5,1,3.5,0c1-0.9,1-2.5,0-3.5l-13-12.9c-0.4-0.4-1-0.4-1.4,0l-13,12.9c-1,0.9-1,2.5,0,3.5
		c0.9,1,2.5,1,3.5,0l7.6-7.7v81.1l-7.6-7.7c-1-1-2.6-1-3.5,0c-1,1-1,2.6,0,3.5l13,12.9c0.4,0.4,1,0.4,1.4,0l13-12.9c1-1,1-2.6,0-3.5
		c-1-1-2.6-1-3.5,0l-7.6,7.7v-81.1L-176.3,224.2z"/>
	<path d="M-166.2,219.3h54.7c1.4,0,2.5-1.1,2.5-2.5s-1.1-2.5-2.5-2.5h-54.7c-1.4,0-2.5,1.1-2.5,2.5S-167.6,219.3-166.2,219.3z"/>
	<path d="M-111.5,234.4h-54.7c-1.4,0-2.5,1.1-2.5,2.5s1.1,2.5,2.5,2.5h54.7c1.4,0,2.5-1.1,2.5-2.5S-110.1,234.4-111.5,234.4z"/>
	<path d="M-111.5,254.5h-54.7c-1.4,0-2.5,1.1-2.5,2.5s1.1,2.5,2.5,2.5h54.7c1.4,0,2.5-1.1,2.5-2.5S-110.1,254.5-111.5,254.5z"/>
	<path d="M-111.5,274.6h-54.7c-1.4,0-2.5,1.1-2.5,2.5s1.1,2.5,2.5,2.5h54.7c1.4,0,2.5-1.1,2.5-2.5S-110.1,274.6-111.5,274.6z"/>
	<path d="M-111.5,294.7h-54.7c-1.4,0-2.5,1.1-2.5,2.5s1.1,2.5,2.5,2.5h54.7c1.4,0,2.5-1.1,2.5-2.5S-110.1,294.7-111.5,294.7z"/>
</g>
</svg>
