<?xml version="1.0" encoding="utf-8"?>
<!-- Generator: Adobe Illustrator 22.0.0, SVG Export Plug-In . SVG Version: 6.00 Build 0)  -->
<svg version="1.1" id="Layer_1" xmlns="http://www.w3.org/2000/svg" xmlns:xlink="http://www.w3.org/1999/xlink" x="0px" y="0px"
	 viewBox="0 0 100 100" style="enable-background:new 0 0 100 100;" xml:space="preserve">
<path d="M72.6,29.6c-8.2,0-13.4,3.8-15.8,6l-5.2,4.9v-9.2H32.7V98h19.7V65c0-8.5,1.5-18.2,13.4-18.2c11.7,0,11.7,11.3,11.7,18.8V98
	h19.7V61.4C97.3,42.3,93.1,29.6,72.6,29.6z"/>
<rect x="4.4" y="31.3" width="19.8" height="66.7"/>
<path d="M14.3,2.4C7.9,2.4,2.7,7.6,2.7,14c0,6.4,5.2,11.6,11.6,11.6c6.4,0,11.6-5.2,11.6-11.6C25.8,7.6,20.6,2.4,14.3,2.4z"/>
</svg>
