<?xml version="1.0" encoding="utf-8"?>
<!-- Generator: Adobe Illustrator 19.0.0, SVG Export Plug-In . SVG Version: 6.00 Build 0)  -->
<svg version="1.1" id="Layer_1" xmlns="http://www.w3.org/2000/svg" xmlns:xlink="http://www.w3.org/1999/xlink" x="0px" y="0px"
	 width="100px" height="100px" viewBox="-256 379.9 100 100" style="enable-background:new -256 379.9 100 100;"
	 xml:space="preserve">
<style type="text/css">
	.st0{display:none;}
	.st1{display:inline;fill:#FFFFFF;stroke:#231F20;stroke-width:1.125;stroke-miterlimit:10;}
</style>
<g id="Layer_1_1_" class="st0">
	<rect x="-251" y="384.9" class="st1" width="90" height="90"/>
	<circle class="st1" cx="-206" cy="429.9" r="45"/>
</g>
<path d="M-164.1,387.9c-3.4-3.4-7.9-5.3-12.7-5.3s-9.3,1.9-12.8,5.4l-14.1,14.1c-6.2,6.4-6.8,16.5-1.5,23.5l-5.1,5.1
	c-3.2-2.3-6.8-3.5-10.7-3.5c-4.8,0-9.3,1.9-12.7,5.3l-14.1,14.1c-3.4,3.4-5.3,7.9-5.3,12.7c0,4.7,1.9,9.2,5.3,12.6
	c3.4,3.4,7.9,5.3,12.7,5.3c4.8,0,9.3-1.9,12.7-5.3l14.1-14.1c3.3-3.4,5.1-7.8,5.2-12.6c0-4-1.3-7.7-3.7-11l5.2-5.2
	c3.2,2.5,7.1,3.7,10.9,3.7c4.6,0,9.2-1.8,12.7-5.3l14.1-14.1c3.3-3.3,5.2-7.9,5.2-12.8C-158.9,395.8-160.7,391.3-164.1,387.9z
	 M-208.1,445.1c-0.1,3.4-1.5,6.7-3.8,9.1l-14.1,14.1c-2.5,2.5-5.7,3.8-9.2,3.8c-3.4,0-6.7-1.4-9.2-3.8c-2.5-2.5-3.8-5.6-3.8-9.1
	c0-3.4,1.4-6.7,3.8-9.2l14.1-14.1c2.5-2.5,5.7-3.8,9.2-3.8c2.5,0,5,0.7,7.1,2.1l-1.9,1.9c-1,1-1,2.6,0,3.5h0c1,1,2.6,1,3.5,0
	l1.9-1.9C-208.9,440-208.1,442.6-208.1,445.1z M-167.6,409.9l-14.1,14.1c-4.4,4.4-11.3,5-16.4,1.5l2.8-2.8c1-1,1-2.6,0-3.5l0,0
	c-1-1-2.6-1-3.5,0l-2.9,2.9c-3.4-5-2.8-12,1.5-16.4l14.1-14.1c2.5-2.5,5.8-3.9,9.3-3.9s6.7,1.4,9.2,3.8c2.5,2.5,3.8,5.7,3.8,9.2
	C-163.9,404.2-165.2,407.5-167.6,409.9z"/>
</svg>
