<?xml version="1.0" encoding="utf-8"?>
<!-- Generator: Adobe Illustrator 19.0.0, SVG Export Plug-In . SVG Version: 6.00 Build 0)  -->
<svg version="1.1" id="Layer_2" xmlns="http://www.w3.org/2000/svg" xmlns:xlink="http://www.w3.org/1999/xlink" x="0px" y="0px"
	 width="100px" height="100px" viewBox="-205 207 100 100" style="enable-background:new -205 207 100 100;" xml:space="preserve">
<g>
	<path d="M-186.2,229.5L-186.2,229.5c0,1.4,1.1,2.5,2.5,2.5h73.7c1.4,0,2.5-1.1,2.5-2.5l0,0c0-1.4-1.1-2.5-2.5-2.5h-73.7
		C-185.1,227-186.2,228.1-186.2,229.5z"/>
	<path d="M-183.7,259.5h73.7c1.4,0,2.5-1.1,2.5-2.5l0,0c0-1.4-1.1-2.5-2.5-2.5h-73.7c-1.4,0-2.5,1.1-2.5,2.5l0,0
		C-186.2,258.4-185.1,259.5-183.7,259.5z"/>
	<path d="M-183.7,287h73.7c1.4,0,2.5-1.1,2.5-2.5l0,0c0-1.4-1.1-2.5-2.5-2.5h-73.7c-1.4,0-2.5,1.1-2.5,2.5l0,0
		C-186.2,285.9-185.1,287-183.7,287z"/>
	<path d="M-198.8,226.5c-2.1-0.4-4,1.4-3.6,3.6c0.2,1.2,1.2,2.2,2.4,2.4c2.1,0.4,4-1.4,3.6-3.6
		C-196.6,227.7-197.6,226.8-198.8,226.5z"/>
	<path d="M-198.8,254c-2.1-0.4-4,1.4-3.6,3.6c0.2,1.2,1.2,2.2,2.4,2.4c2.1,0.4,4-1.4,3.6-3.6C-196.6,255.2-197.6,254.2-198.8,254z"
		/>
	<path d="M-198.8,281.5c-2.1-0.4-4,1.4-3.6,3.6c0.2,1.2,1.2,2.2,2.4,2.4c2.1,0.4,4-1.4,3.6-3.6
		C-196.6,282.7-197.6,281.7-198.8,281.5z"/>
</g>
</svg>
