<?xml version="1.0" encoding="utf-8"?>
<!-- Generator: Adobe Illustrator 19.0.0, SVG Export Plug-In . SVG Version: 6.00 Build 0)  -->
<svg version="1.1" id="Layer_2" xmlns="http://www.w3.org/2000/svg" xmlns:xlink="http://www.w3.org/1999/xlink" x="0px" y="0px"
	 width="100px" height="100px" viewBox="-256 379.9 100 100" style="enable-background:new -256 379.9 100 100;"
	 xml:space="preserve">
<g>
	<path d="M-168.1,409.3h-18.3v-9.5c0-6.5-3.5-12.5-9.2-15.6c-6.7-3.6-14.1-3.6-20.2,0.1c-5.8,3.5-9.4,9.8-9.4,16.6v8.4h-18.3
		c-1.4,0-2.5,1.1-2.5,2.5v63.9c0,1.4,1.1,2.5,2.5,2.5h75.4c1.4,0,2.5-1.1,2.5-2.5v-63.9C-165.6,410.4-166.7,409.3-168.1,409.3z
		 M-220.2,400.9c0-5.1,2.6-9.7,7-12.3c4.6-2.7,10.1-2.7,15.3,0c4,2.2,6.6,6.5,6.6,11.2v8.4h-28.8V400.9z M-170.6,473.2H-241v-58.9
		h70.4V473.2z"/>
	<path d="M-212.6,467.6h13.3c1.4,0,2.5-1.1,2.5-2.5v-13.3c0-1.4-1.1-2.5-2.5-2.5h-13.3c-1.4,0-2.5,1.1-2.5,2.5v13.3
		C-215.1,466.5-214,467.6-212.6,467.6z M-210.1,454.3h8.3v8.3h-8.3V454.3z"/>
</g>
</svg>
