<?xml version="1.0" encoding="utf-8"?>
<!-- Generator: Adobe Illustrator 19.0.0, SVG Export Plug-In . SVG Version: 6.00 Build 0)  -->
<svg version="1.1" id="Layer_2" xmlns="http://www.w3.org/2000/svg" xmlns:xlink="http://www.w3.org/1999/xlink" x="0px" y="0px"
	 width="100px" height="100px" viewBox="-256 379.9 100 100" style="enable-background:new -256 379.9 100 100;"
	 xml:space="preserve">
<g>
	<path d="M-210,453.8c-1.6,1.6-1.6,4,0,5.6l9.3,9.3c1.6,1.6,4,1.6,5.6,0l28.1-28.1c13.7-13.5,14.3-35.6,1.3-49.3l0,0
		c-6.6-6.9-15.4-10.8-25-11c-9.6-0.1-18.6,3.5-25.4,10.2l-28.6,28.6c-1.6,1.6-1.6,4,0,5.6l9.3,9.3c1.6,1.6,4,1.6,5.6,0l28.2-28.2
		c5.6-5.4,14.3-5.7,19.8-0.7c2.9,2.6,4.5,6.2,4.6,10.1c0.1,3.9-1.4,7.5-4.1,10.2L-210,453.8z M-197.9,463.4l-6.9-6.9l3.3-3.3
		l6.9,6.9L-197.9,463.4z M-232.6,428.7l-6.9-6.9l3.3-3.3l6.9,6.9L-232.6,428.7z M-171.7,414.9c-0.1-5.4-2.5-10.5-6.4-14.1
		c-7.7-6.9-19.8-6.6-27.5,0.9l-19.7,19.7l-6.9-6.9l20.1-20.1c5.7-5.7,13.3-8.7,21.3-8.6c8,0.1,15.5,3.4,21,9.2
		c10.9,11.5,10.4,30-1.2,41.4l-19.6,19.6l-6.9-6.9l20.1-20.1C-173.6,425.5-171.5,420.3-171.7,414.9z"/>
	<path d="M-247.4,425.2c-0.8-1.1-2.4-1.4-3.5-0.6l-3.7,2.6c-1.1,0.8-1.4,2.4-0.6,3.5c0.8,1.1,2.4,1.4,3.5,0.6l3.7-2.6
		C-246.9,427.9-246.6,426.3-247.4,425.2z"/>
	<path d="M-241.8,430.2c-1-1-2.6-1-3.5,0l-3.4,3.4c-1,1-1,2.6,0,3.5c1,1,2.6,1,3.5,0l3.4-3.4C-240.8,432.8-240.8,431.2-241.8,430.2z
		"/>
	<path d="M-236.1,439.4c0.8-1.1,0.5-2.7-0.6-3.5c-1.1-0.8-2.7-0.5-3.5,0.6l-2.6,3.7c-0.8,1.1-0.5,2.7,0.6,3.5
		c1.1,0.8,2.7,0.5,3.5-0.6L-236.1,439.4z"/>
	<path d="M-212.1,460.6c-0.8-1.1-2.4-1.4-3.5-0.6l-3.7,2.6c-1.1,0.8-1.4,2.4-0.6,3.5c0.8,1.1,2.4,1.4,3.5,0.6l3.7-2.6
		C-211.5,463.3-211.3,461.7-212.1,460.6z"/>
	<path d="M-206.5,465.6c-1-1-2.6-1-3.5,0l-3.4,3.4c-1,1-1,2.6,0,3.5c1,1,2.6,1,3.5,0l3.4-3.4C-205.5,468.1-205.5,466.5-206.5,465.6z
		"/>
	<path d="M-203.3,478.5l2.6-3.7c0.8-1.1,0.5-2.7-0.6-3.5c-1.1-0.8-2.7-0.5-3.5,0.6l-2.6,3.7c-0.8,1.1-0.5,2.7,0.6,3.5
		C-205.7,479.9-204.1,479.6-203.3,478.5z"/>
</g>
</svg>
