<?xml version="1.0" encoding="utf-8"?>
<!-- Generator: Adobe Illustrator 19.0.0, SVG Export Plug-In . SVG Version: 6.00 Build 0)  -->
<svg version="1.1" id="Layer_2" xmlns="http://www.w3.org/2000/svg" xmlns:xlink="http://www.w3.org/1999/xlink" x="0px" y="0px"
	 width="100px" height="100px" viewBox="-74 0 100 100" style="enable-background:new -74 0 100 100;" xml:space="preserve">
<g>
	<path d="M0.5,12.5C-2.8,8.4-10.3,1.6-24.1,1.6c-13.8,0-21.3,6.8-24.6,10.9C-64.3,32-35.5,81-26.2,95.5l2.1,3.4l2.1-3.4
		C-7.4,72.2,14.8,30.4,0.5,12.5z M-24.1,89.4c-16.4-26.8-31-60.9-20.7-73.8c3.3-4.1,9.6-9,20.7-9s17.4,4.9,20.7,9
		C5.2,26.4-2.5,53.9-24.1,89.4z"/>
	<path d="M-24.1,18.7c-6.5,0-11.6,5.1-11.6,11.6c0,6.4,5.2,11.6,11.6,11.6c6.5,0,11.6-5.1,11.6-11.6S-17.6,18.7-24.1,18.7z
		 M-24.1,36.9c-3.6,0-6.6-3-6.6-6.6c0-3.7,2.9-6.6,6.6-6.6c3.8,0,6.6,2.8,6.6,6.6C-17.5,34-20.4,36.9-24.1,36.9z"/>
</g>
</svg>
