<?xml version="1.0" encoding="utf-8"?>
<!-- Generator: Adobe Illustrator 22.0.0, SVG Export Plug-In . SVG Version: 6.00 Build 0)  -->
<svg version="1.1" id="Layer_2_1_" xmlns="http://www.w3.org/2000/svg" xmlns:xlink="http://www.w3.org/1999/xlink" x="0px" y="0px"
	 viewBox="0 0 100 100" style="enable-background:new 0 0 100 100;" xml:space="preserve">
<style type="text/css">
	.st0{fill:none;}
</style>
<polygon class="st0" points="92.3,16.9 67.9,15.3 67.9,84.7 92.3,86.3 "/>
<polygon class="st0" points="38.5,16.8 38.5,86.3 62.9,84.7 62.9,15.2 "/>
<g>
	<path d="M67.9,10.3l-3.4-0.2l-1.6,0.1l-29.4,2.1H6.9c-1.6,0-2.8,1.3-2.8,2.8v23v31.1v19.5c0,1.6,1.3,2.8,2.8,2.8h26.5h2.6l2.4-0.2
		l26.9-1.8l28.9,1.9c1.6,0.1,3-1.2,3-2.8V14.9c0-1.5-1.2-2.7-2.6-2.8L67.9,10.3z M33.5,86.5H9.1V69.2V38V17.2h24.4V86.5z M62.9,84.7
		l-24.4,1.6V50l6.2,12.8L53,45.7c1.2-2.5,2.6-5.4,2.8-8.5c0.1-1.7-0.2-3.3-0.9-4.8c-1.8-4.1-5.8-6.8-10.3-6.8
		c-2.3,0-4.4,0.7-6.2,1.9V16.8l24.4-1.6V84.7z M38.5,37.1c0-3.6,2.8-6.5,6.2-6.5c2.4,0,4.7,1.5,5.7,3.8c0.3,0.8,0.5,1.6,0.5,2.5v0
		c-0.1,2.1-1.2,4.4-2.3,6.6l-3.8,7.9l-5.6-11.5C38.7,39,38.5,38,38.5,37.1z M92.3,86.3l-24.4-1.6V15.3l24.4,1.6V86.3z"/>
	<path d="M47.7,37c0-1.7-1.3-3-3-3c-1.7,0-3,1.3-3,3s1.3,3,3,3C46.3,40.1,47.7,38.7,47.7,37z"/>
</g>
</svg>
