<?xml version="1.0" encoding="utf-8"?>
<!-- Generator: Adobe Illustrator 19.0.0, SVG Export Plug-In . SVG Version: 6.00 Build 0)  -->
<svg version="1.1" id="Layer_1" xmlns="http://www.w3.org/2000/svg" xmlns:xlink="http://www.w3.org/1999/xlink" x="0px" y="0px"
	 width="100px" height="100px" viewBox="-74 0 100 100" style="enable-background:new -74 0 100 100;" xml:space="preserve">
<g>
	<path d="M-72.8,23.2v53.7c0,1.4,1.1,2.5,2.5,2.5h92.8c1.4,0,2.5-1.1,2.5-2.5V23.2c0-1.4-1.1-2.5-2.5-2.5h-92.8
		C-71.7,20.7-72.8,21.8-72.8,23.2z M19.4,73.7h-86.6V26.3h86.6V73.7z"/>
	<path d="M-34.8,68.9c3.6,0,7-1,9.9-2.8c3.2,2.2,7,3.5,11.1,3.5c10.8,0,19.6-8.8,19.6-19.6s-8.8-19.6-19.6-19.6
		c-4.1,0-8,1.3-11.1,3.5c-2.9-1.8-6.3-2.8-9.9-2.8c-10.4,0-18.9,8.5-18.9,18.9S-45.2,68.9-34.8,68.9z M-20.8,37.3
		c2.1-1.2,4.5-1.9,7.1-1.9c8,0,14.6,6.5,14.6,14.6s-6.5,14.6-14.6,14.6c-2.6,0-5-0.7-7.1-1.9c3.1-3.4,4.9-7.8,4.9-12.7
		S-17.8,40.6-20.8,37.3z"/>
</g>
</svg>
