<?xml version="1.0" encoding="utf-8"?>
<!-- Generator: Adobe Illustrator 19.0.0, SVG Export Plug-In . SVG Version: 6.00 Build 0)  -->
<svg version="1.1" id="Layer_2" xmlns="http://www.w3.org/2000/svg" xmlns:xlink="http://www.w3.org/1999/xlink" x="0px" y="0px"
	 width="100px" height="100px" viewBox="-256 379.9 100 100" style="enable-background:new -256 379.9 100 100;"
	 xml:space="preserve">
<g>
	<path d="M-185.1,404.8l-0.1-0.1c-0.2-0.2-0.4-0.5-0.6-0.7c-0.5-0.5-0.9-1-1.4-1.6v-19.1c0-1.4-1.1-2.5-2.5-2.5h-32.6
		c-1.4,0-2.5,1.1-2.5,2.5v19c-0.7,0.7-1.4,1.4-2.1,2.4c-3.6,4.6-5.6,10.4-5.6,16.2c0,5.9,1.9,11.5,5.6,16.2l0.1,0.1
		c0.2,0.2,0.4,0.4,0.6,0.7c0.5,0.5,0.9,1.1,1.4,1.6v37c0,1.7,2.1,2.6,3.3,1.5l15.4-13.9l15.5,13.9c1.3,1.2,3.3,0.2,3.3-1.5v-37
		c0.5-0.5,1-1,1.4-1.6c0.2-0.2,0.4-0.5,0.6-0.7l0.1-0.1c3.6-4.6,5.6-10.4,5.6-16.2C-179.5,415.2-181.4,409.6-185.1,404.8z
		 M-219.8,385.9h27.6v12.4c-0.8-0.5-1.7-0.9-2.6-1.2c-3.5-1.6-7.3-2.5-11.2-2.5c-3.5,0-7,0.7-10.2,2.1c-1.2,0.5-2.4,1-3.6,1.6V385.9
		z M-192.2,469.9l-11.5-10.3l-0.2-0.1c-0.7-0.5-1.4-0.7-2.2-0.7c-0.9,0-1.7,0.3-2.4,0.9l-11.3,10.3v-25.3c4.3,2.3,8.9,3.5,13.8,3.5
		c4.8,0,9.6-1.2,13.8-3.5V469.9z M-189,434.1c-0.2,0.2-0.4,0.4-0.6,0.7c-0.6,0.7-1.2,1.4-1.8,2c-4,3.7-9.2,5.8-14.6,5.8
		c-5.4,0-10.7-2.1-14.6-5.8c-0.6-0.5-1.2-1.2-1.8-1.9c-0.2-0.2-0.4-0.4-0.6-0.7c-2.9-3.9-4.5-8.4-4.5-13.1c0-4.8,1.6-9.4,4.5-13.1
		c0.9-1.1,1.6-1.9,2.4-2.6c1.9-1.8,4.1-3.1,6.4-4.1c2.6-0.9,5.4-1.4,8.2-1.4c2.9,0,5.8,0.6,8.5,1.6c2.2,1,4.3,2.3,6.1,4
		c0.6,0.5,1.2,1.2,1.8,1.9c0.2,0.2,0.4,0.4,0.6,0.7c2.9,3.9,4.5,8.4,4.5,13.1C-184.5,425.8-186.1,430.4-189,434.1z"/>
	<path d="M-194.7,414.5l-6.6-0.9l-2.9-6c-0.7-1.5-2.9-1.5-3.6,0l-2.9,6l-6.6,0.9c-1.6,0.2-2.3,2.2-1.1,3.4l4.8,4.7l-1.1,6.6
		c-0.3,1.6,1.4,2.9,2.9,2.1l5.9-3l5.9,3c1.5,0.8,3.2-0.5,2.9-2.1l-1.1-6.6l4.8-4.7C-192.4,416.7-193.1,414.7-194.7,414.5z
		 M-203.2,424l-2.8-1.5l-2.8,1.5l0.5-3.2l-2.3-2.2l3.1-0.4l1.4-2.9l1.4,2.9l3.1,0.4l-2.3,2.2L-203.2,424z"/>
</g>
</svg>
