<?xml version="1.0" encoding="utf-8"?>
<!-- Generator: Adobe Illustrator 21.0.0, SVG Export Plug-In . SVG Version: 6.00 Build 0)  -->
<svg version="1.1" id="Layer_1" xmlns="http://www.w3.org/2000/svg" xmlns:xlink="http://www.w3.org/1999/xlink" x="0px" y="0px"
	 viewBox="0 0 100 100" style="enable-background:new 0 0 100 100;" xml:space="preserve">
<g>
	<path d="M71.8,18V3.8c0-1.4-1.1-2.5-2.5-2.5H30.7c-1.4,0-2.5,1.1-2.5,2.5V18c-6.2,5.8-10,14-10,23.1c0,9.1,3.8,17.3,10,23.1v31.9
		c0,2.1,2.4,3.2,4,2L50,84.3l17.8,13.8c1.6,1.3,4,0.1,4-2V64.3c6.2-5.8,10-14,10-23.1C81.8,32,78,23.8,71.8,18z M33.2,6.3h33.7v7.8
		C61.9,11.1,56.2,9.3,50,9.3c-6.2,0-11.9,1.8-16.8,4.8V6.3z M66.8,91L51.2,78.9c-0.7-0.6-1.7-0.6-2.5,0L33.2,91V68.1
		C38.1,71.2,43.8,73,50,73c6.2,0,11.9-1.8,16.8-4.8V91z M71.8,56.7c-1.4,2-3.1,3.8-5,5.3c-4.6,3.7-10.5,6-16.8,6
		c-6.4,0-12.2-2.2-16.8-6c-1.9-1.5-3.6-3.3-5-5.3c-3.1-4.4-5-9.8-5-15.6s1.9-11.2,5-15.6c1.4-2,3.1-3.8,5-5.3c4.6-3.7,10.5-6,16.8-6
		c6.4,0,12.2,2.2,16.8,6c1.9,1.5,3.6,3.3,5,5.3c3.1,4.4,5,9.8,5,15.6S75,52.3,71.8,56.7z"/>
	<path d="M50,22c-7.3,0-13.6,4.1-16.8,10c-1.5,2.7-2.3,5.8-2.3,9.2c0,3.3,0.8,6.4,2.3,9.2c3.3,6,9.6,10,16.8,10
		c7.3,0,13.6-4.1,16.8-10c1.5-2.7,2.3-5.8,2.3-9.2c0-3.3-0.8-6.4-2.3-9.2C63.6,26,57.3,22,50,22z M50,55.3
		c-7.8,0-14.2-6.4-14.2-14.2S42.2,27,50,27s14.2,6.4,14.2,14.2S57.8,55.3,50,55.3z"/>
</g>
</svg>
