<?xml version="1.0" encoding="utf-8"?>
<!-- Generator: Adobe Illustrator 19.0.0, SVG Export Plug-In . SVG Version: 6.00 Build 0)  -->
<svg version="1.1" id="Layer_1" xmlns="http://www.w3.org/2000/svg" xmlns:xlink="http://www.w3.org/1999/xlink" x="0px" y="0px"
	 width="100px" height="100px" viewBox="-74 0 100 100" style="enable-background:new -74 0 100 100;" xml:space="preserve">
<path d="M-74,89.8l9.5-12.9c0,0,2.7-2.1,2.7-11.1s0-40.2,0-40.2s0.5-3.6-2.9-7.9c-3.4-4.2-6.8-8.3-6.8-8.3h27.5l22.8,49.4L-1.2,9.4
	H26L17.4,19v61.6l8.6,8.9h-38l8.3-8.1l0.4-54.6L-29,90.6l-28.2-61.9l-0.5,39.5c0,0-0.3,4.4,2.4,8.1c2.7,3.6,10.2,13.4,10.2,13.4
	L-74,89.8z"/>
</svg>
