<?xml version="1.0" encoding="utf-8"?>
<!-- Generator: Adobe Illustrator 19.0.0, SVG Export Plug-In . SVG Version: 6.00 Build 0)  -->
<svg version="1.1" id="Layer_1" xmlns="http://www.w3.org/2000/svg" xmlns:xlink="http://www.w3.org/1999/xlink" x="0px" y="0px"
	 width="100px" height="100px" viewBox="-74 0 100 100" style="enable-background:new -74 0 100 100;" xml:space="preserve">
<g>
	<path d="M-24,1.5c-27,0-48.9,21.9-48.9,48.9c0,27,21.9,49,48.9,49c27,0,49-22,49-49C25,23.4,3,1.5-24,1.5z M-24,94.4
		c-24.2,0-43.9-19.7-43.9-44c0-24.2,19.7-43.9,43.9-43.9c24.3,0,44,19.7,44,43.9C20,74.7,0.3,94.4-24,94.4z"/>
	<path d="M-51.9,32.5H3.9c1.4,0,2.5-1.1,2.5-2.5v0c0-1.4-1.1-2.5-2.5-2.5h-55.7c-1.4,0-2.5,1.1-2.5,2.5v0
		C-54.4,31.4-53.2,32.5-51.9,32.5z"/>
	<path d="M-51.9,51.6H3.9c1.4,0,2.5-1.1,2.5-2.5v0c0-1.4-1.1-2.5-2.5-2.5h-55.7c-1.4,0-2.5,1.1-2.5,2.5v0
		C-54.4,50.5-53.2,51.6-51.9,51.6z"/>
	<path d="M-51.9,70.7H3.9c1.4,0,2.5-1.1,2.5-2.5l0,0c0-1.4-1.1-2.5-2.5-2.5h-55.7c-1.4,0-2.5,1.1-2.5,2.5l0,0
		C-54.4,69.6-53.2,70.7-51.9,70.7z"/>
</g>
</svg>
