<?xml version="1.0" encoding="utf-8"?>
<!-- Generator: Adobe Illustrator 19.0.0, SVG Export Plug-In . SVG Version: 6.00 Build 0)  -->
<svg version="1.1" id="Layer_1" xmlns="http://www.w3.org/2000/svg" xmlns:xlink="http://www.w3.org/1999/xlink" x="0px" y="0px"
	 width="100px" height="100px" viewBox="-256 379.9 100 100" style="enable-background:new -256 379.9 100 100;"
	 xml:space="preserve">
<path d="M-166.7,390.6c-9.7-9.7-25.4-9.7-35,0c-6.4,6.4-8.5,15.5-6.4,23.7l-40.7,40.7c0,0,0,0,0,0c0,0,0,0,0,0l-0.1,0.1l0,0
	c-2.3,2.4-3.6,5.5-3.6,8.8c0,3.3,1.3,6.5,3.7,8.8c2.4,2.4,5.5,3.7,8.8,3.7c3.3,0,6.4-1.3,8.8-3.6l0,0l0.1-0.1c0,0,0,0,0,0
	c0,0,0,0,0,0l40.7-40.7c2,0.5,4.1,0.8,6.2,0.8c6.3,0,12.7-2.4,17.5-7.2C-157.1,416-157.1,400.3-166.7,390.6z M-245.3,469.2
	c-2.9-2.9-2.9-7.6-0.1-10.5l10.6,10.6c-1.4,1.3-3.2,2.1-5.2,2.1C-242,471.4-243.9,470.7-245.3,469.2z M-231.3,465.8l-10.6-10.6
	l35.7-35.7c1.1,2.2,2.6,4.3,4.5,6.1c1.8,1.8,3.9,3.3,6.1,4.5L-231.3,465.8z M-198.2,422.1c-4.7-4.7-6.5-11.1-5.5-17.2l22.7,22.7
	C-187.1,428.6-193.5,426.7-198.2,422.1z M-170.2,422.1c-1.6,1.6-3.4,2.9-5.4,3.8l-26.4-26.4c0.9-1.9,2.2-3.8,3.8-5.4
	c3.9-3.9,8.9-5.8,14-5.8c5.1,0,10.1,1.9,14,5.8C-162.5,401.8-162.5,414.4-170.2,422.1z"/>
</svg>
