<?xml version="1.0" encoding="utf-8"?>
<!-- Generator: Adobe Illustrator 22.0.0, SVG Export Plug-In . SVG Version: 6.00 Build 0)  -->
<svg version="1.1" id="Layer_1" xmlns="http://www.w3.org/2000/svg" xmlns:xlink="http://www.w3.org/1999/xlink" x="0px" y="0px"
	 viewBox="0 0 100 100" style="enable-background:new 0 0 100 100;" xml:space="preserve">
<g>
	<path d="M76.7,0.2H23.2c-0.6,0-1,0.4-1,1v98.1c0,0.6,0.4,1,1,1h53.5c0.6,0,1-0.4,1-1V1.2C77.7,0.6,77.3,0.2,76.7,0.2z M72.7,95.3
		H27.2V5.2h45.5C72.7,5.2,72.7,95.3,72.7,95.3z"/>
	<path d="M45.7,92.1H54c1.7,0,2.7-1.3,2.7-2.7c0-1.5-1.3-2.7-2.7-2.7h-8.3c-1.5,0-2.7,1.3-2.7,2.7C42.9,90.8,44.2,92.1,45.7,92.1z"
		/>
	<g>
		<path d="M51.8,11.2h-9.5c-0.8,0-1.5-0.7-1.5-1.5v0c0-0.8,0.7-1.5,1.5-1.5h9.5c0.8,0,1.5,0.7,1.5,1.5v0
			C53.3,10.5,52.7,11.2,51.8,11.2z"/>
	</g>
	<g>
		<circle cx="57.7" cy="9.7" r="1.5"/>
	</g>
</g>
</svg>
