<?xml version="1.0" encoding="utf-8"?>
<!-- Generator: Adobe Illustrator 19.0.0, SVG Export Plug-In . SVG Version: 6.00 Build 0)  -->
<svg version="1.1" id="Layer_1" xmlns="http://www.w3.org/2000/svg" xmlns:xlink="http://www.w3.org/1999/xlink" x="0px" y="0px"
	 width="100px" height="100px" viewBox="-249 151 100 100" style="enable-background:new -249 151 100 100;" xml:space="preserve">
<path d="M-150.2,198.6l-8.2-8.2c-1-1-2.6-1-3.5,0l0,0c-1,1-1,2.6,0,3.5l4.7,4.7h-39.2v-39.3l4.7,4.7c1,1,2.6,1,3.5,0l0,0
	c1-1,1-2.6,0-3.5l-8.2-8.3c-1.4-1.4-3.6-1.4-5,0l-8.2,8.2c-1,1-1,2.6,0,3.5l0,0c1,1,2.6,1,3.5,0l4.7-4.7v39.4h-39.4l4.9-4.8
	c1-1,1-2.6,0-3.5l0,0c-1-1-2.6-1-3.5,0l-8.3,8.2c-1.4,1.4-1.4,3.6,0,5l8.2,8.2c1,1,2.6,1,3.5,0l0,0c1-1,1-2.6,0-3.5l-4.5-4.5h39.2
	v39.1l-4.8-4.8c-1-1-2.6-1-3.5,0l0,0c-1,1-1,2.6,0,3.5l8.2,8.3c0.7,0.7,1.6,1.1,2.5,1.1c0.9,0,1.8-0.4,2.5-1.1l8.2-8.2
	c1-1,1-2.6,0-3.5l0,0c-1-1-2.6-1-3.5,0l-4.6,4.6v-38.9h39l-4.7,4.6c-1,1-1,2.6,0,3.5l0,0c1,1,2.6,1,3.5,0l8.3-8.2
	c0.7-0.7,1-1.6,1-2.5C-149.2,200.2-149.6,199.3-150.2,198.6z"/>
</svg>
