<?xml version="1.0" encoding="utf-8"?>
<!-- Generator: Adobe Illustrator 19.0.0, SVG Export Plug-In . SVG Version: 6.00 Build 0)  -->
<svg version="1.1" id="Layer_2" xmlns="http://www.w3.org/2000/svg" xmlns:xlink="http://www.w3.org/1999/xlink" x="0px" y="0px"
	 width="100px" height="100px" viewBox="-74 0 100 100" style="enable-background:new -74 0 100 100;" xml:space="preserve">
<path d="M-46.2,14.7c-1.3,0.1-2.3,1.2-2.3,2.5v58.2c-3.2-1.3-6.6-1.3-9.1-1.1c-3,0.3-7.3,1.2-10.4,3.6c-2.2,1.8-3.4,3.6-3.4,5.6
	l0,0.7c0.6,3.7,5.5,6.2,11.8,6.2c1,0,2.1-0.1,3.1-0.3c5.3-0.7,9.8-3,11.8-5.8c0.7-0.9,1.1-2,1.1-3h0V30.6l61.9-4.7v42.9
	c-3.2-1.3-6.6-1.3-9.1-1.1C6.3,68.1,2,69-1.1,71.4c-2.2,1.8-3.4,3.6-3.4,5.6l0,0.7c0.6,3.7,5.5,6.2,11.8,6.2c1,0,2.1-0.1,3.1-0.3
	c5.3-0.7,9.8-3,11.8-5.8c0.8-1,1.1-2,1.1-3.2h0V12.1c0-1.5-1.2-2.6-2.7-2.5L-46.2,14.7z M-48.6,81.2l-0.1,0.2
	c-0.8,1.2-3.7,3.1-8.4,3.8c-0.9,0.1-1.8,0.2-2.5,0.2c-4.1,0-6.4-1.3-6.8-1.9c0.1-0.2,0.4-0.8,1.4-1.6c2.2-1.7,5.5-2.4,7.8-2.6
	c3.1-0.3,5.8,0.1,7.7,1.2C-48.9,80.8-48.6,81-48.6,81.2C-48.5,81.2-48.6,81.2-48.6,81.2z M18.3,74.7l-0.1,0.2
	c-0.8,1.2-3.7,3.1-8.4,3.8c-0.9,0.1-1.8,0.2-2.5,0.2c-4.1,0-6.4-1.3-6.8-1.9c0.1-0.2,0.4-0.8,1.4-1.6c1.7-1.4,4.5-2.3,7.8-2.6
	c3.1-0.3,5.8,0.1,7.7,1.2C18,74.3,18.3,74.5,18.3,74.7C18.4,74.7,18.4,74.7,18.3,74.7z M-43.5,19.5l61.9-4.7v6.1l-61.9,4.7V19.5z"/>
</svg>
