<?xml version="1.0" encoding="utf-8"?>
<!-- Generator: Adobe Illustrator 19.0.0, SVG Export Plug-In . SVG Version: 6.00 Build 0)  -->
<svg version="1.1" id="Layer_2" xmlns="http://www.w3.org/2000/svg" xmlns:xlink="http://www.w3.org/1999/xlink" x="0px" y="0px"
	 width="100px" height="100px" viewBox="-256 379.9 100 100" style="enable-background:new -256 379.9 100 100;"
	 xml:space="preserve">
<path d="M-233.8,382.9v19.5h-6.7c-1.4,0-2.5,1.1-2.5,2.5v0c0,1.4,1.1,2.5,2.5,2.5h6.7v20h-6.7c-1.4,0-2.5,1.1-2.5,2.5l0,0
	c0,1.4,1.1,2.5,2.5,2.5h6.7v20h-6.7c-1.4,0-2.5,1.1-2.5,2.5v0c0,1.4,1.1,2.5,2.5,2.5h6.7v19.5c0,1.4,1.1,2.5,2.5,2.5h59.7
	c1.4,0,2.5-1.1,2.5-2.5v-94c0-1.4-1.1-2.5-2.5-2.5h-59.7C-232.6,380.4-233.8,381.5-233.8,382.9z M-174.1,474.4h-54.7v-17h3
	c1.4,0,2.5-1.1,2.5-2.5v0c0-1.4-1.1-2.5-2.5-2.5h-3v-20h3c1.4,0,2.5-1.1,2.5-2.5l0,0c0-1.4-1.1-2.5-2.5-2.5h-3v-20h3
	c1.4,0,2.5-1.1,2.5-2.5v0c0-1.4-1.1-2.5-2.5-2.5h-3v-17h54.7V474.4z"/>
</svg>
