<?xml version="1.0" encoding="utf-8"?>
<!-- Generator: Adobe Illustrator 19.0.0, SVG Export Plug-In . SVG Version: 6.00 Build 0)  -->
<svg version="1.1" id="Layer_2" xmlns="http://www.w3.org/2000/svg" xmlns:xlink="http://www.w3.org/1999/xlink" x="0px" y="0px"
	 width="100px" height="100px" viewBox="-256 379.9 100 100" style="enable-background:new -256 379.9 100 100;"
	 xml:space="preserve">
<path d="M-157.1,409l-14-23.4l-0.1-0.1c-0.7-1-1.9-1.6-3-1.6h-63.6c-1.2,0-2.3,0.6-3,1.6L-255,409l-0.1,0.2
	c-0.3,0.7-0.4,1.2-0.4,1.7v61.6c0,2,1.5,3.6,3.6,3.6h91.7c2,0,3.6-1.5,3.6-3.6v-61.5C-156.6,410.6-156.6,409.8-157.1,409z
	 M-163.3,408.3h-40.1v-19.5h28.4L-163.3,408.3z M-237,388.8h28.6v19.5h-40.3L-237,388.8z M-250.4,471v-57.7h88.8V471H-250.4z"/>
</svg>
