<?xml version="1.0" encoding="utf-8"?>
<!-- Generator: Adobe Illustrator 21.0.0, SVG Export Plug-In . SVG Version: 6.00 Build 0)  -->
<svg version="1.1" id="Layer_1" xmlns="http://www.w3.org/2000/svg" xmlns:xlink="http://www.w3.org/1999/xlink" x="0px" y="0px"
	 viewBox="0 0 100 100" style="enable-background:new 0 0 100 100;" xml:space="preserve">
<style type="text/css">
	.st0{display:none;}
	.st1{display:inline;fill:#FFFFFF;stroke:#231F20;stroke-miterlimit:10;}
</style>
<g id="Layer_1_1_" class="st0">
	<rect id="XMLID_1_" x="20" y="20" class="st1" width="60" height="60"/>
</g>
<g>
	<path d="M80.5,0.5h-60C19.1,0.5,18,1.6,18,3v36c0,1.4,1.1,2.5,2.5,2.5h60c1.4,0,2.5-1.1,2.5-2.5V3C83,1.6,81.9,0.5,80.5,0.5z
		 M78,36.5H23v-31h55V36.5z"/>
	<path d="M80.5,58.5h-60c-1.4,0-2.5,1.1-2.5,2.5v36c0,1.4,1.1,2.5,2.5,2.5h60c1.4,0,2.5-1.1,2.5-2.5V61C83,59.6,81.9,58.5,80.5,58.5
		z M78,94.5H23v-31h55V94.5z"/>
	<path d="M74.2,52.5c0.6,0,1-0.4,1-1v-3c0-0.6-0.4-1-1-1h-1.7c-0.6,0-1,0.4-1,1v3c0,0.6,0.4,1,1,1H74.2z"/>
	<path d="M66.6,52.5c0.6,0,1-0.4,1-1v-3c0-0.6-0.4-1-1-1h-1.7c-0.6,0-1,0.4-1,1v3c0,0.6,0.4,1,1,1H66.6z"/>
	<path d="M59,52.5c0.6,0,1-0.4,1-1v-3c0-0.6-0.4-1-1-1h-1.7c-0.6,0-1,0.4-1,1v3c0,0.6,0.4,1,1,1H59z"/>
	<path d="M51.4,52.5c0.6,0,1-0.4,1-1v-3c0-0.6-0.4-1-1-1h-1.7c-0.6,0-1,0.4-1,1v3c0,0.6,0.4,1,1,1H51.4z"/>
	<path d="M43.8,52.5c0.6,0,1-0.4,1-1v-3c0-0.6-0.4-1-1-1H42c-0.6,0-1,0.4-1,1v3c0,0.6,0.4,1,1,1H43.8z"/>
	<path d="M36.2,52.5c0.6,0,1-0.4,1-1v-3c0-0.6-0.4-1-1-1h-1.7c-0.6,0-1,0.4-1,1v3c0,0.6,0.4,1,1,1H36.2z"/>
	<path d="M28.6,52.5c0.6,0,1-0.4,1-1v-3c0-0.6-0.4-1-1-1h-1.7c-0.6,0-1,0.4-1,1v3c0,0.6,0.4,1,1,1H28.6z"/>
	<path d="M81.8,52.5c0.6,0,1-0.4,1-1v-3c0-0.6-0.4-1-1-1H80c-0.6,0-1,0.4-1,1v3c0,0.6,0.4,1,1,1H81.8z"/>
	<path d="M21,52.5c0.6,0,1-0.4,1-1v-3c0-0.6-0.4-1-1-1h-1.7c-0.6,0-1,0.4-1,1v3c0,0.6,0.4,1,1,1H21z"/>
</g>
</svg>
