<?xml version="1.0" encoding="utf-8"?>
<!-- Generator: Adobe Illustrator 19.0.0, SVG Export Plug-In . SVG Version: 6.00 Build 0)  -->
<svg version="1.1" id="Layer_2" xmlns="http://www.w3.org/2000/svg" xmlns:xlink="http://www.w3.org/1999/xlink" x="0px" y="0px"
	 width="100px" height="100px" viewBox="-256 379.9 100 100" style="enable-background:new -256 379.9 100 100;"
	 xml:space="preserve">
<path d="M-161.8,389.8h-1.7v-5.9c0-1.4-1.1-2.5-2.5-2.5h-72.1c-1.4,0-2.5,1.1-2.5,2.5v5.2h-9.5c-1.4,0-2.5,1.1-2.5,2.5v27.3
	c0,1.4,1.1,2.5,2.5,2.5h45.8v12.1h-3.2c-1.4,0-2.5,1.1-2.5,2.5v40.4c0,1.4,1.1,2.5,2.5,2.5h11.3c1.4,0,2.5-1.1,2.5-2.5l0.1-40.4
	c0-1.4-1.1-2.5-2.5-2.5h-3.2v-14.6c0-1.4-1.1-2.5-2.5-2.5h-45.8v-22.3h7v6.5c0,1.4,1.1,2.5,2.5,2.5h72.1c1.4,0,2.5-1.1,2.5-2.5v-5.9
	h1.7c1.4,0,2.5-1.1,2.5-2.5l0,0C-159.3,390.9-160.5,389.8-161.8,389.8z M-198.7,473.9h-6.3v-35.4h6.4L-198.7,473.9z M-168.5,398.2
	h-67.1v-11.8h67.1V398.2z"/>
</svg>
