<?xml version="1.0" encoding="utf-8"?>
<!-- Generator: Adobe Illustrator 19.0.0, SVG Export Plug-In . SVG Version: 6.00 Build 0)  -->
<svg version="1.1" id="Layer_2" xmlns="http://www.w3.org/2000/svg" xmlns:xlink="http://www.w3.org/1999/xlink" x="0px" y="0px"
	 width="100px" height="100px" viewBox="-247 370.9 100 100" style="enable-background:new -247 370.9 100 100;"
	 xml:space="preserve">
<path d="M-153.9,426.7l-36.4-36.4v-3.7c0-8.1-5.6-14.6-12.4-14.6c-6.8,0-12.4,6.6-12.4,14.6v16.6l-25.1,25.1c-1.4,1.4-1.4,3.6,0,5
	l35.5,35.5c0.7,0.7,1.6,1,2.5,1c0.9,0,1.8-0.3,2.5-1l33.5-33.5l10.7-2.5c1.3-0.3,2.3-1.4,2.6-2.7
	C-152.6,428.8-153,427.5-153.9,426.7z M-210.1,386.6c0-5.2,3.4-9.6,7.4-9.6c3.8,0,7.1,4,7.4,8.9c-1.2-0.3-2.5-0.1-3.4,0.9
	l-11.4,11.4V386.6z M-168.1,430.5l-0.3,0.1c-0.3,0.2-0.8,0.4-1.2,0.8l-32.7,32.7l-33.4-33.4l39.3-39.3l1,1v10.2
	c0,1.4,1.1,2.5,2.5,2.5l0,0c1.4,0,2.5-1.1,2.5-2.5v-5.2l6,6l-11.8,11.8c-1,1-1,2.6,0,3.5h0c1,1,2.6,1,3.5,0l11.8-11.8l3.5,3.5
	l-7.5,7.5c-1,1-1,2.6,0,3.5l0,0c1,1,2.6,1,3.5,0l7.5-7.5l2.8,2.8l-14.6,14.6c-1,1-1,2.6,0,3.5l0,0c1,1,2.6,1,3.5,0l14.6-14.6l8,8
	L-168.1,430.5z"/>
</svg>
