<?xml version="1.0" encoding="utf-8"?>
<!-- Generator: Adobe Illustrator 19.0.0, SVG Export Plug-In . SVG Version: 6.00 Build 0)  -->
<svg version="1.1" id="Layer_2" xmlns="http://www.w3.org/2000/svg" xmlns:xlink="http://www.w3.org/1999/xlink" x="0px" y="0px"
	 width="100px" height="100px" viewBox="-74 0 100 100" style="enable-background:new -74 0 100 100;" xml:space="preserve">
<g>
	<path d="M-40.6,98.9c-7.5,0-14.5-2.9-19.8-8.3c-5.3-5.3-8.1-12.3-8.1-19.8s2.9-14.6,8.1-19.8l43.5-43.5c5-5,12.1-7.3,19.1-6.1
		c7,1.1,12.8,5.5,16.1,12c0.6,1,1,2,1.3,3c2.5,8,0.5,16.4-5.4,22.3l-42.2,42.2c-3.2,3.2-7.2,5.2-11.4,5.6c-0.7,0.1-1.2,0.1-1.7,0.1
		c-4,0-7.4-1.4-10-4c-2.9-2.9-4.4-7.2-3.9-11.6c0.4-4.2,2.4-8.4,5.6-11.6l28.4-28.4c1-1,2.6-1,3.5,0l0,0c1,1,1,2.6,0,3.5L-46,63
		c-2.4,2.4-3.9,5.4-4.2,8.5c-0.3,2.9,0.6,5.7,2.5,7.6c1.6,1.6,3.9,2.5,6.5,2.5c0.4,0,0.5,0,0.7,0l0.4-0.1c3.1-0.3,6.1-1.8,8.5-4.2
		l42.2-42.2c4.6-4.6,6.1-11,4.2-17.3c-0.2-0.7-0.5-1.4-0.9-2l-0.1-0.1c-2.5-5.1-7-8.5-12.4-9.3C-4,5.4-9.5,7.2-13.4,11l-43.5,43.5
		c-4.3,4.3-6.7,10.1-6.7,16.3s2.4,12,6.7,16.3c4.4,4.4,10.2,6.8,16.3,6.8c6.2,0,12-2.4,16.3-6.8L5.8,57c1-1,2.6-1,3.5,0h0
		c1,1,1,2.6,0,3.5l-30.1,30.1C-26,96-33,98.9-40.6,98.9z"/>
</g>
</svg>
