<?xml version="1.0" encoding="utf-8"?>
<!-- Generator: Adobe Illustrator 19.0.0, SVG Export Plug-In . SVG Version: 6.00 Build 0)  -->
<svg version="1.1" id="Layer_1" xmlns="http://www.w3.org/2000/svg" xmlns:xlink="http://www.w3.org/1999/xlink" x="0px" y="0px"
	 width="100px" height="100px" viewBox="-74 0 100 100" style="enable-background:new -74 0 100 100;" xml:space="preserve">
<path d="M21.7,30.8c-0.7-1.7-1.6-3.2-2.7-4.6l-0.5-0.5c-2.2-2.5-5.2-4.4-8.8-5.9c-0.2-0.5-0.3-1-0.5-1.6c-0.7-1.7-1.6-3.2-2.7-4.6
	l-0.5-0.5c-5-5.7-14.2-8.7-26.5-8.7c-2.5,0-9.9-0.1-17-0.3c-4.6-0.1-9-0.2-12.2-0.2h-3l-18,80h15.4l-2.8,12.6h29.9l4.3-21.5
	c0.2-0.8,0.9-0.9,1.5-0.9l17.3-0.3l0.2,0c6.4-0.5,23.8-6.8,27.7-29.7C23.4,39,23.1,34.5,21.7,30.8z M-64.6,78.9l15.7-70
	c3.1,0.1,7.1,0.1,11.2,0.2c7.2,0.1,14.6,0.3,17.1,0.3c10.7,0,18.8,2.5,22.8,7.1l0.4,0.4c0.3,0.4,0.6,0.8,0.8,1.1
	c0.4,0.7,0.8,1.4,1.1,2.1c0.4,1.1,0.7,2.3,0.9,3.5c0.3,2.1,0.2,4.5-0.2,7.1C1.2,53.6-16.9,56.2-18,56.3l-17.2,0.3
	c-3.2,0-5.7,2-6.3,4.9L-45,78.9h-4.2h-5.1H-64.6z M17.7,43.3c-3.9,22.9-22,25.4-23.1,25.6l-17.2,0.2c-3.2,0-5.7,2-6.3,4.9l-3.5,17.5
	H-52l1.7-7.6h9.4l4.3-21.5c0.2-0.8,0.9-0.9,1.5-0.9l17.3-0.3l0.2,0c6.4-0.5,23.8-6.8,27.7-29.7c0.3-2.1,0.5-4,0.4-5.8
	c1.7,0.9,3.2,2,4.3,3.3l0.4,0.4c0.8,1.1,1.4,2.1,1.9,3.3C18.1,35.5,18.4,39.1,17.7,43.3z"/>
</svg>
