<?xml version="1.0" encoding="utf-8"?>
<!-- Generator: Adobe Illustrator 19.0.0, SVG Export Plug-In . SVG Version: 6.00 Build 0)  -->
<svg version="1.1" id="Layer_2" xmlns="http://www.w3.org/2000/svg" xmlns:xlink="http://www.w3.org/1999/xlink" x="0px" y="0px"
	 width="100px" height="100px" viewBox="0 0 100 100" style="enable-background:new 0 0 100 100;" xml:space="preserve">
<path d="M99.1,13.6L86.3,0.7c-0.8-0.8-2-0.8-2.8,0L72,12.2H3c-1.1,0-2,0.9-2,2v83.2c0,1.1,0.9,2,2,2h83.2c1.1,0,2-0.9,2-2v-70l11-11
	C99.9,15.6,99.9,14.3,99.1,13.6z M50.2,58.2l-1-1c-0.9-0.9-2.3-0.9-3.2,0l-0.3,0.3c-0.9,0.9-0.9,2.3,0,3.2l0,0l-10.7,4l4-10.7l0,0
	c0.9,0.9,2.3,0.9,3.2,0l0.3-0.3c0.9-0.9,0.9-2.3,0-3.2l-1-1l28.2-28.2l8.6,8.6L50.2,58.2z M93.5,15L81.9,26.5l-8.6-8.6L84.9,6.4
	L93.5,15z M83.2,94.3H6V17.2h61L36,48.2l-9.5,25.2l25.2-9.5l31.5-31.5V94.3z"/>
</svg>
