<?xml version="1.0" encoding="utf-8"?>
<!-- Generator: Adobe Illustrator 19.0.0, SVG Export Plug-In . SVG Version: 6.00 Build 0)  -->
<svg version="1.1" id="Layer_2" xmlns="http://www.w3.org/2000/svg" xmlns:xlink="http://www.w3.org/1999/xlink" x="0px" y="0px"
	 width="100px" height="100px" viewBox="-74 0 100 100" style="enable-background:new -74 0 100 100;" xml:space="preserve">
<g>
	<path d="M-70.7,37.2c0,5,3.5,5.7,5.5,5.7h14.8c1,0,2.9-0.2,4-1.3c1.4-1.4,1.5-2.9,1.5-4v-9.3c0-0.7,0.1-1.4,0.7-2
		c0.4-0.4,0.8-0.6,1-0.7l0.4,0l0.4-0.2c0.2-0.1,0.5-0.2,0.8-0.2c0.3-0.1,0.6-0.2,0.9-0.3c0.7-0.2,1.3-0.4,1.9-0.6l0.6-0.2
		c6.6-1.5,13.9-1.8,22.5-0.9c4.3,0.3,7.5,1,10.6,2.4l0.5,0.2h0.2c1,0.4,1.4,1.2,1.4,2.3v9.1c0,3.6,1.9,5.5,5.5,5.5h14.8
		c1.1,0,2.6-0.2,4-1.5c1.3-1.3,1.5-2.7,1.4-3.7v-9.1c0-2.4-0.7-4.4-2.4-6.6l-0.1-0.1c-2.3-2.8-5.3-4.9-10.5-7.4
		C2.3,10.8-6,8.7-16.6,7.7c-2.7-0.2-5.2-0.3-7.7-0.3c-9.9,0-19.4,1.6-28.4,4.8l-1,0.4c-4,1.6-9.1,3.6-13.2,7.4l-0.7,0.7
		c-2.4,2.6-3.5,5.2-3.3,8.1V37.2z M-63.9,24.1l0.5-0.5c3.4-3.1,7.8-4.8,11.6-6.4l0.9-0.4c8.4-3,17.3-4.5,26.6-4.5
		c2.4,0,4.8,0.1,7.2,0.3c9.9,1,17.7,2.9,24.6,6.1c4.4,2.1,6.9,3.8,8.7,6c1.1,1.5,1.4,2.5,1.4,3.6v9.3c-0.1,0-0.2,0-0.4,0H2.5
		c-0.2,0-0.4,0-0.5,0c0-0.1,0-0.3,0-0.5v-9.1c0-3.2-1.7-5.8-4.6-7l-0.7-0.3h-0.3c-3.5-1.4-7.1-2.2-11.7-2.6
		c-9.1-0.9-17-0.6-24.1,1.1l-0.8,0.2c-0.7,0.2-1.4,0.4-2.1,0.6c-0.2,0.1-0.5,0.1-0.7,0.2c-0.2,0.1-0.5,0.1-0.8,0.2h-0.2l-0.7,0.2
		c-1.5,0.4-2.6,1.4-3.1,2c-2.2,2.2-2.2,4.7-2.2,5.6v9.3c0,0.1,0,0.2,0,0.3c-0.1,0-0.3,0-0.5,0h-14.8c-0.2,0-0.4,0-0.5,0
		c0-0.1-0.1-0.4-0.1-0.7v-8.6l0-0.2C-65.8,27.4-65.7,26.1-63.9,24.1z"/>
	<path d="M25.5,88.3l-14.3-40c-0.4-1.3-1.6-2.2-2.9-2.2h-64.2c-1.2,0-2.2,0.7-2.8,1.8l-14.4,40.3c-0.8,1.7-0.1,2.8,0.4,3.3
		c0.2,0.2,1,1,2.3,1h92.8c1.4,0,2.1-0.7,2.3-1C25.7,90.7,25.9,89.4,25.5,88.3z M-67.5,87.5l13-36.4H6.9l13,36.4H-67.5z"/>
	<path d="M-23.8,55c-7.9,0-14.6,6.7-14.6,14.6c0,8.2,6.4,14.6,14.6,14.6c7.9,0,14.6-6.7,14.6-14.6S-15.9,55-23.8,55z M-23.8,79.1
		c-5.4,0-9.6-4.2-9.6-9.6c0-5.2,4.4-9.6,9.6-9.6c5.2,0,9.6,4.4,9.6,9.6S-18.6,79.1-23.8,79.1z"/>
</g>
</svg>
