<?xml version="1.0" encoding="utf-8"?>
<!-- Generator: Adobe Illustrator 19.0.0, SVG Export Plug-In . SVG Version: 6.00 Build 0)  -->
<svg version="1.1" id="Layer_2" xmlns="http://www.w3.org/2000/svg" xmlns:xlink="http://www.w3.org/1999/xlink" x="0px" y="0px"
	 width="100px" height="100px" viewBox="-247 370.9 100 100" style="enable-background:new -247 370.9 100 100;"
	 xml:space="preserve">
<path d="M-196.8,371.3c-27.4,0-49.7,22.3-49.7,49.7s22.3,49.7,49.7,49.7c27.4,0,49.7-22.3,49.7-49.7S-169.4,371.3-196.8,371.3z
	 M-152.2,420.9c0,2.3-0.2,4.6-0.5,6.8l-41.7-8.8v-42.6C-170.9,377.6-152.2,397.1-152.2,420.9z M-199.3,376.3v43.6l-30.8,30.8
	c-7.1-7.9-11.4-18.3-11.4-29.8C-241.5,397.1-222.8,377.6-199.3,376.3z M-196.8,465.6c-11.4,0-21.9-4.3-29.8-11.4l30.6-30.6l42.3,9
	C-158.9,451.6-176.2,465.6-196.8,465.6z"/>
</svg>
