<?xml version="1.0" encoding="utf-8"?>
<!-- Generator: Adobe Illustrator 19.0.0, SVG Export Plug-In . SVG Version: 6.00 Build 0)  -->
<svg version="1.1" id="Layer_2" xmlns="http://www.w3.org/2000/svg" xmlns:xlink="http://www.w3.org/1999/xlink" x="0px" y="0px"
	 width="100px" height="100px" viewBox="-74 0 100 100" style="enable-background:new -74 0 100 100;" xml:space="preserve">
<path d="M7.2,1.7H-36l0,0c-12,0.2-21.7,10-21.7,22c0,11.3,8.6,20.7,19.5,21.9v50.7c0,1.4,1.1,2.5,2.5,2.5s2.5-1.1,2.5-2.5V6.6h15
	v89.7c0,1.4,1.1,2.5,2.5,2.5s2.5-1.1,2.5-2.5V6.6H7.2c1.4,0,2.5-1.1,2.5-2.5S8.5,1.7,7.2,1.7z M-38.2,40.6
	c-8.2-1.2-14.5-8.3-14.5-16.8S-46.3,8.2-38.2,7V40.6z"/>
</svg>
