<?xml version="1.0" encoding="utf-8"?>
<!-- Generator: Adobe Illustrator 19.0.0, SVG Export Plug-In . SVG Version: 6.00 Build 0)  -->
<svg version="1.1" id="Layer_1" xmlns="http://www.w3.org/2000/svg" xmlns:xlink="http://www.w3.org/1999/xlink" x="0px" y="0px"
	 width="100px" height="100px" viewBox="0 0 100 100" style="enable-background:new 0 0 100 100;" xml:space="preserve">
<path d="M96.1,20.7L79.2,3.8c-3.2-3-8.6-2.7-12.1,0.7c-1.8,1.8-2.9,4.1-3,6.5c0,1.1,0.2,2.2,0.6,3.2L25.2,43.8
	c-2.7-0.3-5.5,0.6-7.6,2.7c-3.4,3.6-3.6,9.1-0.4,12.3l5.1,5.1L1.9,96.7c-0.6,0.9,0.5,1.9,1.4,1.4l32.4-20.7l5.4,5.4
	c1.4,1.5,3.4,2.4,5.6,2.4c0.1,0,0.1,0,0.2,0c2.4,0,4.8-1,6.7-2.9c2-2.1,2.9-5,2.6-7.5l29.7-39.6c0.9,0.3,1.9,0.5,2.9,0.5
	c2.4,0,4.8-1,6.7-2.8C98.9,29.2,99.2,23.8,96.1,20.7z M15.4,84.4l9.9-15.9l5.9,5.9L15.4,84.4z M49.9,78.8c-0.9,0.9-2.1,1.5-3.2,1.4
	c-0.6,0-1.4-0.2-2-0.9l-24-24c-1.3-1.3-1-3.7,0.5-5.3c0.9-0.9,2-1.3,3.1-1.3c0.8,0,1.5,0.3,2.1,0.7l24.2,24.2
	C51.6,74.9,51.4,77.3,49.9,78.8z M53.7,69.7L30.2,46.3l37.6-28.1l14,14L53.7,69.7z M91.9,29.3c-1.5,1.5-3.9,1.8-5.1,0.7L70.1,13.3
	l-0.2-0.2c-0.7-0.7-0.8-1.5-0.8-2c0-1.1,0.5-2.2,1.4-3l0,0c0.9-0.9,2.1-1.4,3.2-1.4c0.7,0,1.4,0.2,1.9,0.7l16.9,16.9
	C93.7,25.4,93.4,27.8,91.9,29.3z"/>
</svg>
