<?xml version="1.0" encoding="utf-8"?>
<!-- Generator: Adobe Illustrator 19.0.0, SVG Export Plug-In . SVG Version: 6.00 Build 0)  -->
<svg version="1.1" id="Layer_2" xmlns="http://www.w3.org/2000/svg" xmlns:xlink="http://www.w3.org/1999/xlink" x="0px" y="0px"
	 width="100px" height="100px" viewBox="-249 151 100 100" style="enable-background:new -249 151 100 100;" xml:space="preserve">
<path d="M-181.4,206.9l-5.6-39.4c0.7-0.3,1.4-0.8,1.9-1.4c1.4-1.4,2.2-3.3,2.2-5.4c-0.2-4-3.1-7.3-6.6-7.3h-19.2
	c-3.5,0.1-6.4,3.4-6.5,7.3c0,2,0.7,4,2,5.4c0.6,0.6,1.4,1.1,2.2,1.5l-5.6,39.3c-1.7,1.4-2.8,3.5-2.8,5.9c0.1,4,3.1,7.2,6.8,7.2h5.8
	l7,30.2c0.2,0.9,1.4,0.8,1.6,0l6.6-30.2h6.1c1.6,0.1,3.3-0.6,4.5-1.8c0.1-0.1,0.1-0.1,0.1-0.1c1.4-1.4,2.2-3.3,2.2-5.5
	C-178.7,210.3-179.8,208.2-181.4,206.9z M-211.2,160.9c0-1,0.4-2,1-2.6c0.4-0.4,0.9-0.7,1.5-0.7h19.2c1.3-0.1,2.5,1.5,2.5,3.2
	s-1.2,3.2-2.5,3.3h-19h-0.2c-0.8,0-1.3-0.4-1.6-0.7C-210.9,162.7-211.2,161.8-211.2,160.9z M-207,168.1h15.9l5.3,37.3l-26.6,0.1
	L-207,168.1z M-199.1,235.5l-3.4-14.7h6.7L-199.1,235.5z M-183.7,215.4c-0.3,0.3-0.9,0.7-1.6,0.6h-27.3c-1.5,0-2.7-1.5-2.7-3.3
	c0-1,0.4-1.9,1-2.5c0.5-0.5,1-0.7,1.6-0.8h27.5c1.3,0.2,2.6,1.6,2.6,3.4C-182.7,213.8-183,214.8-183.7,215.4z"/>
</svg>
