<?xml version="1.0" encoding="utf-8"?>
<!-- Generator: Adobe Illustrator 19.0.0, SVG Export Plug-In . SVG Version: 6.00 Build 0)  -->
<svg version="1.1" id="Layer_2" xmlns="http://www.w3.org/2000/svg" xmlns:xlink="http://www.w3.org/1999/xlink" x="0px" y="0px"
	 width="100px" height="100px" viewBox="-249 151 100 100" style="enable-background:new -249 151 100 100;" xml:space="preserve">
<g>
	<path d="M-174.9,174.4c-1-11.7-10.5-21.2-22.3-22.1c-14.1-1-26,10.2-26,24.2c0,12.5,9.5,22.8,21.6,24v46.7c0,1.4,1.1,2.5,2.5,2.5
		l0,0c1.4,0,2.5-1.1,2.5-2.5v-46.7C-183.7,199.2-173.8,187.8-174.9,174.4z M-199,195.7c-10.6,0-19.1-8.6-19.1-19.1
		c0-10.6,8.6-19.3,19.1-19.3c10.6,0,19.1,8.6,19.1,19.1C-179.9,187-188.4,195.7-199,195.7z"/>
	<path d="M-193.3,160.3c-3.9,0-7,3.1-7,7c0,3.8,3.2,7,7,7s7-3.2,7-7C-186.3,163.4-189.4,160.3-193.3,160.3z M-193.3,169.4
		c-1,0-2-0.8-2-2c0-1.2,0.9-2,2-2s2,0.9,2,2C-191.3,168.6-192.4,169.4-193.3,169.4z"/>
</g>
</svg>
