<?xml version="1.0" encoding="utf-8"?>
<!-- Generator: Adobe Illustrator 19.0.0, SVG Export Plug-In . SVG Version: 6.00 Build 0)  -->
<svg version="1.1" id="Layer_1" xmlns="http://www.w3.org/2000/svg" xmlns:xlink="http://www.w3.org/1999/xlink" x="0px" y="0px"
	 width="100px" height="100px" viewBox="-74 0 100 100" style="enable-background:new -74 0 100 100;" xml:space="preserve">
<path d="M4.4,11.8C-2.4,4.9-12,1.1-22.7,1.1c-25.6,0-40.9,18.4-40.9,36.2c0,11.3,4.8,20,12.9,23.3c1.6,0.7,3.4,0.7,4.9,0
	c0.2-0.1,0.4-0.2,0.6-0.3c-1.4,5.9-2.8,11.8-3.3,13.7c-1.3,5.3-1.4,12.7-0.3,20.7l0,0.4c0.3,1.8,1.6,3.3,3.4,3.8l0.3,0.1h0
	c0.2,0.1,0.5,0.1,0.8,0.1c0.9,0,2.1-0.3,3.4-1.5l0.3-0.3c1.2-1.5,7.6-9.7,10-18.2c0.3-1,1-4,1.8-7l0.2-1c3.1,1.9,6.8,3,10.6,3
	c18.4,0,31.8-16.6,31.8-39.3C13.9,26.4,10.5,18,4.4,11.8z M-45.8,38.7c0-10.2,7.6-20.9,21.7-20.9c11.1,0,17.7,6,17.7,16
	c0,13.3-5.5,23.7-12.6,23.7c-1.6,0-2.9-0.6-3.8-1.7c-0.8-1-1-2.2-0.7-3.6c0.5-2.3,1.3-4.7,2-7l0.2-0.7c1.3-4.2,2.4-8.1,2.4-11.6
	c0-6.9-4.4-11.7-10.8-11.7c-7.7,0-13.8,7.6-13.8,17.2c0,3.6,0.7,6.7,1.5,8.6c-0.1,0.3-0.1,0.6-0.2,0.9c-0.3-0.5-0.7-1-1.1-1.5
	C-45,44.4-45.8,41.9-45.8,38.7z M-18,69c-3.8,0-7.9-1.6-10.2-4l-3.1-3.2l-2.3,9c-0.8,3-1.5,5.9-1.8,6.9c-1.5,5.5-5.4,11.7-8.4,15.6
	c-0.9-7.2-0.8-13.6,0.3-18.2c1-3.9,5.9-24.5,6.6-27.9l0.2-0.9l-0.4-0.8c-0.4-0.7-1.3-3.5-1.3-7.2c0-6.8,3.9-12.2,8.8-12.2
	c3.6,0,5.8,2.5,5.8,6.7c0,2.7-1.1,6.4-2.2,10.2l-0.2,0.7c-0.7,2.3-1.5,4.9-2.1,7.3c-0.7,2.9-0.1,5.7,1.7,7.9
	c1.9,2.3,4.6,3.6,7.7,3.6C-9,62.5-1.4,50.2-1.4,33.8c0-12.8-8.9-21-22.7-21c-17.3,0-26.7,13.4-26.7,25.9c0,4.4,1.2,8.1,3.8,11
	c0.7,0.8,0.7,0.9,0.5,1.7l0,0.1c-0.1,0.3-0.2,0.7-0.3,1.1l-0.2,0.8c-0.2,0.8-0.4,1.7-0.6,2.2c-0.1,0.3-0.2,0.4-0.3,0.4
	c-0.1,0-0.3,0.1-0.7-0.1c-6.2-2.5-9.8-9.5-9.8-18.7c0-15.3,13.4-31.2,35.9-31.2c9.3,0,17.6,3.3,23.5,9.2c5.2,5.3,8.1,12.3,8,19.3
	C8.8,54.6-2.4,69-18,69z"/>
</svg>
