<?xml version="1.0" encoding="utf-8"?>
<!-- Generator: Adobe Illustrator 19.0.0, SVG Export Plug-In . SVG Version: 6.00 Build 0)  -->
<svg version="1.1" id="Layer_1" xmlns="http://www.w3.org/2000/svg" xmlns:xlink="http://www.w3.org/1999/xlink" x="0px" y="0px"
	 width="100px" height="100px" viewBox="-74 0 100 100" style="enable-background:new -74 0 100 100;" xml:space="preserve">
<path d="M-68.7,11.4v77.2c0,1.8,1.9,3,3.5,2.3l84.5-38.6c1.9-0.9,1.9-3.7,0-4.5L-65.2,9.1C-66.9,8.4-68.7,9.6-68.7,11.4z M-22.4,50
	l-41.3,33.4V16.6L-22.4,50z M-49.1,22l39.2,17.9l-8.5,6.9L-49.1,22z M-18.5,53.2l8.6,6.9l-39.4,18L-18.5,53.2z M-14.5,50l9.6-7.8
	L12.2,50l-17,7.8L-14.5,50z"/>
</svg>
