<?xml version="1.0" encoding="utf-8"?>
<!-- Generator: Adobe Illustrator 19.0.0, SVG Export Plug-In . SVG Version: 6.00 Build 0)  -->
<svg version="1.1" id="Layer_2" xmlns="http://www.w3.org/2000/svg" xmlns:xlink="http://www.w3.org/1999/xlink" x="0px" y="0px"
	 width="100px" height="100px" viewBox="-249 151 100 100" style="enable-background:new -249 151 100 100;" xml:space="preserve">
<path d="M-175.4,164.4v-8.7c0-1.4-1.1-2.5-2.5-2.5l0,0c-1.4,0-2.5,1.1-2.5,2.5v8.7h-37.2v-8.7c0-1.4-1.1-2.5-2.5-2.5l0,0
	c-1.4,0-2.5,1.1-2.5,2.5v8.7h-7c-1.4,0-2.5,1.1-2.5,2.5v17.3c0,17.4,13.6,31.7,30.7,33v29.1c0,1.4,1.1,2.5,2.5,2.5l0,0
	c1.4,0,2.5-1.1,2.5-2.5v-29.1c17.1-1.3,30.6-15.6,30.6-33v-17.3c0-1.4-1.1-2.5-2.5-2.5H-175.4z M-170.9,184.2
	c0,15.5-12.6,28.1-28.1,28.1c-15.6,0-28.2-12.6-28.2-28.1v-14.8h56.3V184.2z"/>
</svg>
