<?xml version="1.0" encoding="utf-8"?>
<!-- Generator: Adobe Illustrator 19.0.0, SVG Export Plug-In . SVG Version: 6.00 Build 0)  -->
<svg version="1.1" id="Layer_1" xmlns="http://www.w3.org/2000/svg" xmlns:xlink="http://www.w3.org/1999/xlink" x="0px" y="0px"
	 width="100px" height="100px" viewBox="-205 207 100 100" style="enable-background:new -205 207 100 100;" xml:space="preserve">
<g>
	<path d="M-204.3,248.2c0-0.1,0-0.2,0-0.3c0.1-5.7,5-10.3,10.8-10.3h31.9c-1.9-1.8-3.6-3.7-4.7-5.7c-2.3-3.4-3.6-7.4-3.6-11.1
		c0-3,1.2-5.2,3.7-6.7c2.9-1.7,6.9-1.6,8.9-0.5c1.6,0.8,3.5,1.9,5.2,4.1c1.2,1.4,3,2.7,5,3.7l0.4,0.2c3.5,2.1,8,5,13.8,8.7l2.9,1.9
		c3.4,2.1,6.1,3.7,7.2,4.4c10.3,5.8,16.7,17.5,16.7,30.6c0,14.9-3.5,32.2-30.6,34.2h-0.2h-24.9c-2.7,0-5.3-1.1-7.2-3.1
		c-1.9-1.9-2.9-4.5-2.8-7.1c0-1.7,0.4-3.2,1.2-4.5c-3.3-1.6-5.6-5.1-5.6-8.8c0-2.2,0.8-3.9,1.6-5.1c-3.4-1.8-5.7-5.5-5.7-9.4
		c0-1.6,0.4-3.3,1.2-4.8h-14.8c-2.9,0-5.6-1.1-7.5-3.2C-203.3,253.5-204.3,251-204.3,248.2z M-154,239.1c0,0.4-0.1,0.8-0.2,1.1
		c-0.5,1.5-1.9,2.4-3.4,2.4h-35.9c-3.1,0-5.7,2.5-5.8,5.4c0,1.5,0.5,2.8,1.5,3.9c1,1.1,2.4,1.7,4,1.7h17.4c1.4,0,2.6,0.7,3.2,1.9
		c0.6,1.2,0.5,2.6-0.3,3.8l-0.4,0.5c-0.9,1.1-1.4,2.4-1.4,3.6c0,2.2,1.7,4.6,3.8,5.3l0.3,0.1c1.1,0.4,2,1.4,2.3,2.6
		c0.3,1.1,0,2.2-0.7,3l-0.3,0.5c-0.5,0.5-1.2,1.6-1.2,3c0,2.1,1.5,4,3.4,4.6l0.4,0.1c1.3,0.4,2.2,1.3,2.6,2.4
		c0.4,1.1,0.1,2.4-0.7,3.4l-0.4,0.5c-0.6,0.7-0.8,1.4-0.8,2.4v0.1c0,1.3,0.5,2.6,1.4,3.5c1,1,2.3,1.5,3.6,1.5h24.8
		c22.8-1.7,25.9-15,25.9-29.2c0-11.2-5.5-21.3-14.2-26.2c-1.2-0.7-3.9-2.4-7.4-4.5l-2.9-1.9c-5.7-3.6-10.1-6.5-13.5-8.5l-0.1-0.1
		c-2.6-1.2-5-3.1-6.7-5l-0.1-0.1c-1.1-1.5-2.3-2.1-3.6-2.8c-0.6-0.3-2.7-0.4-4,0.4c-0.9,0.6-1.3,1.2-1.3,2.4c0,2.6,1,5.8,2.7,8.3
		l0.1,0.1c1.3,2.2,3.5,4.5,5.9,6.3l0.7,0.5C-154.5,236.9-154,238-154,239.1z"/>
</g>
</svg>
