<?xml version="1.0" encoding="utf-8"?>
<!-- Generator: Adobe Illustrator 19.0.0, SVG Export Plug-In . SVG Version: 6.00 Build 0)  -->
<svg version="1.1" id="Layer_2" xmlns="http://www.w3.org/2000/svg" xmlns:xlink="http://www.w3.org/1999/xlink" x="0px" y="0px"
	 width="100px" height="100px" viewBox="-249 151 100 100" style="enable-background:new -249 151 100 100;" xml:space="preserve">
<g>
	<path d="M-190.3,152c0.1,0,0.2,0,0.3,0c5.7,0.1,10.3,5,10.3,10.8v31.9c1.8-1.9,3.7-3.6,5.7-4.7c3.4-2.3,7.4-3.6,11.1-3.6
		c3,0,5.2,1.2,6.7,3.7c1.7,2.9,1.6,6.9,0.5,8.9c-0.8,1.6-1.9,3.5-4.1,5.2c-1.4,1.2-2.7,3-3.7,5l-0.2,0.4c-2.1,3.5-5,8-8.7,13.8
		l-1.9,2.9c-2.1,3.4-3.7,6.1-4.4,7.2c-5.8,10.3-17.5,16.7-30.6,16.7c-14.9,0-32.2-3.5-34.2-30.6v-0.2v-24.9c0-2.7,1.1-5.3,3.1-7.2
		c1.9-1.9,4.5-2.9,7.1-2.8c1.7,0,3.2,0.4,4.5,1.2c1.6-3.3,5.1-5.6,8.8-5.6c2.2,0,3.9,0.8,5.1,1.6c1.8-3.4,5.5-5.7,9.4-5.7
		c1.6,0,3.3,0.4,4.8,1.2v-14.8c0-2.9,1.1-5.6,3.2-7.5C-195.6,153-193.1,152-190.3,152z M-181.2,202.3c-0.4,0-0.8-0.1-1.1-0.2
		c-1.5-0.5-2.4-1.9-2.4-3.4v-35.9c0-3.1-2.5-5.7-5.4-5.8c-1.5,0-2.8,0.5-3.9,1.5c-1.1,1-1.7,2.4-1.7,4v17.4c0,1.4-0.7,2.6-1.9,3.2
		s-2.6,0.5-3.8-0.3l-0.5-0.4c-1.1-0.9-2.4-1.4-3.6-1.4c-2.2,0-4.6,1.7-5.3,3.8l-0.1,0.3c-0.4,1.1-1.4,2-2.6,2.3
		c-1.1,0.3-2.2,0-3-0.7l-0.5-0.3c-0.5-0.5-1.6-1.2-3-1.2c-2.1,0-4,1.5-4.6,3.4l-0.1,0.4c-0.4,1.3-1.3,2.2-2.4,2.6
		c-1.1,0.4-2.4,0.1-3.4-0.7l-0.5-0.4c-0.7-0.6-1.4-0.8-2.4-0.8h-0.1c-1.3,0-2.6,0.5-3.5,1.4c-1,1-1.5,2.3-1.5,3.6v24.8
		c1.7,22.8,15,25.9,29.2,25.9c11.2,0,21.3-5.5,26.2-14.2c0.7-1.2,2.4-3.9,4.5-7.4l1.9-2.9c3.6-5.7,6.5-10.1,8.5-13.5l0.1-0.1
		c1.2-2.6,3.1-5,5-6.7l0.1-0.1c1.5-1.1,2.1-2.3,2.8-3.6c0.3-0.6,0.4-2.7-0.4-4c-0.6-0.9-1.2-1.3-2.4-1.3c-2.6,0-5.8,1-8.3,2.7
		l-0.1,0.1c-2.2,1.3-4.5,3.5-6.3,5.9l-0.5,0.7C-179,201.8-180.1,202.3-181.2,202.3z"/>
</g>
</svg>
