<?xml version="1.0" encoding="utf-8"?>
<!-- Generator: Adobe Illustrator 19.0.0, SVG Export Plug-In . SVG Version: 6.00 Build 0)  -->
<svg version="1.1" id="Layer_1" xmlns="http://www.w3.org/2000/svg" xmlns:xlink="http://www.w3.org/1999/xlink" x="0px" y="0px"
	 width="100px" height="100px" viewBox="-74 0 100 100" style="enable-background:new -74 0 100 100;" xml:space="preserve">
<g>
	<path d="M22,47.4c-1.9,2.1-4.6,3.2-7.5,3.2H-0.3c0.8,1.5,1.2,3.2,1.2,4.8c0,3.9-2.3,7.6-5.7,9.4c0.8,1.2,1.6,2.9,1.6,5.1
		c0,3.7-2.3,7.2-5.6,8.8c0.8,1.3,1.2,2.8,1.2,4.5c0.1,2.6-0.9,5.2-2.8,7.1c-1.9,2-4.5,3.1-7.2,3.1h-24.9h-0.2
		c-27.1-2-30.6-19.3-30.6-34.2c0-13.1,6.4-24.8,16.7-30.6c1.1-0.7,3.8-2.3,7.2-4.4l2.9-1.9c5.8-3.7,10.3-6.6,13.8-8.7l0.4-0.2
		c2-1,3.8-2.3,5-3.7c1.7-2.2,3.6-3.3,5.2-4.1c2-1.1,6-1.2,8.9,0.5c2.5,1.5,3.7,3.7,3.7,6.7c0,3.7-1.3,7.7-3.6,11.1
		c-1.1,2-2.8,3.9-4.7,5.7h31.9c5.8,0,10.7,4.6,10.8,10.3c0,0.1,0,0.2,0,0.3C24.9,43,23.9,45.5,22,47.4z M-24.1,28.1l0.7-0.5
		c2.4-1.8,4.6-4.1,5.9-6.3l0.1-0.1c1.7-2.5,2.7-5.7,2.7-8.3c0-1.2-0.4-1.8-1.3-2.4c-1.3-0.8-3.4-0.7-4-0.4c-1.3,0.7-2.5,1.3-3.6,2.8
		l-0.1,0.1c-1.7,1.9-4.1,3.8-6.7,5l-0.1,0.1c-3.4,2-7.8,4.9-13.5,8.5l-2.9,1.9c-3.5,2.1-6.2,3.8-7.4,4.5c-8.7,4.9-14.2,15-14.2,26.2
		c0,14.2,3.1,27.5,25.9,29.2h24.8c1.3,0,2.6-0.5,3.6-1.5c0.9-0.9,1.4-2.2,1.4-3.5v-0.1c0-1-0.2-1.7-0.8-2.4l-0.4-0.5
		c-0.8-1-1.1-2.3-0.7-3.4c0.4-1.1,1.3-2,2.6-2.4l0.4-0.1c1.9-0.6,3.4-2.5,3.4-4.6c0-1.4-0.7-2.5-1.2-3l-0.3-0.5
		c-0.7-0.8-1-1.9-0.7-3c0.3-1.2,1.2-2.2,2.3-2.6l0.3-0.1c2.1-0.7,3.8-3.1,3.8-5.3c0-1.2-0.5-2.5-1.4-3.6l-0.4-0.5
		c-0.8-1.2-0.9-2.6-0.3-3.8c0.6-1.2,1.8-1.9,3.2-1.9h17.4c1.6,0,3-0.6,4-1.7c1-1.1,1.5-2.4,1.5-3.9c-0.1-2.9-2.7-5.4-5.8-5.4h-35.9
		c-1.5,0-2.9-0.9-3.4-2.4c-0.1-0.3-0.2-0.7-0.2-1.1C-25.4,30-24.9,28.9-24.1,28.1z"/>
</g>
</svg>
