<?xml version="1.0" encoding="utf-8"?>
<!-- Generator: Adobe Illustrator 19.0.0, SVG Export Plug-In . SVG Version: 6.00 Build 0)  -->
<svg version="1.1" id="Layer_1" xmlns="http://www.w3.org/2000/svg" xmlns:xlink="http://www.w3.org/1999/xlink" x="0px" y="0px"
	 width="100px" height="100px" viewBox="-249 151 100 100" style="enable-background:new -249 151 100 100;" xml:space="preserve">
<g>
	<path d="M-193.2,170.1c-1.5-0.2-2.8,1-2.8,2.5v0c0,1.2,0.9,2.3,2.1,2.5c17.6,2.6,31,18.2,30,36.7c-0.9,17.6-15.1,32-32.6,33.2
		c-20.5,1.4-37.7-14.9-37.7-35.1c0-17.7,13.1-32.3,30.1-34.8c1.2-0.2,2.1-1.2,2.1-2.5c0-1.5-1.3-2.7-2.8-2.5
		c-20.1,2.9-35.4,20.7-34.3,41.8c1,20.1,17.2,36.7,37.3,38.1c23.5,1.6,43.1-17,43.1-40.1C-158.8,189.6-173.8,172.9-193.2,170.1z"/>
	<path d="M-199,206.2c1.4,0,2.5-1.1,2.5-2.5v-49.3c0-1.4-1.1-2.5-2.5-2.5s-2.5,1.1-2.5,2.5v49.3C-201.5,205.1-200.4,206.2-199,206.2
		z"/>
</g>
</svg>
