<?xml version="1.0" encoding="utf-8"?>
<!-- Generator: Adobe Illustrator 19.0.0, SVG Export Plug-In . SVG Version: 6.00 Build 0)  -->
<svg version="1.1" id="Layer_2" xmlns="http://www.w3.org/2000/svg" xmlns:xlink="http://www.w3.org/1999/xlink" x="0px" y="0px"
	 width="100px" height="100px" viewBox="-249 151 100 100" style="enable-background:new -249 151 100 100;" xml:space="preserve">
<g id="XMLID_2_">
	<g id="XMLID_4_">
		<path d="M-202.3,236.3l-20.3-64.1l-18,44.5h-5.8c-1.5,0-2.7-1.2-2.7-2.7l0,0c0-1.5,1.2-2.7,2.7-2.7h2.2l18.2-45
			c0.5-1.4,1.9-2.4,3.6-2.3c1.7,0,3.1,1,3.6,2.6l19,60.1l10.4-29.2c0.6-1.5,1.9-2.4,3.4-2.5c1.5-0.1,2.8,0.8,3.6,2.1l8.3,14.5h22.4
			c1.5,0,2.7,1.2,2.7,2.7l0,0c0,1.5-1.2,2.7-2.7,2.7h-25.5l-8.3-14.4l-12.1,34C-198.4,238.6-201.6,238.6-202.3,236.3z"/>
	</g>
</g>
</svg>
