<?xml version="1.0" encoding="utf-8"?>
<!-- Generator: Adobe Illustrator 19.0.0, SVG Export Plug-In . SVG Version: 6.00 Build 0)  -->
<svg version="1.1" id="Layer_2" xmlns="http://www.w3.org/2000/svg" xmlns:xlink="http://www.w3.org/1999/xlink" x="0px" y="0px"
	 width="100px" height="100px" viewBox="-249 151 100 100" style="enable-background:new -249 151 100 100;" xml:space="preserve">
<g>
	<path d="M-199,151.8c-27.2,0-49.3,22.1-49.3,49.3c0,27.2,22.1,49.3,49.3,49.3c27.2,0,49.3-22.1,49.3-49.3
		C-149.8,173.8-171.8,151.8-199,151.8z M-199,245.3c-24.4,0-44.3-19.9-44.3-44.3s19.9-44.3,44.3-44.3s44.3,19.9,44.3,44.3
		S-174.6,245.3-199,245.3z"/>
	<path d="M-197.6,164.5c-10.8-0.7-20.4,6.1-23.5,16.1c-0.4,1.4,0.5,2.9,1.9,3.2l0,0c1.3,0.2,2.4-0.6,2.8-1.8
		c2.4-7.8,10-13.1,18.3-12.5c8.9,0.6,16.1,7.8,16.7,16.7c0.6,9-5.6,17.1-14.5,18.8c-3.4,0.7-5.9,3.7-5.9,7.3v18.6
		c0,1.4,1.1,2.5,2.5,2.5h0c1.4,0,2.5-1.1,2.5-2.5v-18.6c0-1.2,0.8-2.2,1.9-2.4c11.3-2.2,19.2-12.5,18.5-24
		C-177,174.4-186.2,165.2-197.6,164.5z"/>
	<circle cx="-199" cy="239.6" r="2.9"/>
</g>
</svg>
