<?xml version="1.0" encoding="utf-8"?>
<!-- Generator: Adobe Illustrator 19.0.0, SVG Export Plug-In . SVG Version: 6.00 Build 0)  -->
<svg version="1.1" id="Layer_1" xmlns="http://www.w3.org/2000/svg" xmlns:xlink="http://www.w3.org/1999/xlink" x="0px" y="0px"
	 width="100px" height="100px" viewBox="-74 0 100 100" style="enable-background:new -74 0 100 100;" xml:space="preserve">
<g>
	<path d="M1.9,51.1v-8.7H2v-2.5c0-17.1-11.6-31-25.8-31s-25.8,13.9-25.8,31V51c0,17.1,11.6,31,25.8,31c2.1,0,4.2-0.3,6.1-0.8l5-1.3
		l-2.6-4.6c-2.5-4.2-5.9-7.2-10.1-8.8v-1.2c6.8,0.7,11.5,4.2,14.4,7.2l3.3,3.6l2.9-3.9C-0.5,66.4,1.9,58.9,1.9,51.1z M-8.2,68.2
		c-4-3.9-10.5-8.1-19.6-8.1h-2.6v10.1l1.9,0.5c3.4,0.9,6.2,2.9,8.2,6c-1.1,0.2-2.3,0.3-3.4,0.3c-11.5,0-20.8-11.7-20.8-26V39.9
		c0-14.3,9.3-26,20.8-26C-13,13.9-4.1,24.2-3,37.4l0,13.7C-3.1,57.4-4.9,63.4-8.2,68.2z"/>
	<path d="M-0.4,82.4c12.5-8.2,20-22,20-37.1C19.6,21,0,1.2-24,1.2S-67.6,21-67.6,45.3c0,24.3,19.5,44.1,43.6,44.1
		c3.2,0,6.4-0.3,9.5-1c3,5.2,7.7,10.6,17.5,10.6c1.5,0,3.1-0.1,4.9-0.4h2.4v-9.1l-1.7-0.6C6.5,88.1,1.6,86.1-0.4,82.4z M5.3,93.8
		c-8.7,0.8-12.6-2.8-15.8-8.5l-1.6-2.6l-2.9,0.6c-3,0.7-6.1,1-9.1,1c-21.3,0-38.6-17.5-38.6-39.1S-45.3,6.2-24,6.2
		s38.6,17.5,38.6,39.1c0,13.7-6.8,26.1-18.4,33.3l-2.8,1.9l1.3,3.2c2.1,5,7.1,7.8,10.6,9.3V93.8z"/>
</g>
</svg>
