<?xml version="1.0" encoding="utf-8"?>
<!-- Generator: Adobe Illustrator 19.0.0, SVG Export Plug-In . SVG Version: 6.00 Build 0)  -->
<svg version="1.1" id="Layer_1" xmlns="http://www.w3.org/2000/svg" xmlns:xlink="http://www.w3.org/1999/xlink" x="0px" y="0px"
	 width="100px" height="100px" viewBox="-74 0 100 100" style="enable-background:new -74 0 100 100;" xml:space="preserve">
<g>
	<path d="M-39.9,66.5c4.3,0,7.7-3.4,7.7-7.7s-3.4-7.7-7.7-7.7s-7.7,3.4-7.7,7.7S-44.2,66.5-39.9,66.5z"/>
	<path d="M-8.2,51.1c-4.3,0-7.7,3.4-7.7,7.7s3.4,7.7,7.7,7.7s7.7-3.4,7.7-7.7S-4,51.1-8.2,51.1z"/>
	<path d="M-6.7,72.6c-18.9,12.5-34.3,0.7-35,0.2c-1.4-1.2-3.6-0.9-4.7,0.5s-0.9,3.6,0.5,4.7c0.1,0.1,8.9,7,21.7,7
		c6.3,0,13.6-1.7,21.3-6.7c1.5-1.1,2-3.1,0.9-4.7C-3,72.1-5.1,71.6-6.7,72.6z"/>
	<path d="M25.4,44.9c-1.4-6-7-10.3-13.2-10.1c-3.6,0.1-6.9,1.6-9.4,4.4c-6-2.7-12.9-4.4-20.3-5.1l4-18.9h8.1
		c1.3,4.9,6.1,8.4,11.6,7.5c4.1-0.7,7.4-4,8.1-8c1.2-6.4-3.7-12.1-10-12.1c-4.7,0-8.7,3.3-9.8,7.6h-10.1c-1.2,0-2.2,0.8-2.4,2
		l-4.6,21.7l-3.2,0c-9,0.2-17.6,2.1-24.9,5.3c-2.7-3.1-6.7-4.7-10.9-4.4c-5.7,0.5-10.6,4.7-11.8,10.3c-0.9,4.3,0.3,8.5,3.1,11.6
		c-1.3,2.7-1.9,5.8-1.9,8.9c0,8.8,5.2,16.9,14.6,22.8c9.1,5.8,21,8.9,33.6,8.9c12.6,0,24.5-3.2,33.6-8.9c9.3-5.9,14.5-14,14.7-22.8
		c0-2.9-0.6-5.8-1.9-8.9C25.2,53.6,26.4,49.2,25.4,44.9z M4.3,7.6c2.8,0,5.1,2.3,5.1,5.1s-2.3,5.1-5.1,5.1c-2.8,0-5.1-2.3-5.1-5.1
		S1.4,7.6,4.3,7.6z M17.5,58.3c1.2,2.6,1.7,5,1.7,7.3c-0.1,7-4.5,13.7-12.4,18.6c-8.3,5.2-19.3,8.1-30.9,8.1s-22.7-2.9-30.9-8.1
		c-7.9-5-12.2-11.6-12.2-18.6c0-2.6,0.6-5.1,1.7-7.3l1.3-2.6l-2-2c-1.6-1.6-2.4-3.6-2.4-5.8c0-4.5,3.7-8.2,8.2-8.2
		c2.5,0,4.8,1.1,6.3,3l1.9,2.6l2.9-1.3c6.8-3.1,15-4.9,23.6-5.1h5l1.8,0.1c7.5,0.6,14.3,2.3,20.3,5l2.9,1.3l1.9-2.5
		c1.6-2,3.9-3.1,6.3-3.1c4.5,0,8.2,3.7,8.2,8.2c0,2.2-0.9,4.2-2.4,5.8l-2,2L17.5,58.3z"/>
</g>
</svg>
