<?xml version="1.0" encoding="utf-8"?>
<!-- Generator: Adobe Illustrator 19.0.0, SVG Export Plug-In . SVG Version: 6.00 Build 0)  -->
<svg version="1.1" id="Layer_2" xmlns="http://www.w3.org/2000/svg" xmlns:xlink="http://www.w3.org/1999/xlink" x="0px" y="0px"
	 width="100px" height="100px" viewBox="-249 151 100 100" style="enable-background:new -249 151 100 100;" xml:space="preserve">
<g>
	<path d="M-229.1,196.7c1.4,0,2.5-1.1,2.5-2.5s-1.1-2.5-2.5-2.5h-10.1c4.2-18.8,20.9-32.3,40.2-32.3c21.2,0,38.8,16.1,41,37.1
		c0.1,1.3,1.3,2.3,2.6,2.2c1.4-0.1,2.6-1.3,2.4-2.8c-2.5-23.5-22.2-41.6-46-41.6c-19.7,0-37,12.6-43.5,30.8v-7
		c0-1.4-1.1-2.5-2.5-2.5s-2.5,1.1-2.5,2.5V193c0,2,1.6,3.7,3.7,3.7H-229.1z"/>
	<path d="M-150.5,208.7c-0.3-1.9-1.8-3.2-3.7-3.2h-14.7c-1.4,0-2.5,1.1-2.5,2.5s1.1,2.5,2.5,2.5h10.1c-4.3,18.8-20.9,32.2-40.2,32.2
		c-22,0-40-17.4-41.3-39.3c-0.1-1.3-1.2-2.4-2.5-2.4c-1.4,0-2.6,1.2-2.5,2.6c1.4,24.5,21.6,44,46.3,44c19.8,0,37-12.6,43.5-30.8v7
		c0,1.4,1.1,2.5,2.5,2.5s2.5-1.1,2.5-2.5v-14.8L-150.5,208.7z"/>
</g>
</svg>
