<?xml version="1.0" encoding="utf-8"?>
<!-- Generator: Adobe Illustrator 22.0.0, SVG Export Plug-In . SVG Version: 6.00 Build 0)  -->
<svg version="1.1" id="Layer_1" xmlns="http://www.w3.org/2000/svg" xmlns:xlink="http://www.w3.org/1999/xlink" x="0px" y="0px"
	 viewBox="0 0 100 100" style="enable-background:new 0 0 100 100;" xml:space="preserve">
<path d="M96.4,80.3C96,55.4,75.3,35,48.8,33V22.5c0-4.4-3.6-8-8-8c-2,0-3.9,0.8-5.4,2.1c-0.9,0.9-23.3,21.6-29.9,28.2
	c-1.3,1.3-2,3.1-2,5.1c0,2,0.7,3.8,2,5.1c6.6,6.6,29,27.3,29.9,28.2c1.5,1.4,3.4,2.1,5.4,2.1c4.4,0,8-3.6,8-8V67.2
	c24.2,0.8,39,8.5,39,13.9c0,2.3,1.9,4.2,4.2,4.3l0.2,0l0.2,0c2.3-0.1,4.1-2,4.1-4.3C96.5,80.9,96.5,80.6,96.4,80.3z M46.3,62.2
	l-2.5,0v15.4c0,1.7-1.3,3-3,3c-0.7,0-1.4-0.3-2-0.8C38.6,79.5,15.6,58.2,9,51.6c-0.4-0.4-0.5-0.9-0.5-1.6c0-0.7,0.2-1.3,0.5-1.6
	c6.6-6.6,29.5-27.9,29.8-28.1c0.6-0.5,1.3-0.8,2-0.8c1.7,0,3,1.3,3,3v15.3l2.4,0.1c23.4,0.8,42.3,17.3,44.9,38.3
	C85.8,68.3,68,62.5,46.3,62.2z"/>
</svg>
