<?xml version="1.0" encoding="utf-8"?>
<!-- Generator: Adobe Illustrator 21.0.0, SVG Export Plug-In . SVG Version: 6.00 Build 0)  -->
<svg version="1.1" id="Layer_2" xmlns="http://www.w3.org/2000/svg" xmlns:xlink="http://www.w3.org/1999/xlink" x="0px" y="0px"
	 viewBox="0 0 100 100" style="enable-background:new 0 0 100 100;" xml:space="preserve">
<g>
	<path d="M98,53l-15-14.6l-0.3-0.2c-0.3-0.2-1-0.5-1.9-0.5l-17.3,0.9l-1-1.2c-2.5-2.9-5.1-5.8-7.9-8.6C39.2,13.8,21.6,3.3,8.4,1.5
		l-0.4,0C6.5,1.4,5.1,1.3,3.6,1.4L1.5,1.6L1.4,2.4C1.3,4,1.3,6.7,1.4,8.3l0,0.3c1.5,13.1,12,30.7,27.4,45.9c3.2,3.3,6.8,6.4,9.8,9
		l-0.9,17.3l0,0.1c0,0.7,0.3,1.8,1,2.5L53,97.7l0.4,0.3c0.6,0.4,1.3,0.6,2.1,0.6c0.4,0,0.7,0,1-0.2c1.2-0.3,2.3-1.3,2.3-2.8l1-16.2
		l28.9,12.8c2.1,0.9,4.2-1.2,3.3-3.3L79.6,59.7l16.2-1.1c1.3,0,2.4-0.8,3-2C99.2,55.7,99.2,54.3,98,53z M58.7,73.5l-5.5-5.5l15-14.9
		l5.5,5.5l11.2,26.6L58.7,73.5z M77,54.9l-7-7c-1-1-2.6-1-3.5,0L47.9,66.3c-1,1-1,2.6,0,3.5l7,7L54,91.7L42.7,80.3l1-19.2l-1.5-1.2
		c-3.1-2.6-6.6-5.6-9.8-9C17.7,36.5,7.8,20,6.4,8.1l0-0.2c0-0.5-0.1-1-0.1-1.5c0.4,0,0.8,0.1,1.3,0.1l0.3,0
		c12.1,1.6,28.6,11.6,43,26c2.7,2.7,5.2,5.6,7.7,8.4l1.3,1.4l1.2,1.5l19.2-1l11.4,11.1L77,54.9z"/>
	<path d="M31.1,21.6c-2.6,0-5,1-6.9,2.9c-1.9,1.8-3,4.2-3,6.8c0,2.6,1.1,5.2,3,7.1c2,2,4.4,3,6.9,3c2.5,0,4.9-1,6.9-3l0,0
		c3.9-3.9,4-9.8,0.1-13.8C36.2,22.7,33.6,21.6,31.1,21.6z M34.4,34.9c-2,2-4.8,2-6.7,0c-1-1-1.5-2.2-1.5-3.6c0-1.2,0.5-2.3,1.4-3.1
		l0.1-0.1c1-1,2.2-1.5,3.4-1.5c1.2,0,2.5,0.6,3.4,1.5C36.4,30.1,36.4,32.9,34.4,34.9z"/>
</g>
</svg>
