<?xml version="1.0" encoding="utf-8"?>
<!-- Generator: Adobe Illustrator 21.0.0, SVG Export Plug-In . SVG Version: 6.00 Build 0)  -->
<svg version="1.1" id="Layer_2" xmlns="http://www.w3.org/2000/svg" xmlns:xlink="http://www.w3.org/1999/xlink" x="0px" y="0px"
	 viewBox="0 0 100 100" style="enable-background:new 0 0 100 100;" xml:space="preserve">
<g>
	<path d="M13.9,75.3c-4.9,0-8.7,3.8-8.7,8.7s3.8,8.7,8.7,8.7s8.7-3.8,8.7-8.7S18.8,75.3,13.9,75.3z M13.9,87.6
		c-2.1,0-3.7-1.5-3.7-3.7s1.5-3.7,3.7-3.7s3.7,1.5,3.7,3.7S16,87.6,13.9,87.6z"/>
	<path d="M10.3,40.5c-1.4-0.1-2.6,1.1-2.6,2.5V43c0,1.3,1,2.4,2.3,2.4c24.6,1.2,45.1,20.8,46.4,44.4c0.1,1.3,1.1,2.3,2.4,2.3H59
		c1.4,0,2.5-1.2,2.5-2.6C60.1,63.5,37.5,41.8,10.3,40.5z"/>
	<path d="M68.9,32.1C53,16.8,32.3,8,10.3,7.4c-1.4,0-2.6,1.1-2.6,2.4V10c0,1.3,1.1,2.4,2.4,2.4c43.3,1.2,78.3,35.3,79.6,77.4
		c0,1.3,1.1,2.3,2.5,2.3h0.1c1.4,0,2.5-1.2,2.4-2.6C94.1,67.9,85,47.6,68.9,32.1z"/>
	<path d="M10.3,22.4c-1.4,0-2.6,1.1-2.6,2.5v0.1c0,1.3,1,2.4,2.3,2.4c34.5,1.2,62.8,28.5,64.7,62.5c0.1,1.3,1.2,2.3,2.5,2.3l0.1,0
		c1.4,0,2.5-1.2,2.4-2.6C77.8,53.1,47.4,23.7,10.3,22.4z"/>
	<path d="M10.4,57.7c-1.4-0.1-2.6,1-2.6,2.5v0.1c0,1.3,1,2.3,2.3,2.4c15.4,1.1,28.1,12.9,29.4,27.2c0.1,1.3,1.2,2.3,2.4,2.3H42
		c1.4,0,2.6-1.2,2.4-2.6C43,72.8,28.2,59,10.4,57.7z"/>
</g>
</svg>
