<?xml version="1.0" encoding="utf-8"?>
<!-- Generator: Adobe Illustrator 21.0.0, SVG Export Plug-In . SVG Version: 6.00 Build 0)  -->
<svg version="1.1" id="Layer_2" xmlns="http://www.w3.org/2000/svg" xmlns:xlink="http://www.w3.org/1999/xlink" x="0px" y="0px"
	 viewBox="0 0 100 100" style="enable-background:new 0 0 100 100;" xml:space="preserve">
<g>
	<path d="M50.9,1H16.1c-1.1,0-1.9,0.8-1.9,1.9V96c0,1.1,0.8,1.9,1.9,1.9h34.7c1.1,0,1.9-0.8,1.9-1.9V2.9C52.8,1.8,51.9,1,50.9,1z
		 M48,93.1l-29-0.1v-2.4h9.6c1.4,0,2.4-1.1,2.4-2.4c0-1.4-1.1-2.4-2.4-2.4H19v-4.7h3.8c1.4,0,2.4-1.1,2.4-2.4c0-1.4-1.1-2.4-2.4-2.4
		H19v-4.7h3.8c1.4,0,2.4-1.1,2.4-2.4c0-1.4-1.1-2.4-2.4-2.4L19,66.7v-4.7h9.6c1.4,0,2.4-1.1,2.4-2.4c0-1.4-1.1-2.4-2.4-2.4L19,57.1
		v-4.7h3.8c1.4,0,2.4-1.1,2.4-2.4c0-1.4-1.1-2.4-2.4-2.4H19v-4.7h3.8c1.4,0,2.4-1.1,2.4-2.4c0-1.4-1.1-2.4-2.4-2.4H19v-4.7h9.6
		c1.4,0,2.4-1.1,2.4-2.4c0-1.4-1.1-2.4-2.4-2.4H19v-4.7h3.8c1.4,0,2.4-1.1,2.4-2.4c0-1.4-1.1-2.4-2.4-2.4H19v-4.7h3.8
		c1.4,0,2.4-1.1,2.4-2.4c0-1.4-1.1-2.4-2.4-2.4H19V6.2h29L48,93.1z"/>
	<path d="M83.5,1.1L60.3,1c-1.1,0-2,0.9-1.9,1.9l-0.1,67l13.6,30.1l13.5-30.1V3C85.4,1.9,84.6,1.1,83.5,1.1z M77.5,71.7h1.9
		l-7.5,16.6l-7.5-16.6h1.9c1.4,0,2.4-1.1,2.4-2.4c0-1.4-1.1-2.4-2.4-2.4h-3.3V24h17.5l0.1,42.9L77.5,67c-1.4,0-2.4,1.1-2.4,2.4
		C75.1,70.7,76.2,71.8,77.5,71.7z M80.7,19.2l-17.6,0.1l0.1-13.4h17.5V19.2z"/>
</g>
</svg>
