<?xml version="1.0" encoding="utf-8"?>
<!-- Generator: Adobe Illustrator 19.0.0, SVG Export Plug-In . SVG Version: 6.00 Build 0)  -->
<svg version="1.1" id="Layer_2" xmlns="http://www.w3.org/2000/svg" xmlns:xlink="http://www.w3.org/1999/xlink" x="0px" y="0px"
	 width="100px" height="100px" viewBox="0 0 100 100" style="enable-background:new 0 0 100 100;" xml:space="preserve">
<path d="M69.7,1.5L1.1,70.1c-0.8,0.8-0.8,2,0,2.8l25.6,25.6c0.8,0.8,2,0.8,2.8,0l68.6-68.6c0.8-0.8,0.8-2,0-2.8L72.5,1.5
	C71.7,0.7,70.5,0.7,69.7,1.5z M28.1,92.9L6.8,71.5l1.8-1.8l7.1,7.1c1,1,2.6,1,3.5,0h0c1-1,1-2.6,0-3.5l-7.1-7.1l3.5-3.5l2.8,2.8
	c1,1,2.6,1,3.5,0l0,0c1-1,1-2.6,0-3.5l-2.8-2.8l3.5-3.5l2.8,2.8c1,1,2.6,1,3.5,0l0,0c1-1,1-2.6,0-3.5L26.2,52l3.5-3.5l7.1,7.1
	c1,1,2.6,1,3.5,0l0,0c1-1,1-2.6,0-3.5L33.3,45l3.5-3.5l2.8,2.8c1,1,2.6,1,3.5,0l0,0c1-1,1-2.6,0-3.5l-2.8-2.8l3.5-3.5l2.8,2.8
	c1,1,2.6,1,3.5,0l0,0c1-1,1-2.6,0-3.5l-2.8-2.8l3.5-3.5l7.1,7.1c1,1,2.6,1,3.5,0l0,0c1-1,1-2.6,0-3.5l-7.1-7.1l3.5-3.5l2.8,2.8
	c1,1,2.6,1,3.5,0l0,0c1-1,1-2.6,0-3.5l-2.8-2.8l3.5-3.5l2.8,2.8c1,1,2.6,1,3.5,0l0,0c1-1,1-2.6,0-3.5l-2.8-2.8l2.5-2.5l21.4,21.4
	L28.1,92.9z"/>
</svg>
