<?xml version="1.0" encoding="utf-8"?>
<!-- Generator: Adobe Illustrator 21.0.0, SVG Export Plug-In . SVG Version: 6.00 Build 0)  -->
<svg version="1.1" id="Layer_2" xmlns="http://www.w3.org/2000/svg" xmlns:xlink="http://www.w3.org/1999/xlink" x="0px" y="0px"
	 viewBox="0 0 100 100" style="enable-background:new 0 0 100 100;" xml:space="preserve">
<path d="M67.9,1.3H33.2c-1.1,0-1.9,0.8-1.9,1.9v93.1c0,1.1,0.8,1.9,1.9,1.9h34.7c1.1,0,1.9-0.8,1.9-1.9V3.2
	C69.8,2.1,69,1.3,67.9,1.3z M65.1,93.4l-29-0.1v-2.4h9.6c1.4,0,2.4-1.1,2.4-2.4c0-1.4-1.1-2.4-2.4-2.4h-9.6v-4.7h3.8
	c1.4,0,2.4-1.1,2.4-2.4c0-1.4-1.1-2.4-2.4-2.4h-3.8v-4.7h3.8c1.4,0,2.4-1.1,2.4-2.4c0-1.4-1.1-2.4-2.4-2.4L36.1,67v-4.7h9.6
	c1.4,0,2.4-1.1,2.4-2.4c0-1.4-1.1-2.4-2.4-2.4l-9.6-0.1v-4.7h3.8c1.4,0,2.4-1.1,2.4-2.4c0-1.4-1.1-2.4-2.4-2.4h-3.8v-4.7h3.8
	c1.4,0,2.4-1.1,2.4-2.4c0-1.4-1.1-2.4-2.4-2.4h-3.8v-4.7h9.6c1.4,0,2.4-1.1,2.4-2.4c0-1.4-1.1-2.4-2.4-2.4h-9.6v-4.7h3.8
	c1.4,0,2.4-1.1,2.4-2.4c0-1.4-1.1-2.4-2.4-2.4h-3.8v-4.7h3.8c1.4,0,2.4-1.1,2.4-2.4c0-1.4-1.1-2.4-2.4-2.4h-3.8V6.5h29L65.1,93.4z"
	/>
</svg>
