<?xml version="1.0" encoding="utf-8"?>
<!-- Generator: Adobe Illustrator 19.0.0, SVG Export Plug-In . SVG Version: 6.00 Build 0)  -->
<svg version="1.1" id="Layer_1" xmlns="http://www.w3.org/2000/svg" xmlns:xlink="http://www.w3.org/1999/xlink" x="0px" y="0px"
	 width="100px" height="100px" viewBox="-249 151 100 100" style="enable-background:new -249 151 100 100;" xml:space="preserve">
<g>
	<path d="M-161.2,154.4h-59.7c-0.9,0-1.7,0.3-2.4,1l-15.8,14.5l-0.1,0.1c-0.7,0.7-1,1.5-1,2.5V244c0,1.9,1.6,3.5,3.5,3.5h76.5
		c1.4,0,2.5-1.1,2.5-2.5v-87.1C-157.7,156-159.3,154.4-161.2,154.4z M-177.3,159.9v10.5h-31.1v-10.5H-177.3z M-220.2,242.1v-24.7
		h44.8v24.7H-220.2z M-162.7,242.5h-7.7v-27.6c0-1.4-1.1-2.5-2.5-2.5h-49.8c-1.4,0-2.5,1.1-2.5,2.5v27.6h-10v-69.4l14.9-13.7h6.9
		v13.5c0,1.4,1.1,2.5,2.5,2.5h36.1c1.4,0,2.5-1.1,2.5-2.5v-13.5h9.6V242.5z"/>
	<path d="M-209.7,226.1h23.8c1.4,0,2.5-1.1,2.5-2.5l0,0c0-1.4-1.1-2.5-2.5-2.5h-23.8c-1.4,0-2.5,1.1-2.5,2.5l0,0
		C-212.2,225-211.1,226.1-209.7,226.1z"/>
	<path d="M-209.7,233.4h23.8c1.4,0,2.5-1.1,2.5-2.5l0,0c0-1.4-1.1-2.5-2.5-2.5h-23.8c-1.4,0-2.5,1.1-2.5,2.5l0,0
		C-212.2,232.3-211.1,233.4-209.7,233.4z"/>
	<path d="M-209.7,240.1h23.8c1.4,0,2.5-1.1,2.5-2.5l0,0c0-1.4-1.1-2.5-2.5-2.5h-23.8c-1.4,0-2.5,1.1-2.5,2.5l0,0
		C-212.2,239-211.1,240.1-209.7,240.1z"/>
	<path d="M-199,184.8c-6.3,0-11.5,5.2-11.5,11.5c0,6.3,5.2,11.5,11.5,11.5c6.3,0,11.5-5.2,11.5-11.5
		C-187.5,190-192.7,184.8-199,184.8z M-199,202.8c-3.6,0-6.5-2.9-6.5-6.5s2.9-6.5,6.5-6.5s6.5,2.9,6.5,6.5
		C-192.5,199.9-195.4,202.8-199,202.8z"/>
</g>
</svg>
