<?xml version="1.0" encoding="utf-8"?>
<!-- Generator: Adobe Illustrator 19.0.0, SVG Export Plug-In . SVG Version: 6.00 Build 0)  -->
<svg version="1.1" id="Layer_2" xmlns="http://www.w3.org/2000/svg" xmlns:xlink="http://www.w3.org/1999/xlink" x="0px" y="0px"
	 width="100px" height="100px" viewBox="-249 151 100 100" style="enable-background:new -249 151 100 100;" xml:space="preserve">
<g>
	<path d="M-159.9,239.6v-0.8l5.5-1.3l-14.9-10.7l2.2,18.2l4.2-4.5l3.3,5.5c0.4,0.7,1.3,0.9,2.1,0.5c0.7-0.4,0.9-1.3,0.5-2.1
		L-159.9,239.6z"/>
	<rect x="-221.3" y="235.2" width="5.6" height="5"/>
	<rect x="-199" y="235.2" width="5.6" height="5"/>
	<rect x="-210.1" y="235.2" width="5.6" height="5"/>
	<rect x="-232.5" y="235.2" width="5.6" height="5"/>
	<rect x="-176.6" y="235.2" width="5.6" height="5"/>
	<rect x="-187.8" y="235.2" width="5.6" height="5"/>
	<polygon points="-238.6,234.7 -243.6,234.7 -243.6,240.2 -238.1,240.2 -238.1,235.2 -238.6,235.2 	"/>
	<rect x="-243.6" y="223.3" width="5" height="5.7"/>
	<rect x="-243.6" y="166.4" width="5" height="5.7"/>
	<rect x="-243.6" y="211.9" width="5" height="5.7"/>
	<rect x="-243.6" y="200.5" width="5" height="5.7"/>
	<rect x="-243.6" y="177.8" width="5" height="5.7"/>
	<rect x="-243.6" y="189.2" width="5" height="5.7"/>
	<polygon points="-243.6,160.8 -238.6,160.8 -238.6,160.3 -238.1,160.3 -238.1,155.3 -243.6,155.3 	"/>
	<rect x="-187.8" y="155.3" width="5.6" height="5"/>
	<rect x="-199" y="155.3" width="5.6" height="5"/>
	<rect x="-176.6" y="155.3" width="5.6" height="5"/>
	<rect x="-221.3" y="155.3" width="5.6" height="5"/>
	<rect x="-232.5" y="155.3" width="5.6" height="5"/>
	<rect x="-210.1" y="155.3" width="5.6" height="5"/>
	<polygon points="-164.9,160.8 -159.9,160.8 -159.9,155.3 -165.4,155.3 -165.4,160.3 -164.9,160.3 	"/>
	<rect x="-164.9" y="223.3" width="5" height="5.7"/>
	<rect x="-164.9" y="200.5" width="5" height="5.7"/>
	<rect x="-164.9" y="211.9" width="5" height="5.7"/>
	<rect x="-164.9" y="166.4" width="5" height="5.7"/>
	<rect x="-164.9" y="177.8" width="5" height="5.7"/>
	<rect x="-164.9" y="189.2" width="5" height="5.7"/>
</g>
</svg>
