<?xml version="1.0" encoding="utf-8"?>
<!-- Generator: Adobe Illustrator 19.0.0, SVG Export Plug-In . SVG Version: 6.00 Build 0)  -->
<svg version="1.1" id="Layer_1" xmlns="http://www.w3.org/2000/svg" xmlns:xlink="http://www.w3.org/1999/xlink" x="0px" y="0px"
	 width="100px" height="100px" viewBox="0 0 100 100" style="enable-background:new 0 0 100 100;" xml:space="preserve">
<g>
	<path d="M96.7,62.9c-1.4,0-2.5,1.1-2.5,2.5v18.5H5.8V65.4c0-1.4-1.1-2.5-2.5-2.5S0.8,64,0.8,65.4v21.5c0,1.1,0.9,2,2,2h94.3
		c1.1,0,2-0.9,2-2V65.4C99.2,64,98,62.9,96.7,62.9z"/>
	<path d="M16.1,39.3c1,1,2.6,1,3.5,0c1-1.1,1-2.7,0-3.7L11.9,28h23.6c6.6,0,12,5.4,12,12v32.2c0,1.4,1.1,2.5,2.5,2.5
		c1.4,0,2.5-1.1,2.5-2.5V38.7c0-8.7-7-15.7-15.7-15.7H11.9l7.7-7.6c1-1,1-2.6,0-3.5c-1-1-2.6-1-3.5,0L3.9,24.2c-0.8,0.8-0.8,2,0,2.8
		L16.1,39.3z"/>
</g>
</svg>
