<?xml version="1.0" encoding="utf-8"?>
<!-- Generator: Adobe Illustrator 19.0.0, SVG Export Plug-In . SVG Version: 6.00 Build 0)  -->
<svg version="1.1" id="Layer_2" xmlns="http://www.w3.org/2000/svg" xmlns:xlink="http://www.w3.org/1999/xlink" x="0px" y="0px"
	 width="100px" height="100px" viewBox="-249 151 100 100" style="enable-background:new -249 151 100 100;" xml:space="preserve">
<g>
	<path d="M-248.2,216.4v21.5c0,1.1,0.9,2,2,2l94.3,0c1.1,0,2-0.9,2-2v-21.5c0-1.4-1.1-2.5-2.5-2.5c-1.4,0-2.5,1.1-2.5,2.5v18.5
		l-88.4,0v-18.5c0-1.4-1.1-2.5-2.5-2.5C-247.1,213.9-248.3,215-248.2,216.4z"/>
	<path d="M-153,178c0.8-0.8,0.8-2,0-2.8l-12.2-12.3c-0.9-1-2.5-1-3.5,0c-1,0.9-1,2.5,0,3.5l7.7,7.6h-24.9c-8.7,0-15.7,7-15.7,15.7
		v33.5c0,1.4,1.1,2.5,2.5,2.5c1.4,0,2.5-1.1,2.5-2.5V191c0-6.6,5.4-12,12-12h23.6l-7.7,7.6c-1,1-1,2.6,0,3.7c0.9,1,2.5,1,3.5,0
		L-153,178z"/>
</g>
</svg>
