<?xml version="1.0" encoding="utf-8"?>
<!-- Generator: Adobe Illustrator 19.0.0, SVG Export Plug-In . SVG Version: 6.00 Build 0)  -->
<svg version="1.1" id="Layer_1" xmlns="http://www.w3.org/2000/svg" xmlns:xlink="http://www.w3.org/1999/xlink" x="0px" y="0px"
	 width="100px" height="100px" viewBox="-256 379.9 100 100" style="enable-background:new -256 379.9 100 100;"
	 xml:space="preserve">
<g>
	<path d="M-164.3,426.8h-67.6l7.7-7.6c1-0.9,1-2.5,0-3.5c-0.9-1-2.5-1-3.5,0l-12.9,13c-0.4,0.4-0.4,1,0,1.4l12.9,13
		c0.9,1,2.5,1,3.5,0c1-0.9,1-2.5,0-3.5l-7.7-7.6h67.6c1.4,0,2.5-1.1,2.5-2.7C-161.8,427.9-162.8,426.8-164.3,426.8z"/>
	<path d="M-248.3,477L-248.3,477c1.4,0,2.5-1.1,2.5-2.5v-90.2c0-1.4-1.1-2.5-2.5-2.5l0,0c-1.4,0-2.5,1.1-2.5,2.5v90.2
		C-250.8,475.9-249.6,477-248.3,477z"/>
</g>
</svg>
