<?xml version="1.0" encoding="utf-8"?>
<!-- Generator: Adobe Illustrator 19.0.0, SVG Export Plug-In . SVG Version: 6.00 Build 0)  -->
<svg version="1.1" id="Layer_2" xmlns="http://www.w3.org/2000/svg" xmlns:xlink="http://www.w3.org/1999/xlink" x="0px" y="0px"
	 width="100px" height="100px" viewBox="0 0 100 100" style="enable-background:new 0 0 100 100;" xml:space="preserve">
<g>
	<path d="M58.1,50c-0.8-0.7-1.7-1.3-2.8-1.9c-1.1-0.6-2.4-1.1-3.9-1.5c-1.8-0.5-3.1-1.1-4-1.7c-0.9-0.6-1.4-1.4-1.4-2.3
		c0-0.4,0.1-0.8,0.3-1.2c0.2-0.4,0.4-0.7,0.8-1c0.4-0.3,0.8-0.5,1.3-0.7s1.2-0.2,1.9-0.2c0.8,0,1.4,0.1,2,0.3c0.6,0.2,1,0.5,1.4,0.8
		c0.4,0.3,0.7,0.8,0.8,1.3c0.3,0.9,1.1,1.6,2.1,1.6h1.1c1.6,0,2.6-1.6,2.1-3c0-0.1-0.1-0.2-0.1-0.3c-0.5-1-1.1-1.9-2-2.7
		c-0.9-0.7-1.9-1.3-3.2-1.7c-1.2-0.4-2.6-0.6-4.1-0.6s-2.8,0.2-4,0.6c-1.2,0.4-2.3,0.9-3.2,1.5c-0.9,0.7-1.6,1.5-2.1,2.4
		c-0.5,0.9-0.7,2-0.7,3.1c0,1.2,0.2,2.2,0.7,3.1c0.5,0.9,1.1,1.7,2,2.3c0.8,0.7,1.8,1.3,2.9,1.8s2.3,0.9,3.5,1.3
		c1.1,0.3,2,0.7,2.7,1s1.2,0.6,1.6,1c0.4,0.3,0.7,0.7,0.8,1.1c0.1,0.4,0.2,0.8,0.2,1.3c0,0.4-0.1,0.8-0.3,1.2
		c-0.2,0.4-0.4,0.7-0.8,1c-0.4,0.3-0.8,0.5-1.3,0.6c-0.5,0.2-1.2,0.2-1.9,0.2c-0.8,0-1.5-0.1-2.2-0.2c-0.7-0.2-1.2-0.4-1.7-0.8
		c-0.5-0.4-0.8-0.8-1.1-1.4c-0.1-0.1-0.1-0.3-0.2-0.5c-0.3-0.9-1.1-1.6-2.1-1.6h-1.3c-1.4,0-2.5,1.4-2.1,2.8
		c0.3,0.8,0.7,1.6,1.2,2.3s1.1,1.2,1.8,1.7s1.5,0.9,2.3,1.2c0.8,0.3,1.7,0.6,2.6,0.7c0.9,0.2,1.8,0.2,2.7,0.2c1.5,0,2.8-0.2,4.1-0.5
		c1.2-0.3,2.3-0.8,3.1-1.5c0.9-0.6,1.5-1.4,2-2.4s0.7-2,0.7-3.2c0.1-1.2-0.1-2.3-0.5-3.1C59.4,51.5,58.9,50.7,58.1,50z"/>
	<path d="M30.3,23.4L30.3,23.4c-1-1-2.6-1-3.5,0L1.6,48.6c-0.8,0.8-0.8,2,0,2.8l25.2,25.2c1,1,2.6,1,3.5,0s1-2.6,0-3.5L7.2,50
		l23.1-23.1C31.3,26,31.3,24.4,30.3,23.4z"/>
	<path d="M98.4,48.6L73.2,23.4c-1-1-2.6-1-3.5,0s-1,2.6,0,3.5L92.8,50L69.7,73.1c-1,1-1,2.6,0,3.5s2.6,1,3.5,0l25.2-25.2
		C99.2,50.6,99.2,49.4,98.4,48.6z"/>
</g>
</svg>
