<?xml version="1.0" encoding="utf-8"?>
<!-- Generator: Adobe Illustrator 19.0.0, SVG Export Plug-In . SVG Version: 6.00 Build 0)  -->
<svg version="1.1" id="Layer_2" xmlns="http://www.w3.org/2000/svg" xmlns:xlink="http://www.w3.org/1999/xlink" x="0px" y="0px"
	 width="100px" height="100px" viewBox="-249 151 100 100" style="enable-background:new -249 151 100 100;" xml:space="preserve">
<g>
	<path d="M-188.8,165.7c0,0.7-0.1,1.3-0.3,1.9c-0.4,1.1-0.1,2.2,0.8,2.9l0,0c1.4,1.1,3.3,0.5,3.9-1.2c0.4-1.1,0.6-2.3,0.6-3.6
		c0-1.2-0.2-2.5-0.7-3.7c-0.6-1.5-2.5-2.1-3.8-1.1c-0.9,0.7-1.2,1.9-0.9,3C-188.9,164.5-188.8,165.1-188.8,165.7z"/>
	<path d="M-169.4,155.5c-0.8-1.3-2.6-1.6-3.8-0.6l0,0c-0.9,0.8-1.1,2.2-0.5,3.2c1.4,2.2,2.1,4.9,2.1,7.6c0,2.7-0.8,5.4-2.2,7.6
		c-0.6,1-0.4,2.4,0.5,3.2l0,0c1.2,1,2.9,0.7,3.8-0.6c1.9-3,2.9-6.6,2.9-10.2S-167.5,158.5-169.4,155.5z"/>
	<path d="M-181.2,157.9L-181.2,157.9c-0.9,0.8-1.2,2-0.6,3.1c0.7,1.4,1.1,3,1.1,4.7c0,1.6-0.4,3.2-1.2,4.7c-0.6,1.1-0.3,2.4,0.7,3.1
		l0,0c1.2,0.9,3,0.6,3.7-0.8c1.1-2.2,1.8-4.6,1.8-7.1c0-2.5-0.6-5-1.7-7.1C-178.2,157.2-180,156.9-181.2,157.9z"/>
	<path d="M-192.4,175h-4.2v-2.7c2.6-1,4.4-3.5,4.4-6.5c0-3.7-3.1-6.8-6.8-6.9c-3.9,0-7,3-7,6.9c0,2.9,1.8,5.4,4.4,6.4v2.7h-4.2
		c-1.3,0-2.4,1-2.5,2.3l-6.7,67.7c-0.1,1.5,1,2.7,2.5,2.7h26.9c1.5,0,2.6-1.3,2.5-2.7l-6.7-67.7C-190,176-191.1,175-192.4,175z
		 M-199.1,164c1.1,0,1.9,0.8,1.9,1.9s-0.8,1.9-1.9,1.9c-1.1,0-1.9-1-1.9-1.9C-201,164.8-200.2,164-199.1,164z M-203.6,180h8.9
		l1.5,15.2l-11.5-4.8L-203.6,180z M-205.1,195.6l10.3,4.4l-11.9,10.9L-205.1,195.6z M-209.8,242.7l1.9-19.5l17,19.5H-209.8z
		 M-206.3,217.4l14.1-13l3.3,32.9L-206.3,217.4z"/>
	<path d="M-209.7,170.4L-209.7,170.4c0.9-0.7,1.1-1.8,0.8-2.9c-0.2-0.6-0.3-1.2-0.3-1.9c0-0.6,0.1-1.2,0.3-1.8
		c0.4-1.1,0.1-2.3-0.9-3l0,0c-1.3-1-3.2-0.4-3.8,1.1c-0.4,1.2-0.7,2.4-0.7,3.7c0,1.3,0.2,2.5,0.6,3.6
		C-213,170.9-211,171.5-209.7,170.4z"/>
	<path d="M-226.5,165.7c0-2.7,0.8-5.3,2.1-7.6c0.6-1,0.4-2.4-0.5-3.2l0,0c-1.2-1-2.9-0.7-3.8,0.6c-1.9,3-2.9,6.6-2.9,10.2
		s1,7.2,2.9,10.2c0.8,1.3,2.6,1.6,3.8,0.6l0,0c0.9-0.8,1.2-2.1,0.5-3.2C-225.7,171.1-226.5,168.4-226.5,165.7z"/>
	<path d="M-217.3,165.7c0-1.7,0.4-3.3,1.1-4.7c0.5-1.1,0.3-2.4-0.6-3.1l0,0c-1.2-1-3-0.7-3.8,0.7c-1.1,2.2-1.7,4.6-1.7,7.1
		c0,2.4,0.6,4.9,1.8,7.1c0.7,1.4,2.5,1.7,3.7,0.8l0,0c1-0.7,1.2-2.1,0.7-3.1C-216.9,168.9-217.3,167.3-217.3,165.7z"/>
</g>
</svg>
