<?xml version="1.0" encoding="utf-8"?>
<!-- Generator: Adobe Illustrator 19.0.0, SVG Export Plug-In . SVG Version: 6.00 Build 0)  -->
<svg version="1.1" id="Layer_2" xmlns="http://www.w3.org/2000/svg" xmlns:xlink="http://www.w3.org/1999/xlink" x="0px" y="0px"
	 width="100px" height="100px" viewBox="-249 151 100 100" style="enable-background:new -249 151 100 100;" xml:space="preserve">
<path d="M-151.9,234.6l-29-28.9l-44.3-44.3c-1.4-1.4-3.8-1.4-5.2,0l-15.7,15.7c-1.5,1.5-1.5,3.7,0,5.2l51.7,51.7
	c1.5,1.5,3.7,1.5,5.2,0l1.3-1.3l7.9,7.9c0.7,0.7,1.7,1.1,2.7,1.1c0,0,0,0,0,0l22.8-0.8c1.5,0,2.8-0.9,3.4-2.3
	C-150.5,237.2-150.8,235.6-151.9,234.6z M-241.6,179.8l13.9-13.9l4.2,4.2l-13.9,13.9L-241.6,179.8z M-191.8,229.6l-42-42l5.2-5.2
	l26.1,26.1c1,1,2.6,1,3.5,0c1-1,1-2.6,0-3.5l-26.1-26.1l5.1-5.1l42,42L-191.8,229.6z M-176.9,236.7l-7.5-7.5l10-10l16.8,16.8
	L-176.9,236.7z"/>
</svg>
