<?xml version="1.0" encoding="utf-8"?>
<!-- Generator: Adobe Illustrator 19.0.0, SVG Export Plug-In . SVG Version: 6.00 Build 0)  -->
<svg version="1.1" id="Layer_1" xmlns="http://www.w3.org/2000/svg" xmlns:xlink="http://www.w3.org/1999/xlink" x="0px" y="0px"
	 width="100px" height="100px" viewBox="0 0 100 100" style="enable-background:new 0 0 100 100;" xml:space="preserve">
<style type="text/css">
	.st0{display:none;fill:#FFFFFF;stroke:#231F20;stroke-miterlimit:10;}
</style>
<rect id="XMLID_1_" x="23.5" y="21" class="st0" width="60" height="60"/>
<g>
	<path d="M80.4,39.2c-0.6-0.2-0.9-1.1-1.5-2.4L68.2,7.5h-0.9L59,31c-1.1,3-2,5-2.8,5.9c-1.3,1.7-3.1,2.6-5.4,2.6v0.6h12.7v-0.6
		c-1.7,0-3-0.2-3.9-0.7c-0.9-0.6-1.5-1.3-1.5-2.6c0-0.7,0.2-1.7,0.6-2.8l1.5-4.4h9.6l3,8.7l0.2,0.6c0,0.6-0.6,0.9-1.5,1.1
		s-2.6,0.2-5.2,0.2v0.6h18.5v-0.6C82.5,39.5,81,39.3,80.4,39.2z M60.5,28.5l4.6-12.7l4.6,12.7H60.5z"/>
	<path d="M70.5,91.8h-6.6l14.4-23.1c0.2-0.6,0.6-0.9,1.1-0.9V67h-6.6h-5.5h-5.7c-1.3,0-2.6,0-3.9,0V76h1.5c0-3.7,2.8-8.1,7.9-8.1h5
		l-14.6,23c-0.4,0.6-0.6,0.9-1.1,0.9v0.7h13.7h5.4c1.3,0,2.6,0,4.1,0H80v-8.9h-1.5C78.4,87.3,75.6,91.8,70.5,91.8z"/>
	<path d="M39.6,76.2L32,83.8V10.3c0-1.4-1.1-2.5-2.5-2.5S27,8.8,27,10.3v73.6l-7.6-7.7c-1-1-2.6-1-3.5,0c-1,1-1,2.6,0,3.5l12.3,12.2
		c0.8,0.8,2,0.8,2.8,0l12.3-12.2c1-1,1-2.6,0-3.5C42.2,75.2,40.6,75.2,39.6,76.2z"/>
</g>
</svg>
