<?xml version="1.0" encoding="utf-8"?>
<!-- Generator: Adobe Illustrator 19.0.0, SVG Export Plug-In . SVG Version: 6.00 Build 0)  -->
<svg version="1.1" id="Layer_2" xmlns="http://www.w3.org/2000/svg" xmlns:xlink="http://www.w3.org/1999/xlink" x="0px" y="0px"
	 width="100px" height="100px" viewBox="0 0 100 100" style="enable-background:new 0 0 100 100;" xml:space="preserve">
<g>
	<path d="M35.8,75.9l-7.6,7.7V10c0-1.4-1.1-2.5-2.5-2.5s-2.5,1.1-2.5,2.5v73.6l-7.6-7.7c-1-1-2.6-1-3.5,0c-1,1-1,2.6,0,3.5
		l12.3,12.2c0.8,0.8,2,0.8,2.8,0l12.3-12.2c1-1,1-2.6,0-3.5C38.4,74.9,36.8,74.9,35.8,75.9z"/>
	<path d="M53.3,14.5h3.6c1.4,0,2.5-1.1,2.5-2.5s-1.1-2.5-2.5-2.5h-3.6c-1.4,0-2.5,1.1-2.5,2.5S51.9,14.5,53.3,14.5z"/>
	<path d="M53.3,39.4h13.6c1.4,0,2.5-1.1,2.5-2.5c0-1.4-1.1-2.5-2.5-2.5H53.3c-1.4,0-2.5,1.1-2.5,2.5C50.8,38.3,51.9,39.4,53.3,39.4z
		"/>
	<path d="M53.3,64.3h23.6c1.4,0,2.5-1.1,2.5-2.5c0-1.4-1.1-2.5-2.5-2.5H53.3c-1.4,0-2.5,1.1-2.5,2.5C50.8,63.2,51.9,64.3,53.3,64.3z
		"/>
	<path d="M86.8,84.2H53.3c-1.4,0-2.5,1.1-2.5,2.5c0,1.4,1.1,2.5,2.5,2.5h33.6c1.4,0,2.5-1.1,2.5-2.5C89.3,85.3,88.2,84.2,86.8,84.2z
		"/>
</g>
</svg>
