<?xml version="1.0" encoding="utf-8"?>
<!-- Generator: Adobe Illustrator 19.0.0, SVG Export Plug-In . SVG Version: 6.00 Build 0)  -->
<svg version="1.1" id="Layer_1" xmlns="http://www.w3.org/2000/svg" xmlns:xlink="http://www.w3.org/1999/xlink" x="0px" y="0px"
	 width="100px" height="100px" viewBox="-74 0 100 100" style="enable-background:new -74 0 100 100;" xml:space="preserve">
<g>
	<path d="M-67.7,52.5L-67.7,52.5c-3.3,0.3-5.9,3.2-5.9,6.7v4.5c0,3.9,2.5,6.9,5.9,7.2c0.2,0,0.4,0,0.6,0c1.6,0,3.2-0.6,4.4-1.7
		c1.4-1.2,2.1-3,2.1-4.8V59c0-1.8-0.8-3.6-2.1-4.8C-64,52.9-65.9,52.3-67.7,52.5z M-65.6,64.4c0,0.6-0.3,0.9-0.5,1.1
		c-0.2,0.2-0.6,0.4-1.1,0.4c-0.9-0.1-1.3-1.2-1.3-2.2v-4.5c0-0.9,0.6-1.6,1.3-1.7h0c0.1,0,0.1,0,0.1,0c0.5,0,0.8,0.2,1,0.4
		c0.2,0.2,0.5,0.5,0.5,1.1V64.4z"/>
	<path d="M-53.6,46.9c-3.6,0-6.5,2.9-6.5,6.5v10.9c0,3.6,2.9,6.5,6.5,6.5s6.5-2.9,6.5-6.5V53.4C-47.1,49.8-50,46.9-53.6,46.9z
		 M-52.1,64.3c0,0.8-0.7,1.5-1.5,1.5s-1.5-0.7-1.5-1.5V53.4c0-0.8,0.7-1.5,1.5-1.5s1.5,0.7,1.5,1.5V64.3z"/>
	<path d="M-39.5,41.4c-3.6,0-6.5,2.9-6.5,6.5v16.5c0,3.6,2.9,6.5,6.5,6.5S-33,68-33,64.4V47.9C-33,44.3-35.9,41.4-39.5,41.4z
		 M-38,64.4c0,0.8-0.7,1.5-1.5,1.5s-1.5-0.7-1.5-1.5V47.9c0-0.8,0.7-1.5,1.5-1.5s1.5,0.7,1.5,1.5V64.4z"/>
	<path d="M-25.4,36c-3.6,0-6.5,3.2-6.5,7.2v20.6c0,4,2.9,7.2,6.5,7.2s6.5-3.2,6.5-7.2V43.1C-18.9,39.2-21.8,36-25.4,36z M-23.9,63.7
		c0,1.3-0.8,2.2-1.5,2.2s-1.5-0.9-1.5-2.2V43.1c0-1.3,0.8-2.2,1.5-2.2s1.5,0.9,1.5,2.2V63.7z"/>
	<path d="M12.2,44.2c-0.1,0-0.3,0-0.4,0C8.6,35.2,0,29.1-9.7,29.1c-1.8,0-3.3,0.1-4.9,0.4l-3,0.6v40.7h29.9
		c7.5,0,13.3-5.9,13.3-13.3C25.7,50,19.7,44.2,12.2,44.2z M12.3,65.8h-24.9V34.3c0.9-0.1,1.8-0.2,2.9-0.2c8.2,0,15.3,5.5,17.3,13.4
		l0.6,2.2l2.2-0.3c0.7-0.1,1.2-0.2,1.8-0.2c4.8,0,8.4,3.5,8.4,8.2C20.7,62.1,17,65.8,12.3,65.8z"/>
</g>
</svg>
