<?xml version="1.0" encoding="utf-8"?>
<!-- Generator: Adobe Illustrator 19.0.0, SVG Export Plug-In . SVG Version: 6.00 Build 0)  -->
<svg version="1.1" id="Layer_2" xmlns="http://www.w3.org/2000/svg" xmlns:xlink="http://www.w3.org/1999/xlink" x="0px" y="0px"
	 width="100px" height="100px" viewBox="-249 151 100 100" style="enable-background:new -249 151 100 100;" xml:space="preserve">
<g>
	<path d="M-187.3,243.2l-22.2-60.4h-1.9l-17.2,48.4c-2.3,6.2-4.2,10.4-5.8,12.2c-2.7,3.5-6.5,5.4-11,5.4v1.2h26.4v-1.2
		c-3.5,0-6.2-0.4-8.1-1.5c-1.9-1.2-3.1-2.7-3.1-5.4c0-1.5,0.4-3.5,1.2-5.8l3.1-9.2h19.9l6.2,17.9l0.4,1.2c0,1.2-1.2,1.9-3.1,2.3
		c-1.9,0.4-5.4,0.4-10.6,0.4v1.2h38.2v-1.2c-5,0-8.1-0.4-9.2-0.8C-185.4,247.8-186.2,245.9-187.3,243.2z M-225.6,226l9.6-26.4
		l9.6,26.4H-225.6z"/>
	<path d="M-153.4,152.9L-153.4,152.9c-1-1-2.6-1-3.5,0l-35,35.1l-9.7-9.7c-1-1-2.6-1-3.5,0c-1,1-1,2.6,0,3.5l11.4,11.5
		c1,1,2.6,1,3.5,0l36.8-36.9C-152.4,155.4-152.4,153.8-153.4,152.9z"/>
</g>
</svg>
