<?xml version="1.0" encoding="utf-8"?>
<!-- Generator: Adobe Illustrator 19.0.0, SVG Export Plug-In . SVG Version: 6.00 Build 0)  -->
<svg version="1.1" id="Layer_1" xmlns="http://www.w3.org/2000/svg" xmlns:xlink="http://www.w3.org/1999/xlink" x="0px" y="0px"
	 width="100px" height="100px" viewBox="-74 0 100 100" style="enable-background:new -74 0 100 100;" xml:space="preserve">
<g>
	<path d="M-6.2,68.1c-12.1-5.9-26.1-7.3-39.2-3.9c-1.4,0.4-2.2,1.8-1.8,3.2l0,0c0.4,1.3,1.7,2,3,1.7c11.9-3.1,24.7-1.8,35.8,3.6
		c1.2,0.6,2.6,0.1,3.3-1l0,0C-4.4,70.3-4.9,68.7-6.2,68.1z"/>
	<path d="M-0.9,52.3c-9.4-4.4-19.8-6.8-30.3-6.8c-5.4,0-10.8,0.6-16.2,1.9c-1.4,0.3-2.2,1.7-1.9,3.1l0,0c0.4,1.3,1.7,2.1,3,1.8
		c4.9-1.2,10.1-1.8,15.1-1.8c9.7,0,19.4,2.2,28.2,6.3c1.2,0.6,2.6,0.1,3.3-1.1C1,54.5,0.4,52.9-0.9,52.3z"/>
	<path d="M4.8,35.5c-11.3-5.3-23.4-7.9-36-7.9c-6,0-12.2,0.7-18.3,1.9c-1.4,0.3-2.3,1.7-1.9,3l0,0c0.3,1.3,1.6,2.1,3,1.9
		c5.8-1.2,11.6-1.8,17.3-1.8c11.9,0,23.3,2.5,33.9,7.5C4,40.7,5.4,40.2,6,39l0,0C6.7,37.7,6.1,36.2,4.8,35.5z"/>
	<path d="M-24.1,1.1C-51,1.1-72.9,23-72.9,49.9c0,27,21.9,48.9,48.8,48.9c27,0,48.9-22,48.9-48.9C24.9,23,2.9,1.1-24.1,1.1z
		 M-24.1,93.9c-24.2,0-43.8-19.7-43.8-43.9c0-24.2,19.7-43.8,43.8-43.8c24.2,0,43.9,19.7,43.9,43.8C19.9,74.2,0.2,93.9-24.1,93.9z"
		/>
</g>
</svg>
