<?xml version="1.0" encoding="utf-8"?>
<!-- Generator: Adobe Illustrator 19.0.0, SVG Export Plug-In . SVG Version: 6.00 Build 0)  -->
<svg version="1.1" id="Layer_2" xmlns="http://www.w3.org/2000/svg" xmlns:xlink="http://www.w3.org/1999/xlink" x="0px" y="0px"
	 width="100px" height="100px" viewBox="-249 151 100 100" style="enable-background:new -249 151 100 100;" xml:space="preserve">
<g>
	<path d="M-187.7,178.1h-1.5v-12.2c0-2.1-1.7-3.8-3.8-3.8h-7v-3.3c0-2.1-1.7-3.8-3.8-3.8h-12.5c-2.1,0-3.8,1.7-3.8,3.8v3.3h-7
		c-2.1,0-3.8,1.7-3.8,3.8v12.2h-1.6c-2.1,0-3.8,1.7-3.8,3.8v62.9c0,2.1,1.7,3.8,3.8,3.8h44.8c2.1,0,3.8-1.7,3.8-3.8v-62.9
		C-183.8,179.8-185.6,178.1-187.7,178.1z M-215,160h10.1v2.1H-215V160z M-225.9,167.1h8.3h2.5h10.1h2.5h8.3v11h-31.7V167.1z
		 M-188.8,243.6h-42.4v-60.5h2.9h2.5h31.7h2.5h2.8V243.6z"/>
	<path d="M-164.2,165.8h-13.2c-1.4,0-2.5,1.1-2.5,2.5v0c0,1.4,1.1,2.5,2.5,2.5h13.2c1.4,0,2.5-1.1,2.5-2.5v0
		C-161.8,166.9-162.9,165.8-164.2,165.8z"/>
	<path d="M-176.7,163.2l12.4-4.5c1.3-0.5,2-1.9,1.5-3.2c-0.5-1.3-1.9-2-3.2-1.5l-12.4,4.5c-1.3,0.5-2,1.9-1.5,3.2
		C-179.5,163-178,163.6-176.7,163.2z"/>
	<path d="M-164.3,177.7l-12.4-4.5c-1.3-0.5-2.7,0.2-3.2,1.5c-0.5,1.3,0.2,2.7,1.5,3.2l12.4,4.5c1.3,0.5,2.7-0.2,3.2-1.5
		C-162.4,179.6-163,178.1-164.3,177.7z"/>
</g>
</svg>
