<?xml version="1.0" encoding="utf-8"?>
<!-- Generator: Adobe Illustrator 19.0.0, SVG Export Plug-In . SVG Version: 6.00 Build 0)  -->
<svg version="1.1" id="Layer_2" xmlns="http://www.w3.org/2000/svg" xmlns:xlink="http://www.w3.org/1999/xlink" x="0px" y="0px"
	 width="100px" height="100px" viewBox="-249 151 100 100" style="enable-background:new -249 151 100 100;" xml:space="preserve">
<path d="M-153.3,222.3c-0.1-6.6-5.5-11.9-12-11.9h-24.5l2.1-48.5l0-0.1c0-4.8-5.3-8.4-12.4-8.4c-7.1,0-12.4,3.7-12.4,8.6l1.9,48.4
	h-22.1c-6.6,0-12,5.4-12,12v11.5c0,2.8,2.3,5,5,5h1.6v4.8c0,2.8,2.3,5,5,5h68.1c2.8,0,5-2.3,5-5v-4.8h1.6c2.8,0,5-2.3,5-5
	L-153.3,222.3z M-200.1,158.3c4.5,0,7.3,2,7.4,3.4l-2.1,48.6h-10.8l-1.9-48.5C-207.5,160.2-204.3,158.3-200.1,158.3z M-164.9,243.7
	l-68.2,0v-4.8h68.2L-164.9,243.7z M-158.3,233.9l-81.3,0v-11.5c0-3.8,3.2-7,7-7h67.5c3.8,0,6.9,3.1,7,7L-158.3,233.9z"/>
</svg>
