<?xml version="1.0" encoding="utf-8"?>
<!-- Generator: Adobe Illustrator 22.0.0, SVG Export Plug-In . SVG Version: 6.00 Build 0)  -->
<svg version="1.1" id="Layer_1" xmlns="http://www.w3.org/2000/svg" xmlns:xlink="http://www.w3.org/1999/xlink" x="0px" y="0px"
	 viewBox="0 0 100 100" style="enable-background:new 0 0 100 100;" xml:space="preserve">
<g>
	<path d="M20,92.1l5-29.3L3.7,42c-1.5-1.4-0.7-4,1.4-4.3l29.4-4.3L47.7,6.7c0.9-1.9,3.6-1.9,4.5,0l13.2,26.7l29.4,4.3
		c2.1,0.3,2.9,2.8,1.4,4.3L74.9,62.8l5,29.3c0.4,2-1.8,3.6-3.6,2.6L50,80.9L23.7,94.7C21.8,95.7,19.7,94.1,20,92.1z M50,75.2
		l24.2,12.7L69.6,61l19.6-19.1l-27-3.9L50.1,13.5L38,38l-27,3.9L30.6,61L26,87.9L50,75.2z"/>
</g>
</svg>
