<?xml version="1.0" encoding="utf-8"?>
<!-- Generator: Adobe Illustrator 19.0.0, SVG Export Plug-In . SVG Version: 6.00 Build 0)  -->
<svg version="1.1" id="Layer_1" xmlns="http://www.w3.org/2000/svg" xmlns:xlink="http://www.w3.org/1999/xlink" x="0px" y="0px"
	 width="100px" height="100px" viewBox="-249 151 100 100" style="enable-background:new -249 151 100 100;" xml:space="preserve">
<g>
	<rect x="-196.9" y="166.4" transform="matrix(-0.8968 0.4425 -0.4425 -0.8968 -294.0678 406.3557)" width="5" height="4.9"/>
	<rect x="-192.6" y="175.1" transform="matrix(0.4426 0.8967 -0.8967 0.4426 53.2947 269.5003)" width="4.9" height="5"/>
	<polygon points="-187.2,189.1 -182.9,189.8 -182.2,184.8 -183.9,184.6 -184.6,183.1 -189.1,185.3 	"/>
	<rect x="-168.1" y="187.2" transform="matrix(0.9896 0.1438 -0.1438 0.9896 25.5576 25.7933)" width="4.9" height="5"/>
	<rect x="-177.8" y="185.8" transform="matrix(0.9896 0.1437 -0.1437 0.9896 25.2512 27.16)" width="4.9" height="5"/>
	<path d="M-158.1,188.3l-0.3,2.3l-1,0.9l0.7,0.7l-0.1,1l1.3,0.2l1.6,1.7l2.1-2.1c1.5-1.4,0.7-4-1.4-4.3L-158.1,188.3z"/>
	<rect x="-165.4" y="196" transform="matrix(-0.698 -0.7161 0.7161 -0.698 -418.6738 220.2814)" width="5" height="4.9"/>
	<rect x="-172.4" y="202.8" transform="matrix(-0.6981 -0.716 0.716 -0.6981 -435.3985 226.873)" width="5" height="4.9"/>
	<polygon points="-174.3,215 -174.6,213.3 -173.4,212.1 -176.8,208.5 -179.9,211.6 -179.2,215.8 	"/>
	<rect x="-178" y="220.2" transform="matrix(0.9856 -0.1691 0.1691 0.9856 -40.1808 -26.4792)" width="5" height="4.9"/>
	<rect x="-176.3" y="229.7" transform="matrix(0.1691 0.9856 -0.9856 0.1691 84.3992 364.3024)" width="4.9" height="5"/>
	<path d="M-172.4,239.4l-1.2-0.6l-0.5,0.9l-1,0.2l0.2,1.3l-1.1,2l2.7,1.4c1.8,1,4-0.6,3.6-2.6l-0.5-3L-172.4,239.4z"/>
	<rect x="-192.3" y="230.5" transform="matrix(-0.8851 -0.4654 0.4654 -0.8851 -466.3826 350.9283)" width="4.9" height="5"/>
	<rect x="-183.7" y="235.1" transform="matrix(-0.8851 -0.4654 0.4654 -0.8851 -452.2255 363.4956)" width="4.9" height="5"/>
	<path d="M-214.1,184.6l-28.8,4.2c-2.1,0.3-2.9,2.8-1.4,4.3l20.8,20.3l-4.9,28.6c-0.4,2,1.8,3.6,3.6,2.6l25.7-13.5l1.5,0.8l2.3-4.4
		l-3.8-2l0,0l0,0l-23.6,12.4l4.5-26.2l-19.1-18.6l26.3-3.8l11.8-23.9l0,0V163l0,0l1.5-0.7l2.1-1l-1.3-2.7c-0.9-1.9-3.6-1.9-4.5,0
		L-214.1,184.6z"/>
</g>
</svg>
