<?xml version="1.0" encoding="utf-8"?>
<!-- Generator: Adobe Illustrator 19.0.0, SVG Export Plug-In . SVG Version: 6.00 Build 0)  -->
<svg version="1.1" id="Layer_1" xmlns="http://www.w3.org/2000/svg" xmlns:xlink="http://www.w3.org/1999/xlink" x="0px" y="0px"
	 width="100px" height="100px" viewBox="-249 151 100 100" style="enable-background:new -249 151 100 100;" xml:space="preserve">
<g>
	<g>
		<path d="M-199.9,162.5l-0.6-1.2l-2.1-1l1.3-2.7c0.9-1.9,3.6-1.9,4.5,0l1.3,2.7l-2.1,1l-0.6,1.2l-0.9-0.5L-199.9,162.5z"/>
	</g>
	<g>
		<path d="M-191,180.6l-2.2-4.5l4.5-2.2l2.2,4.5L-191,180.6z M-195.4,171.6l-2.2-4.5l4.5-2.2l2.2,4.5L-195.4,171.6z"/>
	</g>
	<g>
		<polygon points="-182.5,189.7 -186.8,189 -188.7,185.2 -184.2,183 -183.5,184.5 -181.8,184.7 		"/>
	</g>
	<g>
		<path d="M-162.5,192.6l-5-0.7l0.7-4.9l5,0.7L-162.5,192.6z M-172.5,191.1l-5-0.7l0.7-4.9l5,0.7L-172.5,191.1z"/>
	</g>
	<g>
		<path d="M-154.6,195.1l-1.6-1.7l-1.3-0.2l0.1-1l-0.7-0.7l1-0.9l0.3-2.3l3,0.4c2.1,0.3,2.9,2.8,1.4,4.3L-154.6,195.1z"/>
	</g>
	<g>
		<path d="M-169.1,209.3l-3.5-3.6l3.6-3.5l3.5,3.6L-169.1,209.3z M-161.8,202.2l-3.5-3.6l3.6-3.5l3.5,3.6L-161.8,202.2z"/>
	</g>
	<g>
		<polygon points="-178.5,216.5 -179.3,212.2 -176.2,209.2 -172.7,212.8 -173.9,214 -173.6,215.6 		"/>
	</g>
	<g>
		<path d="M-175.1,236.4l-0.9-5l4.9-0.8l0.9,5L-175.1,236.4z M-176.8,226.4l-0.9-5l4.9-0.8l0.9,5L-176.8,226.4z"/>
	</g>
	<g>
		<path d="M-172.5,246.2l-2.7-1.4l1.1-2l-0.2-1.3l1-0.2l0.5-0.9l1.2,0.6l2.3-0.4l0.5,3C-168.5,245.6-170.6,247.1-172.5,246.2z"/>
	</g>
	<g>
		<path d="M-179.6,242.4l-4.5-2.4l2.3-4.4l4.5,2.4L-179.6,242.4z M-188.6,237.7l-4.5-2.4l2.3-4.4l4.5,2.4L-188.6,237.7z"/>
	</g>
	<g>
		<polygon points="-197.5,233 -199,232.2 -200.5,233 -202.8,228.6 -199,226.6 -195.2,228.6 		"/>
	</g>
	<g>
		<path d="M-218.4,242.4l-2.3-4.4l4.5-2.4l2.3,4.4L-218.4,242.4z M-209.4,237.7l-2.3-4.4l4.5-2.4l2.3,4.4L-209.4,237.7z"/>
	</g>
	<g>
		<path d="M-229.2,243.5l0.5-3l2.3,0.4l1.2-0.6l0.5,0.9l1,0.2l-0.2,1.3l1.1,2l-2.7,1.4C-227.4,247.1-229.5,245.6-229.2,243.5z"/>
	</g>
	<g>
		<path d="M-222.9,236.4l-4.9-0.8l0.9-5l4.9,0.8L-222.9,236.4z M-221.2,226.4l-4.9-0.8l0.9-5l4.9,0.8L-221.2,226.4z"/>
	</g>
	<g>
		<polygon points="-219.5,216.5 -224.4,215.6 -224.1,214 -225.3,212.8 -221.8,209.2 -218.7,212.2 		"/>
	</g>
	<g>
		<path d="M-228.9,209.3l-3.6-3.5l3.5-3.6l3.6,3.5L-228.9,209.3z M-236.2,202.2l-3.6-3.5l3.5-3.6l3.6,3.5L-236.2,202.2z"/>
	</g>
	<g>
		<path d="M-243.4,195.1l-2.1-2.1c-1.5-1.4-0.7-4,1.4-4.3l3-0.4l0.3,2.3l1,0.9l-0.7,0.7l0.1,1l-1.3,0.2L-243.4,195.1z"/>
	</g>
	<g>
		<path d="M-235.5,192.6l-0.7-4.9l5-0.7l0.7,4.9L-235.5,192.6z M-225.5,191.1l-0.7-4.9l5-0.7l0.7,4.9L-225.5,191.1z"/>
	</g>
	<g>
		<polygon points="-215.5,189.7 -216.2,184.7 -214.5,184.5 -213.8,183 -209.3,185.2 -211.2,189 		"/>
	</g>
	<g>
		<path d="M-207,180.6l-4.5-2.2l2.2-4.5l4.5,2.2L-207,180.6z M-202.6,171.6l-4.5-2.2l2.2-4.5l4.5,2.2L-202.6,171.6z"/>
	</g>
</g>
</svg>
