<?xml version="1.0" encoding="utf-8"?>
<!-- Generator: Adobe Illustrator 19.0.0, SVG Export Plug-In . SVG Version: 6.00 Build 0)  -->
<svg version="1.1" id="Layer_1" xmlns="http://www.w3.org/2000/svg" xmlns:xlink="http://www.w3.org/1999/xlink" x="0px" y="0px"
	 width="100px" height="100px" viewBox="-247 370.9 100 100" style="enable-background:new -247 370.9 100 100;"
	 xml:space="preserve">
<g>
	<path d="M-230.4,417.1h12.6l9.2,11.3c0.4,0.5,0.9,0.7,1.5,0.7h16l18.6,18.8l-10.8-0.1c-1.4,0-2.6,1.1-2.5,2.5
		c0,1.4,1.1,2.6,2.5,2.5l18.3,0c0.6,0,1-0.4,1-1l0.2-18.3c0-1.4-1.1-2.6-2.5-2.5c-1.4,0-2.6,1.1-2.5,2.5l0,10.8l-19.5-19.6
		c-0.4-0.4-0.9-0.6-1.4-0.6l-16,0.1l-9.2-11.3c-0.4-0.5-0.9-0.7-1.5-0.7h-14.1c-1.4,0-2.5,1.1-2.5,2.5S-231.8,417.1-230.4,417.1z"/>
	<path d="M-150.3,462.6h-91v-86c0-1.4-1.1-2.5-2.5-2.5s-2.5,1.1-2.5,2.5v89c0,1.1,0.9,2,2,2h94c1.4,0,2.5-1.1,2.5-2.5
		C-147.8,463.8-148.9,462.6-150.3,462.6z"/>
</g>
</svg>
