<?xml version="1.0" encoding="utf-8"?>
<!-- Generator: Adobe Illustrator 19.0.0, SVG Export Plug-In . SVG Version: 6.00 Build 0)  -->
<svg version="1.1" id="Layer_1" xmlns="http://www.w3.org/2000/svg" xmlns:xlink="http://www.w3.org/1999/xlink" x="0px" y="0px"
	 width="100px" height="100px" viewBox="-249 151 100 100" style="enable-background:new -249 151 100 100;" xml:space="preserve">
<style type="text/css">
	.st0{display:none;}
	.st1{display:inline;fill:#FFFFFF;stroke:#231F20;stroke-miterlimit:10;}
</style>
<g id="Layer_1_1_" class="st0">
	<rect id="XMLID_1_" x="-244" y="156" class="st1" width="90" height="90"/>
</g>
<g>
	<path d="M-235,230.3c0,1.4,1.1,2.5,2.5,2.5h14.1c0.6,0,1.1-0.2,1.5-0.7l9.2-11.3l16,0.1c0.5,0,1-0.2,1.4-0.6l19.5-19.6v10.8
		c-0.1,1.4,1.1,2.5,2.5,2.5c1.4,0.1,2.5-1.1,2.5-2.5l-0.2-18.3c0-0.6-0.4-1-1-1h-18.3c-1.4-0.1-2.5,1.1-2.5,2.5
		c-0.1,1.4,1.1,2.5,2.5,2.5l10.8-0.1l-18.6,18.8h-16c-0.6,0-1.1,0.2-1.5,0.7l-9.2,11.3h-12.6C-233.8,227.9-235,228.9-235,230.3z"/>
	<path d="M-152.3,242.6h-91v-86c0-1.4-1.1-2.5-2.5-2.5s-2.5,1.1-2.5,2.5v89c0,1.1,0.9,2,2,2h94c1.4,0,2.5-1.1,2.5-2.5
		C-149.8,243.8-150.9,242.6-152.3,242.6z"/>
</g>
</svg>
