<?xml version="1.0" encoding="utf-8"?>
<!-- Generator: Adobe Illustrator 19.0.0, SVG Export Plug-In . SVG Version: 6.00 Build 0)  -->
<svg version="1.1" id="Layer_1" xmlns="http://www.w3.org/2000/svg" xmlns:xlink="http://www.w3.org/1999/xlink" x="0px" y="0px"
	 width="100px" height="100px" viewBox="-74 0 100 100" style="enable-background:new -74 0 100 100;" xml:space="preserve">
<g id="XMLID_11_">
	<rect id="XMLID_12_" x="-25.6" y="41.7" width="6.5" height="18.3"/>
	<path id="XMLID_13_" d="M-27.7,41.5c-2.1-0.6-3.3-0.1-4.5,1.9c-0.2-0.4-0.5-0.8-0.7-1.3c-0.2-0.3-0.4-0.5-0.7-0.4
		c-1.4,0-2.8,0-4.2,0c-0.1,0-0.3,0-0.4,0V60h6.5V48.6c0-1.3,0.2-1.6,1.5-1.7c0.3,0,0.7-0.1,1,0c0.7,0.1,1.3,0.2,2,0.2
		c0-1.7,0-3.3,0-4.9C-27.2,41.7-27.3,41.6-27.7,41.5z"/>
	<path id="XMLID_14_" d="M-43.2,45.8h2.6c0.3-1.4,0.6-2.8,0.9-4.2h-3.5v-5.5c-1.8,0.4-3.5,0.9-5.2,1.2c-0.4,0.1-0.6,0.3-0.6,0.7
		c-0.2,1.2-0.5,2.4-0.7,3.6h-2.4v4.2h2.4v0.7c0,3,0,5.9,0,8.9c0,2.5,1.2,4.2,3.2,4.7c2.3,0.6,4.6,0.1,6.8-0.3v-4.7
		c-0.8,0.1-1.5,0.2-2.2,0.2c-0.8,0.1-1.1-0.2-1.2-1c0-0.2,0-0.4,0-0.6c0-2.4,0-4.8,0-7.3C-43.2,46.2-43.2,46-43.2,45.8z"/>
	<path id="XMLID_15_" d="M-54.9,49.8c-0.6-0.5-1.4-0.8-2.1-1.2c-0.5-0.3-1.1-0.5-1.6-0.9c-0.3-0.2-0.5-0.7-0.4-1
		c0-0.3,0.5-0.6,0.8-0.7c0.4-0.1,0.9-0.1,1.4,0c1.1,0.2,2.2,0.4,3.3,0.6c0-1.3,0-2.7,0-4c0-0.4-0.1-0.6-0.5-0.7
		c-2.2-0.7-4.5-0.9-6.8-0.5c-2.2,0.6-3.8,1.7-4.5,3.9c-0.1,0.5-0.2,1-0.3,1.4v1.1c0,0.1,0.1,0.3,0.1,0.4c0.2,1.4,0.9,2.6,2,3.4
		c0.6,0.4,1.3,0.7,1.9,1.1c0.6,0.3,1.1,0.6,1.7,0.9c0.4,0.3,0.6,0.7,0.4,1.1c-0.2,0.3-0.5,0.6-0.9,0.7c-0.6,0.1-1.3,0.1-1.9,0
		c-1-0.2-2-0.4-3.1-0.6c0,1.5,0,3,0,4.4c0,0.1,0.3,0.4,0.4,0.4c2.1,0.6,4.1,0.9,6.3,0.7c3.3-0.3,5.2-2,5.5-5.3
		C-52.7,52.9-53.2,51.1-54.9,49.8z"/>
	<path id="XMLID_18_" d="M9.7,55.3c-1.2-0.2-1.7-1-1.6-2.3H17c-0.1-2-0.2-3.9-0.4-5.7c-0.2-1.6-0.9-3.1-2.1-4.3
		c-1.5-1.4-3.4-1.7-5.4-1.6C5.3,41.6,3,43.3,2,46.7c-0.8,2.8-0.8,5.6,0,8.4c0.7,2.7,2.4,4.4,5.2,5c2.5,0.5,4.9,0.4,7.4-0.2
		c1.4-0.4,1.4-0.4,1.4-1.8v-3.4c-0.6,0.1-1.1,0.2-1.7,0.3C12.9,55.2,11.3,55.5,9.7,55.3z M8.3,46.4c0-0.3,0.2-0.6,0.4-0.8
		c0.6-0.7,1.7-0.5,1.9,0.4c0.2,1.1,0.3,2.2,0.4,3.4c-1.1,0-1.9,0-2.9,0C8.1,48.4,8.2,47.4,8.3,46.4z"/>
	<path id="XMLID_21_" d="M-1.3,44c-0.6-1.2-1.4-2-2.7-2.4c-2-0.5-3.8-0.4-5.5,0.8c-0.2,0.1-0.3,0.2-0.6,0.4
		c-0.5-1.3-1.5-1.2-2.6-1.2c-0.2,0-0.3,0-0.5,0h-3.1V66c0,0.2,0,0.4,0,0.6h6.6v-6.5c1,0.1,1.9,0.3,2.8,0.3c3.2,0,5.1-1.5,6-4.5
		c0-0.1,0.1-0.3,0.1-0.4c0.6-2.4,0.6-4.9,0.4-7.4C-0.4,46.6-0.7,45.2-1.3,44z M-7.1,54.2c-0.3,1.4-1.2,1.8-2.6,1.3v-1.2
		c0-2.4,0-4.7,0-7.1c0-0.4,0.1-0.6,0.5-0.7c0.2-0.1,0.4-0.2,0.6-0.2c0.9-0.3,1.5,0,1.6,1C-6.7,49.5-6.6,51.9-7.1,54.2z"/>
	<path id="XMLID_22_" d="M-21.9,32.8C-21.9,32.8-22,32.8-21.9,32.8h-0.8h-0.1c-1.6,0.2-2.8,1.6-2.8,3.3c0,0.9,0.4,1.8,1,2.4
		c0.4,0.4,0.9,0.7,1.5,0.8c0.3,0.1,0.5,0.1,0.8,0.1l0,0c1.8,0,3.3-1.5,3.3-3.3C-19,34.4-20.3,33-21.9,32.8z"/>
</g>
</svg>
