<?xml version="1.0" encoding="utf-8"?>
<!-- Generator: Adobe Illustrator 19.0.0, SVG Export Plug-In . SVG Version: 6.00 Build 0)  -->
<svg version="1.1" id="Layer_2" xmlns="http://www.w3.org/2000/svg" xmlns:xlink="http://www.w3.org/1999/xlink" x="0px" y="0px"
	 width="100px" height="100px" viewBox="-249 151 100 100" style="enable-background:new -249 151 100 100;" xml:space="preserve">
<path d="M-166.1,174.8h-30.4v-17.3h20c1.4,0,2.5-1.1,2.5-2.5l0,0c0-1.4-1.1-2.5-2.5-2.5h-45.1c-1.4,0-2.5,1.1-2.5,2.5l0,0
	c0,1.4,1.1,2.5,2.5,2.5h20v17.3h-30.4c-1.4,0-2.5,1.1-2.5,2.5l0,0c0,1.4,1.1,2.5,2.5,2.5h30.4v67.7c0,1.4,1.1,2.5,2.5,2.5h0
	c1.4,0,2.5-1.1,2.5-2.5v-67.7h30.4c1.4,0,2.5-1.1,2.5-2.5l0,0C-163.6,175.9-164.7,174.8-166.1,174.8z"/>
</svg>
