<?xml version="1.0" encoding="utf-8"?>
<!-- Generator: Adobe Illustrator 19.0.0, SVG Export Plug-In . SVG Version: 6.00 Build 0)  -->
<svg version="1.1" id="Layer_1" xmlns="http://www.w3.org/2000/svg" xmlns:xlink="http://www.w3.org/1999/xlink" x="0px" y="0px"
	 width="100px" height="100px" viewBox="-249 151 100 100" style="enable-background:new -249 151 100 100;" xml:space="preserve">
<g>
	<path d="M-151.5,173.1c-0.3-6.5-5.4-11.6-11.8-11.6H-235c-6.5,0-11.9,5.5-11.9,12V212c0,6.3,5.1,11.7,11.3,12v10.1
		c0,2.4,1.5,4.7,3.8,5.7c0.7,0.3,1.6,0.5,2.4,0.5c1.7,0,3.2-0.6,4.4-1.7l14.9-14.6h46.8c6.5,0,11.9-5.5,11.9-12L-151.5,173.1z
		 M-156.5,212c0,3.8-3.2,7-6.9,7h-48.8l-16.3,16c-0.1,0.1-0.3,0.3-0.8,0.3c-0.2,0-0.3,0-0.3,0l-0.1-0.1c-0.5-0.2-0.8-0.6-0.8-1.1
		V219h-4.4c-3.7,0-6.9-3.3-6.9-7v-38.5c0-3.8,3.2-7,6.9-7h71.7c3.7,0,6.7,3,6.8,6.7V212z"/>
	<path d="M-207.7,177.2h-21.8c-1.4,0-2.5,1.1-2.5,2.5l0,0c0,1.4,1.1,2.5,2.5,2.5h21.8c1.4,0,2.5-1.1,2.5-2.5l0,0
		C-205.2,178.3-206.3,177.2-207.7,177.2z"/>
	<path d="M-204.2,188.3h-25.3c-1.4,0-2.5,1.1-2.5,2.5l0,0c0,1.4,1.1,2.5,2.5,2.5h25.3c1.4,0,2.5-1.1,2.5-2.5l0,0
		C-201.7,189.4-202.8,188.3-204.2,188.3z"/>
	<path d="M-229.5,204.8h29c1.4,0,2.5-1.1,2.5-2.5l0,0c0-1.4-1.1-2.5-2.5-2.5h-29c-1.4,0-2.5,1.1-2.5,2.5l0,0
		C-232,203.7-230.9,204.8-229.5,204.8z"/>
	<path d="M-177,199.5h-0.4c-1.3,0-2.3,1.1-2.3,2.3v0.8c0,1.3,1.1,2.3,2.3,2.3h0.4c1.3,0,2.3-1,2.3-2.3v-0.8
		C-174.7,200.5-175.8,199.5-177,199.5z"/>
	<path d="M-172.8,175.7c-1.2-0.5-2.6-0.8-4.1-0.8c-2,0-3.7,0.4-5.2,1.3c-1.2,0.7-2.2,1.6-3,2.9c-0.2,0.4-0.4,0.8-0.6,1.2
		c-0.7,1.4,0.3,3,1.9,3.1c0.9,0,1.8-0.5,2.2-1.4c0.1-0.2,0.2-0.5,0.4-0.7c0.8-1.3,2.2-2,4.2-2c1.7,0,2.8,0.4,3.6,1.3
		c0.5,0.6,0.7,1.2,0.7,1.9s-0.3,1.3-0.8,1.9c-0.6,0.6-1.2,1.2-2,1.7c-1.2,0.8-2.3,1.9-3,3.2c-0.6,1.2-0.8,2.7-0.9,4.1
		c-0.1,1.3,0.9,2.4,2.2,2.4h0.2c1.2,0,2.2-0.9,2.5-1.9c0.1-1.1,0.2-2.4,0.6-2.9c0.5-0.7,1.1-1.1,1.8-1.6c0.7-0.6,1.4-1.1,2-1.8
		c1.2-1.3,2-3.1,2-4.9s-0.6-3.6-1.9-5C-170.8,176.8-171.7,176.1-172.8,175.7z"/>
</g>
</svg>
