<?xml version="1.0" encoding="utf-8"?>
<!-- Generator: Adobe Illustrator 19.0.0, SVG Export Plug-In . SVG Version: 6.00 Build 0)  -->
<svg version="1.1" id="Layer_1" xmlns="http://www.w3.org/2000/svg" xmlns:xlink="http://www.w3.org/1999/xlink" x="0px" y="0px"
	 width="100px" height="100px" viewBox="-249 151 100 100" style="enable-background:new -249 151 100 100;" xml:space="preserve">
<path d="M-177.2,165.7c0.5-3.3,0-6-1.6-8.1c-1-1.3-2.4-2.3-4.3-3.1c-2.6-1.1-5.4-1.6-8.2-1.5c-0.5,0-1.1,0.1-1.6,0.1
	c-0.1,0-0.2,0-0.3,0c-1.2,0.1-2.2,1.1-2.3,2.3l0,0c-0.1,1.5,1.2,2.8,2.7,2.7c0.1,0,0.2,0,0.3,0c0.5,0,0.9-0.1,1.4-0.1
	c2-0.1,4.1,0.3,6,1.1c1.1,0.5,1.9,1,2.3,1.6c1,1.2,1,3.4,0.2,6.3l-6.8,1.7l-53.1,53.1c-1,1-1,2.6,0,3.5l22.9,22.9c1,1,2.6,1,3.5,0
	l53.1-53.1l7.6-30.9c0.4-1.8-1.2-3.5-3-3L-177.2,165.7z M-167.5,192.6l-50.3,50.3l-19.3-19.3l50.3-50.3l2.8-0.7
	c-0.2,1.4-0.3,2.9,0,4.3c0.5,2.4,1.8,4.6,3.7,6.1c0.1,0.8,0.4,1.5,1,2.1c1.4,1.4,3.7,1.4,5.1,0c1.4-1.4,1.4-3.7,0-5.1
	c-0.8-0.8-2-1.2-3-1c-0.9-0.8-1.6-1.9-1.9-3c-0.3-1.5,0.1-3.1,0.6-4.8l17.4-4.2L-167.5,192.6z"/>
</svg>
