<?xml version="1.0" encoding="utf-8"?>
<!-- Generator: Adobe Illustrator 19.0.0, SVG Export Plug-In . SVG Version: 6.00 Build 0)  -->
<svg version="1.1" id="Layer_2" xmlns="http://www.w3.org/2000/svg" xmlns:xlink="http://www.w3.org/1999/xlink" x="0px" y="0px"
	 width="100px" height="100px" viewBox="-249 151 100 100" style="enable-background:new -249 151 100 100;" xml:space="preserve">
<path d="M-154,199h-2.9c-1-21.5-18.1-38.8-39.6-40.1v-3.4c0-1.4-1.1-2.5-2.5-2.5l0,0c-1.4,0-2.5,1.1-2.5,2.5v3.4
	c-21.4,1.3-38.6,18.6-39.6,40.1h-2.9c-1.4,0-2.5,1.1-2.5,2.5l0,0c0,1.4,1.1,2.5,2.5,2.5h3c1.5,21,18.4,37.7,39.5,39v3.5
	c0,1.4,1.1,2.5,2.5,2.5l0,0c1.4,0,2.5-1.1,2.5-2.5V243c21-1.2,38-18,39.5-39h3c1.4,0,2.5-1.1,2.5-2.5l0,0
	C-151.5,200.1-152.6,199-154,199z M-161.9,199h-17.3c-0.9-9.2-8.1-16.6-17.3-17.7v-17.3C-177.8,165.2-162.9,180.3-161.9,199z
	 M-184.5,204c-1.2,5.9-6,10.6-12,11.6v-1.8c0-1.4-1.1-2.5-2.5-2.5l0,0c-1.4,0-2.5,1.1-2.5,2.5v1.8c-6-1-10.8-5.7-12-11.6h2.2
	c1.4,0,2.5-1.1,2.5-2.5l0,0c0-1.4-1.1-2.5-2.5-2.5h-2.4c0.9-6.5,5.8-11.6,12.2-12.7v1.9c0,1.4,1.1,2.5,2.5,2.5l0,0
	c1.4,0,2.5-1.1,2.5-2.5v-1.9c6.4,1.1,11.4,6.2,12.2,12.7h-2.4c-1.4,0-2.5,1.1-2.5,2.5l0,0c0,1.4,1.1,2.5,2.5,2.5H-184.5z
	 M-201.5,163.9v17.3c-9.1,1.2-16.4,8.5-17.3,17.7h-17.3C-235.1,180.3-220.2,165.2-201.5,163.9z M-236,204h17.4
	c1.3,8.7,8.3,15.5,17.1,16.6V238C-219.8,236.7-234.5,222.2-236,204z M-196.5,238v-17.3c8.8-1.1,15.8-7.9,17.1-16.6h17.4
	C-163.5,222.2-178.2,236.7-196.5,238z"/>
</svg>
