<?xml version="1.0" encoding="utf-8"?>
<!-- Generator: Adobe Illustrator 19.0.0, SVG Export Plug-In . SVG Version: 6.00 Build 0)  -->
<svg version="1.1" id="Layer_2" xmlns="http://www.w3.org/2000/svg" xmlns:xlink="http://www.w3.org/1999/xlink" x="0px" y="0px"
	 width="100px" height="100px" viewBox="-249 151 100 100" style="enable-background:new -249 151 100 100;" xml:space="preserve">
<g>
	<path d="M-165.8,224.6v-46c0-14-11-25.9-25-26.3c-14.6-0.4-26.6,11.3-26.6,25.8v3.2h-15.5c-1.1,0-2.1,0.8-2.4,1.9l-3.5,14.2v49.2
		c0,1.4,1.1,2.5,2.5,2.5h42.9c1.4,0,2.5-1.1,2.5-2.5v-49.2l-3.7-14.2c-0.3-1.1-1.3-1.9-2.4-1.9h-15.4v-2.7c0-11.2,8.7-20.8,20-21.3
		c11.8-0.4,21.6,9,21.6,20.8v46.5l-6.5,8.7v13.8c0,1.4,1.1,2.5,2.5,2.5h13c1.4,0,2.5-1.1,2.5-2.5v-13.8L-165.8,224.6z M-195.9,198.1
		v46h-37.9v-46l2.9-11.7h31.9L-195.9,198.1z M-164.3,244.6h-8V235l4-5.4l4,5.4V244.6z"/>
	<path d="M-220.9,201.8h12.2c2.7,0,4.8-2.7,4.8-6.2l0-0.2c-0.3-3-2-6-4.8-6h-12.2c-2.7,0-4.8,2.7-4.8,6.2
		C-225.7,199-223.6,201.8-220.9,201.8z M-220.4,194.3h11.1c0.1,0.3,0.3,0.7,0.4,1.3c0,0.5-0.1,0.9-0.3,1.1h-11.2
		c-0.1-0.2-0.3-0.7-0.3-1.2C-220.7,195-220.5,194.5-220.4,194.3z"/>
</g>
</svg>
