<?xml version="1.0" encoding="utf-8"?>
<!-- Generator: Adobe Illustrator 19.0.0, SVG Export Plug-In . SVG Version: 6.00 Build 0)  -->
<svg version="1.1" id="Layer_1" xmlns="http://www.w3.org/2000/svg" xmlns:xlink="http://www.w3.org/1999/xlink" x="0px" y="0px"
	 width="100px" height="100px" viewBox="-247 370.9 100 100" style="enable-background:new -247 370.9 100 100;"
	 xml:space="preserve">
<g>
	<path d="M-227,392.9h60c1.4,0,2.5-1.1,2.5-2.5s-1.1-2.5-2.5-2.5h-60c-1.4,0-2.5,1.1-2.5,2.5S-228.4,392.9-227,392.9z"/>
	<path d="M-159,403.2h-76c-1.4,0-2.5,1.1-2.5,2.5c0,1.4,1.1,2.5,2.5,2.5h76c1.4,0,2.5-1.1,2.5-2.5
		C-156.5,404.3-157.6,403.2-159,403.2z"/>
	<path d="M-163.5,418.4h-67c-1.4,0-2.5,1.1-2.5,2.5s1.1,2.5,2.5,2.5h67c1.4,0,2.5-1.1,2.5-2.5S-162.1,418.4-163.5,418.4z"/>
	<path d="M-156,433.7h-82c-1.4,0-2.5,1.1-2.5,2.5c0,1.4,1.1,2.5,2.5,2.5h82c1.4,0,2.5-1.1,2.5-2.5
		C-153.5,434.8-154.6,433.7-156,433.7z"/>
	<path d="M-151,448.9h-92c-1.4,0-2.5,1.1-2.5,2.5s1.1,2.5,2.5,2.5h92c1.4,0,2.5-1.1,2.5-2.5S-149.6,448.9-151,448.9z"/>
</g>
</svg>
