<?xml version="1.0" encoding="utf-8"?>
<!-- Generator: Adobe Illustrator 19.0.0, SVG Export Plug-In . SVG Version: 6.00 Build 0)  -->
<svg version="1.1" id="Layer_1" xmlns="http://www.w3.org/2000/svg" xmlns:xlink="http://www.w3.org/1999/xlink" x="0px" y="0px"
	 width="100px" height="100px" viewBox="-249 151 100 100" style="enable-background:new -249 151 100 100;" xml:space="preserve">
<path d="M-158.2,225.7c-0.9-0.3-1.5-1.8-2.3-3.8l-17.3-47h-1.5l-13.4,37.8c-1.8,4.8-3.3,8.1-4.5,9.6c-2.1,2.7-5.1,4.2-8.6,4.2v0.2
	c-2-0.1-3.4-0.3-3.8-0.5c-0.6-0.3-1.2-1.5-1.8-3l-13.4-36.9h-1.2l-10.4,29.5c-1.5,3.6-2.7,6.3-3.6,7.5c-1.8,2.1-4.2,3.3-6.8,3.3v0.6
	h16.1v-0.6c-2.1,0-3.6-0.3-4.8-0.9c-1.2-0.6-1.8-1.8-1.8-3.3c0-0.9,0-2.1,0.6-3.6l1.8-5.6h12.2l3.6,11.3l0.3,0.6
	c0,0.9-0.6,1.2-1.8,1.5c-1.2,0.3-3.3,0.3-6.6,0.3v0.6h21.5h1.8h18.7v-0.9c-2.7,0-4.8-0.3-6.3-1.2c-1.5-0.9-2.3-2.1-2.3-4.2
	c0-1.2,0.3-2.7,0.9-4.5l2.3-7.1h15.5l4.7,13.8l0.3,0.9c0,0.9-0.9,1.5-2.3,1.8c-1.5,0.3-4.2,0.3-8.3,0.3v0.9h29.8v-0.9
	C-154.9,226.3-157.4,226-158.2,225.7z M-235.1,212.3l6-16.1l6,16.1H-235.1z M-190.4,208.4l7.5-20.5l7.3,20.5H-190.4z"/>
</svg>
