<?xml version="1.0" encoding="utf-8"?>
<!-- Generator: Adobe Illustrator 19.0.0, SVG Export Plug-In . SVG Version: 6.00 Build 0)  -->
<svg version="1.1" id="Layer_1" xmlns="http://www.w3.org/2000/svg" xmlns:xlink="http://www.w3.org/1999/xlink" x="0px" y="0px"
	 width="100px" height="100px" viewBox="-909 226 100 100" style="enable-background:new -909 226 100 100;" xml:space="preserve">
<g>
	<path d="M-902.6,306.9h26v-1.2c-3.7,0-6.7-0.4-8.7-1.6s-3.3-3-3.3-5.8c0-1.6,0.4-3.7,1.2-6.2l3.3-9.9h21.6l6.5,19.2l0.4,1.2
		c0,1.2-1.2,2.1-3.3,2.5s-5.8,0.4-11.5,0.4v1.2h41.4v-1.2c-5.5,0-8.9-0.4-10.1-0.9c-1-0.4-1.9-2.5-3.1-5.3l-24.2-65.3h-2.1
		l-18.6,52.5c-2.5,6.7-4.6,11.2-6.2,13.3c-3,3.7-7.1,5.8-12,5.8v0.3v1h0.1H-902.6z M-873.2,252.2l10.2,28.5h-20.5L-873.2,252.2z"/>
	<path d="M-830.6,312.9h-73c-1.4,0-2.5,1.1-2.5,2.5c0,1.4,1.1,2.5,2.5,2.5h73c1.4,0,2.5-1.1,2.5-2.5
		C-828.1,314.1-829.2,312.9-830.6,312.9z"/>
	<path d="M-815.6,295.8l2.6-2.6c1-1,1-2.6,0-3.5s-2.6-1-3.5,0l-2.6,2.6l-2.6-2.6c-1-1-2.6-1-3.5,0v0c-1,1-1,2.6,0,3.5l2.6,2.6
		l-2.6,2.6c-1,1-1,2.6,0,3.5c1,1,2.6,1,3.5,0l2.6-2.6l2.6,2.6c1,1,2.6,1,3.5,0s1-2.6,0-3.5L-815.6,295.8z"/>
</g>
</svg>
