<?xml version="1.0" encoding="utf-8"?>
<!-- Generator: Adobe Illustrator 19.0.0, SVG Export Plug-In . SVG Version: 6.00 Build 0)  -->
<svg version="1.1" id="Layer_1" xmlns="http://www.w3.org/2000/svg" xmlns:xlink="http://www.w3.org/1999/xlink" x="0px" y="0px"
	 width="100px" height="100px" viewBox="0 0 100 100" style="enable-background:new 0 0 100 100;" xml:space="preserve">
<g>
	<path d="M3.3,21h93.5c1.5,0,2.6-1.3,2.5-2.8c-0.1-1.3-1.3-2.2-2.6-2.2H3.3c-1.4,0-2.5,1.1-2.5,2.5S1.9,21,3.3,21z"/>
	<path d="M96.6,31.3H3.3c-1.4,0-2.5,1.1-2.5,2.5s1.1,2.5,2.5,2.5h93.5c1.5,0,2.6-1.3,2.5-2.8C99.1,32.2,97.9,31.3,96.6,31.3z"/>
	<path d="M96.6,46.5H3.3c-1.4,0-2.5,1.1-2.5,2.5s1.1,2.5,2.5,2.5h93.5c1.5,0,2.6-1.3,2.5-2.8C99.1,47.4,97.9,46.5,96.6,46.5z"/>
	<path d="M96.6,61.8H3.3c-1.4,0-2.5,1.1-2.5,2.5s1.1,2.5,2.5,2.5h93.5c1.5,0,2.6-1.3,2.5-2.8C99.1,62.7,97.9,61.8,96.6,61.8z"/>
	<path d="M96.6,77H3.3c-1.4,0-2.5,1.1-2.5,2.5S1.9,82,3.3,82h93.5c1.5,0,2.6-1.3,2.5-2.8C99.1,77.9,97.9,77,96.6,77z"/>
</g>
</svg>
