<?xml version="1.0" encoding="utf-8"?>
<!-- Generator: Adobe Illustrator 19.0.0, SVG Export Plug-In . SVG Version: 6.00 Build 0)  -->
<svg version="1.1" id="Layer_2" xmlns="http://www.w3.org/2000/svg" xmlns:xlink="http://www.w3.org/1999/xlink" x="0px" y="0px"
	 width="100px" height="100px" viewBox="-205 207 100 100" style="enable-background:new -205 207 100 100;" xml:space="preserve">
<g>
	<path d="M-138.5,226.5c0-1.4-1.1-2.5-2.5-2.5h-60c-1.4,0-2.5,1.1-2.5,2.5s1.1,2.5,2.5,2.5h60C-139.6,229-138.5,227.9-138.5,226.5z"
		/>
	<path d="M-203.5,241.8c0,1.4,1.1,2.5,2.5,2.5h76c1.4,0,2.5-1.1,2.5-2.5c0-1.4-1.1-2.5-2.5-2.5h-76
		C-202.4,239.3-203.5,240.4-203.5,241.8z"/>
	<path d="M-203.5,257c0,1.4,1.1,2.5,2.5,2.5h67c1.4,0,2.5-1.1,2.5-2.5s-1.1-2.5-2.5-2.5h-67C-202.4,254.5-203.5,255.6-203.5,257z"/>
	<path d="M-203.5,272.3c0,1.4,1.1,2.5,2.5,2.5h82c1.4,0,2.5-1.1,2.5-2.5c0-1.4-1.1-2.5-2.5-2.5h-82
		C-202.4,269.8-203.5,270.9-203.5,272.3z"/>
	<path d="M-203.5,287.5c0,1.4,1.1,2.5,2.5,2.5h92c1.4,0,2.5-1.1,2.5-2.5s-1.1-2.5-2.5-2.5h-92C-202.4,285-203.5,286.1-203.5,287.5z"
		/>
</g>
</svg>
