<?xml version="1.0" encoding="utf-8"?>
<!-- Generator: Adobe Illustrator 19.0.0, SVG Export Plug-In . SVG Version: 6.00 Build 0)  -->
<svg version="1.1" id="Layer_2" xmlns="http://www.w3.org/2000/svg" xmlns:xlink="http://www.w3.org/1999/xlink" x="0px" y="0px"
	 width="100px" height="100px" viewBox="-249 151 100 100" style="enable-background:new -249 151 100 100;" xml:space="preserve">
<g>
	<path d="M-191.4,208.6c3.9,2.9,8.5,4.5,13.3,4.5c12.2,0,22.1-9.9,22.1-22.1c0-9.7-6.3-18.2-15.5-21.1c-2-10.3-11-17.8-21.6-17.8
		c-9.5,0-17.9,6.2-20.9,15.1c-1.9-0.5-3.9-0.8-5.9-0.8c-12.2,0-22.1,9.9-22.1,22.1c0,8.6,5.1,16.5,13,20.1
		c4,6.5,11.1,10.5,18.7,10.5C-202.5,219.1-195.4,215.1-191.4,208.6z M-210.2,214.1c-6,0-11.6-3.2-14.6-8.4l-0.7-1l-1.2-0.6
		c-6.2-2.7-10.3-8.9-10.3-15.6c0-9.4,7.7-17.1,17.1-17.1c1.8,0,3.6,0.3,5.4,0.9l4,1.2l0.9-4c2.1-7.3,8.8-12.4,16.4-12.4
		c8.4,0,15.4,6,16.8,14.2l0.3,2.6l2.5,0.6c7.4,2,12.5,8.8,12.5,16.5c0,9.4-7.7,17.1-17.1,17.1c-4,0-8-1.5-11.2-4.1l-3.8-3.1
		l-2.2,4.3C-198.1,210.6-203.9,214.1-210.2,214.1z"/>
	<path d="M-188.1,216.8c-5.5,0-10,4.5-10,10c0,5.5,4.5,10,10,10s10-4.5,10-10C-178.1,221.3-182.5,216.8-188.1,216.8z M-188.1,231.8
		c-2.8,0-5-2.2-5-5c0-2.8,2.2-5,5-5s5,2.2,5,5C-183.1,229.5-185.3,231.8-188.1,231.8z"/>
	<path d="M-165.6,235.9c-4,0-7.2,3.2-7.2,7.2c0,4,3.2,7.2,7.2,7.2c3.9,0,7-3.1,7.2-7.1l0-0.1C-158.4,239.1-161.6,235.9-165.6,235.9z
		 M-165.6,245.3c-1.2,0-2.2-1-2.2-2.2s1-2.2,2.2-2.2c1.2,0,2.2,1,2.2,2.2C-163.4,244.4-164.3,245.3-165.6,245.3z"/>
</g>
</svg>
