<?xml version="1.0" encoding="utf-8"?>
<!-- Generator: Adobe Illustrator 21.0.0, SVG Export Plug-In . SVG Version: 6.00 Build 0)  -->
<svg version="1.1" id="Layer_2" xmlns="http://www.w3.org/2000/svg" xmlns:xlink="http://www.w3.org/1999/xlink" x="0px" y="0px"
	 viewBox="0 0 100 100" style="enable-background:new 0 0 100 100;" xml:space="preserve">
<path d="M94.9,41.5c-3.8-9-17-8.7-25.7-8.4h-0.7c1-5.9,2.8-19.1,0.8-23.1c-1.6-3.3-4.7-5.4-8.5-5.7c-3.8-0.3-7.2,1.5-9.2,4.9
	c-11.3,18.4-21,27.2-24.5,28.5c-0.7,0.2-1.1,0.5-1.5,0.9c-0.8-0.3-1.8-0.5-2.6-0.5H10.5c-4.5,0-8.2,3.7-8.2,8.2v34.1
	c0,4.5,3.7,8.2,8.2,8.2H23c0.7,0,1.4-0.1,2.1-0.3c3.3,3.4,12.2,5.8,26.4,7.2c2,0.2,3.5,0.2,5.4,0.2c10.6,0,20.6-2.7,27.4-7.5
	C97.2,79.3,100.9,55.1,94.9,41.5z M10.5,83.7c-1.8,0-3.2-1.4-3.2-3.2V46.3c0-1.8,1.4-3.2,3.2-3.2h12.5c0.2,0,0.5,0,0.7,0.1v40.4
	c-0.3,0.1-0.6,0.1-0.8,0.1H10.5z M81.4,84.2c-6,4.2-14.9,6.6-24.5,6.6c-1.8,0-3.2,0-4.9-0.2C34.3,88.9,29.8,86,28.8,85V42.5
	c0.1-0.1,0.1-0.1,0.2-0.2c0,0,0,0,0,0c6.3-2.4,17.3-14.9,27-30.6c1.1-1.8,2.6-2.7,4.6-2.5c1.9,0.1,3.5,1.2,4.3,2.8
	c0.9,1.8,0.4,11.7-1.5,21.4L62.5,38l6.8,0c7.4-0.2,18.6-0.5,21,5.4l0,0.1C95.5,55,92.1,76.8,81.4,84.2z"/>
</svg>
