<?xml version="1.0" encoding="utf-8"?>
<!-- Generator: Adobe Illustrator 21.0.0, SVG Export Plug-In . SVG Version: 6.00 Build 0)  -->
<svg version="1.1" id="Layer_2" xmlns="http://www.w3.org/2000/svg" xmlns:xlink="http://www.w3.org/1999/xlink" x="0px" y="0px"
	 viewBox="0 0 100 100" style="enable-background:new 0 0 100 100;" xml:space="preserve">
<path d="M83.3,12.7c-6.8-4.7-16.8-7.5-27.4-7.5c-1.8,0-3.4,0-5.4,0.2c-14.2,1.4-23.1,3.8-26.4,7.2c-0.7-0.2-1.4-0.3-2.1-0.3H9.5
	c-4.5,0-8.2,3.7-8.2,8.2v34.1C1.3,59.3,5,63,9.5,63h12.5c0.9,0,1.8-0.2,2.6-0.5c0.4,0.3,0.8,0.7,1.5,0.9
	c3.5,1.3,13.2,10.1,24.5,28.5c2,3.4,5.4,5.2,9.2,4.9c3.7-0.3,6.9-2.4,8.5-5.7c2-4.1,0.2-17.2-0.8-23.1h0.7
	c8.7,0.2,21.9,0.6,25.7-8.4C99.9,45.9,96.2,21.7,83.3,12.7z M22,17.3c0.2,0,0.5,0,0.8,0.1v40.4c-0.2,0.1-0.5,0.1-0.7,0.1H9.5
	c-1.8,0-3.2-1.4-3.2-3.2V20.6c0-1.8,1.4-3.2,3.2-3.2H22z M89.3,57.5L89.3,57.5c-2.5,5.9-13.6,5.6-21,5.4l-6.8,0l0.9,4.6
	c1.9,9.7,2.3,19.6,1.5,21.4c-0.8,1.7-2.4,2.7-4.3,2.8c-2,0.1-3.5-0.7-4.6-2.5c-9.7-15.7-20.7-28.2-27-30.6c0,0,0,0,0,0
	c-0.1-0.1-0.1-0.1-0.2-0.2V16c1-1,5.5-3.9,23.3-5.6c1.7-0.2,3.1-0.2,4.9-0.2c9.6,0,18.6,2.4,24.5,6.6C91.1,24.2,94.5,46,89.3,57.5z"
	/>
</svg>
