<?xml version="1.0" encoding="utf-8"?>
<!-- Generator: Adobe Illustrator 21.0.0, SVG Export Plug-In . SVG Version: 6.00 Build 0)  -->
<svg version="1.1" id="Layer_2" xmlns="http://www.w3.org/2000/svg" xmlns:xlink="http://www.w3.org/1999/xlink" x="0px" y="0px"
	 viewBox="0 0 100 100" style="enable-background:new 0 0 100 100;" xml:space="preserve">
<g>
	<path d="M92.2,40.7c0.2,0,0.4-0.1,0.7-0.1c0.3-0.1,0.6-0.1,0.9-0.2c1.7-0.3,2.9-1.8,2.9-3.5v-9.7c0-2-1.5-3.5-3.5-3.5H6.7
		c-2,0-3.5,1.5-3.5,3.5V37c0,1.7,1.2,3.1,2.9,3.5c0.3,0.1,0.6,0.1,0.9,0.2c0.2,0,0.5,0.1,0.7,0.1c4.2,1.1,7.1,4.9,7.1,9.3
		c0,4.4-2.9,8.1-7.2,9.3c-0.2,0-0.4,0.1-0.7,0.1c-0.3,0.1-0.6,0.1-0.8,0.2c-1.7,0.3-2.9,1.8-2.9,3.5v9.7c0,2,1.5,3.5,3.5,3.5h86.5
		c2,0,3.5-1.5,3.5-3.5V63c0-1.7-1.2-3.1-3-3.5c-0.5-0.1-1-0.2-1.5-0.3c-4.2-1.1-7.2-4.9-7.2-9.3C85.1,45.6,88,41.9,92.2,40.7z
		 M91.1,64.1l0.2,0c0.1,0,0.3,0.1,0.4,0.1v7H8.2v-7c0.2,0,0.3-0.1,0.5-0.1l0.2,0c6.4-1.7,11-7.5,11-14.1c0-6.7-4.5-12.5-11-14.1
		l-0.1,0c-0.2,0-0.3-0.1-0.5-0.1v-7h83.5v7c-0.2,0-0.3,0.1-0.5,0.1l-0.2,0c-6.4,1.7-10.9,7.5-10.9,14.1
		C80.1,56.7,84.6,62.5,91.1,64.1z"/>
	<path d="M48,59.9h3.9c0.3,0,0.6-0.3,0.6-0.6v-2.8c0-0.3-0.3-0.6-0.6-0.6H48c-0.3,0-0.6,0.3-0.6,0.6v2.8
		C47.4,59.6,47.7,59.9,48,59.9z"/>
	<path d="M48,67.8h3.9c0.3,0,0.6-0.3,0.6-0.6v-2.8c0-0.3-0.3-0.6-0.6-0.6H48c-0.3,0-0.6,0.3-0.6,0.6v2.8
		C47.4,67.5,47.7,67.8,48,67.8z"/>
	<path d="M48,52h3.9c0.3,0,0.6-0.3,0.6-0.6v-2.8c0-0.3-0.3-0.6-0.6-0.6H48c-0.3,0-0.6,0.3-0.6,0.6v2.8C47.4,51.7,47.7,52,48,52z"/>
	<path d="M48,36.2h3.9c0.3,0,0.6-0.3,0.6-0.6v-2.8c0-0.3-0.3-0.6-0.6-0.6H48c-0.3,0-0.6,0.3-0.6,0.6v2.8
		C47.4,35.9,47.7,36.2,48,36.2z"/>
	<path d="M48,44.1h3.9c0.3,0,0.6-0.3,0.6-0.6v-2.8c0-0.3-0.3-0.6-0.6-0.6H48c-0.3,0-0.6,0.3-0.6,0.6v2.8
		C47.4,43.8,47.7,44.1,48,44.1z"/>
</g>
</svg>
