<?xml version="1.0" encoding="utf-8"?>
<!-- Generator: Adobe Illustrator 21.0.0, SVG Export Plug-In . SVG Version: 6.00 Build 0)  -->
<svg version="1.1" id="Layer_2" xmlns="http://www.w3.org/2000/svg" xmlns:xlink="http://www.w3.org/1999/xlink" x="0px" y="0px"
	 viewBox="0 0 100 100" style="enable-background:new 0 0 100 100;" xml:space="preserve">
<g>
	<path d="M31.5,73.6c5.6,0,10.3-4.7,10.3-10.3c0-5.6-4.6-10.2-10.3-10.2c-5.6,0-10.3,4.7-10.3,10.3C21.1,69,25.8,73.6,31.5,73.6z
		 M31.5,58c2.9,0,5.3,2.4,5.3,5.2c0,2.9-2.4,5.3-5.3,5.3c-2.9,0-5.3-2.4-5.3-5.2C26.1,60.5,28.6,58,31.5,58z"/>
	<path d="M69,73.6c5.6,0,10.3-4.7,10.3-10.3C79.3,57.6,74.7,53,69,53c-5.6,0-10.3,4.7-10.3,10.3C58.6,69,63.3,73.6,69,73.6z M69,58
		c2.9,0,5.3,2.4,5.3,5.2c0,2.9-2.4,5.3-5.3,5.3s-5.3-2.4-5.3-5.2C63.6,60.5,66.1,58,69,58z"/>
	<path d="M10.9,3.9v75.4c0,1.4,1.1,2.5,2.5,2.5h7.1l-4.5,13.7c-0.4,1.3,0.3,2.7,1.6,3.2h0c1.3,0.4,2.7-0.3,3.2-1.6l5-15.2h48.8
		l5,15.2c0.4,1.3,1.8,2,3.2,1.6v0c1.3-0.4,2-1.8,1.6-3.2l-4.5-13.7H87c1.4,0,2.5-1.1,2.5-2.5V3.9c0-1.4-1.1-2.5-2.5-2.5H13.4
		C12,1.4,10.9,2.5,10.9,3.9z M15.9,25.3h31.8v19.4H15.9V25.3z M84.5,76.8H15.9V49.7h68.6V76.8z M84.5,44.7H52.7V25.3h31.8V44.7z
		 M15.9,20.3V6.4h68.6v13.9H15.9z"/>
	<path d="M51.8,60.8h-3.1c-1.4,0-2.5,1.1-2.5,2.5v0c0,1.4,1.1,2.5,2.5,2.5h3.1c1.4,0,2.5-1.1,2.5-2.5v0
		C54.3,61.9,53.2,60.8,51.8,60.8z"/>
	<path d="M42.1,13.3L42.1,13.3c0,1.4,1.1,2.5,2.5,2.5h11.1c1.4,0,2.5-1.1,2.5-2.5v0c0-1.4-1.1-2.5-2.5-2.5H44.6
		C43.3,10.8,42.1,11.9,42.1,13.3z"/>
</g>
</svg>
