<?xml version="1.0" encoding="utf-8"?>
<!-- Generator: Adobe Illustrator 21.0.0, SVG Export Plug-In . SVG Version: 6.00 Build 0)  -->
<svg version="1.1" id="Layer_2" xmlns="http://www.w3.org/2000/svg" xmlns:xlink="http://www.w3.org/1999/xlink" x="0px" y="0px"
	 viewBox="0 0 100 100" style="enable-background:new 0 0 100 100;" xml:space="preserve">
<g>
	<path d="M88.5,10.8h-3.3H62.9V3.9c0-1.8-1.4-3.1-3.1-3.1H40c-1.8,0-3.1,1.4-3.1,3.1v6.9H14.6h-3.3c-1.4,0-2.5,1.1-2.5,2.5
		s1.1,2.5,2.5,2.5h3.4l2.4,80.8c0,1.4,1.1,2.4,2.5,2.4h60.6c1.4,0,2.5-1.1,2.5-2.4l2.4-80.8h3.4c1.4,0,2.5-1.1,2.5-2.5
		S89.9,10.8,88.5,10.8z M41.9,5.7h16v5.1h-16V5.7z M77.8,94.1H22l-2.3-78.3h17.2h26h17.2L77.8,94.1z"/>
	<path d="M49.9,36.6c-1.4,0-2.5,1.1-2.5,2.5v18c0,1.4,1.1,2.5,2.5,2.5s2.5-1.1,2.5-2.5v-18C52.4,37.7,51.3,36.6,49.9,36.6z"/>
	<path d="M39.9,38.1c-1.4,0-2.5,1.1-2.5,2.5v15c0,1.4,1.1,2.5,2.5,2.5s2.5-1.1,2.5-2.5v-15C42.4,39.2,41.3,38.1,39.9,38.1z"/>
	<path d="M59.9,38.1c-1.4,0-2.5,1.1-2.5,2.5v15c0,1.4,1.1,2.5,2.5,2.5s2.5-1.1,2.5-2.5v-15C62.4,39.2,61.3,38.1,59.9,38.1z"/>
</g>
</svg>
