<?xml version="1.0" encoding="utf-8"?>
<!-- Generator: Adobe Illustrator 22.0.0, SVG Export Plug-In . SVG Version: 6.00 Build 0)  -->
<svg version="1.1" id="Layer_1" xmlns="http://www.w3.org/2000/svg" xmlns:xlink="http://www.w3.org/1999/xlink" x="0px" y="0px"
	 viewBox="0 0 100 100" style="enable-background:new 0 0 100 100;" xml:space="preserve">
<path d="M78.6,31l4.4-5.6c1.3-1.5,1.7-2.6,1.9-3.3c-3.4,2.2-6.7,2.8-9,2.9H75l-0.6-0.6c-2.8-2.5-6.3-3.9-10.1-3.9
	c-8.2,0-14.8,6.7-14.8,14.8c0,0.6,0,1.2,0.1,1.7l0.4,2.4l-2.5-0.1C32.3,38.9,20.1,26.1,18,23.7c-3.3,6.1-1.5,11.6,0.6,15.1l4,6.6
	L16.3,42c0.1,4.9,2,8.8,5.6,11.6l3,2.3l-3.2,1.3c2,6.1,6.4,8.5,9.8,9.4l4.3,1.2l-3.7,2.6c-6.5,4.6-14.9,4.3-18.3,4
	c7.5,5.1,16.2,6.2,22.4,6.2c4.6,0,7.9-0.6,8.8-0.8C78,72,79.5,42.6,79.4,36.7v-0.9l0.7-0.6c4-3.7,5.7-5.8,6.6-6.9
	c-0.4,0.2-0.8,0.3-1.3,0.5L78.6,31z"/>
</svg>
