<?xml version="1.0" encoding="utf-8"?>
<!-- Generator: Adobe Illustrator 21.0.0, SVG Export Plug-In . SVG Version: 6.00 Build 0)  -->
<svg version="1.1" id="Layer_1" xmlns="http://www.w3.org/2000/svg" xmlns:xlink="http://www.w3.org/1999/xlink" x="0px" y="0px"
	 viewBox="0 0 100 100" style="enable-background:new 0 0 100 100;" xml:space="preserve">
<g id="Layer_3">
</g>
<g>
	<path d="M81.6,1.8c-1.4,0-2.5,1.1-2.5,2.5v51.8c0,16.4-13.5,29.6-30,29.1c-15.8-0.5-28.2-13.9-28.2-29.7V4.3c0-1.4-1.1-2.5-2.5-2.5
		s-2.5,1.1-2.5,2.5v51.1c0,19.1,15.6,35.1,34.7,34.8c18.5-0.3,33.5-15.5,33.5-34.1V4.3C84.1,2.9,83,1.8,81.6,1.8z"/>
	<path d="M79.1,93.2H20.9c-1.4,0-2.5,1.1-2.5,2.5c0,1.4,1.1,2.5,2.5,2.5h58.3c1.4,0,2.5-1.1,2.5-2.5C81.6,94.3,80.5,93.2,79.1,93.2z
		"/>
</g>
</svg>
