<?xml version="1.0" encoding="utf-8"?>
<!-- Generator: Adobe Illustrator 19.0.0, SVG Export Plug-In . SVG Version: 6.00 Build 0)  -->
<svg version="1.1" id="Layer_2" xmlns="http://www.w3.org/2000/svg" xmlns:xlink="http://www.w3.org/1999/xlink" x="0px" y="0px"
	 width="100px" height="100px" viewBox="-249 151 100 100" style="enable-background:new -249 151 100 100;" xml:space="preserve">
<g>
	<path d="M-201.3,203.7L-201.3,203.7c-3.1-3.1-7.1-5.2-11.4-5.5c-0.4,0-0.8,0-1.3,0c-4.9,0-9.5,2.1-13,5.6l-13.8,13.8
		c-3.4,3.4-5.3,7.9-5.3,12.7c0,6.2,3.3,12.1,9.1,15.5c1.3,0.8,2.7,1.4,4.2,1.8c6.5,1.7,13-0.2,17.5-4.7l14.1-14.1
		c3.3-3.4,5.1-7.8,5.2-12.6c0-2.8-0.6-5.5-1.9-8C-198.8,206.5-200,205-201.3,203.7z M-204.9,225.2l-14.1,14.1
		c-2.5,2.5-5.7,3.8-9.2,3.8c-3.4,0-6.7-1.4-9.2-3.8c-2.5-2.5-3.8-5.6-3.8-9.1c0-3.4,1.4-6.7,3.8-9.2l14.1-14.1
		c2.5-2.5,5.7-3.8,9.2-3.8c2.5,0,5,0.7,7.1,2.1l-4.7,4.7c-1,1-1,2.6,0,3.5c1,1,2.6,1,3.5,0l4.7-4.7c1.6,2.3,2.4,4.9,2.4,7.4
		C-201.2,219.5-202.6,222.8-204.9,225.2z"/>
	<path d="M-157.1,158.9c-3.4-3.4-7.9-5.3-12.7-5.3s-9.3,1.9-12.8,5.4l-14.1,14.1c-4.7,4.8-6.2,11.7-4.4,17.8
		c0.8,2.9,2.5,5.4,4.7,7.5l1.8,1.7c3.2,2.5,7.1,3.7,10.9,3.7c4.6,0,9.2-1.8,12.7-5.3l14.1-14.1c3.3-3.3,5.2-7.9,5.2-12.8
		C-151.9,166.8-153.7,162.3-157.1,158.9z M-160.6,180.9l-14.1,14.1c-4.4,4.4-11.3,5-16.4,1.5l5.6-5.6c1-1,1-2.6,0-3.5
		c-1-1-2.6-1-3.5,0l-5.7,5.7c-3.4-5-2.8-12,1.5-16.4l14.1-14.1c2.5-2.5,5.8-3.9,9.3-3.9c3.5,0,6.7,1.4,9.2,3.8
		c2.5,2.5,3.8,5.7,3.8,9.2C-156.9,175.2-158.2,178.5-160.6,180.9z"/>
	<path d="M-213.5,182.5l-9.2-9.2c-1-1-2.6-1-3.5,0l0,0c-1,1-1,2.6,0,3.5l9.2,9.2c1,1,2.6,1,3.5,0l0,0
		C-212.5,185-212.5,183.4-213.5,182.5z"/>
	<path d="M-207.9,162.5L-207.9,162.5c-1.4,0-2.5,1.1-2.5,2.5v13c0,1.4,1.1,2.5,2.5,2.5h0c1.4,0,2.5-1.1,2.5-2.5v-13
		C-205.4,163.6-206.6,162.5-207.9,162.5z"/>
	<path d="M-221.5,189h-13c-1.4,0-2.5,1.1-2.5,2.5v0c0,1.4,1.1,2.5,2.5,2.5h13c1.4,0,2.5-1.1,2.5-2.5v0
		C-219,190.1-220.1,189-221.5,189z"/>
	<path d="M-183.8,219.2l9.2,9.2c1,1,2.6,1,3.5,0h0c1-1,1-2.6,0-3.5l-9.2-9.2c-1-1-2.6-1-3.5,0h0
		C-184.8,216.7-184.8,218.2-183.8,219.2z"/>
	<path d="M-175.7,212.7h13c1.4,0,2.5-1.1,2.5-2.5v0c0-1.4-1.1-2.5-2.5-2.5h-13c-1.4,0-2.5,1.1-2.5,2.5v0
		C-178.2,211.5-177.1,212.7-175.7,212.7z"/>
	<path d="M-189.3,239.2L-189.3,239.2c1.4,0,2.5-1.1,2.5-2.5v-13c0-1.4-1.1-2.5-2.5-2.5h0c-1.4,0-2.5,1.1-2.5,2.5v13
		C-191.8,238.1-190.7,239.2-189.3,239.2z"/>
</g>
</svg>
