<?xml version="1.0" encoding="utf-8"?>
<!-- Generator: Adobe Illustrator 19.0.0, SVG Export Plug-In . SVG Version: 6.00 Build 0)  -->
<svg version="1.1" id="Layer_1" xmlns="http://www.w3.org/2000/svg" xmlns:xlink="http://www.w3.org/1999/xlink" x="0px" y="0px"
	 width="100px" height="100px" viewBox="-249 151 100 100" style="enable-background:new -249 151 100 100;" xml:space="preserve">
<style type="text/css">
	.st0{fill:none;}
</style>
<path class="st0" d="M-184.3,181.2v-8.4c0-4.7-2.6-9-6.6-11.2c-5.2-2.7-10.7-2.7-15.3,0"/>
<path class="st0" d="M-234,246.2h70.4v-58.9H-234V246.2z M-208.1,224.8c0-1.4,1.1-2.5,2.5-2.5h13.3c1.4,0,2.5,1.1,2.5,2.5v13.3
	c0,1.4-1.1,2.5-2.5,2.5h-13.3c-1.4,0-2.5-1.1-2.5-2.5V224.8z"/>
<rect x="-203.1" y="227.3" class="st0" width="8.3" height="8.3"/>
<path d="M-236.5,182.3c-1.4,0-2.5,1.1-2.5,2.5v63.9c0,1.4,1.1,2.5,2.5,2.5h75.4c1.4,0,2.5-1.1,2.5-2.5v-63.9c0-1.4-1.1-2.5-2.5-2.5
	h-18.3v-9.5c0-6.5-3.5-12.5-9.2-15.6c-6.7-3.6-14.1-3.6-20.2,0.1c-4.7,2.8-8,7.6-9,12.9c-0.3,1.5,0.9,2.8,2.3,2.8h0.2
	c1.2,0,2.1-0.9,2.4-2c0.8-3.9,3.2-7.3,6.7-9.4c4.6-2.7,10.1-2.7,15.3,0c4,2.2,6.6,6.5,6.6,11.2l0,9.5L-236.5,182.3z M-163.6,246.2
	H-234v-58.9h70.4V246.2z"/>
<path d="M-205.6,240.6h13.3c1.4,0,2.5-1.1,2.5-2.5v-13.3c0-1.4-1.1-2.5-2.5-2.5h-13.3c-1.4,0-2.5,1.1-2.5,2.5v13.3
	C-208.1,239.5-207,240.6-205.6,240.6z M-203.1,227.3h8.3v8.3h-8.3V227.3z"/>
</svg>
