<?xml version="1.0" encoding="utf-8"?>
<!-- Generator: Adobe Illustrator 19.0.0, SVG Export Plug-In . SVG Version: 6.00 Build 0)  -->
<svg version="1.1" id="Layer_2" xmlns="http://www.w3.org/2000/svg" xmlns:xlink="http://www.w3.org/1999/xlink" x="0px" y="0px"
	 width="100px" height="100px" viewBox="-249 151 100 100" style="enable-background:new -249 151 100 100;" xml:space="preserve">
<g>
	<path d="M-198.3,164.2c-0.4-0.4-1-0.4-1.4,0l-13,12.9c-1,1-1,2.6,0,3.5c1,1,2.6,1,3.5,0l7.6-7.7v50.6c0,1.4,1.1,2.5,2.5,2.5
		c1.6,0,2.7-1.1,2.7-2.5v-50.6l7.6,7.7c1,1,2.6,1,3.5,0c1-1,1-2.6,0-3.5L-198.3,164.2z"/>
	<path d="M-151.8,210.9c-1.4,0-2.5,1.1-2.5,2.5v19.4h-89.4v-19.4c0-1.4-1.1-2.5-2.5-2.5s-2.5,1.1-2.5,2.5v21.9
		c0,1.4,1.1,2.5,2.5,2.5h94.4c1.4,0,2.5-1.1,2.5-2.5v-21.9C-149.3,212-150.4,210.9-151.8,210.9z"/>
</g>
</svg>
