<?xml version="1.0" encoding="utf-8"?>
<!-- Generator: Adobe Illustrator 21.0.0, SVG Export Plug-In . SVG Version: 6.00 Build 0)  -->
<svg version="1.1" id="Layer_1" xmlns="http://www.w3.org/2000/svg" xmlns:xlink="http://www.w3.org/1999/xlink" x="0px" y="0px"
	 viewBox="0 0 100 100" style="enable-background:new 0 0 100 100;" xml:space="preserve">
<g>
	<path d="M38.7,61c12.2,0,22.1-9.9,22.1-22.1c0-12.2-9.9-22.1-22.1-22.1c-12.2,0-22.1,9.9-22.1,22.1C16.6,51,26.5,61,38.7,61z
		 M38.7,21.7c9.4,0,17.1,7.7,17.1,17.1c0,9.4-7.7,17.1-17.1,17.1c-9.4,0-17.1-7.7-17.1-17.1C21.6,29.4,29.3,21.7,38.7,21.7z"/>
	<path d="M77.1,61.3c7.3,0,13.3-6,13.3-13.3s-6-13.3-13.3-13.3c-7.3,0-13.3,6-13.3,13.3S69.8,61.3,77.1,61.3z M77.1,39.6
		c4.6,0,8.3,3.7,8.3,8.3c0,4.6-3.7,8.3-8.3,8.3s-8.3-3.7-8.3-8.3C68.8,43.4,72.6,39.6,77.1,39.6z"/>
	<path d="M77.1,63.1c-5,0-9.8,1.2-14.1,3.5c1.8,0.9,3.6,1.9,5.4,3.1c2.8-1,5.7-1.6,8.7-1.6c5.9,0,11.6,2.1,16.1,5.9
		c1,0.8,2.5,0.8,3.4-0.1l0,0c1-1,1-2.7-0.1-3.6C91.1,65.6,84.3,63.1,77.1,63.1z"/>
	<path d="M3.2,82.5L3.2,82.5c0.9,0.9,2.4,1,3.4,0.1c8.9-8.1,20.2-12.5,32.2-12.5c6.7,0,13.2,1.4,19.2,4c0.6,0.3,1.3,0.6,1.9,0.9
		c4,2,7.7,4.5,11.1,7.6c1,0.9,2.5,0.9,3.4-0.1l0,0c1-1,1-2.7-0.1-3.6C64.4,70,51.9,65.2,38.7,65.2C25.5,65.2,13,70,3.2,78.9
		C2.2,79.9,2.1,81.5,3.2,82.5z"/>
</g>
</svg>
