<?xml version="1.0" encoding="utf-8"?>
<!-- Generator: Adobe Illustrator 21.0.0, SVG Export Plug-In . SVG Version: 6.00 Build 0)  -->
<svg version="1.1" id="Layer_2" xmlns="http://www.w3.org/2000/svg" xmlns:xlink="http://www.w3.org/1999/xlink" x="0px" y="0px"
	 viewBox="0 0 100 100" style="enable-background:new 0 0 100 100;" xml:space="preserve">
<style type="text/css">
	.st0{fill:none;}
</style>
<rect x="47.1" y="48.5" class="st0" width="5.9" height="3"/>
<rect x="47.1" y="48.5" class="st0" width="5.9" height="3"/>
<path d="M49.7,50.2h0.5c-0.2-0.1-0.4-0.2-0.5-0.3V50.2z"/>
<path d="M92,37.1c4.8,0,8.6-4.4,7.6-9.3c-0.6-3-3-5.4-6-6c-4-0.8-7.7,1.6-8.9,5.1H57.3c-1-3-3.9-5.3-7.3-5.3s-6.3,2.2-7.3,5.3H15.3
	c-1.2-3.5-4.8-5.9-8.9-5.1c-3,0.6-5.4,3-6,6c-1,5,2.8,9.3,7.6,9.3c3.4,0,6.3-2.2,7.3-5.3h15.1c-12,6.6-20.4,19-21.3,33.5H5.9
	c-1.4,0-2.5,1.1-2.5,2.5v8c0,1.4,1.1,2.5,2.5,2.5h10.9c1.4,0,2.5-1.1,2.5-2.5v-8c0-1.4-1.1-2.5-2.5-2.5h-2.6
	C15.2,49,27.3,35.7,42.9,32.6c1.2,2.7,3.9,4.6,7.1,4.6s5.8-1.9,7.1-4.6C72.7,35.7,84.8,49,85.9,65.4h-3c-1.4,0-2.5,1.1-2.5,2.5v8
	c0,1.4,1.1,2.5,2.5,2.5h10.9c1.4,0,2.5-1.1,2.5-2.5v-8c0-1.4-1.1-2.5-2.5-2.5h-2.9C90,50.9,81.6,38.5,69.6,31.9h15.1
	C85.7,34.9,88.6,37.1,92,37.1z M90.9,26.9c0.3-0.2,0.7-0.3,1.1-0.3s0.8,0.1,1.1,0.3c0.2,0.1,0.4,0.2,0.5,0.3
	c0.7,0.5,1.1,1.3,1.1,2.2s-0.4,1.7-1.1,2.2c-0.2,0.1-0.3,0.2-0.5,0.3c-0.3,0.2-0.7,0.3-1.1,0.3s-0.8-0.1-1.1-0.3
	c-1-0.4-1.6-1.4-1.6-2.5S89.9,27.3,90.9,26.9z M9.1,31.9C8.8,32,8.4,32.1,8,32.1S7.2,32,6.9,31.9H6.3v-0.3c-0.7-0.5-1.1-1.3-1.1-2.2
	s0.4-1.7,1.1-2.2c0.2-0.1,0.3-0.2,0.5-0.3c0.3-0.2,0.7-0.3,1.1-0.3s0.8,0.1,1.1,0.3c1,0.4,1.6,1.4,1.6,2.5S10.1,31.4,9.1,31.9z
	 M14.3,70.4v3H8.4v-3H14.3z M51.1,31.9C51.1,31.9,51.1,31.9,51.1,31.9c-0.4,0.2-0.7,0.3-1.1,0.3s-0.7-0.1-1.1-0.2c0,0,0,0-0.1,0
	c-1-0.4-1.6-1.4-1.6-2.5c0-1.1,0.6-2,1.6-2.5c0,0,0,0,0.1,0c0.3-0.2,0.7-0.3,1.1-0.3s0.8,0.1,1.1,0.3c0,0,0,0,0.1,0
	c0.9,0.4,1.6,1.4,1.6,2.5C52.8,30.5,52.1,31.4,51.1,31.9z M91.3,73.4h-5.9v-3h5.9V73.4z"/>
</svg>
