<?xml version="1.0" encoding="utf-8"?>
<!-- Generator: Adobe Illustrator 19.0.0, SVG Export Plug-In . SVG Version: 6.00 Build 0)  -->
<svg version="1.1" id="Layer_1" xmlns="http://www.w3.org/2000/svg" xmlns:xlink="http://www.w3.org/1999/xlink" x="0px" y="0px"
	 width="100px" height="100px" viewBox="-74 0 100 100" style="enable-background:new -74 0 100 100;" xml:space="preserve">
<g>
	<polygon points="-28.5,60.6 -25.1,39.3 -30.6,39.3 -34,60.6 	"/>
	<path d="M-19,61c5.8,0,9.6-2.9,9.6-7.3c0-2.4-1.4-4.3-4.6-5.8c-1.9-1-3.1-1.6-3.1-2.6c0-0.9,1-1.8,3.2-1.8c1.8,0,3.1,0.4,4.1,0.8
		l0.5,0.2l0.7-4.6c-1.1-0.4-2.8-0.9-4.9-0.9c-5.4,0-9.3,2.9-9.3,7c0,3.1,2.7,4.8,4.8,5.8s2.9,1.7,2.9,2.6c0,1.4-1.7,2.1-3.3,2.1
		c-2.2,0-3.4-0.3-5.2-1.1l-0.7-0.3l-0.8,4.8C-23.8,60.5-21.4,61-19,61z"/>
	<path d="M-4.2,60.6c0,0,0.9-2.6,1.2-3.2c0.6,0,6.2,0,7,0c0.2,0.7,0.7,3.2,0.7,3.2h5.1L5.3,39.3H1.1c-1.3,0-2.3,0.4-2.9,1.8
		L-10,60.6H-4.2z M0.7,47.1c0,0.1,0.5-1.2,0.7-2l0.4,1.8c0,0,1.1,5.1,1.3,6.1c-0.9,0-3.5,0-4.6,0C-1,51.8,0.7,47.1,0.7,47.1z"/>
	<polygon points="-47.3,60.6 -41.5,60.6 -32.8,39.3 -38.6,39.3 -44,53.9 -46.9,39.3 -58,39.3 -51.7,44 	"/>
	<path d="M-73.6,22.7v54.7c0,1.4,1.1,2.5,2.5,2.5H23c1.4,0,2.5-1.1,2.5-2.5V22.7c0-1.4-1.1-2.5-2.5-2.5h-94.1
		C-72.5,20.2-73.6,21.3-73.6,22.7z M20.5,74.9h-89.1V25.2h89.1V74.9z"/>
</g>
</svg>
