<?xml version="1.0" encoding="utf-8"?>
<!-- Generator: Adobe Illustrator 21.0.0, SVG Export Plug-In . SVG Version: 6.00 Build 0)  -->
<svg version="1.1" id="Layer_1" xmlns="http://www.w3.org/2000/svg" xmlns:xlink="http://www.w3.org/1999/xlink" x="0px" y="0px"
	 viewBox="0 0 100 100" style="enable-background:new 0 0 100 100;" xml:space="preserve">
<g>
	<path d="M65.8,10.5c-1.1-0.5-2.4-0.4-3.4,0.2L35.7,26.2H10.9c-2.1,0-3.7,1.6-3.7,3.7v40.2c0,2.1,1.6,3.7,3.7,3.7h25l26.7,15.5
		c0.6,0.3,1.2,0.5,1.9,0.5c0.6,0,1.3-0.2,1.8-0.5c1.1-0.7,1.8-1.9,1.8-3.2V13.8v-0.4C67.9,12.2,67,11.1,65.8,10.5z M33.9,68.8H12.2
		V31.2h21.7V68.8z M63.1,83.8l-24.2-14V30.2l24.2-14.1V83.8z"/>
	<path d="M75.6,28.8c-0.9-1.1-2.6-1.1-3.7-0.1c-0.9,0.9-1,2.4-0.1,3.4c4.3,5,6.6,11.3,6.6,18s-2.3,13-6.6,18.1
		c-0.8,1-0.8,2.5,0.1,3.4c1,1,2.7,1,3.7-0.1c5.1-6,7.9-13.5,7.9-21.4S80.7,34.7,75.6,28.8z"/>
	<path d="M82.3,22.1C81.4,21,79.7,21,78.7,22c-0.9,0.9-1,2.4-0.1,3.4C91,39.5,91,60.8,78.6,74.8c-0.9,1-0.8,2.5,0.1,3.4
		c1,1,2.7,1,3.6-0.1C96.3,62.2,96.3,38.1,82.3,22.1z"/>
</g>
</svg>
