<?xml version="1.0" encoding="utf-8"?>
<!-- Generator: Adobe Illustrator 21.0.0, SVG Export Plug-In . SVG Version: 6.00 Build 0)  -->
<svg version="1.1" id="Layer_2" xmlns="http://www.w3.org/2000/svg" xmlns:xlink="http://www.w3.org/1999/xlink" x="0px" y="0px"
	 viewBox="0 0 100 100" style="enable-background:new 0 0 100 100;" xml:space="preserve">
<g>
	<path d="M61.6,10.5c-1.1-0.5-2.4-0.4-3.4,0.2L31.5,26.2H6.7c-2.1,0-3.7,1.6-3.7,3.7v40.2c0,2.1,1.6,3.7,3.7,3.7h25l26.7,15.5
		c0.6,0.3,1.2,0.5,1.9,0.5c0.6,0,1.3-0.2,1.8-0.5c1.1-0.7,1.8-1.9,1.8-3.2V13.8l0-0.4C63.7,12.2,62.8,11.1,61.6,10.5z M29.7,68.8H8
		V31.2h21.7V68.8z M58.9,83.8L34.7,69.8V30.2l24.2-14.1V83.8z"/>
	<path d="M85.7,16.7c-0.9-1.1-2.6-1.2-3.6-0.2c-1,0.9-1,2.4-0.2,3.4c7.2,8.4,11.1,18.9,11.1,30c0,11.1-3.9,21.8-11.1,30.3
		c-0.9,1-0.8,2.5,0.2,3.4c1,1,2.7,0.9,3.6-0.2C93.7,74,98,62.2,98,49.9C98,37.7,93.7,26,85.7,16.7z"/>
	<path d="M71.4,28.8c-0.9-1.1-2.6-1.1-3.7-0.1c-0.9,0.9-1,2.4-0.1,3.4c4.3,5,6.6,11.3,6.6,18c0,6.7-2.3,13-6.6,18.1
		c-0.8,1-0.8,2.5,0.1,3.4c1,1,2.7,1,3.7-0.1c5.1-6,7.9-13.5,7.9-21.4C79.3,42.2,76.5,34.7,71.4,28.8z"/>
	<path d="M78.1,22.1C77.2,21,75.5,21,74.5,22c-0.9,0.9-1,2.4-0.1,3.4c12.4,14.1,12.4,35.4,0,49.4c-0.9,1-0.8,2.5,0.1,3.4
		c1,1,2.7,1,3.6-0.1C92.1,62.2,92.1,38.1,78.1,22.1z"/>
</g>
</svg>
