<?xml version="1.0" encoding="utf-8"?>
<!-- Generator: Adobe Illustrator 21.0.0, SVG Export Plug-In . SVG Version: 6.00 Build 0)  -->
<svg version="1.1" id="Layer_1" xmlns="http://www.w3.org/2000/svg" xmlns:xlink="http://www.w3.org/1999/xlink" x="0px" y="0px"
	 viewBox="0 0 100 100" style="enable-background:new 0 0 100 100;" xml:space="preserve">
<path d="M87.6,4.2c-0.2-1.4-1.1-2.6-2.5-3.2c-1.2-0.6-2.6-0.5-3.7,0.2L47.8,20.8H16.4c-2.3,0-4,1.7-4,4v50.5c0,2.3,1.7,4,4,4h31.5
	l33.7,19.6c0.6,0.4,1.3,0.5,2,0.5c0.7,0,1.4-0.2,2-0.5c1.2-0.7,2-2.1,2-3.5V4.5L87.6,4.2z M17.4,25.8h28.6v48.5H17.4V25.8z
	 M82.6,93.6L50.9,75.2V24.7L82.6,6.3V93.6z"/>
</svg>
