<?xml version="1.0" encoding="utf-8"?>
<!-- Generator: Adobe Illustrator 21.0.0, SVG Export Plug-In . SVG Version: 6.00 Build 0)  -->
<svg version="1.1" id="Layer_2" xmlns="http://www.w3.org/2000/svg" xmlns:xlink="http://www.w3.org/1999/xlink" x="0px" y="0px"
	 viewBox="0 0 100 100" style="enable-background:new 0 0 100 100;" xml:space="preserve">
<g>
	<path d="M95.5,62.2L60.8,20c-2.7-3.3-6.6-5.1-10.7-5.1c-4.3,0-8.4,2-11.1,5.4L4.5,62.2C1,66.4,0.3,72.1,2.7,77
		c2.4,5,7.4,8.1,12.9,8.1h68.9c5.5,0,10.5-3.1,13-8.2C99.7,72,99,66.3,95.5,62.2z M93,74.9c-1.6,3.3-4.8,5.3-8.5,5.3H15.6
		c-3.7,0-6.8-2-8.4-5.3c-1.5-3.2-1.1-6.8,1.2-9.5l34.5-41.9c1.8-2.3,4.4-3.6,7.2-3.6c2.7,0,5.2,1.2,6.9,3.3l34.7,42.2l0,0
		C93.9,68,94.4,71.7,93,74.9z"/>
	<path d="M50,65c1.4,0,2.5-1.1,2.5-2.5v-31c0-1.4-1.1-2.5-2.5-2.5s-2.5,1.1-2.5,2.5v31C47.5,63.8,48.6,65,50,65z"/>
	<circle cx="50" cy="71.5" r="3"/>
</g>
</svg>
