<?xml version="1.0" encoding="utf-8"?>
<!-- Generator: Adobe Illustrator 19.0.0, SVG Export Plug-In . SVG Version: 6.00 Build 0)  -->
<svg version="1.1" id="Layer_2" xmlns="http://www.w3.org/2000/svg" xmlns:xlink="http://www.w3.org/1999/xlink" x="0px" y="0px"
	 width="100px" height="100px" viewBox="-249 151 100 100" style="enable-background:new -249 151 100 100;" xml:space="preserve">
<path d="M-152.5,207.4l-3.4-6l-0.1-0.1c-1.3-2.1-4.1-2.9-6.4-1.8l-5.3,2.5l-7.2-12.2l-0.1-0.2c-1-1.4-2.4-2.1-4.1-2.1h-16.1v-13.2
	c3.5-2.1,5.7-6,5.7-10.2c0-6.7-5.2-11.9-11.9-11.9c-6.7,0-11.9,5.2-11.9,11.9c0,2,0.5,4.1,1.4,5.8l0,13.3c-0.3,0-0.6,0-0.9,0
	c-18.4,0-33.5,15-33.5,33.5s15,33.5,33.5,33.5c18.4,0,33.5-15,33.5-33.5c0-0.6,0-1.1,0-1.7l3.1,5.5c0.6,1.1,1.9,2.4,4.5,2.4
	c0.8,0,0.8,0,17.4-8.6l0.2-0.1C-151.8,212.5-151.1,209.6-152.5,207.4z M-212.7,244.9c-15.7,0-28.5-12.8-28.5-28.5
	c0-15.7,12.8-28.5,28.5-28.5c0.3,0,0.6,0,0.9,0l0,10.9c0,2.8,2,4.8,4.8,4.8h18.5c2.8,4.1,4.2,7.4,4.2,12.7
	C-184.3,232.2-197,244.9-212.7,244.9z M-172.1,217.5l-10.4-18.8l-24.3,0l-0.1-30.4l-0.4-0.6c-0.6-1-1-2.4-1-3.7c0-3.9,3-6.9,6.9-6.9
	c3.9,0,6.9,3,6.9,6.9c0,2.8-1.6,5.3-4.2,6.4l-1.5,0.6v21.4h21.1c0,0,0,0,0,0l9.4,16l9.5-4.4l3.3,5.8
	C-162,212.4-169.7,216.4-172.1,217.5z"/>
</svg>
