<?xml version="1.0" encoding="utf-8"?>
<!-- Generator: Adobe Illustrator 22.0.0, SVG Export Plug-In . SVG Version: 6.00 Build 0)  -->
<svg version="1.1" id="Layer_1" xmlns="http://www.w3.org/2000/svg" xmlns:xlink="http://www.w3.org/1999/xlink" x="0px" y="0px"
	 viewBox="0 0 100 100" style="enable-background:new 0 0 100 100;" xml:space="preserve">
<path d="M90.2,22.8c-0.1-0.2-0.2-0.5-0.5-0.7c-0.3-0.5-0.7-0.9-1-1.3C79.9,9.1,65.7,1.5,50,1.5C31.4,1.5,15.3,12,7.1,27.3
	c0,0-0.1,0.1-0.1,0.2C3.6,34.2,1.5,41.9,1.5,50c0,21,13.5,39,32.2,45.6c0.1,0,0.1,0,0.2,0.1c5,1.8,10.5,2.7,16.1,2.7
	c26.7,0,48.5-21.8,48.5-48.5C98.5,40,95.4,30.6,90.2,22.8z M50,4.8c12.6,0,23.9,5.1,32.1,13.4c-0.6,0-1.1,0-1.8,0.1
	c-4.3,0.7-7.6,3.9-8.5,8.1c-1,4.7,0.8,8.3,2.6,11.9c1.8,3.7,3.7,7.1,2.3,11.5l-6.2,15.9l-13.1-34H60c0.9,0,1.7-0.8,1.7-1.7
	c0-0.9-0.8-1.7-1.7-1.7h-4.9H36.6c-0.9,0-1.7,0.8-1.7,1.7c0,0.9,0.8,1.7,1.7,1.7h3.3l6,15.4l-7.3,18.6l-13-34h4.2
	c0.9,0,1.7-0.8,1.7-1.7c0-0.9-0.8-1.7-1.7-1.7h-6.6l-12.8-0.1C18.2,14.3,33,4.8,50,4.8z M4.8,50c0-6.3,1.3-12.2,3.7-17.7l22.9,58.8
	C15.8,84,4.8,68.3,4.8,50z M50,95.2c-4.3,0-8.6-0.7-12.6-1.8l13.2-34.1L63.7,93C59.5,94.4,54.8,95.2,50,95.2z M70.4,90.3L84,55.4
	c0.8-1.8,6-14.4,7.1-24.1c2.6,5.7,4.1,12.1,4.1,18.7C95.2,67.6,85.1,82.8,70.4,90.3z"/>
</svg>
