<?xml version="1.0" encoding="utf-8"?>
<!-- Generator: Adobe Illustrator 19.0.0, SVG Export Plug-In . SVG Version: 6.00 Build 0)  -->
<svg version="1.1" id="Layer_1" xmlns="http://www.w3.org/2000/svg" xmlns:xlink="http://www.w3.org/1999/xlink" x="0px" y="0px"
	 width="100px" height="100px" viewBox="-74 0 100 100" style="enable-background:new -74 0 100 100;" xml:space="preserve">
<path id="XMLID_10_" d="M16.2,22.8c-0.1-0.2-0.2-0.5-0.5-0.7c-0.3-0.5-0.7-0.9-1-1.3C5.9,9.1-8.3,1.5-24,1.5
	c-18.6,0-34.7,10.5-42.9,25.8c0,0-0.1,0.1-0.1,0.2c-3.4,6.7-5.5,14.4-5.5,22.5c0,21,13.5,39,32.2,45.6c0.1,0,0.1,0,0.2,0.1
	c5,1.8,10.5,2.7,16.1,2.7c26.7,0,48.5-21.8,48.5-48.5C24.5,40,21.4,30.6,16.2,22.8z M-63.6,28.2C-55.8,14.3-41,4.8-24,4.8
	c12.6,0,23.9,5.1,32.1,13.4c-0.6,0-1.1,0-1.8,0.1C2,19-1.3,22.2-2.2,26.4c-1,4.7,0.8,8.3,2.6,11.9c1.8,3.7,3.7,7.1,2.3,11.5
	l-6.2,15.9l-13.1-34h2.6c0.9,0,1.7-0.8,1.7-1.7c0-0.9-0.8-1.7-1.7-1.7h-4.9h-18.5c-0.9,0-1.7,0.8-1.7,1.7c0,0.9,0.8,1.7,1.7,1.7h3.3
	l6,15.4l-7.3,18.6l-13-34h4.2c0.9,0,1.7-0.8,1.7-1.7c0-0.9-0.8-1.7-1.7-1.7h-6.6L-63.6,28.2L-63.6,28.2z M-69.2,50
	c0-6.3,1.3-12.2,3.7-17.7l22.9,58.8C-58.2,84-69.2,68.3-69.2,50z M-24,95.2c-4.3,0-8.6-0.7-12.6-1.8l13.2-34.1l13.1,33.7
	C-14.5,94.4-19.2,95.2-24,95.2z M-21.7,54.1L-21.7,54.1c-0.1-0.1-0.1-0.2-0.2-0.3c0-0.1-0.1-0.1-0.1-0.2c-0.1-0.1-0.1-0.1-0.2-0.1
	c-0.1-0.1-0.2-0.1-0.3-0.2l0,0c-0.1,0-0.1,0-0.2,0c-0.1,0-0.2-0.1-0.3-0.1s-0.2,0-0.3,0.1c-0.1,0-0.1,0-0.2,0l0,0
	c-0.1,0-0.2,0.1-0.3,0.2c-0.1,0-0.1,0.1-0.2,0.1c-0.1,0.1-0.1,0.1-0.1,0.2c-0.1,0.1-0.1,0.2-0.2,0.3l0,0l-14.5,36.7l-23.1-59.2h10.4
	L-36.8,71l0,0c0,0,0,0.1,0.1,0.1c0.1,0.1,0.1,0.2,0.2,0.3l0.1,0.1c0.1,0.1,0.2,0.2,0.3,0.2c0,0,0.1,0,0.1,0.1l0,0
	c0.2,0.1,0.3,0.1,0.6,0.1s0.3,0,0.6-0.1l0,0c0,0,0.1,0,0.1-0.1c0.1-0.1,0.2-0.1,0.3-0.2l0.1-0.1c0.1-0.1,0.2-0.2,0.2-0.3l0.1-0.1
	l0,0l9.1-23.3l0,0l0,0v-0.1c0-0.1,0.1-0.3,0.1-0.5c0-0.1,0-0.2,0-0.3s0-0.2,0-0.2l-5.8-14.8H-20l15.1,39.4l0,0c0,0,0,0.1,0.1,0.1
	c0.1,0.1,0.1,0.2,0.2,0.3l0.1,0.1c0.1,0.1,0.2,0.2,0.3,0.2c0,0,0.1,0,0.1,0.1l0,0c0.2,0.1,0.3,0.1,0.6,0.1l0,0c0.1,0,0.1,0,0.2,0
	s0.2,0,0.3-0.1l0,0c0.1,0,0.2-0.1,0.3-0.2c0.1,0,0.1-0.1,0.2-0.1c0.1-0.1,0.1-0.1,0.1-0.2c0.1-0.1,0.1-0.2,0.2-0.3l0,0l7.8-20
	C7.6,45.2,5.3,40.9,3.4,37c-1.7-3.3-3.1-6-2.3-9.6c0.7-3,2.9-5,5.8-5.6c0.6-0.1,1-0.1,1.6-0.1c1.5,0,2.9,0.6,3.9,1.5
	c0.3,0.5,0.7,0.9,1,1.4c2.5,5.4-2.4,20.8-6.3,29.7L-7.3,90.9L-21.7,54.1z M-3.6,90.3L10,55.4c0.8-1.8,6-14.4,7.1-24.1
	c2.6,5.7,4.1,12.1,4.1,18.7C21.2,67.6,11.1,82.8-3.6,90.3z"/>
</svg>
