<?xml version="1.0" encoding="utf-8"?>
<!-- Generator: Adobe Illustrator 22.0.0, SVG Export Plug-In . SVG Version: 6.00 Build 0)  -->
<svg version="1.1" id="Layer_1" xmlns="http://www.w3.org/2000/svg" xmlns:xlink="http://www.w3.org/1999/xlink" x="0px" y="0px"
	 viewBox="0 0 100 100" style="enable-background:new 0 0 100 100;" xml:space="preserve">
<path d="M83.6,29.1c-3-7.4-8.7-13.5-16-17c-7.2-3.4-15.2-4.1-22.7-2l-3.1-8.4l-1.6,0.6C30,6.1,21.4,13.5,16.6,23.4
	c-4.9,10.1-5.4,21.5-1.6,32.1c5.8,15.8,20.3,25.9,36.1,26.8v10.9h-9.6c-1.4,0-2.5,1.1-2.5,2.5l0,0c0,1.4,1.1,2.5,2.5,2.5h23.7
	c1.4,0,2.5-1.1,2.5-2.5l0,0c0-1.4-1.1-2.5-2.5-2.5h-9.1V82.3c3.9-0.2,7.8-1,11.7-2.4l2.3-0.9l-3.1-8.4c7-3.2,12.6-8.7,15.9-15.8
	C86.7,46.7,87,37.5,83.6,29.1z M19.8,53.7c-3.3-9.1-2.9-18.9,1.1-27.6c3.7-8,10-14.2,18-17.8l1.3,3.6c-7,3.2-12.6,8.7-15.9,15.8
	c-3.6,7.8-4,16.6-1,24.7c3,8.1,8.9,14.5,16.8,18.2c4.3,2,8.9,3,13.5,3c2.9,0,5.9-0.4,8.8-1.2l1.3,3.6C45.7,81.2,26.4,71.6,19.8,53.7
	z M78.4,52.7c-3.1,6.6-8.5,11.6-15.4,14.2c-6.8,2.5-14.3,2.2-20.9-0.8c-6.6-3.1-11.6-8.5-14.2-15.4c-2.5-6.8-2.2-14.3,0.8-20.9
	c3.1-6.6,8.5-11.6,15.4-14.2c3.1-1.1,6.3-1.7,9.4-1.7c3.9,0,7.8,0.8,11.4,2.5c6.6,3.1,11.6,8.5,14.2,15.4
	C81.8,38.7,81.5,46.1,78.4,52.7z"/>
</svg>
