<?xml version="1.0" encoding="utf-8"?>
<!-- Generator: Adobe Illustrator 19.0.0, SVG Export Plug-In . SVG Version: 6.00 Build 0)  -->
<svg version="1.1" id="Layer_1" xmlns="http://www.w3.org/2000/svg" xmlns:xlink="http://www.w3.org/1999/xlink" x="0px" y="0px"
	 width="100px" height="100px" viewBox="-249 151 100 100" style="enable-background:new -249 151 100 100;" xml:space="preserve">
<g>
	<path d="M-163.8,151.7h-70.3c-1.1,0-2,0.9-2,2v64.7c0,0.3,0.1,0.5,0.3,0.7l32,30.9c0.2,0.2,0.4,0.3,0.7,0.3h39.3c1.1,0,2-0.9,2-2
		v-94.6C-161.8,152.6-162.7,151.7-163.8,151.7z M-205.1,241.9l-22.4-21.7h22c0.3,0,0.5,0.2,0.5,0.5L-205.1,241.9z M-166.8,245.3
		h-33.2v-28c0-1.1-0.9-2-2-2h-29.1v-58.6h64.3V245.3z"/>
	<path d="M-178.7,234.5l8.3-18.5v-52.9c0-2-1.6-3.6-3.6-3.6l-14,0c-1,0-2,0.4-2.7,1.2c-0.6,0.7-1,1.6-1,2.5l0,52.9l8.4,18.6
		C-182.3,236.5-179.5,236.5-178.7,234.5z M-186.6,164.4l11.3,0v6.8h-11.3L-186.6,164.4z M-185.2,213h-1.4l0-36.7h11.3V213h-1.4
		c-1.3,0-2.4,1.1-2.4,2.4v0.1c0,1.3,1.1,2.4,2.4,2.4l-4.3,9.5l-4.3-9.5h0c1.3,0,2.4-1.1,2.4-2.4v-0.1
		C-182.8,214-183.9,213-185.2,213z"/>
</g>
</svg>
