<?xml version="1.0" encoding="utf-8"?>
<!-- Generator: Adobe Illustrator 19.0.0, SVG Export Plug-In . SVG Version: 6.00 Build 0)  -->
<svg version="1.1" id="Layer_1" xmlns="http://www.w3.org/2000/svg" xmlns:xlink="http://www.w3.org/1999/xlink" x="0px" y="0px"
	 width="100px" height="100px" viewBox="-249 151 100 100" style="enable-background:new -249 151 100 100;" xml:space="preserve">
<path d="M-163.8,152.2h-70.3c-1.1,0-2,0.9-2,2v64.7c0,0.3,0.1,0.5,0.3,0.7l32,30.9c0.2,0.2,0.4,0.3,0.7,0.3h39.3c1.1,0,2-0.9,2-2
	v-94.6C-161.8,153.1-162.7,152.2-163.8,152.2z M-180.8,191.5c1.5,0,2.8,1.2,2.8,2.8s-1.2,2.8-2.8,2.8s-2.8-1.2-2.8-2.8
	S-182.3,191.5-180.8,191.5z M-205,242.4l-22.4-21.7h22c0.3,0,0.5,0.2,0.5,0.5L-205,242.4z M-166.8,245.8H-200v-28c0-1.1-0.9-2-2-2
	h-29.1v-58.6h47.5v4h-4.3c-1.4,0-2.5,1.1-2.5,2.5l0,0c0,1.4,1.1,2.5,2.5,2.5h4.3v8h-4.3c-1.4,0-2.5,1.1-2.5,2.5l0,0
	c0,1.4,1.1,2.5,2.5,2.5h4.3v7.8c-3.4,1.3-5.6,4.9-4.8,8.9c0.6,3,3,5.4,6,6c5,1,9.3-2.8,9.3-7.6c0-3.5-2.3-6.4-5.5-7.4v-2.7h5
	c1.4,0,2.5-1.1,2.5-2.5l0,0c0-1.4-1.1-2.5-2.5-2.5h-5v-7h5c1.4,0,2.5-1.1,2.5-2.5l0,0c0-1.4-1.1-2.5-2.5-2.5h-5v-10h11.8V245.8z"/>
</svg>
