<?xml version="1.0" encoding="utf-8"?>
<!-- Generator: Adobe Illustrator 19.0.0, SVG Export Plug-In . SVG Version: 6.00 Build 0)  -->
<svg version="1.1" id="Layer_1" xmlns="http://www.w3.org/2000/svg" xmlns:xlink="http://www.w3.org/1999/xlink" x="0px" y="0px"
	 width="100px" height="100px" viewBox="-249 151 100 100" style="enable-background:new -249 151 100 100;" xml:space="preserve">
<g>
	<path d="M-152.6,234.4l-39.1-36.5c0.2-0.4,0.5-0.7,0.7-1.1c6.3-11.2,4.5-24.9-4.6-34.2c-5.3-5.3-12.6-8.3-20.1-8.3
		c-7.7,0-14.8,2.9-20.2,8.3c-11,10.9-11.2,29.1-0.2,40.5c5.6,5.4,12.8,8.3,20.1,8.3c4.8,0,9.6-1.2,14.1-3.7c0.4-0.2,0.7-0.4,1.1-0.7
		l36.5,39.1c1.5,1.7,3.6,2.6,5.9,2.6h0.1c2.2,0,4.3-0.9,5.9-2.4l0,0c1.6-1.6,2.5-3.7,2.4-6S-151,235.9-152.6,234.4z M-204.4,203.2
		c-9.2,5.2-20.6,3.7-28.1-3.7c-9-9.4-8.9-24.4,0.2-33.4c4.4-4.4,10.3-6.8,16.6-6.8c6.2,0,12.2,2.5,16.5,6.8c7.4,7.6,9,19,3.8,28.2
		c-1,1.8-2.2,3.4-3.7,4.9l-0.3,0.3C-201,201-202.6,202.2-204.4,203.2L-204.4,203.2z M-156,242.7L-156,242.7c-0.6,0.6-1.5,0.9-2.4,1
		c-0.9,0-1.7-0.4-2.3-1l-36.1-38.7l1-1l0.1-0.1l1-1L-156,238c0.7,0.6,1,1.4,1,2.3S-155.3,242.1-156,242.7z"/>
	<path d="M-204.5,181.6h-22.6c-1.4,0-2.5,1.1-2.5,2.5c0,1.4,1.1,2.5,2.5,2.5h22.6c1.4,0,2.5-1.1,2.5-2.5
		C-202,182.7-203.1,181.6-204.5,181.6z"/>
</g>
</svg>
