<?xml version="1.0" encoding="utf-8"?>
<!-- Generator: Adobe Illustrator 19.0.0, SVG Export Plug-In . SVG Version: 6.00 Build 0)  -->
<svg version="1.1" id="Layer_1" xmlns="http://www.w3.org/2000/svg" xmlns:xlink="http://www.w3.org/1999/xlink" x="0px" y="0px"
	 width="100px" height="100px" viewBox="-345 257 100 100" style="enable-background:new -345 257 100 100;" xml:space="preserve">
<g>
	<path d="M-252.6,342.4l-39.1-36.5c0.2-0.4,0.5-0.7,0.7-1.1c6.3-11.2,4.5-24.9-4.6-34.2c-5.3-5.3-12.6-8.3-20.1-8.3
		c-7.7,0-14.8,2.9-20.2,8.3c-11,10.9-11.2,29.1-0.2,40.5c5.6,5.4,12.8,8.3,20.1,8.3c4.8,0,9.6-1.2,14.1-3.7c0.4-0.2,0.7-0.4,1.1-0.7
		l36.5,39.1c1.5,1.7,3.6,2.6,5.9,2.6c0,0,0.1,0,0.1,0c2.2,0,4.3-0.9,5.9-2.4v0c1.6-1.6,2.5-3.7,2.4-6S-251,343.9-252.6,342.4z
		 M-304.4,311.2c-9.2,5.2-20.6,3.7-28.1-3.7c-9-9.4-8.9-24.4,0.2-33.4c4.4-4.4,10.3-6.8,16.6-6.8c6.2,0,12.2,2.5,16.5,6.8
		c7.4,7.6,9,19,3.8,28.2c-1,1.8-2.2,3.4-3.7,4.9l-0.3,0.3C-301,309-302.6,310.2-304.4,311.2L-304.4,311.2z M-256,350.7L-256,350.7
		c-0.6,0.6-1.5,0.9-2.4,1c-0.9,0-1.7-0.4-2.3-1l-36.1-38.7l1-1c0,0,0.1-0.1,0.1-0.1l1-1L-256,346c0.7,0.6,1,1.4,1,2.3
		S-255.3,350.1-256,350.7z"/>
	<path d="M-313.3,289.6v-8.8c0-1.4-1.1-2.5-2.5-2.5l0,0c-1.4,0-2.5,1.1-2.5,2.5v8.8h-8.8c-1.4,0-2.5,1.1-2.5,2.5l0,0
		c0,1.4,1.1,2.5,2.5,2.5h8.8v8.8c0,1.4,1.1,2.5,2.5,2.5l0,0c1.4,0,2.5-1.1,2.5-2.5v-8.8h8.8c1.4,0,2.5-1.1,2.5-2.5l0,0
		c0-1.4-1.1-2.5-2.5-2.5H-313.3z"/>
</g>
</svg>
